<?xml version="1.0" encoding="UTF-8" standalone="no"?>
<!-- Created with Inkscape (http://www.inkscape.org/) -->

<svg
   width="210mm"
   height="297mm"
   viewBox="0 0 210 297"
   version="1.1"
   id="svg1"
   inkscape:version="1.4 (86a8ad7, 2024-10-11)"
   sodipodi:docname="drawing.svg"
   xmlns:inkscape="http://www.inkscape.org/namespaces/inkscape"
   xmlns:sodipodi="http://sodipodi.sourceforge.net/DTD/sodipodi-0.dtd"
   xmlns="http://www.w3.org/2000/svg"
   xmlns:svg="http://www.w3.org/2000/svg">
  <sodipodi:namedview
     id="namedview1"
     pagecolor="#ffffff"
     bordercolor="#999999"
     borderopacity="1"
     inkscape:showpageshadow="2"
     inkscape:pageopacity="0"
     inkscape:pagecheckerboard="0"
     inkscape:deskcolor="#d1d1d1"
     inkscape:document-units="mm"
     inkscape:zoom="1.0093364"
     inkscape:cx="397.29073"
     inkscape:cy="561.25984"
     inkscape:window-width="2560"
     inkscape:window-height="1351"
     inkscape:window-x="-9"
     inkscape:window-y="-9"
     inkscape:window-maximized="1"
     inkscape:current-layer="layer1" />
  <defs
     id="defs1" />
  <g
     inkscape:label="Layer 1"
     inkscape:groupmode="layer"
     id="layer1">
    <path
       style="fill:#000000;stroke-width:0.264583"
       id="path2"
       d="m 125.1644,127.9687 c -0.5413,-2.50865 -1.51077,-5.04167 -3.20276,-7.01866 -0.61177,-0.71481 -1.23313,-1.47131 -2.04696,-1.94344 -2.12583,-1.23326 -4.45364,-2.07975 -6.68046,-3.11962 -1.60784,-0.14876 -3.20899,-0.47068 -4.82351,-0.44628 -6.22517,0.0941 -12.391774,2.10204 -17.594255,5.50015 -1.904423,1.24391 -3.753826,2.6207 -5.331729,4.2591 -1.553787,1.61336 -2.655068,3.60824 -3.982604,5.41235 -0.802063,1.89143 -1.819942,3.70525 -2.406192,5.67428 -1.339707,4.49966 -1.364083,9.74571 1.577641,13.66268 2.530081,3.36885 6.177727,4.32539 9.893165,6.13463 1.439024,0.0925 2.910353,0.59435 4.317072,0.27736 3.765518,-0.84851 7.039092,-4.14946 9.499592,-6.7625 1.75688,-1.8658 3.34788,-3.88297 4.94146,-5.89005 3.57013,-4.49652 6.06239,-8.15462 9.36648,-12.82634 3.45331,-4.99485 6.77791,-10.0763 10.14914,-15.12631 0.53165,-0.79639 2.78213,-4.19244 3.59214,-5.2355 0.25944,-0.33409 0.57759,-0.61814 0.86639,-0.92721 -1.09723,-0.47195 -2.10509,-1.55242 -3.29169,-1.41586 -0.6424,0.0739 -0.30028,1.26459 -0.55569,1.85866 -0.48735,1.1335 -1.04749,2.23767 -1.66481,3.30597 -3.11463,5.38992 -7.07415,10.21568 -10.89576,15.10438 -2.51916,3.25561 -5.48386,6.96836 -7.79874,10.40185 -0.97363,1.44412 -1.93985,2.90125 -2.74736,4.44441 -0.68309,1.30539 -2.87216,5.32025 -1.0321,7.11309 1.96582,1.91536 4.73403,2.77871 7.10104,4.16806 2.89841,0.2265 5.78805,0.69889 8.69524,0.67949 8.72296,-0.0582 19.97643,-1.56625 28.42422,-2.82408 11.76409,-1.75161 18.61607,-3.19139 30.1606,-5.41407 0,0 -1.82609,-1.27335 -1.82609,-1.27335 v 0 c -11.8235,2.37051 -17.92438,3.76215 -30.05233,5.47119 -8.93217,1.2587 -19.90121,2.54764 -29.05251,2.2998 -3.02544,-0.0819 -6.00934,-0.72657 -9.01401,-1.08986 -1.75475,-0.65375 -2.24457,-0.45801 -1.92815,-3.59793 0.13712,-1.36075 0.83706,-2.61411 1.43791,-3.8427 0.76117,-1.5564 1.68885,-3.02872 2.63304,-4.48138 2.40877,-3.70594 5.01261,-6.93264 7.71044,-10.43667 3.88106,-4.87945 7.90721,-9.68822 11.26287,-14.95712 0.67154,-1.05442 1.29275,-2.14218 1.86683,-3.25268 0.33374,-0.6456 1.2458,-1.396 0.8521,-2.00688 -0.76231,-1.18281 -2.38907,-1.48759 -3.58361,-2.23139 -1.48376,2.06298 -2.75539,4.26847 -4.09565,6.42574 -3.19895,5.14899 -6.43286,10.27783 -9.8453,15.28915 -3.39908,4.84944 -5.60563,8.17927 -9.36387,12.79439 -1.61453,1.98265 -3.24547,3.96116 -5.04031,5.7822 -2.52381,2.56064 -5.790276,5.65603 -9.570291,6.38758 -1.399074,0.27077 -2.83927,-0.24786 -4.258905,-0.3718 -2.038805,0.3019 -1.563373,0.4636 -3.964914,-2.53931 -3.040959,-3.80245 -3.183252,-9.00284 -1.92396,-13.50559 0.547243,-1.95673 1.540151,-3.76046 2.310226,-5.64069 1.308692,-1.78259 2.38797,-3.75889 3.926078,-5.34776 1.569825,-1.62165 3.414186,-2.97755 5.313518,-4.19682 5.224473,-3.35383 11.437238,-5.27914 17.660048,-5.21961 1.63563,0.0156 3.24754,0.39438 4.87132,0.59157 0.16939,-0.14907 0.31051,-0.55602 0.50818,-0.4472 0.80638,0.4439 1.43563,1.16542 2.04682,1.8537 1.66273,1.87246 2.62767,4.32017 3.06877,6.75105 z" />
  </g>
</svg>
