<?xml version="1.0" encoding="UTF-8" standalone="no"?>
<!-- Created with Inkscape (http://www.inkscape.org/) -->

<svg
   width="210mm"
   height="297mm"
   viewBox="0 0 210 297"
   version="1.1"
   id="svg1"
   inkscape:version="1.4 (86a8ad7, 2024-10-11)"
   sodipodi:docname="tvzZ.svg"
   xmlns:inkscape="http://www.inkscape.org/namespaces/inkscape"
   xmlns:sodipodi="http://sodipodi.sourceforge.net/DTD/sodipodi-0.dtd"
   xmlns="http://www.w3.org/2000/svg"
   xmlns:svg="http://www.w3.org/2000/svg">
  <sodipodi:namedview
     id="namedview1"
     pagecolor="#ffffff"
     bordercolor="#999999"
     borderopacity="1"
     inkscape:showpageshadow="2"
     inkscape:pageopacity="0"
     inkscape:pagecheckerboard="0"
     inkscape:deskcolor="#d1d1d1"
     inkscape:document-units="mm"
     showgrid="true"
     showguides="true"
     inkscape:zoom="5.7117319"
     inkscape:cx="350.15649"
     inkscape:cy="522.52103"
     inkscape:window-width="2560"
     inkscape:window-height="1351"
     inkscape:window-x="-9"
     inkscape:window-y="-9"
     inkscape:window-maximized="1"
     inkscape:current-layer="svg1">
    <inkscape:grid
       id="grid1"
       units="mm"
       originx="0"
       originy="0"
       spacingx="0.99999998"
       spacingy="1"
       empcolor="#0099e5"
       empopacity="0.30196078"
       color="#0099e5"
       opacity="0.14901961"
       empspacing="5"
       enabled="true"
       visible="true" />
    <sodipodi:guide
       position="95.02427,142.20874"
       orientation="0,-1"
       id="guide1"
       inkscape:locked="false" />
    <sodipodi:guide
       position="94.893202,156.88835"
       orientation="0,-1"
       id="guide2"
       inkscape:locked="false" />
    <sodipodi:guide
       position="87.906074,157.65706"
       orientation="1,0"
       id="guide3"
       inkscape:locked="false" />
    <sodipodi:guide
       position="110.22815,157.01942"
       orientation="1,0"
       id="guide4"
       inkscape:locked="false" />
    <sodipodi:guide
       position="90.52779,147.73898"
       orientation="0,-1"
       id="guide5"
       inkscape:locked="false" />
  </sodipodi:namedview>
  <defs
     id="defs1" />
  <path
     style="fill:#ffffff;fill-opacity:0;stroke:#000000;stroke-width:2;stroke-linecap:round;stroke-linejoin:round"
     d="m 88.430197,152.44829 c 0.146576,0.29144 0.158194,0.6271 0.277937,0.92645 0.346998,0.8675 1.080529,1.98252 2.038204,2.26982 0.148635,0.0446 0.308047,0.0463 0.463227,0.0463 0.802931,0 0.989674,-0.23497 1.667621,-0.60219 0.471972,-0.25566 0.984743,-0.44467 1.343359,-0.88014 0.114474,-0.139 0.187206,-0.30768 0.277937,-0.46323 0.377589,-0.64729 0.403497,-0.69324 0.741166,-1.38968 0.460418,-0.94961 0.806215,-1.92487 1.158068,-2.91833 0.450583,-1.27224 0.948823,-2.53898 1.297038,-3.84479 0.126442,-0.47416 0.208867,-0.95905 0.32426,-1.43601 0.232495,-0.96098 0.484963,-1.91708 0.741164,-2.87201 0.211611,-0.78873 0.460317,-1.56783 0.64852,-2.36247 0.247174,-1.04362 0.118592,-1.23895 0.370581,-2.26981 0.08116,-0.33203 0.232391,-0.64356 0.324261,-0.97278 0.10286,-0.36857 0.34279,-1.54325 0.41691,-1.94556 0.19857,-1.07798 0.38356,-2.15597 0.74116,-3.19627 0.051,-0.14829 0.40274,-1.09163 0.50955,-1.29704 0.21383,-0.41121 0.47851,-0.79449 0.69484,-1.20439 0.16167,-0.30632 0.56443,-1.13495 0.83381,-1.52865 0.0994,-0.1453 0.22273,-0.27308 0.32426,-0.41691 0.42196,-0.59777 0.0245,-0.15593 0.50955,-0.69484 0.0803,-0.0892 0.36848,-0.36277 0.46323,-0.4169 0.0808,-0.0462 0.51175,-0.16802 0.6022,-0.0927 0.0692,0.0576 0.0827,0.16131 0.13896,0.23161 0.20103,0.25129 0.45318,0.39681 0.6022,0.69485 0.14778,0.29555 0.16435,0.61253 0.23161,0.92645 0.0409,0.19098 0.14437,0.3649 0.18529,0.55587 0.18484,0.86256 0.23162,1.80921 0.23162,2.68673 0,0.47554 0.0297,0.96144 0,1.436 -0.0267,0.42634 -0.11317,0.83245 -0.18529,1.25072 -0.55683,3.22962 0.12121,-0.46262 -0.23162,1.38968 -0.0231,0.12128 -0.14791,0.83574 -0.18529,0.97278 -0.15598,0.57193 -0.4303,1.10284 -0.60219,1.66762 -0.0459,0.15064 -0.0545,0.31046 -0.0926,0.46323 -0.1406,0.56241 -0.28737,1.16125 -0.46323,1.71394 -0.14425,0.45337 -0.34696,0.87832 -0.46322,1.34336 -0.28762,1.15046 0.13659,-0.29592 -0.23162,1.0191 -0.31603,1.1287 -0.0553,0.0577 -0.4169,1.34336 -0.3625,1.28889 -0.62003,2.6513 -0.74117,3.98376 -0.0433,0.47598 -0.10858,1.00502 -0.0463,1.48233 0.0807,0.61897 0.32141,1.17235 0.50955,1.76027 0.0537,0.16768 0.0772,0.34471 0.13897,0.50955 0.36488,0.97302 1.34052,2.29566 2.13085,2.91833 0.16893,0.1331 0.38866,0.20599 0.60219,0.23162 1.32688,0.15922 1.9051,0.16525 3.05731,-0.46323 0.43652,-0.2381 0.85279,-0.52853 1.20439,-0.88013 0.30591,-0.30591 0.49411,-0.71028 0.74116,-1.06543"
     id="path32" />
  <path
     style="fill:#ffffff;fill-opacity:0;stroke:#000000;stroke-width:2;stroke-linecap:round;stroke-linejoin:round"
     d="m 103.02187,144.15651 c -0.45657,-0.77752 -1.17006,-1.30371 -1.89923,-1.80659 -0.68829,-0.47468 -1.411623,-0.92611 -2.223492,-1.15807 -0.451279,-0.12894 -0.931304,-0.18979 -1.389684,-0.27794 -0.154633,-0.0297 -0.306369,-0.0788 -0.463227,-0.0926 -0.36947,-0.0326 -0.741448,-0.0252 -1.111748,-0.0463 -0.671023,-0.0383 -1.34688,-0.11186 -1.991881,0.13897 -0.314434,0.12228 -0.545976,0.33632 -0.787487,0.55588 -0.580716,0.52792 -0.768917,0.84279 -0.880132,1.62129 -0.01458,0.10197 -0.09267,0.44773 -0.04632,0.55588 0.372904,0.87011 1.085041,1.50714 1.899235,1.94556 0.709094,0.38182 1.551024,0.51163 2.316139,0.74116 0.360153,0.10804 0.702108,0.2737 1.065424,0.37058 0.242871,0.0648 0.494686,0.0897 0.741164,0.13897 0.293986,0.0588 0.582842,0.14652 0.880134,0.18529 1.435695,0.18727 2.914675,0.0655 4.354335,0.0927 4.04992,0.0764 2.68186,0.0634 7.68958,0.83381"
     id="path33" />
</svg>
