<?xml version="1.0" encoding="UTF-8" standalone="no"?>
<!-- Created with Inkscape (http://www.inkscape.org/) -->

<svg
   width="210mm"
   height="297mm"
   viewBox="0 0 210 297"
   version="1.1"
   id="svg1"
   inkscape:version="1.4 (86a8ad7, 2024-10-11)"
   sodipodi:docname="B.svg"
   xmlns:inkscape="http://www.inkscape.org/namespaces/inkscape"
   xmlns:sodipodi="http://sodipodi.sourceforge.net/DTD/sodipodi-0.dtd"
   xmlns="http://www.w3.org/2000/svg"
   xmlns:svg="http://www.w3.org/2000/svg">
  <sodipodi:namedview
     id="namedview1"
     pagecolor="#ffffff"
     bordercolor="#999999"
     borderopacity="1"
     inkscape:showpageshadow="2"
     inkscape:pageopacity="0"
     inkscape:pagecheckerboard="0"
     inkscape:deskcolor="#d1d1d1"
     inkscape:document-units="mm"
     showgrid="true"
     showguides="true"
     inkscape:zoom="8.0746913"
     inkscape:cx="377.84726"
     inkscape:cy="528.0078"
     inkscape:window-width="2560"
     inkscape:window-height="1351"
     inkscape:window-x="-9"
     inkscape:window-y="-9"
     inkscape:window-maximized="1"
     inkscape:current-layer="svg1">
    <inkscape:grid
       id="grid1"
       units="mm"
       originx="0"
       originy="0"
       spacingx="0.99999998"
       spacingy="1"
       empcolor="#0099e5"
       empopacity="0.30196078"
       color="#0099e5"
       opacity="0.14901961"
       empspacing="5"
       enabled="true"
       visible="true" />
    <sodipodi:guide
       position="95.02427,142.20874"
       orientation="0,-1"
       id="guide1"
       inkscape:locked="false" />
    <sodipodi:guide
       position="94.893202,156.88835"
       orientation="0,-1"
       id="guide2"
       inkscape:locked="false" />
    <sodipodi:guide
       position="94.762134,159.37865"
       orientation="1,0"
       id="guide3"
       inkscape:locked="false" />
    <sodipodi:guide
       position="90.52779,147.73898"
       orientation="0,-1"
       id="guide5"
       inkscape:locked="false" />
  </sodipodi:namedview>
  <defs
     id="defs1" />
  <path
     id="path14"
     style="fill:none;stroke:#000000;stroke-width:2;stroke-linecap:round;stroke-linejoin:round"
     d="m 114.45503,129.79001 c -1.35478,0.54191 -2.40543,1.7096 -3.2768,2.81792 -1.74835,2.22377 -3.19865,4.72486 -4.18269,7.38559 z m -7.45949,10.20351 -1.09244,1.49448 c -0.0689,-0.37654 -0.57017,-0.36262 -1.17978,-0.45888 -0.0276,-0.004 -0.43587,-0.0914 -0.52451,-0.0982 -0.3906,-0.03 -0.80487,0.0168 -1.17926,0.13074 -0.15534,0.0473 -0.30355,0.11654 -0.45889,0.16382 -0.25709,0.0782 -0.52925,0.1165 -0.78651,0.19689 -0.24821,0.0776 -0.48012,0.19876 -0.72089,0.29507 -0.23274,0.0931 -0.30493,0.0974 -0.524,0.22892 -0.0806,0.0483 -0.15299,0.1092 -0.22944,0.16382 -0.0983,0.0655 -0.19323,0.13699 -0.29507,0.19689 -0.0842,0.0495 -0.180718,0.0771 -0.262001,0.13125 -0.154763,0.10318 -0.278386,0.24679 -0.425814,0.36019 -0.07448,0.0573 -0.163004,0.0974 -0.229443,0.16381 -0.07723,0.0772 -0.122362,0.18216 -0.196887,0.262 -0.07922,0.0849 -0.177453,0.14988 -0.262,0.22945 -0.19122,0.17997 -0.377901,0.3651 -0.557072,0.55707 -0.223784,0.23977 -0.36899,0.52006 -0.557072,0.78651 -0.16025,0.22702 -0.231081,0.28014 -0.360184,0.524 -0.192633,0.36386 -0.338943,0.76598 -0.491443,1.14722 -0.03089,0.0772 -0.07753,0.149 -0.0987,0.22944 -0.03382,0.1285 -0.03566,0.26317 -0.06511,0.39274 -0.183277,0.80641 -0.02419,-0.14713 -0.163814,0.65578 -0.107186,0.61631 -0.1394,1.24425 -0.164331,1.86758 -0.03135,0.78375 -0.02772,1.47062 0.03307,2.26085 0.01847,0.24008 0.02603,0.42674 0.09819,0.65525 0.102592,0.32487 0.249321,0.62898 0.425814,0.91778 0.06642,0.10869 0.115345,0.22978 0.196887,0.32763 0.210587,0.25271 0.631597,0.55765 0.917257,0.72088 0.252817,0.14447 0.553655,0.3204 0.852144,0.36019 0.08661,0.0115 0.174815,-0.006 0.262,0 0.351634,0.0234 0.728156,0.14253 1.081586,0.0656 0.0641,-0.0139 0.37008,-0.28475 0.42582,-0.32763 0.0745,-0.0573 0.16059,-0.0999 0.22944,-0.16382 0.2329,-0.21626 0.54185,-0.58957 0.72088,-0.85214 0.29276,-0.42938 0.55114,-0.90138 0.91726,-1.27796 0.52023,-0.5351 1.13861,-0.98264 1.60559,-1.57251 0.0585,-0.0739 0.1079,-0.15542 0.15709,-0.23668 0.0197,-0.0976 0.0411,-0.19495 0.0692,-0.29042 0.17753,-0.60201 0.47919,-1.20556 0.84749,-1.75545 0.0658,-0.28442 0.14869,-0.5855 0.27234,-0.94206 1.3e-4,-3.6e-4 3.9e-4,-7.1e-4 5.2e-4,-0.001 0.0299,-0.23051 0.054,-0.45755 0.0625,-0.51004 0.0251,-0.15435 0.0654,-0.30598 0.0982,-0.45889 0.0219,-0.18568 0.0367,-0.37185 0.0656,-0.55655 0.17131,-1.09211 0.41981,-2.17223 0.68781,-3.24425 0.14778,-0.59111 0.27228,-1.18938 0.45889,-1.7694 0.10485,-0.32588 0.22013,-0.64858 0.339,-0.96997 z" />
  <path
     style="fill:#ffffff;fill-opacity:0;stroke:#000000;stroke-width:2;stroke-linecap:round;stroke-linejoin:round"
     d="m 113.11165,131.16626 c 0.39482,-0.26767 0.76707,-0.5555 1.11408,-0.88471 0.25773,-0.24452 0.46888,-0.5412 0.75364,-0.75364 0.40838,-0.30466 0.83942,-0.59274 1.31068,-0.78641 1.32216,-0.54335 3.86991,0.18366 4.68568,0.29491"
     id="path17" />
  <path
     style="fill:#ffffff;fill-opacity:0;stroke:#000000;stroke-width:2;stroke-linecap:round;stroke-linejoin:round"
     d="m 106.95146,143.29005 c 5.3e-4,0.9636 0.0698,1.91869 0,2.88349 -0.17595,2.43133 -0.0601,4.70945 -1.90049,6.52064 -0.75189,0.73995 -2.08766,1.31483 -3.04733,1.76941"
     id="path1" />
  <path
     style="fill:#ffffff;fill-opacity:0;stroke:#000000;stroke-width:2;stroke-linecap:round;stroke-linejoin:round"
     d="m 103.21602,153.25121 c 0.0908,-0.0838 0.17133,-0.17832 0.26213,-0.26213 0.27369,-0.25263 0.56291,-0.4823 0.81918,-0.75364 0.37896,-0.40125 0.26872,-0.32043 0.68811,-0.78641 0.16533,-0.1837 0.34951,-0.34952 0.52427,-0.52427 0.0546,-0.0546 0.12099,-0.0996 0.16383,-0.16384 0.0461,-0.0692 0.0564,-0.15752 0.0983,-0.22937 0.0352,-0.0604 0.0976,-0.10244 0.13107,-0.16383 0.23542,-0.43161 0.16384,-0.97083 0.16384,-1.44175"
     id="path2" />
</svg>
