<?xml version="1.0" encoding="UTF-8" standalone="no"?>
<!-- Created with Inkscape (http://www.inkscape.org/) -->

<svg
   width="210mm"
   height="297mm"
   viewBox="0 0 210 297"
   version="1.1"
   id="svg1"
   inkscape:version="1.4 (86a8ad7, 2024-10-11)"
   sodipodi:docname="pZ.svg"
   xmlns:inkscape="http://www.inkscape.org/namespaces/inkscape"
   xmlns:sodipodi="http://sodipodi.sourceforge.net/DTD/sodipodi-0.dtd"
   xmlns="http://www.w3.org/2000/svg"
   xmlns:svg="http://www.w3.org/2000/svg">
  <sodipodi:namedview
     id="namedview1"
     pagecolor="#ffffff"
     bordercolor="#999999"
     borderopacity="1"
     inkscape:showpageshadow="2"
     inkscape:pageopacity="0"
     inkscape:pagecheckerboard="0"
     inkscape:deskcolor="#d1d1d1"
     inkscape:document-units="mm"
     showgrid="true"
     showguides="true"
     inkscape:zoom="5.7117319"
     inkscape:cx="350.15649"
     inkscape:cy="508.51477"
     inkscape:window-width="2560"
     inkscape:window-height="1351"
     inkscape:window-x="-9"
     inkscape:window-y="-9"
     inkscape:window-maximized="1"
     inkscape:current-layer="svg1">
    <inkscape:grid
       id="grid1"
       units="mm"
       originx="0"
       originy="0"
       spacingx="0.99999998"
       spacingy="1"
       empcolor="#0099e5"
       empopacity="0.30196078"
       color="#0099e5"
       opacity="0.14901961"
       empspacing="5"
       enabled="true"
       visible="true" />
    <sodipodi:guide
       position="95.02427,142.20874"
       orientation="0,-1"
       id="guide1"
       inkscape:locked="false" />
    <sodipodi:guide
       position="94.893202,156.88835"
       orientation="0,-1"
       id="guide2"
       inkscape:locked="false" />
    <sodipodi:guide
       position="87.906074,157.65706"
       orientation="1,0"
       id="guide3"
       inkscape:locked="false" />
    <sodipodi:guide
       position="110.22815,157.01942"
       orientation="1,0"
       id="guide4"
       inkscape:locked="false" />
    <sodipodi:guide
       position="90.52779,147.73898"
       orientation="0,-1"
       id="guide5"
       inkscape:locked="false" />
  </sodipodi:namedview>
  <defs
     id="defs1" />
  <path
     style="fill:#ffffff;fill-opacity:0;stroke:#000000;stroke-width:2;stroke-linecap:round;stroke-linejoin:round"
     d="m 92.923507,129.05528 c 0.02968,0.57763 0.346017,1.10051 0.416907,1.66762 0.0077,0.0613 -0.01212,0.12473 0,0.18529 0.09618,0.48092 0.101753,0.0721 0.138967,0.55587 0.0083,0.10777 0,0.21618 0,0.32426 0.01545,0.15442 0.03008,0.30891 0.04632,0.46323 0.05828,0.55364 0.154419,1.11189 0.18529,1.66762 0.01543,0.27751 -0.01262,0.55616 0,0.83381 0.02426,0.53367 0.0789,0.74719 0.09265,1.29704 0.01847,0.73902 0,1.48361 0,2.2235 0,0.56876 0.02273,1.14567 0,1.71394 -0.0231,0.57719 -0.139489,1.14141 -0.185291,1.71394 -0.168981,2.11226 0.210847,-1.19586 -0.04632,1.20439 -0.02392,0.40697 -0.138731,0.80089 -0.18529,1.2044 -0.02484,0.21529 -0.0205,0.43333 -0.04632,0.64851 -0.223198,1.85999 0.02648,-0.91991 -0.13897,1.06543 -0.03208,0.385 -0.01286,0.77319 -0.04632,1.15807 -0.01365,0.15687 -0.07616,0.30662 -0.09264,0.46323 -0.01455,0.1382 0.01624,0.27889 0,0.4169 -0.01487,0.12646 -0.07685,0.24424 -0.09265,0.37058 -0.01532,0.12258 0.0088,0.24737 0,0.37059 -0.04496,0.62946 -0.192399,1.37653 -0.32426,1.99188 -0.02289,0.10676 -0.02344,0.2175 -0.04632,0.32426 -0.04711,0.21983 -0.13474,0.42945 -0.185293,0.64851 -0.0742,0.32155 -0.125209,0.69411 -0.324261,0.97278 -0.03808,0.0533 -0.102629,0.0845 -0.138967,0.13897 -0.08186,0.12279 -0.10488,0.31552 -0.231613,0.41691 -0.03813,0.0305 -0.09834,0.0192 -0.13897,0.0463 -0.216794,0.14453 -0.05918,0.15744 -0.324257,0.27793 -0.102336,0.0465 -0.220496,0.0494 -0.324261,0.0926 -0.159355,0.0664 -0.307025,0.15811 -0.463227,0.23161 -0.652486,0.30706 -0.765212,0.46624 -1.482331,0.55588"
     id="path54" />
  <path
     style="fill:#ffffff;fill-opacity:0;stroke:#000000;stroke-width:2;stroke-linecap:round;stroke-linejoin:round"
     d="m 93.849964,141.42346 c 0.07721,-0.0155 0.157467,-0.0198 0.231614,-0.0463 0.143216,-0.0512 0.275285,-0.12987 0.416904,-0.18529 0.785598,-0.30741 1.600012,-0.55077 2.408785,-0.78749 0.74481,-0.21799 1.101727,-0.33497 1.852911,-0.46323 1.254332,-0.21415 0.739995,-0.10882 1.945562,-0.13896 0.95892,-0.024 1.91199,-0.0463 2.87201,-0.0463 0.99976,0 1.96448,0.0176 2.96466,0.0926 0.36696,0.0275 0.77323,0.0624 1.11174,0.23161 0.47289,0.23645 0.5148,0.73825 0.6022,1.2044 0.0497,0.26504 0.12353,0.52499 0.18529,0.78748 0.16385,0.69636 0.47168,1.3689 0.55587,2.08453 0.0289,0.24536 0,0.49411 0,0.74116 0,1.14716 -0.10843,2.32804 -0.46322,3.42789 -0.1166,0.36146 -0.34569,0.67647 -0.50955,1.0191 -0.0805,0.16832 -0.1426,0.34558 -0.23162,0.50955 -0.36585,0.67393 -1.08265,2.04969 -1.76026,2.50143 -0.2011,0.13407 -0.43527,0.21052 -0.64852,0.32426 -0.21969,0.11717 -0.41647,0.28034 -0.64852,0.37058 -0.16408,0.0638 -0.34113,0.0877 -0.50955,0.13897 -0.48572,0.14783 -0.87975,0.29593 -1.38969,0.32426 -1.20148,0.0667 -2.22147,-0.27753 -3.381558,-0.50955 -1.02833,-0.20567 -2.059713,-0.26932 -3.103629,-0.32426"
     id="path55" />
  <path
     style="fill:#ffffff;fill-opacity:0;stroke:#000000;stroke-width:2;stroke-linecap:round;stroke-linejoin:round"
     d="m 89.310331,135.63312 c 0.120126,-0.0614 0.195005,0.8155 -0.04632,0.69484 -0.830987,-0.4155 -1.605383,-1.19447 -2.084525,-1.94556 -0.236347,-0.37049 -0.308623,-0.82481 -0.416904,-1.25071 -0.545272,-2.14474 -0.450384,-4.31573 1.852912,-5.69771 2.44648,-1.46789 5.193421,-2.4064 7.921196,-3.24259 4.84664,-1.48573 8.81493,-1.7586 13.75786,-1.80659 1.14424,-0.0111 2.28526,0.12353 3.42789,0.18529"
     id="path56" />
</svg>
