<?xml version="1.0" encoding="UTF-8" standalone="no"?>
<!-- Created with Inkscape (http://www.inkscape.org/) -->

<svg
   width="210mm"
   height="297mm"
   viewBox="0 0 210 297"
   version="1.1"
   id="svg1"
   inkscape:version="1.4 (86a8ad7, 2024-10-11)"
   sodipodi:docname="ts.svg"
   xmlns:inkscape="http://www.inkscape.org/namespaces/inkscape"
   xmlns:sodipodi="http://sodipodi.sourceforge.net/DTD/sodipodi-0.dtd"
   xmlns="http://www.w3.org/2000/svg"
   xmlns:svg="http://www.w3.org/2000/svg">
  <sodipodi:namedview
     id="namedview1"
     pagecolor="#ffffff"
     bordercolor="#999999"
     borderopacity="1"
     inkscape:showpageshadow="2"
     inkscape:pageopacity="0"
     inkscape:pagecheckerboard="0"
     inkscape:deskcolor="#d1d1d1"
     inkscape:document-units="mm"
     showgrid="true"
     showguides="true"
     inkscape:zoom="8.0746913"
     inkscape:cx="377.84726"
     inkscape:cy="557.7303"
     inkscape:window-width="2560"
     inkscape:window-height="1351"
     inkscape:window-x="-9"
     inkscape:window-y="-9"
     inkscape:window-maximized="1"
     inkscape:current-layer="svg1">
    <inkscape:grid
       id="grid1"
       units="mm"
       originx="0"
       originy="0"
       spacingx="0.99999998"
       spacingy="1"
       empcolor="#0099e5"
       empopacity="0.30196078"
       color="#0099e5"
       opacity="0.14901961"
       empspacing="5"
       enabled="true"
       visible="true" />
    <sodipodi:guide
       position="95.02427,142.20874"
       orientation="0,-1"
       id="guide1"
       inkscape:locked="false" />
    <sodipodi:guide
       position="94.893202,156.88835"
       orientation="0,-1"
       id="guide2"
       inkscape:locked="false" />
    <sodipodi:guide
       position="94.762134,159.37865"
       orientation="1,0"
       id="guide3"
       inkscape:locked="false" />
    <sodipodi:guide
       position="110.22815,157.01942"
       orientation="1,0"
       id="guide4"
       inkscape:locked="false" />
    <sodipodi:guide
       position="90.52779,147.73898"
       orientation="0,-1"
       id="guide5"
       inkscape:locked="false" />
  </sodipodi:namedview>
  <defs
     id="defs1" />
  <path
     style="fill:none;stroke:#000000;stroke-width:2;stroke-linecap:round;stroke-linejoin:round"
     d="m 99.120144,143.09345 c 0.774999,0.0482 1.170666,-0.013 1.802186,-0.45874 0.29759,-0.21006 0.66609,-0.49492 0.88471,-0.78641 0.0733,-0.0977 0.10016,-0.22347 0.16383,-0.32767 0.057,-0.0932 0.13362,-0.1729 0.1966,-0.26214 0.0681,-0.0965 0.12362,-0.202 0.19661,-0.2949 0.13056,-0.16618 0.33005,-0.26051 0.45874,-0.42597 0.0484,-0.0622 0.0958,-0.12615 0.13106,-0.1966 0.032,-0.064 0.0183,-0.22211 0.0983,-0.26214 0.0901,-0.045 0.16561,0.11867 0.22937,0.19661 0.29805,0.36427 0.59643,0.70386 1.04855,0.8847 0.39991,0.15997 0.8478,0.26182 1.27791,0.29491 0.0653,0.005 0.13157,-0.008 0.1966,0 0.11053,0.0138 0.21679,0.055 0.32767,0.0655 0.1196,0.0114 0.24071,-0.01 0.36044,0 0.14316,0.0119 0.28251,0.058 0.42597,0.0655 0.26596,0.014 0.99397,0.0421 1.34345,-0.0328 0.19456,-0.0417 0.23058,-0.0987 0.42597,-0.16384 0.32217,-0.10739 0.22326,-0.0178 0.55703,-0.16383 0.26714,-0.11688 0.18349,-0.12987 0.42598,-0.26214 0.0516,-0.0282 0.11677,-0.0302 0.16383,-0.0655 0.26081,-0.19561 -0.0935,-0.0871 0.26214,-0.22937 0.0101,-0.004 0.005,0.023 0,0.0328 -0.0285,0.057 -0.063,0.11084 -0.0983,0.16383 -0.0521,0.0782 -0.11061,0.15194 -0.16384,0.22937 -0.26102,0.37966 -0.54266,0.75686 -0.78641,1.14684 -0.10627,0.17003 -0.19035,0.35319 -0.2949,0.52428 -0.0655,0.10922 -0.13107,0.21844 -0.1966,0.32767 -0.0546,0.0765 -0.11404,0.14969 -0.16384,0.22937 -0.17672,0.28276 -0.29727,0.59407 -0.45874,0.8847 -0.15545,0.27982 -0.32832,0.55851 -0.45873,0.85194 -0.0421,0.0947 -0.0635,0.19733 -0.0983,0.29491 -0.06,0.16809 -0.1498,0.33235 -0.22937,0.4915 -0.0285,0.057 -0.0738,0.10505 -0.0983,0.16384 -0.10225,0.2454 -0.14823,0.50954 -0.26214,0.75364 -0.14909,0.31948 -0.32853,0.64196 -0.42597,0.98301 -0.19267,0.67433 0.27352,-0.57649 -0.16384,0.5898 -0.0808,0.21561 -0.0721,0.0526 -0.13106,0.32768 -0.0184,0.0861 -0.0219,0.17475 -0.0328,0.26213 -0.0219,0.0983 -0.0425,0.19688 -0.0655,0.2949 -0.0537,0.22804 -0.10228,0.46239 -0.16384,0.68811 -0.0182,0.0666 -0.0535,0.12857 -0.0655,0.1966 -0.021,0.11881 -0.0105,0.24186 -0.0328,0.36044 -0.0109,0.0578 -0.0559,0.10582 -0.0655,0.16383 -0.0297,0.17799 0,0.4081 0,0.58981 0,0.34386 -0.0359,0.70709 0,1.04854 0.015,0.14287 0.0505,0.2831 0.0655,0.42598 0.0114,0.10862 -0.0135,0.21928 0,0.32766 0.0547,0.43785 0.0135,-0.22566 0.0655,0.29491 0.005,0.0543 -0.0107,0.11028 0,0.16383 0.0115,0.0577 0.0501,0.10709 0.0655,0.16384 0.0588,0.21573 0.0912,0.51717 0.26213,0.6881 0.70494,0.70494 2.56179,0.37039 3.2767,-0.0655 0.40089,-0.24445 0.56182,-0.48829 0.81918,-0.81918"
     id="path2" />
</svg>
