<?xml version="1.0" encoding="UTF-8" standalone="no"?>
<!-- Created with Inkscape (http://www.inkscape.org/) -->

<svg
   width="210mm"
   height="297mm"
   viewBox="0 0 210 297"
   version="1.1"
   id="svg1"
   inkscape:version="1.4 (86a8ad7, 2024-10-11)"
   sodipodi:docname="pZ.svg"
   xmlns:inkscape="http://www.inkscape.org/namespaces/inkscape"
   xmlns:sodipodi="http://sodipodi.sourceforge.net/DTD/sodipodi-0.dtd"
   xmlns="http://www.w3.org/2000/svg"
   xmlns:svg="http://www.w3.org/2000/svg">
  <sodipodi:namedview
     id="namedview1"
     pagecolor="#ffffff"
     bordercolor="#999999"
     borderopacity="1"
     inkscape:showpageshadow="2"
     inkscape:pageopacity="0"
     inkscape:pagecheckerboard="0"
     inkscape:deskcolor="#d1d1d1"
     inkscape:document-units="mm"
     showgrid="true"
     showguides="true"
     inkscape:zoom="5.7117319"
     inkscape:cx="350.15649"
     inkscape:cy="522.52103"
     inkscape:window-width="2560"
     inkscape:window-height="1351"
     inkscape:window-x="-9"
     inkscape:window-y="-9"
     inkscape:window-maximized="1"
     inkscape:current-layer="svg1">
    <inkscape:grid
       id="grid1"
       units="mm"
       originx="0"
       originy="0"
       spacingx="0.99999998"
       spacingy="1"
       empcolor="#0099e5"
       empopacity="0.30196078"
       color="#0099e5"
       opacity="0.14901961"
       empspacing="5"
       enabled="true"
       visible="true" />
    <sodipodi:guide
       position="95.02427,142.20874"
       orientation="0,-1"
       id="guide1"
       inkscape:locked="false" />
    <sodipodi:guide
       position="94.893202,156.88835"
       orientation="0,-1"
       id="guide2"
       inkscape:locked="false" />
    <sodipodi:guide
       position="87.906074,157.65706"
       orientation="1,0"
       id="guide3"
       inkscape:locked="false" />
    <sodipodi:guide
       position="110.22815,157.01942"
       orientation="1,0"
       id="guide4"
       inkscape:locked="false" />
    <sodipodi:guide
       position="90.52779,147.73898"
       orientation="0,-1"
       id="guide5"
       inkscape:locked="false" />
  </sodipodi:namedview>
  <defs
     id="defs1" />
  <path
     style="fill:#ffffff;fill-opacity:0;stroke:#000000;stroke-width:2;stroke-linecap:round;stroke-linejoin:round"
     d="m 109.69236,128.0825 c 0.0147,0.6282 -0.3953,1.15094 -0.50955,1.76027 -0.38468,2.0516 -0.6972,4.13213 -1.2044,6.16093 -0.18408,0.73632 -0.41861,1.4546 -0.64852,2.17717 -0.15119,0.47519 -0.25921,0.96293 -0.4169,1.43601 -0.20271,0.60812 -0.45823,1.19342 -0.64852,1.80658 -0.1863,0.60029 -0.34453,1.2015 -0.50955,1.80659 -0.17476,0.64079 -0.40103,1.26701 -0.6022,1.89924 -0.19382,0.60915 -0.34514,1.23637 -0.50955,1.85291 -0.23847,0.89425 -0.70935,1.70208 -1.06542,2.54775 -0.18346,0.43573 -0.29905,0.92472 -0.37058,1.38969 -0.0647,0.42066 -0.13977,0.8302 -0.0463,1.25071 0.0138,0.0621 0.0309,0.12353 0.0463,0.18529 0.0309,0.0772 0.0725,0.15095 0.0926,0.23162 0.0113,0.0449 -0.0127,0.0944 0,0.13896 0.019,0.0664 0.0737,0.1189 0.0927,0.18529 0.0127,0.0445 -0.0163,0.0956 0,0.13897 0.0316,0.0843 0.0987,0.15109 0.13897,0.23162 0.10475,0.20951 0.0987,0.28598 0.23161,0.46322 0.10477,0.1397 -0.0134,0.11208 0.0926,0.32427 0.0586,0.11718 0.17132,0.20178 0.27793,0.27793 0.0939,0.0671 0.32077,0.14257 0.41691,0.18529 1.02703,0.45646 2.39782,-0.20322 3.14995,-0.88013 0.51554,-0.46399 1.23909,-2.01496 1.48233,-2.50143"
     id="path42" />
  <path
     style="fill:#ffffff;fill-opacity:0;stroke:#000000;stroke-width:2;stroke-linecap:round;stroke-linejoin:round"
     d="m 94.452161,127.71192 c 0,-0.0618 -0.02958,-0.13107 0,-0.18529 0.384328,-0.7046 1.580047,-0.92948 2.316139,-0.97278 0.03265,-0.002 0.724222,-0.0288 0.787487,0 0.971854,0.44175 1.343361,2.20725 1.343361,3.14995 0,0.18708 0.05236,0.65927 0,0.83381 -0.02588,0.0862 -0.105532,0.14802 -0.13897,0.23161 -0.321188,0.80298 0.45896,-0.65589 -0.231613,0.64852 -0.238382,0.45028 -0.598321,0.828 -0.880134,1.25072 -0.197181,0.29577 -0.405011,0.58436 -0.602194,0.88013 -0.365327,0.54799 -0.677117,1.1337 -1.065425,1.66762 -0.148955,0.20481 -0.32521,0.38986 -0.463227,0.6022 -0.06409,0.0986 -0.08363,0.2205 -0.13897,0.32426 -0.06855,0.12853 -0.160197,0.24362 -0.231613,0.37058 -0.06771,0.12037 -0.108683,0.25567 -0.185291,0.37058 -0.07897,0.11845 -0.198972,0.20581 -0.277936,0.32426 -0.153218,0.22983 -0.273598,0.48254 -0.370584,0.74117 -0.04471,0.11922 -0.04982,0.25067 -0.09265,0.37058 -0.115078,0.32222 -0.355076,0.602 -0.463227,0.92645 -0.134599,0.40381 -0.138968,0.83139 -0.138968,1.25072 0,0.89687 0.05139,0.90982 0.416904,1.71394 0.03441,0.0757 0.04857,0.1611 0.09265,0.23162 0.03472,0.0556 0.100891,0.0857 0.138967,0.13896 0.274701,0.38459 0.336923,0.69571 0.741164,1.01911 0.717518,0.57401 1.305978,0.60219 2.177172,0.60219 0.244673,0 0.473299,0.0403 0.694843,-0.0926 0.323609,-0.19417 0.140684,-0.15575 0.416904,-0.37059 0.318921,-0.24805 0.141489,-0.0255 0.416904,-0.27793 0.3258,-0.29865 0.626457,-0.66596 1.019104,-0.88014 0.480082,-0.26186 0.953462,-0.2487 1.482332,-0.32425 0.61249,-0.0875 1.08606,-0.14679 1.71394,-0.0463 0.49753,0.0796 1.14404,0.23532 1.57498,0.50955 0.12401,0.0789 0.25443,0.43951 0.32425,0.55588"
     id="path43" />
</svg>
