<?xml version="1.0" encoding="UTF-8" standalone="no"?>
<!-- Created with Inkscape (http://www.inkscape.org/) -->

<svg
   width="210mm"
   height="297mm"
   viewBox="0 0 210 297"
   version="1.1"
   id="svg1"
   inkscape:version="1.4 (86a8ad7, 2024-10-11)"
   sodipodi:docname="ykr.svg"
   xmlns:inkscape="http://www.inkscape.org/namespaces/inkscape"
   xmlns:sodipodi="http://sodipodi.sourceforge.net/DTD/sodipodi-0.dtd"
   xmlns="http://www.w3.org/2000/svg"
   xmlns:svg="http://www.w3.org/2000/svg">
  <sodipodi:namedview
     id="namedview1"
     pagecolor="#ffffff"
     bordercolor="#999999"
     borderopacity="1"
     inkscape:showpageshadow="2"
     inkscape:pageopacity="0"
     inkscape:pagecheckerboard="0"
     inkscape:deskcolor="#d1d1d1"
     inkscape:document-units="mm"
     showgrid="true"
     showguides="true"
     inkscape:zoom="8.0746913"
     inkscape:cx="377.84726"
     inkscape:cy="567.6378"
     inkscape:window-width="2560"
     inkscape:window-height="1351"
     inkscape:window-x="-9"
     inkscape:window-y="-9"
     inkscape:window-maximized="1"
     inkscape:current-layer="svg1">
    <inkscape:grid
       id="grid1"
       units="mm"
       originx="0"
       originy="0"
       spacingx="0.99999998"
       spacingy="1"
       empcolor="#0099e5"
       empopacity="0.30196078"
       color="#0099e5"
       opacity="0.14901961"
       empspacing="5"
       enabled="true"
       visible="true" />
    <sodipodi:guide
       position="95.02427,142.20874"
       orientation="0,-1"
       id="guide1"
       inkscape:locked="false" />
    <sodipodi:guide
       position="94.893202,156.88835"
       orientation="0,-1"
       id="guide2"
       inkscape:locked="false" />
    <sodipodi:guide
       position="94.762134,159.37865"
       orientation="1,0"
       id="guide3"
       inkscape:locked="false" />
    <sodipodi:guide
       position="110.22815,157.01942"
       orientation="1,0"
       id="guide4"
       inkscape:locked="false" />
    <sodipodi:guide
       position="90.52779,147.73898"
       orientation="0,-1"
       id="guide5"
       inkscape:locked="false" />
  </sodipodi:namedview>
  <defs
     id="defs1" />
  <path
     style="fill:#ffffff;fill-opacity:0;stroke:#000000;stroke-width:2;stroke-linecap:round;stroke-linejoin:round"
     d="m 107.27913,140.30825 c -0.28188,-0.10629 -0.5057,0.056 -0.75365,0.16384 -0.18415,0.0801 -0.3749,0.1448 -0.55703,0.22937 -0.31451,0.14601 -0.60267,0.34459 -0.91748,0.4915 -0.4584,0.21392 -0.85722,0.50594 -1.27791,0.78641 -0.32072,0.21381 -0.66867,0.40068 -0.98301,0.62257 -0.007,0.005 -0.48475,0.38844 -0.49151,0.39321 -0.0965,0.0681 -0.20599,0.1188 -0.2949,0.1966 -0.0874,0.0764 -0.14449,0.18291 -0.22937,0.26213 -0.0799,0.0745 -0.18229,0.12208 -0.26213,0.1966 -0.0849,0.0792 -0.14727,0.18004 -0.22937,0.26214 -0.0603,0.0603 -0.13874,0.10115 -0.19661,0.16384 -0.21663,0.23469 -0.40092,0.51721 -0.62257,0.75364 -0.29387,0.31346 -0.639329,0.59024 -0.917475,0.91747 -0.157467,0.18526 -0.259945,0.38992 -0.393203,0.58981 -0.215963,0.32394 -0.455453,0.62788 -0.622572,0.98301 -0.140348,0.29824 -0.192098,0.60905 -0.294905,0.91747 -0.0372,0.1116 -0.09387,0.21607 -0.131066,0.32767 -0.146825,0.44048 -0.196702,0.92449 -0.294902,1.37622 -0.183674,0.84489 0.06995,-0.37809 -0.163835,0.55703 -0.164577,0.6583 -0.163836,1.35696 -0.163836,2.03156 0,0.14199 -0.02159,0.28563 0,0.42597 0.03793,0.24652 0.184312,0.52017 0.327671,0.72087 0.09962,0.13947 0.657447,0.73982 0.786405,0.81918 0.459838,0.28298 1.198578,0.20277 1.703888,0.22937 0.39299,0.0207 0.78573,0.0515 1.17961,0.0655 0.55108,0.0197 0.38332,-0.011 0.95024,-0.0328 0.12006,-0.005 0.24029,0 0.36044,0 0.16383,-0.0219 0.32667,-0.0533 0.4915,-0.0655 0.13071,-0.01 0.26259,0.0109 0.39321,0 0.62802,-0.0523 1.22955,-0.11834 1.80218,-0.3932 0.17567,-0.0843 0.53552,-0.44638 0.62257,-0.52428 0.32908,-0.29443 0.69915,-0.54002 0.98301,-0.8847 0.4698,-0.57047 -0.0103,-0.0909 0.45874,-0.62258 0.32835,-0.37212 0.73344,-0.71008 0.98301,-1.14684 0.31415,-0.54976 0.51993,-1.15237 0.75364,-1.73665 0.13799,-0.34498 0.18125,-0.34714 0.29491,-0.68811 0.0934,-0.28009 0.1045,-0.4063 0.16383,-0.68811 0.10421,-0.49499 0.21826,-1.00266 0.26214,-1.50728 0.009,-0.10881 -0.009,-0.21885 0,-0.32767 0.0707,-0.81245 0.0636,-0.0585 0.0983,-0.78641 0.01,-0.20729 -0.0104,-0.4153 0,-0.62257 0.006,-0.12049 0.027,-0.23993 0.0328,-0.36043 0.0187,-0.39308 -0.0336,-0.82433 -0.0983,-1.21238 -0.0563,-0.33804 -0.22239,-0.67624 -0.36043,-0.98301 -0.10712,-0.23805 -0.18797,-0.51966 -0.36044,-0.72088 -0.0655,-0.0765 -0.15316,-0.13078 -0.22937,-0.1966 -0.16408,-0.1417 -0.32221,-0.29053 -0.4915,-0.42597 -0.69502,-0.55601 -1.60783,-0.89296 -2.4903,-0.98301 -0.21758,-0.0222 -0.43689,0.0219 -0.65534,0.0328"
     id="path4" />
  <path
     style="fill:#ffffff;fill-opacity:0;stroke:#000000;stroke-width:2;stroke-linecap:round;stroke-linejoin:round"
     d="m 109.67112,149.61408 c -0.11841,0.296 -0.3974,0.9945 -0.42598,1.04854 -0.35462,0.67071 -0.75223,1.31803 -1.14684,1.96602 -1.99077,3.26906 -2.46508,4.04229 -5.11165,7.27427 -2.50639,3.0608 -5.116551,5.90497 -7.995146,8.61772 -2.686066,2.53132 -3.842407,3.73058 -7.012136,5.14442 -0.459825,0.2051 -0.971095,0.31899 -1.474515,0.32767 -1.248529,0.0215 0.491998,-2.69411 1.146844,-3.93204 0.187931,-0.35526 0.507188,-0.63135 0.819177,-0.88471 1.319305,-1.07138 2.527974,-2.35085 4.063105,-3.0801 5.725274,-2.71972 11.668651,-4.96293 17.595871,-7.20874 3.18802,-1.20792 6.4912,-2.08682 9.7318,-3.14563 1.17209,-0.38295 2.33738,-0.7864 3.50607,-1.17961"
     id="path5" />
  <path
     style="fill:#ffffff;fill-opacity:0;stroke:#000000;stroke-width:2;stroke-linecap:round;stroke-linejoin:round"
     d="m 106.09951,140.37379 c -1.03989,0.69729 -2.10336,1.38903 -2.98179,2.29368 -0.35174,0.36224 -0.6335,0.78641 -0.95025,1.17962"
     id="path6" />
</svg>
