<?xml version="1.0" encoding="UTF-8" standalone="no"?>
<!-- Created with Inkscape (http://www.inkscape.org/) -->

<svg
   width="210mm"
   height="297mm"
   viewBox="0 0 210 297"
   version="1.1"
   id="svg1"
   inkscape:version="1.4 (86a8ad7, 2024-10-11)"
   sodipodi:docname="Ñ.svg"
   xmlns:inkscape="http://www.inkscape.org/namespaces/inkscape"
   xmlns:sodipodi="http://sodipodi.sourceforge.net/DTD/sodipodi-0.dtd"
   xmlns="http://www.w3.org/2000/svg"
   xmlns:svg="http://www.w3.org/2000/svg">
  <sodipodi:namedview
     id="namedview1"
     pagecolor="#ffffff"
     bordercolor="#999999"
     borderopacity="1"
     inkscape:showpageshadow="2"
     inkscape:pageopacity="0"
     inkscape:pagecheckerboard="0"
     inkscape:deskcolor="#d1d1d1"
     inkscape:document-units="mm"
     showgrid="true"
     showguides="true"
     inkscape:zoom="4.5769094"
     inkscape:cx="385.63141"
     inkscape:cy="548.07727"
     inkscape:window-width="1398"
     inkscape:window-height="1341"
     inkscape:window-x="1272"
     inkscape:window-y="0"
     inkscape:window-maximized="0"
     inkscape:current-layer="svg1">
    <inkscape:grid
       id="grid1"
       units="mm"
       originx="0"
       originy="0"
       spacingx="0.99999998"
       spacingy="1"
       empcolor="#0099e5"
       empopacity="0.30196078"
       color="#0099e5"
       opacity="0.14901961"
       empspacing="5"
       enabled="true"
       visible="true" />
    <sodipodi:guide
       position="95.02427,142.20874"
       orientation="0,-1"
       id="guide1"
       inkscape:locked="false" />
    <sodipodi:guide
       position="94.893202,156.88835"
       orientation="0,-1"
       id="guide2"
       inkscape:locked="false" />
    <sodipodi:guide
       position="94.762134,159.37865"
       orientation="1,0"
       id="guide3"
       inkscape:locked="false" />
    <sodipodi:guide
       position="110.22815,157.01942"
       orientation="1,0"
       id="guide4"
       inkscape:locked="false" />
    <sodipodi:guide
       position="90.52779,147.73898"
       orientation="0,-1"
       id="guide5"
       inkscape:locked="false" />
  </sodipodi:namedview>
  <defs
     id="defs1" />
  <path
     style="fill:none;stroke:#000000;stroke-width:1.265;stroke-linecap:round;stroke-linejoin:round;stroke-dasharray:none;stroke-dashoffset:0;stroke-opacity:1;paint-order:normal"
     d="m 94.400946,149.08759 c 0.390117,0.0232 0.777269,-0.0525 1.156168,-0.11561 0.154501,-0.0257 0.260064,-0.13728 0.404656,-0.17343 0.03739,-0.009 0.08355,0.0214 0.115618,0 0.03585,-0.0239 0.02471,-0.088 0.05781,-0.11561 0.08631,-0.0719 0.197609,-0.10812 0.289041,-0.17343 0.328734,-0.23481 0.530164,-0.82415 0.751507,-1.15616 0.20357,-0.30536 0.44442,-0.68412 0.578083,-1.04055 0.0279,-0.0744 0.02553,-0.15864 0.05781,-0.23124 0.07383,-0.16612 0.217432,-0.29538 0.289042,-0.46246 0.0313,-0.073 0.02651,-0.15821 0.05781,-0.23124 0.02737,-0.0639 0.07708,-0.11561 0.115615,-0.17342 0.03854,-0.0771 0.08247,-0.15169 0.115617,-0.23123 0.06332,-0.15198 0.0998,-0.31522 0.173424,-0.46247 0.07945,-0.1589 0.252693,-0.25401 0.34685,-0.40466 0.0323,-0.0517 0.024,-0.12272 0.05781,-0.17342 0.04535,-0.068 0.122354,-0.10959 0.173424,-0.17343 0.06403,-0.08 0.1094,-0.20901 0.173426,-0.28904 0.197152,-0.24644 0.380759,-0.50485 0.578083,-0.75151 0.16866,-0.21081 0.41619,-0.36222 0.57809,-0.57808 0.0258,-0.0345 0.0273,-0.0851 0.0578,-0.11562 0.0305,-0.0305 0.0811,-0.0319 0.11561,-0.0578 0.15093,-0.11319 0.25732,-0.28678 0.40466,-0.40465 0.1383,-0.11065 0.33721,-0.16378 0.46247,-0.28905 0.0305,-0.0305 0.0273,-0.0851 0.0578,-0.11561 0.0681,-0.0681 0.15107,-0.11998 0.23124,-0.17343 0.016,-0.0107 0.0385,0 0.0578,0 0.0385,-0.0193 0.0851,-0.0273 0.11561,-0.0578 0.0305,-0.0305 0.0273,-0.0851 0.0578,-0.11561 0.0611,-0.061 0.27471,-0.0916 0.34685,-0.11562 0.0898,-0.0299 0.1873,-0.13951 0.28904,-0.17342 0.0548,-0.0183 0.11859,0.0183 0.17343,0 0.0259,-0.009 0.032,-0.0492 0.0578,-0.0578 0.0731,-0.0244 0.15645,0.0187 0.23123,0 0.20112,-0.0503 0.35977,-0.0578 0.57808,-0.0578 0.12061,0 0.5184,-0.0588 0.63589,0 0.11066,0.0553 0.45023,0.19927 0.57809,0.23123 0.0561,0.014 0.11858,-0.0183 0.17342,0 0.0817,0.0272 0.14763,0.0947 0.23124,0.11562 0.21677,0.0542 0.4298,0.0704 0.63588,0.17342 0.28668,0.14334 0.57775,0.43306 0.75151,0.6937 0.0885,0.13281 0.033,-0.0248 0.17343,0.11562 0.0305,0.0305 0.0339,0.0798 0.0578,0.11562 0.10899,0.16349 0.286,0.30425 0.40466,0.46246 0.0578,0.0771 0.10529,0.16311 0.17342,0.23124 0.0305,0.0305 0.0917,0.022 0.11562,0.0578 0.0214,0.0321 -0.0231,0.0848 0,0.11561 0.0417,0.0556 0.13002,0.0614 0.17342,0.11562 0.10165,0.12705 0.0875,0.26412 0.11562,0.40466 0.0265,0.13243 0.13451,0.15284 0.17342,0.28904 0.0463,0.16186 -0.0231,0.20811 0,0.34685 0.0231,0.13837 0.0926,0.26628 0.11562,0.40466 0.0164,0.0983 -0.0324,0.24953 0,0.34685 0.11291,0.33873 0.188,1.19891 0.11561,1.56082 -0.0375,0.18775 -0.14916,0.38404 -0.17342,0.57808 -0.012,0.0956 0.0338,0.19883 0,0.28904 -0.0287,0.0765 -0.13009,0.1041 -0.17342,0.17343 -0.13277,0.21242 -0.20109,0.45915 -0.28904,0.6937 -0.0135,0.0361 0.0172,0.0811 0,0.11561 -0.0122,0.0244 -0.0492,0.032 -0.0578,0.0578 -0.0311,0.0932 -0.0179,0.19926 -0.0578,0.28904 -2.7e-4,0.18798 -0.22174,0.21225 -0.28904,0.34685 -0.0355,0.0711 -0.0265,0.15821 -0.0578,0.23124 -0.0274,0.0639 -0.0846,0.11128 -0.11562,0.17342 -0.072,0.14404 -0.10795,0.31517 -0.17342,0.46247 -0.0875,0.19687 -0.2134,0.37636 -0.28904,0.57808 -0.0279,0.0744 -0.0265,0.15821 -0.0578,0.23123 -0.11161,0.26042 -0.31634,0.50797 -0.46247,0.75151 -0.11027,0.1838 -0.18184,0.39941 -0.28904,0.57809 -0.028,0.0467 -0.0876,0.0689 -0.11562,0.11561 -0.0314,0.0522 -0.024,0.12273 -0.0578,0.17343 -0.0453,0.068 -0.12235,0.10958 -0.17342,0.17342 -0.15009,0.18762 -0.26657,0.42137 -0.46247,0.57808 -0.0543,0.0434 -0.12429,0.0665 -0.17342,0.11562 -0.1637,0.1637 -0.27019,0.37607 -0.46247,0.52028 -0.15451,0.11588 -0.38431,0.21088 -0.52027,0.34685 -0.0305,0.0305 -0.0273,0.0851 -0.0578,0.11561 -0.0795,0.0794 -0.19555,0.1111 -0.28904,0.17343 -0.41153,0.27435 -0.82577,0.56036 -1.27178,0.75151 -0.62326,0.26711 0.0926,-0.0843 -0.40466,0.0578 -0.0829,0.0237 -0.14948,0.0884 -0.23124,0.11562 -0.0806,0.0269 -0.20557,-0.0167 -0.28904,0 -0.16592,0.0332 -0.29555,0.14561 -0.46246,0.17342 -0.18719,0.0312 -0.39023,-0.0268 -0.57809,0 -0.461741,0.066 -0.912985,0.21595 -1.387402,0.0578 -0.509831,-0.16994 -0.900586,-0.66935 -1.27178,-1.04054"
     id="path19" />
  <path
     style="fill:none;stroke:#000000;stroke-width:1.265;stroke-linecap:round;stroke-linejoin:round;stroke-dasharray:none;stroke-dashoffset:0;stroke-opacity:1;paint-order:normal"
     d="m 107.35001,148.79855 c -0.23371,-0.27496 -0.59225,-0.37192 -0.86713,-0.57808 -0.0436,-0.0327 -0.065,-0.0954 -0.11562,-0.11562 -0.0537,-0.0214 -0.11975,0.0215 -0.17342,0 -0.52944,-0.21177 0.0259,-0.0319 -0.11562,-0.17342 -0.0376,-0.0376 -0.41189,-0.20595 -0.46246,-0.23123 -0.25622,-0.12811 -0.53374,-0.14838 -0.80932,-0.17343 -0.13489,-0.0193 -0.26977,-0.0385 -0.40466,-0.0578 -0.0578,-0.0193 -0.11332,-0.0478 -0.17342,-0.0578 -0.3042,-0.0507 -0.67621,0 -0.98274,0 -0.30129,0 -0.58431,-0.0129 -0.86713,0.0578 -0.0374,0.009 -0.0836,-0.0214 -0.11561,0 -0.0359,0.0239 -0.0273,0.0851 -0.0578,0.11562 -0.14166,0.14165 -0.38019,0.20676 -0.52028,0.34685 -0.0687,0.0687 -0.13628,0.21475 -0.17342,0.28904 -0.0398,0.0796 -0.28311,0.16947 -0.28905,0.17342 -0.14259,0.0951 -0.26206,0.25179 -0.40465,0.34685 -0.20299,0.13533 -0.57899,0.24298 -0.80932,0.28905 -0.701577,0.14031 -0.33039,-0.0688 -0.693698,0.17342"
     id="path20" />
</svg>
