<?xml version="1.0" encoding="UTF-8" standalone="no"?>
<!-- Created with Inkscape (http://www.inkscape.org/) -->

<svg
   width="210mm"
   height="297mm"
   viewBox="0 0 210 297"
   version="1.1"
   id="svg1"
   inkscape:version="1.4 (86a8ad7, 2024-10-11)"
   sodipodi:docname="ts.svg"
   xmlns:inkscape="http://www.inkscape.org/namespaces/inkscape"
   xmlns:sodipodi="http://sodipodi.sourceforge.net/DTD/sodipodi-0.dtd"
   xmlns="http://www.w3.org/2000/svg"
   xmlns:svg="http://www.w3.org/2000/svg">
  <sodipodi:namedview
     id="namedview1"
     pagecolor="#ffffff"
     bordercolor="#999999"
     borderopacity="1"
     inkscape:showpageshadow="2"
     inkscape:pageopacity="0"
     inkscape:pagecheckerboard="0"
     inkscape:deskcolor="#d1d1d1"
     inkscape:document-units="mm"
     showgrid="true"
     showguides="true"
     inkscape:zoom="8.0746913"
     inkscape:cx="377.22804"
     inkscape:cy="567.26627"
     inkscape:window-width="2560"
     inkscape:window-height="1351"
     inkscape:window-x="-9"
     inkscape:window-y="-9"
     inkscape:window-maximized="1"
     inkscape:current-layer="svg1">
    <inkscape:grid
       id="grid1"
       units="mm"
       originx="0"
       originy="0"
       spacingx="0.99999998"
       spacingy="1"
       empcolor="#0099e5"
       empopacity="0.30196078"
       color="#0099e5"
       opacity="0.14901961"
       empspacing="5"
       enabled="true"
       visible="true" />
    <sodipodi:guide
       position="95.02427,142.20874"
       orientation="0,-1"
       id="guide1"
       inkscape:locked="false" />
    <sodipodi:guide
       position="94.893202,156.88835"
       orientation="0,-1"
       id="guide2"
       inkscape:locked="false" />
    <sodipodi:guide
       position="94.762134,159.37865"
       orientation="1,0"
       id="guide3"
       inkscape:locked="false" />
    <sodipodi:guide
       position="110.22815,157.01942"
       orientation="1,0"
       id="guide4"
       inkscape:locked="false" />
    <sodipodi:guide
       position="90.52779,147.73898"
       orientation="0,-1"
       id="guide5"
       inkscape:locked="false" />
  </sodipodi:namedview>
  <defs
     id="defs1" />
  <path
     style="fill:none;stroke:#000000;stroke-width:2;stroke-linecap:round;stroke-linejoin:round"
     d="m 100.46359,149.87621 c 0.2337,0.0237 0.43525,-0.10591 0.65534,-0.16383 0.22581,-0.0594 0.46313,-0.0686 0.68811,-0.13107 0.19941,-0.0554 0.32036,-0.16705 0.4915,-0.26214 0.0514,-0.0286 0.11303,-0.0359 0.16384,-0.0655 0.31695,-0.18489 0.61476,-0.40993 0.88471,-0.65534 0.0631,-0.0574 0.13896,-0.10095 0.1966,-0.16383 0.0635,-0.0693 0.10655,-0.1549 0.16383,-0.22937 0.31662,-0.41161 0.58058,-0.85681 0.88471,-1.27792 0.0729,-0.10095 0.1615,-0.19048 0.22937,-0.2949 0.21598,-0.33228 0.39704,-0.70156 0.58981,-1.04854 0.37926,-0.68268 0.73005,-1.38932 0.8847,-2.16262 0.0676,-0.13741 0.0111,-0.28522 0.0328,-0.42597 0.0121,-0.0786 0.0534,-0.15078 0.0655,-0.22937 0.0216,-0.14034 0,-0.28398 0,-0.42598 0,-0.22663 0.0188,-0.46229 0,-0.6881 -0.0146,-0.17541 -0.0929,-0.43011 -0.16384,-0.58981 -0.0259,-0.0582 -0.0724,-0.10563 -0.0983,-0.16383 -0.0183,-0.0412 -0.01,-0.0925 -0.0328,-0.13107 -0.058,-0.0967 -0.34569,-0.42368 -0.45873,-0.4915 -0.0296,-0.0178 -0.0674,-0.0173 -0.0983,-0.0328 -0.0276,-0.0138 -0.0356,-0.058 -0.0655,-0.0655 -0.11121,-0.0278 -0.50601,0.001 -0.52427,0 -0.0663,-0.004 -0.13044,-0.0267 -0.1966,-0.0328 -0.10878,-0.01 -0.21899,0.0109 -0.32767,0 -0.43088,-0.0431 -1.12957,-0.10406 -1.54005,0.0328 -0.40575,0.13525 -0.0678,0.0464 -0.39321,0.19661 -0.0847,0.0391 -0.1774,0.0592 -0.26213,0.0983 -0.16457,0.0759 -0.30928,0.19526 -0.45874,0.2949 -0.50083,0.33389 -0.91842,0.76582 -1.27791,1.24515 -0.37138,0.49517 0.0396,-0.0803 -0.32767,0.36043 -0.13007,0.15608 -0.234918,0.33175 -0.360439,0.49151 -0.13417,0.17076 -0.213175,0.23514 -0.327668,0.42597 -0.05026,0.0838 -0.0826,0.17731 -0.131069,0.26213 -0.08272,0.14476 -0.187577,0.27685 -0.262136,0.42597 -0.03556,0.0711 -0.03191,0.15732 -0.06553,0.22937 -0.04357,0.0934 -0.117753,0.16998 -0.163835,0.26214 -0.04173,0.0835 -0.06089,0.17664 -0.0983,0.26214 -0.07831,0.179 -0.17894,0.34748 -0.262136,0.52427 -0.123507,0.26245 -0.241009,0.54186 -0.327668,0.81917 -0.02687,0.086 -0.03705,0.17669 -0.06553,0.26214 -0.0263,0.0789 -0.07384,0.14986 -0.0983,0.22937 -0.06735,0.21887 -0.05348,0.46401 -0.0983,0.6881 -0.01767,0.0883 -0.05501,0.17269 -0.06553,0.26214 -0.0217,0.18441 0,0.37136 0,0.55704 0,0.1966 -0.02297,0.39455 0,0.58981 0.0549,0.46666 0.208592,0.91588 0.294902,1.37621 0.01622,0.0865 0.0114,0.1767 0.03277,0.26213 0.04672,0.1869 0.133549,0.31286 0.196602,0.49151 0.126195,0.35755 0.05738,0.26959 0.196601,0.58981 0.735386,1.69138 -0.044,-0.12956 0.327671,0.6881 0.06842,0.15053 0.08987,0.31081 0.163835,0.45874 0.19042,0.38084 0.485828,0.81556 0.85194,1.04854 0.64688,0.41165 1.20944,0.47855 1.96602,0.58981 0.13146,0.0193 0.26083,0.054 0.39321,0.0655 0.11969,0.0104 0.24042,-0.006 0.36043,0 0.3283,0.0156 0.65543,0.079 0.98301,0.0983 0.27028,0.0159 0.5483,0 0.81918,0 0.18568,0 0.372,0.0154 0.55704,0 0.35824,-0.0298 0.64154,-0.1283 0.98301,-0.1966 0.0863,-0.0173 0.17617,-0.0137 0.26213,-0.0328 0.22264,-0.0495 0.43786,-0.12793 0.65534,-0.19661 0.25989,-0.0821 0.49663,-0.20923 0.75364,-0.2949 0.0901,-0.03 0.24936,-0.0751 0.32767,-0.13107 0.0503,-0.0359 0.0828,-0.0925 0.13107,-0.13107 0.1379,-0.11032 0.36872,-0.23534 0.49151,-0.3932 0.0931,-0.11978 0.14519,-0.26695 0.22936,-0.3932 0.0446,-0.067 0.25672,-0.30953 0.29491,-0.36044 0.0473,-0.063 0.0781,-0.13832 0.13106,-0.1966 0.0574,-0.0631 0.13348,-0.10645 0.19661,-0.16384 0.24638,-0.22398 0.50218,-0.43531 0.75364,-0.65534"
     id="path3" />
  <path
     style="fill:none;stroke:#000000;stroke-width:2;stroke-linecap:round;stroke-linejoin:round"
     d="m 98.628641,150.36772 c 0.523131,-0.0214 0.986718,-0.23711 1.474519,-0.3932 0.51459,-0.16468 0.20706,-0.0216 0.4915,-0.16384"
     id="path4" />
</svg>
