<?xml version="1.0" encoding="UTF-8" standalone="no"?>
<!-- Created with Inkscape (http://www.inkscape.org/) -->

<svg
   width="210mm"
   height="297mm"
   viewBox="0 0 210 297"
   version="1.1"
   id="svg1"
   inkscape:version="1.4 (86a8ad7, 2024-10-11)"
   sodipodi:docname="pZ.svg"
   xmlns:inkscape="http://www.inkscape.org/namespaces/inkscape"
   xmlns:sodipodi="http://sodipodi.sourceforge.net/DTD/sodipodi-0.dtd"
   xmlns="http://www.w3.org/2000/svg"
   xmlns:svg="http://www.w3.org/2000/svg">
  <sodipodi:namedview
     id="namedview1"
     pagecolor="#ffffff"
     bordercolor="#999999"
     borderopacity="1"
     inkscape:showpageshadow="2"
     inkscape:pageopacity="0"
     inkscape:pagecheckerboard="0"
     inkscape:deskcolor="#d1d1d1"
     inkscape:document-units="mm"
     showgrid="true"
     showguides="true"
     inkscape:zoom="5.7117319"
     inkscape:cx="350.15649"
     inkscape:cy="522.52103"
     inkscape:window-width="2560"
     inkscape:window-height="1351"
     inkscape:window-x="-9"
     inkscape:window-y="-9"
     inkscape:window-maximized="1"
     inkscape:current-layer="svg1">
    <inkscape:grid
       id="grid1"
       units="mm"
       originx="0"
       originy="0"
       spacingx="0.99999998"
       spacingy="1"
       empcolor="#0099e5"
       empopacity="0.30196078"
       color="#0099e5"
       opacity="0.14901961"
       empspacing="5"
       enabled="true"
       visible="true" />
    <sodipodi:guide
       position="95.02427,142.20874"
       orientation="0,-1"
       id="guide1"
       inkscape:locked="false" />
    <sodipodi:guide
       position="94.893202,156.88835"
       orientation="0,-1"
       id="guide2"
       inkscape:locked="false" />
    <sodipodi:guide
       position="87.906074,157.65706"
       orientation="1,0"
       id="guide3"
       inkscape:locked="false" />
    <sodipodi:guide
       position="110.22815,157.01942"
       orientation="1,0"
       id="guide4"
       inkscape:locked="false" />
    <sodipodi:guide
       position="90.52779,147.73898"
       orientation="0,-1"
       id="guide5"
       inkscape:locked="false" />
  </sodipodi:namedview>
  <defs
     id="defs1" />
  <path
     style="fill:#ffffff;fill-opacity:0;stroke:#000000;stroke-width:2;stroke-linecap:round;stroke-linejoin:round"
     d="m 97.046237,125.72004 c 1.266687,-0.71236 2.922854,-0.61713 4.261693,-0.13897 0.0975,0.0348 0.18177,0.1005 0.27794,0.13897 0.50946,0.20379 1.03489,0.35532 1.52865,0.6022 0.12352,0.0618 0.20074,0.16985 0.32426,0.23161 0.0874,0.0437 0.19059,0.049 0.27794,0.0927 0.18007,0.09 0.33691,0.22067 0.50955,0.32425 0.64669,0.38802 1.24185,0.79506 1.80659,1.29704 0.0577,0.0513 0.1307,0.0844 0.18529,0.13897 0.24484,0.24484 0.34373,0.58996 0.50955,0.88014 0.0217,0.0379 0.0731,0.0536 0.0926,0.0926 0.14236,0.28472 0.23719,0.59111 0.37058,0.88013 0.35475,0.76861 0.7295,1.51973 1.01911,2.31614 0.0568,0.15629 0.1375,0.30394 0.18529,0.46323 0.0675,0.22513 0.0775,0.46933 0.13897,0.69484 0.10179,0.37323 0.27619,0.73421 0.37058,1.11175 0.23014,1.15069 -0.0321,0.0506 0.18529,0.64852 0.0937,0.25755 0.0903,0.53421 0.18529,0.78748 0.0242,0.0647 0.0777,0.11789 0.0926,0.1853 0.01,0.0447 -0.008,0.35337 0,0.4169 0.0327,0.26119 0.12131,0.52262 0.13897,0.78749 0.0307,0.46056 -0.0418,0.93014 0,1.38968 0.0457,0.5026 0.10854,1.21618 0.0463,1.71394 -0.0476,0.38096 -0.0558,-0.0246 -0.0926,0.41691 -0.018,0.21598 -0.0297,0.43243 -0.0463,0.64852 -0.02,0.25997 0.0288,0.52842 0,0.78749 -0.0259,0.23274 -0.11751,0.45883 -0.13897,0.69484 -0.007,0.0769 0.009,0.15488 0,0.23161 -0.0863,0.77676 -0.008,-0.51413 -0.0926,0.41691 -0.008,0.0923 0.0166,0.18678 0,0.27793 -0.0149,0.0818 -0.0708,0.1514 -0.0927,0.23162 -0.0896,0.32837 -0.0187,0.2244 -0.0463,0.55587 -8e-4,0.17453 -0.077,0.33763 -0.0927,0.50955 -0.008,0.0923 0.0152,0.18655 0,0.27794 -0.0383,0.22985 -0.16784,0.43168 -0.23161,0.64852 -0.11146,0.37897 -0.1583,0.79295 -0.32426,1.15807 -0.0373,0.082 -0.0987,0.15108 -0.13897,0.23161 -0.14823,0.29647 -0.22235,0.62999 -0.37058,0.92646 -0.0249,0.0498 -0.0731,0.0868 -0.0926,0.13896 -0.0276,0.0737 -0.0143,0.15967 -0.0463,0.23162 -0.0314,0.0705 -0.10147,0.1178 -0.13897,0.18529 -0.0404,0.0727 -0.0555,0.15724 -0.0926,0.23161 -0.0403,0.0805 -0.10351,0.14886 -0.13897,0.23162 -0.63579,1.4835 0.28771,-0.48441 -0.27794,0.74116 -0.0811,0.17567 -0.20352,0.33096 -0.27794,0.50955 -0.0432,0.10377 -0.0509,0.21989 -0.0926,0.32426 -0.0207,0.0517 -0.072,0.0873 -0.0926,0.13897 -0.0853,0.21329 -0.1107,0.49333 -0.23161,0.69484 -0.0683,0.1139 -0.16469,0.20953 -0.23162,0.32426 -0.0419,0.0718 -0.0555,0.15724 -0.0926,0.23162 -0.16237,0.32473 -0.41529,0.61017 -0.69484,0.83381 -0.1239,0.0991 -0.32302,0.11518 -0.46323,0.18529 -0.0805,0.0403 -0.14538,0.11309 -0.23161,0.13897 -0.0739,0.0222 -0.15489,-0.009 -0.23162,0 -0.3309,0.0368 -0.64167,0.19022 -0.97278,0.23161 -0.23101,0.0289 -0.46365,0.067 -0.69484,0.0927 -0.24397,0.0271 -0.49668,-0.0222 -0.74116,0 -0.23253,0.0211 -0.46431,0.067 -0.69485,0.0926 -0.15346,0.017 -0.30976,-0.017 -0.46322,0 -0.0633,0.007 -0.12227,0.0373 -0.18529,0.0463 -0.28155,0.0402 -0.59516,0 -0.880138,0 -0.200731,0 -0.403225,0.0265 -0.602197,0 -0.237603,-0.0317 -0.46229,-0.12716 -0.69484,-0.1853 -0.374492,-0.0936 -0.79224,-0.17792 -1.158071,-0.32426 -0.986351,-0.39454 -1.784337,-1.19511 -2.640399,-1.80659"
     id="path39" />
  <path
     style="fill:#ffffff;fill-opacity:0;stroke:#000000;stroke-width:2;stroke-linecap:round;stroke-linejoin:round"
     d="m 109.04384,139.89481 c -0.26236,-0.37589 -0.6837,-0.5989 -1.06543,-0.83381 -0.23003,-0.14156 -0.44738,-0.30864 -0.69484,-0.4169 -0.25067,-0.10967 -0.52351,-0.15962 -0.78749,-0.23162 -0.64081,-0.17477 -1.36705,-0.36921 -1.99187,0 -0.17885,0.10569 -0.30982,0.27684 -0.46323,0.41691 -0.20174,0.18419 -0.41319,0.35864 -0.6022,0.55587 -0.16688,0.17414 -0.30882,0.37058 -0.46323,0.55587 -0.16985,0.20074 -0.3273,0.41266 -0.50955,0.6022 -0.48467,0.50406 -1.15561,1.13998 -1.85291,1.34336 -0.49433,0.14418 -1.488234,-0.23221 -1.945556,-0.4169 -0.941763,-0.38033 -2.617882,-1.05042 -3.474209,-1.6213"
     id="path40" />
</svg>
