<?xml version="1.0" encoding="UTF-8" standalone="no"?>
<!-- Created with Inkscape (http://www.inkscape.org/) -->

<svg
   width="210mm"
   height="297mm"
   viewBox="0 0 210 297"
   version="1.1"
   id="svg1"
   inkscape:version="1.4 (86a8ad7, 2024-10-11)"
   sodipodi:docname="tvzZ.svg"
   xmlns:inkscape="http://www.inkscape.org/namespaces/inkscape"
   xmlns:sodipodi="http://sodipodi.sourceforge.net/DTD/sodipodi-0.dtd"
   xmlns="http://www.w3.org/2000/svg"
   xmlns:svg="http://www.w3.org/2000/svg">
  <sodipodi:namedview
     id="namedview1"
     pagecolor="#ffffff"
     bordercolor="#999999"
     borderopacity="1"
     inkscape:showpageshadow="2"
     inkscape:pageopacity="0"
     inkscape:pagecheckerboard="0"
     inkscape:deskcolor="#d1d1d1"
     inkscape:document-units="mm"
     showgrid="true"
     showguides="true"
     inkscape:zoom="5.7117319"
     inkscape:cx="350.15649"
     inkscape:cy="522.52103"
     inkscape:window-width="2560"
     inkscape:window-height="1351"
     inkscape:window-x="-9"
     inkscape:window-y="-9"
     inkscape:window-maximized="1"
     inkscape:current-layer="svg1">
    <inkscape:grid
       id="grid1"
       units="mm"
       originx="0"
       originy="0"
       spacingx="0.99999998"
       spacingy="1"
       empcolor="#0099e5"
       empopacity="0.30196078"
       color="#0099e5"
       opacity="0.14901961"
       empspacing="5"
       enabled="true"
       visible="true" />
    <sodipodi:guide
       position="95.02427,142.20874"
       orientation="0,-1"
       id="guide1"
       inkscape:locked="false" />
    <sodipodi:guide
       position="94.893202,156.88835"
       orientation="0,-1"
       id="guide2"
       inkscape:locked="false" />
    <sodipodi:guide
       position="87.906074,157.65706"
       orientation="1,0"
       id="guide3"
       inkscape:locked="false" />
    <sodipodi:guide
       position="110.22815,157.01942"
       orientation="1,0"
       id="guide4"
       inkscape:locked="false" />
    <sodipodi:guide
       position="90.52779,147.73898"
       orientation="0,-1"
       id="guide5"
       inkscape:locked="false" />
  </sodipodi:namedview>
  <defs
     id="defs1" />
  <path
     style="fill:#ffffff;fill-opacity:0;stroke:#000000;stroke-width:2;stroke-linecap:round;stroke-linejoin:round"
     d="m 109.92397,131.00084 c 0.25272,1.7683 -0.3909,3.3622 -1.06542,4.95653 -0.22122,0.52289 -0.42364,1.05366 -0.64852,1.57498 -0.40845,0.94687 -0.89483,1.8551 -1.25072,2.82569 -0.70262,1.91623 0.30996,-0.69825 -0.32426,1.20439 -0.19927,0.43841 -0.27162,0.56251 -0.4169,1.0191 -0.16125,0.50678 -0.29485,1.02351 -0.46323,1.52866 -0.17599,0.52797 -0.38022,1.048 -0.55587,1.57497 -0.31567,0.947 0.0538,0.074 -0.32426,1.0191 -0.20887,0.52216 -0.46713,1.0163 -0.69484,1.52865 -0.10717,0.24112 -0.15994,0.50517 -0.27794,0.74117 -0.1208,0.24159 -0.28885,0.45702 -0.41691,0.69484 -0.36948,0.68617 0.10383,-0.16133 -0.27793,0.6022 -0.10541,0.21081 -0.27774,0.38555 -0.37059,0.60219 -0.0502,0.11704 -0.0479,0.25136 -0.0926,0.37059 -0.13587,0.3623 -0.38393,0.67521 -0.55588,1.0191 -0.45749,0.91498 0.1555,-0.25474 -0.23161,0.64851 -0.0898,0.20955 -0.2223,0.39829 -0.32426,0.6022 -0.1853,0.37059 -0.33816,0.95657 -0.74116,1.15807 -0.70269,0.35134 -2.113736,-0.4841 -2.640402,-0.74116 -0.448996,-0.21916 -3.37956,-1.79693 -4.354341,-1.99188"
     id="path24" />
  <path
     style="fill:#ffffff;fill-opacity:0;stroke:#000000;stroke-width:2;stroke-linecap:round;stroke-linejoin:round"
     d="m 110.61881,130.86187 c -0.0618,-0.0463 -0.13897,-0.20073 -0.18529,-0.13897 -0.0463,0.0618 0.25625,0.16938 0.18529,0.13897 -0.59475,-0.25489 -0.4092,-0.30625 -1.0191,-0.50955 -0.24159,-0.0805 -0.49453,-0.12187 -0.74116,-0.18529 -1.27408,-0.32762 -0.46175,-0.15414 -1.66763,-0.37058 -0.5723,-0.10273 -1.1385,-0.24087 -1.71394,-0.32426 -0.83209,-0.1206 -1.66428,-0.24613 -2.50143,-0.32426 -0.64571,-0.0603 -1.29704,0 -1.94555,0 -0.52093,0 -1.105163,-0.0364 -1.621302,0.0926 -0.413787,0.10345 -1.483296,0.61901 -1.806588,0.88014 -0.480668,0.38823 -1.146601,1.1081 -1.436007,1.66761 -0.559086,1.08091 -0.741164,2.63733 -0.741164,3.8448 0,1.30892 0.104441,2.53608 0.880133,3.6595 1.053807,1.5262 1.83305,2.07313 3.798468,2.96466 1.11328,0.50499 2.96698,0.1385 4.12273,-0.0927"
     id="path26" />
  <path
     style="fill:#ffffff;fill-opacity:0;stroke:#000000;stroke-width:2;stroke-linecap:round;stroke-linejoin:round"
     d="m 111.35998,130.49129 c 0.46737,-0.18085 0.93604,-0.38618 1.38968,-0.6022 0.14353,-0.0684 0.26835,-0.17502 0.41691,-0.23161 0.27357,-0.10422 1.12265,-0.2445 1.34336,-0.27794 1.82711,-0.27683 3.73325,-0.0382 5.51241,0.41691 0.71952,0.18406 2.04195,0.56149 2.50143,1.25071 0.0461,0.0692 0.0582,0.15592 0.0926,0.23161 0.29654,0.65238 0.39643,1.37201 0.46323,2.08453 0.0575,0.61288 0.0463,0.85929 0.0463,1.43601 0,0.38602 0.0384,0.77396 0,1.15806 -0.0556,0.55573 -0.41638,1.70408 -0.78748,2.13085 -0.54828,0.63053 -1.3024,1.20797 -1.99188,1.66762 -0.52895,0.35264 -1.21745,0.56402 -1.80659,0.78749 -1.34686,0.51088 -2.71211,1.05873 -4.16905,1.15807 -0.35432,0.0242 -0.71036,-0.007 -1.06543,0 -1.49967,0.0312 -2.99982,0.0359 -4.49331,0.18529 -0.79126,0.0791 -1.55583,0.16347 -2.31614,0.41691"
     id="path27" />
</svg>
