<?xml version="1.0" encoding="UTF-8" standalone="no"?>
<!-- Created with Inkscape (http://www.inkscape.org/) -->

<svg
   width="210mm"
   height="297mm"
   viewBox="0 0 210 297"
   version="1.1"
   id="svg1"
   inkscape:version="1.4 (86a8ad7, 2024-10-11)"
   sodipodi:docname="g.svg"
   xmlns:inkscape="http://www.inkscape.org/namespaces/inkscape"
   xmlns:sodipodi="http://sodipodi.sourceforge.net/DTD/sodipodi-0.dtd"
   xmlns="http://www.w3.org/2000/svg"
   xmlns:svg="http://www.w3.org/2000/svg">
  <sodipodi:namedview
     id="namedview1"
     pagecolor="#ffffff"
     bordercolor="#999999"
     borderopacity="1"
     inkscape:showpageshadow="2"
     inkscape:pageopacity="0"
     inkscape:pagecheckerboard="0"
     inkscape:deskcolor="#d1d1d1"
     inkscape:document-units="mm"
     showgrid="true"
     showguides="true"
     inkscape:zoom="8.0746913"
     inkscape:cx="377.22804"
     inkscape:cy="567.39011"
     inkscape:window-width="2560"
     inkscape:window-height="1351"
     inkscape:window-x="-9"
     inkscape:window-y="-9"
     inkscape:window-maximized="1"
     inkscape:current-layer="svg1">
    <inkscape:grid
       id="grid1"
       units="mm"
       originx="0"
       originy="0"
       spacingx="0.99999998"
       spacingy="1"
       empcolor="#0099e5"
       empopacity="0.30196078"
       color="#0099e5"
       opacity="0.14901961"
       empspacing="5"
       enabled="true"
       visible="true" />
    <sodipodi:guide
       position="95.02427,142.20874"
       orientation="0,-1"
       id="guide1"
       inkscape:locked="false" />
    <sodipodi:guide
       position="94.893202,156.88835"
       orientation="0,-1"
       id="guide2"
       inkscape:locked="false" />
    <sodipodi:guide
       position="94.762134,159.37865"
       orientation="1,0"
       id="guide3"
       inkscape:locked="false" />
    <sodipodi:guide
       position="110.22815,157.01942"
       orientation="1,0"
       id="guide4"
       inkscape:locked="false" />
    <sodipodi:guide
       position="90.52779,147.73898"
       orientation="0,-1"
       id="guide5"
       inkscape:locked="false" />
  </sodipodi:namedview>
  <defs
     id="defs1" />
  <path
     style="fill:none;stroke:#000000;stroke-width:2;stroke-linecap:round;stroke-linejoin:round"
     d="m 99.808251,143.87985 c 0.926609,-0.70858 1.946319,-1.49246 2.850729,-2.12985 0.47573,-0.33528 1.4039,-0.90889 1.99879,-1.14685 0.0918,-0.0367 0.23741,-0.11325 0.2949,-0.0328 0.0954,0.13361 0.0469,0.32791 0.0328,0.4915 -0.0407,0.47246 -0.0619,0.95431 -0.19661,1.40898 -0.21722,0.73314 -0.57525,1.41703 -0.85194,2.12986 -0.98611,2.54049 -1.23416,3.14774 -1.99878,5.76699 -0.17251,0.59091 -1.04312,3.24228 -0.65534,4.12864 0.0998,0.22818 0.50952,-0.0648 0.72087,-0.1966 0.72849,-0.45423 1.39988,-0.99642 2.06432,-1.54005 0.89861,-0.73523 1.77504,-1.49883 2.62136,-2.29369 0.57657,-0.54152 2.27655,-2.31111 3.11287,-3.1784"
     id="path6" />
  <path
     style="fill:#ffffff;fill-opacity:0;stroke:#000000;stroke-width:2;stroke-linecap:round;stroke-linejoin:round"
     d="m 104.26456,141.3568 c -0.39458,0.0139 -0.76583,0.14654 -1.14684,0.22937 -0.5419,0.1178 -0.23392,0.024 -0.75364,0.0983 -0.0327,0.005 -0.68814,0.12639 -0.72088,0.13106 -0.24279,0.0347 -0.48331,0.0686 -0.72087,0.13107 -1.053082,0.27713 -0.0241,0.0256 -0.62257,0.1966 -0.328978,0.094 -0.674397,0.17337 -0.983012,0.32767 -0.13107,0.0655 -0.264181,0.12713 -0.393205,0.1966 -0.06935,0.0374 -0.126154,0.0958 -0.196602,0.13107 -0.455255,0.22763 -0.07853,-0.009 -0.458737,0.16384 -0.12459,0.0566 -0.236178,0.13925 -0.360437,0.1966 -0.132794,0.0613 -0.406116,0.16718 -0.524271,0.22937 -0.112718,0.0593 -0.21585,0.13561 -0.327671,0.1966 -0.23585,0.12865 -0.475882,0.25019 -0.720873,0.36044 -0.101976,0.0459 -0.51789,0.19771 -0.622573,0.26213 -0.111675,0.0687 -0.16569,0.18877 -0.22937,0.29491"
     id="path1" />
</svg>
