<?xml version="1.0" encoding="UTF-8" standalone="no"?>
<!-- Created with Inkscape (http://www.inkscape.org/) -->

<svg
   width="210mm"
   height="297mm"
   viewBox="0 0 210 297"
   version="1.1"
   id="svg1"
   inkscape:version="1.4 (86a8ad7, 2024-10-11)"
   sodipodi:docname="eZ.svg"
   xmlns:inkscape="http://www.inkscape.org/namespaces/inkscape"
   xmlns:sodipodi="http://sodipodi.sourceforge.net/DTD/sodipodi-0.dtd"
   xmlns="http://www.w3.org/2000/svg"
   xmlns:svg="http://www.w3.org/2000/svg">
  <sodipodi:namedview
     id="namedview1"
     pagecolor="#ffffff"
     bordercolor="#999999"
     borderopacity="1"
     inkscape:showpageshadow="2"
     inkscape:pageopacity="0"
     inkscape:pagecheckerboard="0"
     inkscape:deskcolor="#d1d1d1"
     inkscape:document-units="mm"
     showgrid="true"
     showguides="true"
     inkscape:zoom="5.7117319"
     inkscape:cx="350.15649"
     inkscape:cy="522.52103"
     inkscape:window-width="2560"
     inkscape:window-height="1351"
     inkscape:window-x="-9"
     inkscape:window-y="-9"
     inkscape:window-maximized="1"
     inkscape:current-layer="svg1">
    <inkscape:grid
       id="grid1"
       units="mm"
       originx="0"
       originy="0"
       spacingx="0.99999998"
       spacingy="1"
       empcolor="#0099e5"
       empopacity="0.30196078"
       color="#0099e5"
       opacity="0.14901961"
       empspacing="5"
       enabled="true"
       visible="true" />
    <sodipodi:guide
       position="95.02427,142.20874"
       orientation="0,-1"
       id="guide1"
       inkscape:locked="false" />
    <sodipodi:guide
       position="94.893202,156.88835"
       orientation="0,-1"
       id="guide2"
       inkscape:locked="false" />
    <sodipodi:guide
       position="87.906074,157.65706"
       orientation="1,0"
       id="guide3"
       inkscape:locked="false" />
    <sodipodi:guide
       position="110.22815,157.01942"
       orientation="1,0"
       id="guide4"
       inkscape:locked="false" />
    <sodipodi:guide
       position="90.52779,147.73898"
       orientation="0,-1"
       id="guide5"
       inkscape:locked="false" />
  </sodipodi:namedview>
  <defs
     id="defs1" />
  <path
     style="fill:#ffffff;fill-opacity:0;stroke:#000000;stroke-width:2;stroke-linecap:round;stroke-linejoin:round"
     d="m 108.349,131.04716 c -0.0331,0.43038 0.0511,0.86773 0,1.29704 -0.11385,0.95633 -0.38724,1.67126 -0.69485,2.59407 -0.28257,0.84772 -0.55123,1.70004 -0.83381,2.54776 -0.12974,0.38922 -0.30179,0.76427 -0.4169,1.15807 -0.17862,0.61107 -0.30121,1.23723 -0.46323,1.85291 -0.19463,0.73962 -0.498,1.43903 -0.69484,2.17717 -0.17564,0.65866 -0.28601,1.33364 -0.46323,1.99188 -0.0508,0.1886 -0.13451,0.36727 -0.18529,0.55587 -0.16053,0.59624 -0.24364,1.21254 -0.4169,1.80659 -0.14421,0.49443 -0.24345,0.64951 -0.37059,1.15807 -0.12377,0.49509 -0.18709,1.00067 -0.37058,1.48233 -0.13786,0.36189 -0.3194,0.70586 -0.46323,1.06543 -0.0799,0.19968 -0.12918,0.41308 -0.23161,0.60219 -0.29296,0.54086 -0.76964,0.94558 -1.34336,1.15807 -1.678848,0.6218 -3.092784,-0.32367 -4.678604,-1.06542 -0.926496,-0.43336 -1.771867,-1.02491 -2.686722,-1.48233"
     id="path21" />
  <path
     style="fill:#ffffff;fill-opacity:0;stroke:#000000;stroke-width:2;stroke-linecap:round;stroke-linejoin:round"
     d="m 103.20717,139.19997 c 0.0618,0.0309 0.15441,0.15441 0.18529,0.0926 0.0309,-0.0618 -0.13587,-0.0444 -0.18529,-0.0926 -0.58619,-0.57189 -1.15669,-1.16014 -1.71395,-1.76026 -0.24618,-0.26513 -0.47535,-0.54621 -0.69484,-0.83382 -0.71809,-0.94094 -0.79079,-1.01414 -1.019101,-2.26981 -0.0587,-0.32283 0.0011,-1.10414 0.185293,-1.38969 1.390098,-2.15464 6.677488,-2.21802 8.384428,-2.36246 2.31204,-0.19563 4.62941,-0.33908 6.94841,-0.4169 1.42706,-0.0479 5.14413,-0.0463 7.55062,-0.0463"
     id="path22" />
</svg>
