<?xml version="1.0" encoding="UTF-8" standalone="no"?>
<!-- Created with Inkscape (http://www.inkscape.org/) -->

<svg
   width="210mm"
   height="297mm"
   viewBox="0 0 210 297"
   version="1.1"
   id="svg1"
   inkscape:version="1.4 (86a8ad7, 2024-10-11)"
   sodipodi:docname="ts.svg"
   xmlns:inkscape="http://www.inkscape.org/namespaces/inkscape"
   xmlns:sodipodi="http://sodipodi.sourceforge.net/DTD/sodipodi-0.dtd"
   xmlns="http://www.w3.org/2000/svg"
   xmlns:svg="http://www.w3.org/2000/svg">
  <sodipodi:namedview
     id="namedview1"
     pagecolor="#ffffff"
     bordercolor="#999999"
     borderopacity="1"
     inkscape:showpageshadow="2"
     inkscape:pageopacity="0"
     inkscape:pagecheckerboard="0"
     inkscape:deskcolor="#d1d1d1"
     inkscape:document-units="mm"
     showgrid="true"
     showguides="true"
     inkscape:zoom="5.709669"
     inkscape:cx="355.01182"
     inkscape:cy="573.67599"
     inkscape:window-width="2560"
     inkscape:window-height="1351"
     inkscape:window-x="-9"
     inkscape:window-y="-9"
     inkscape:window-maximized="1"
     inkscape:current-layer="svg1">
    <inkscape:grid
       id="grid1"
       units="mm"
       originx="0"
       originy="0"
       spacingx="0.99999998"
       spacingy="1"
       empcolor="#0099e5"
       empopacity="0.30196078"
       color="#0099e5"
       opacity="0.14901961"
       empspacing="5"
       enabled="true"
       visible="true" />
    <sodipodi:guide
       position="95.02427,142.20874"
       orientation="0,-1"
       id="guide1"
       inkscape:locked="false" />
    <sodipodi:guide
       position="94.893202,156.88835"
       orientation="0,-1"
       id="guide2"
       inkscape:locked="false" />
    <sodipodi:guide
       position="94.762134,159.37865"
       orientation="1,0"
       id="guide3"
       inkscape:locked="false" />
    <sodipodi:guide
       position="110.22815,157.01942"
       orientation="1,0"
       id="guide4"
       inkscape:locked="false" />
    <sodipodi:guide
       position="90.52779,147.73898"
       orientation="0,-1"
       id="guide5"
       inkscape:locked="false" />
  </sodipodi:namedview>
  <defs
     id="defs1" />
  <path
     style="fill:none;stroke:#000000;stroke-width:2;stroke-linecap:round;stroke-linejoin:round"
     d="m 94.347267,141.89162 c 0.521917,-0.69241 1.285523,-0.74144 2.085279,-0.74144 1.202693,0 0.191206,-0.0454 1.390184,0.13902 0.156448,0.0241 0.756836,0.0343 0.926791,0.18536 0.106439,0.0946 0.177339,0.22368 0.278037,0.32438 0.348319,0.34831 0.763831,0.62481 1.112152,0.97313 0.46639,0.46639 1.16921,1.69782 1.43652,2.27063 0.56008,1.20018 0.19981,2.42516 -0.41705,3.52181 -0.44872,0.79771 -0.71297,1.76776 -1.343849,2.45599 -0.274251,0.29918 -0.656074,0.53866 -0.973132,0.78777 -0.322662,0.25352 -0.637807,0.50671 -0.97313,0.74143 -0.08103,0.0567 -0.146264,0.13553 -0.231698,0.18536 -0.10161,0.0593 -0.217567,0.0897 -0.324376,0.13902 -0.215448,0.0994 -0.773541,0.4015 -0.880449,0.4634 -0.488439,0.28278 -0.917776,0.66745 -1.390187,0.97313 -0.226854,0.14679 -0.457883,0.28767 -0.695092,0.41705 -0.115861,0.0632 -0.260906,0.0658 -0.370716,0.13902 -0.103618,0.0691 0.247325,0.0632 0.370716,0.0463 0.347184,-0.0473 0.815948,-0.14102 1.158489,-0.27804 0.30893,-0.12357 0.06334,-0.0644 0.324376,-0.13901 0.122473,-0.035 0.25364,-0.0425 0.370716,-0.0927 0.141946,-0.0608 0.253714,-0.18444 0.370715,-0.27804 0.158531,-0.12682 0.347121,-0.1979 0.509736,-0.32438 0.08621,-0.067 0.140817,-0.17111 0.231696,-0.23169 0.05748,-0.0383 0.129148,-0.0525 0.185359,-0.0927 0.114482,-0.0818 0.291296,-0.25159 0.370715,-0.37072 0.03832,-0.0575 0.04719,-0.13337 0.09268,-0.18536 0.06513,-0.0744 0.161759,-0.11542 0.231696,-0.18536 0.05461,-0.0546 0.08707,-0.12821 0.13902,-0.18536 0.102859,-0.11314 0.222083,-0.21071 0.324377,-0.32437 0.122134,-0.13571 0.148976,-0.33434 0.278037,-0.4634 0.03938,-0.0394 0.102772,-0.0504 0.139017,-0.0927 0.153358,-0.17892 0.354674,-0.55506 0.463397,-0.74144 0.165505,-0.28372 0.324906,-0.58369 0.463397,-0.88045 0.15464,-0.33138 0.21124,-0.71075 0.41705,-1.01947 0.0364,-0.0545 0.0964,-0.0893 0.13902,-0.13902 0.15781,-0.18411 0.30369,-0.37355 0.4634,-0.55607 0.48832,-0.55808 1.02729,-1.07435 1.5292,-1.62188 0.0886,-0.0966 0.19757,-0.17458 0.27804,-0.27804 0.38761,-0.49836 0.65466,-1.08049 0.97313,-1.62189 0.44198,-0.75135 0.9584,-1.51447 1.57554,-2.13161 0.28738,-0.28738 0.64417,-0.50646 0.97313,-0.74143 0.23056,-0.16469 0.34444,-0.2715 0.60242,-0.37072 0.31581,-0.12147 0.64136,-0.14389 0.97313,-0.18536 0.36445,-0.0456 0.85911,-0.13982 1.20482,0.0463 0.10622,0.0572 0.17885,0.16303 0.27804,0.2317 0.54593,0.37795 0.13834,-0.0513 0.69509,0.55607 0.0257,0.028 0.26607,0.42903 0.32438,0.37072 0.0733,-0.0734 -0.35373,-0.13562 -0.37071,-0.13902 -0.38071,-0.0761 -0.77197,-0.0463 -1.15849,-0.0463 -0.2956,0 -0.63981,-0.0493 -0.92679,0.0463 -0.38918,0.12973 -0.60315,0.33357 -0.92679,0.55607 -0.38712,0.26614 -0.80986,0.48752 -1.20483,0.74144 -0.48153,0.30955 -0.83674,0.76996 -1.25117,1.15849 -0.32573,0.30537 -0.64411,0.62518 -0.97313,0.92679 -0.0889,0.0815 -0.19273,0.14639 -0.27804,0.23169 -0.14856,0.14856 -0.23398,0.35022 -0.37071,0.50974 -0.0995,0.1161 -0.22487,0.20827 -0.32438,0.32437 -0.1631,0.19028 -0.52696,0.78961 -0.60241,0.92679 -0.17504,0.31825 -0.2571,0.67863 -0.37072,1.01947 -0.18086,0.54258 -0.3632,1.08586 -0.32438,1.66823 0.0384,0.57674 0.3963,1.04568 0.74144,1.48286 0.41113,0.52077 0.89879,1.07308 1.57554,1.25117 0.3613,0.0951 0.73882,0.12466 1.11215,0.13902 1.54107,0.0593 2.46837,-0.35092 3.89252,-0.83412 0.22784,-0.0773 1.77781,-0.57716 2.13162,-0.74143 0.15154,-0.0703 0.27803,-0.18536 0.41705,-0.27803"
     id="path11" />
</svg>
