<?xml version="1.0" encoding="UTF-8" standalone="no"?>
<!-- Created with Inkscape (http://www.inkscape.org/) -->

<svg
   width="210mm"
   height="297mm"
   viewBox="0 0 210 297"
   version="1.1"
   id="svg1"
   inkscape:version="1.4 (86a8ad7, 2024-10-11)"
   sodipodi:docname="m.svg"
   xmlns:inkscape="http://www.inkscape.org/namespaces/inkscape"
   xmlns:sodipodi="http://sodipodi.sourceforge.net/DTD/sodipodi-0.dtd"
   xmlns="http://www.w3.org/2000/svg"
   xmlns:svg="http://www.w3.org/2000/svg">
  <sodipodi:namedview
     id="namedview1"
     pagecolor="#ffffff"
     bordercolor="#999999"
     borderopacity="1"
     inkscape:showpageshadow="2"
     inkscape:pageopacity="0"
     inkscape:pagecheckerboard="0"
     inkscape:deskcolor="#d1d1d1"
     inkscape:document-units="mm"
     showgrid="true"
     showguides="true"
     inkscape:zoom="8.0746913"
     inkscape:cx="377.84726"
     inkscape:cy="557.7303"
     inkscape:window-width="2560"
     inkscape:window-height="1351"
     inkscape:window-x="-9"
     inkscape:window-y="-9"
     inkscape:window-maximized="1"
     inkscape:current-layer="svg1">
    <inkscape:grid
       id="grid1"
       units="mm"
       originx="0"
       originy="0"
       spacingx="0.99999998"
       spacingy="1"
       empcolor="#0099e5"
       empopacity="0.30196078"
       color="#0099e5"
       opacity="0.14901961"
       empspacing="5"
       enabled="true"
       visible="true" />
    <sodipodi:guide
       position="95.02427,142.20874"
       orientation="0,-1"
       id="guide1"
       inkscape:locked="false" />
    <sodipodi:guide
       position="94.893202,156.88835"
       orientation="0,-1"
       id="guide2"
       inkscape:locked="false" />
    <sodipodi:guide
       position="94.762134,159.37865"
       orientation="1,0"
       id="guide3"
       inkscape:locked="false" />
    <sodipodi:guide
       position="110.22815,157.01942"
       orientation="1,0"
       id="guide4"
       inkscape:locked="false" />
    <sodipodi:guide
       position="90.52779,147.73898"
       orientation="0,-1"
       id="guide5"
       inkscape:locked="false" />
  </sodipodi:namedview>
  <defs
     id="defs1" />
  <path
     style="fill:none;stroke:#000000;stroke-width:2;stroke-linecap:round;stroke-linejoin:round"
     d="m 94.827668,152.82524 c 0.04016,-0.0321 0.23776,-0.193 0.294905,-0.22937 0.2667,-0.16972 0.567333,-0.29892 0.819174,-0.4915 0.297825,-0.22775 0.532828,-0.51472 0.786407,-0.78641 0.18618,-0.19948 0.407834,-0.35485 0.589807,-0.55704 0.08331,-0.0926 0.144195,-0.20405 0.22937,-0.2949 0.126772,-0.13523 0.257977,-0.26643 0.393202,-0.3932 0.139806,-0.13107 0.131067,-0.0385 0.131067,-0.13107"
     id="path8" />
  <path
     style="fill:none;stroke:#000000;stroke-width:2;stroke-linecap:round;stroke-linejoin:round"
     d="m 99.93932,140.27549 c -0.0048,0.37324 -0.102454,0.7421 -0.131069,1.11407 -0.0059,0.0762 0.0059,0.15314 0,0.22937 -0.01524,0.19798 -0.08032,0.39204 -0.0983,0.58981 -0.0049,0.0544 0.01072,0.11028 0,0.16383 -0.01154,0.0577 -0.05501,0.10597 -0.06553,0.16384 -0.01172,0.0645 0.01077,0.13196 0,0.1966 -0.0737,0.44218 -0.0596,-0.0265 -0.0983,0.36044 -0.0054,0.0543 0.01072,0.11028 0,0.16383 -0.01154,0.0577 -0.054,0.10616 -0.06553,0.16384 -0.01072,0.0536 0.0068,0.10964 0,0.16383 -0.03451,0.27608 -0.127347,0.54551 -0.163835,0.81918 -0.01011,0.0758 0.01257,0.15395 0,0.22936 -0.0097,0.058 -0.05127,0.10678 -0.06553,0.16384 -0.120679,0.48272 0.03396,-0.008 -0.03277,0.42597 -0.03383,0.21987 -0.124291,0.43784 -0.163835,0.65534 -0.0098,0.0537 0.0083,0.10986 0,0.16384 -0.01371,0.089 -0.04787,0.17381 -0.06554,0.26213 -0.03029,0.15147 -0.04205,0.30607 -0.06553,0.45874 -0.02833,0.18418 -0.0798,0.37207 -0.0983,0.55704 -0.02186,0.21845 -0.04566,0.4367 -0.06553,0.65534 -0.0069,0.0761 0.0084,0.15338 0,0.22937 -0.02585,0.23271 -0.07717,0.45562 -0.0983,0.6881 -0.02725,0.29978 0,0.61605 0,0.91748 0,0.54612 0,1.09223 0,1.63835 0,0.56796 0,1.13592 0,1.70388 0,0.20966 -0.0352,0.47693 0,0.68811 0.01135,0.0681 0.05418,0.12846 0.06553,0.1966 0.01775,0.10659 0.02815,0.20136 0.0983,0.2949 0.218485,0.29132 0.728707,0.19661 1.048544,0.19661 0.430505,0 0.873215,-0.002 1.277915,-0.16384 0.15778,-0.0631 0.12862,-0.0807 0.2949,-0.16383 0.26367,-0.13184 0.0716,0.009 0.36044,-0.16384 0.1161,-0.0697 0.26517,-0.19964 0.36043,-0.2949 0.0386,-0.0386 0.0597,-0.0924 0.0983,-0.13107 0.0386,-0.0386 0.0924,-0.0597 0.13106,-0.0983 0.22662,-0.22661 0.40726,-0.49285 0.58981,-0.75364 0.25844,-0.3692 0.47164,-0.74999 0.68811,-1.14685 0.0994,-0.18232 0.21994,-0.36214 0.2949,-0.55704 0.0918,-0.23872 0.17185,-0.48011 0.26214,-0.72087 0.0584,-0.15577 0.14123,-0.30186 0.1966,-0.45874 0.10961,-0.31057 0.18249,-0.63167 0.26213,-0.95024 0.0858,-0.34324 0.2091,-0.67253 0.29491,-1.01578 0.0785,-0.31401 0.12531,-0.63454 0.1966,-0.95024 0.0835,-0.36984 0.14155,-0.74524 0.22937,-1.11408 0.024,-0.1008 0.0719,-0.19469 0.0983,-0.2949 0.0567,-0.21544 0.0996,-0.43481 0.13107,-0.65534 0.0347,-0.2431 0.0393,-0.58321 0.0655,-0.81917 0.0557,-0.50123 0.1358,-1.00268 0.16384,-1.50729 0.0315,-0.56677 -0.0654,-0.0343 0.0328,-0.85194 0.0107,-0.0894 0.0534,-0.17289 0.0655,-0.26213 0.0207,-0.1519 0.0148,-0.30649 0.0328,-0.45874 0.005,-0.0447 8e-4,-0.0992 0.0328,-0.13107 0.008,-0.008 0.0279,0.01 0.0328,0 0.0364,-0.0727 -0.0352,-0.12861 0.0328,-0.1966"
     id="path9" />
  <path
     style="fill:none;stroke:#000000;stroke-width:2;stroke-linecap:round;stroke-linejoin:round"
     d="m 106.03398,141.52063 c -0.0259,0.20746 -0.0475,0.41936 -0.0983,0.62257 -0.14479,0.57916 -0.36016,1.14519 -0.45874,1.73665 -0.10587,0.63522 -0.17356,1.2915 -0.22937,1.93326 -0.0247,0.28375 -0.0287,0.56951 -0.0655,0.85194 -0.0144,0.11045 -0.0437,0.21844 -0.0655,0.32767 -0.0219,0.13107 -0.0491,0.26135 -0.0655,0.3932 -0.0299,0.23942 -0.0529,0.47993 -0.0655,0.72087 -0.005,0.0982 0.0103,0.19715 0,0.29491 -0.003,0.0257 -0.0925,0.43674 -0.0983,0.52427 -0.0232,0.34841 -0.011,0.69996 -0.0328,1.04855 -0.0247,0.39471 -0.0328,0.78343 -0.0328,1.17961 0,0.27107 -0.011,0.52382 0.0328,0.7864 0.007,0.0435 -0.0141,0.34635 0,0.36044 0.008,0.008 0.0279,-0.01 0.0328,0 0.0237,0.0473 0.009,0.14928 0.0328,0.1966 0.005,0.01 0.0251,-0.008 0.0328,0 0.0381,0.0381 0.064,0.23771 0.0983,0.29491 0.0432,0.0719 0.0845,0.0939 0.13107,0.16383 0.0182,0.0273 -0.008,0.0665 0,0.0983 0.017,0.068 0.14771,0.26318 0.16383,0.32767 0.008,0.0318 -0.0122,0.0679 0,0.0983 0.0229,0.0574 0.0925,0.0828 0.13107,0.13107 0.1335,0.16688 0.25071,0.36006 0.42597,0.49151 0.14624,0.10967 0.31463,0.14746 0.49151,0.1966 0.81732,0.22703 1.6682,0.14498 2.49029,0.32767"
     id="path10" />
  <path
     style="fill:none;stroke:#000000;stroke-width:2;stroke-linecap:round;stroke-linejoin:round"
     d="m 107.37743,154.07039 c 0.0437,0.0219 0.0825,0.0607 0.13106,0.0655 0.34412,0.0344 0.89379,-0.48836 1.04855,-0.65534 0.48073,-0.51868 0.99451,-1.3108 1.31068,-1.93325 0.16627,-0.32735 0.28398,-0.67718 0.42597,-1.01578"
     id="path12" />
</svg>
