<?xml version="1.0" encoding="UTF-8" standalone="no"?>
<!-- Created with Inkscape (http://www.inkscape.org/) -->

<svg
   width="210mm"
   height="297mm"
   viewBox="0 0 210 297"
   version="1.1"
   id="svg1"
   inkscape:version="1.4 (86a8ad7, 2024-10-11)"
   sodipodi:docname="tvzZ.svg"
   xmlns:inkscape="http://www.inkscape.org/namespaces/inkscape"
   xmlns:sodipodi="http://sodipodi.sourceforge.net/DTD/sodipodi-0.dtd"
   xmlns="http://www.w3.org/2000/svg"
   xmlns:svg="http://www.w3.org/2000/svg">
  <sodipodi:namedview
     id="namedview1"
     pagecolor="#ffffff"
     bordercolor="#999999"
     borderopacity="1"
     inkscape:showpageshadow="2"
     inkscape:pageopacity="0"
     inkscape:pagecheckerboard="0"
     inkscape:deskcolor="#d1d1d1"
     inkscape:document-units="mm"
     showgrid="true"
     showguides="true"
     inkscape:zoom="5.7117319"
     inkscape:cx="350.15649"
     inkscape:cy="522.52103"
     inkscape:window-width="2560"
     inkscape:window-height="1351"
     inkscape:window-x="-9"
     inkscape:window-y="-9"
     inkscape:window-maximized="1"
     inkscape:current-layer="svg1">
    <inkscape:grid
       id="grid1"
       units="mm"
       originx="0"
       originy="0"
       spacingx="0.99999998"
       spacingy="1"
       empcolor="#0099e5"
       empopacity="0.30196078"
       color="#0099e5"
       opacity="0.14901961"
       empspacing="5"
       enabled="true"
       visible="true" />
    <sodipodi:guide
       position="95.02427,142.20874"
       orientation="0,-1"
       id="guide1"
       inkscape:locked="false" />
    <sodipodi:guide
       position="94.893202,156.88835"
       orientation="0,-1"
       id="guide2"
       inkscape:locked="false" />
    <sodipodi:guide
       position="87.906074,157.65706"
       orientation="1,0"
       id="guide3"
       inkscape:locked="false" />
    <sodipodi:guide
       position="110.22815,157.01942"
       orientation="1,0"
       id="guide4"
       inkscape:locked="false" />
    <sodipodi:guide
       position="90.52779,147.73898"
       orientation="0,-1"
       id="guide5"
       inkscape:locked="false" />
  </sodipodi:namedview>
  <defs
     id="defs1" />
  <path
     style="fill:#ffffff;fill-opacity:0;stroke:#000000;stroke-width:2;stroke-linecap:round;stroke-linejoin:round"
     d="m 91.672792,125.95165 c 0.295265,1.00582 0.08569,2.04523 -0.04632,3.05731 -0.06668,0.51124 -0.118607,1.01741 -0.18529,1.52865 -0.05008,0.38393 -0.161631,0.78017 -0.231614,1.15807 -0.133942,0.72329 -0.238924,1.45304 -0.370583,2.17717 -0.04768,0.26225 -0.06883,0.53033 -0.138967,0.78749 -0.06943,0.25455 -0.194501,0.49085 -0.277937,0.74116 -0.137504,0.41251 -0.282485,0.82492 -0.370583,1.25072 -0.0444,0.21463 -0.15829,1.39677 -0.185291,1.57497 -0.153122,1.0106 -0.453927,1.99151 -0.555873,3.01098 -0.0462,0.46196 -0.07815,0.92566 -0.09265,1.38969 -0.02724,0.87168 0.04104,0.69603 -0.04632,1.48233 -0.06708,0.6037 -0.260514,1.16589 -0.370583,1.76026 -0.141732,0.76535 -0.171053,1.54658 -0.277937,2.31614 -0.121375,0.87391 -0.372218,1.7243 -0.50955,2.59408 -0.165169,1.04607 -0.162428,2.10917 -0.370584,3.14995"
     id="path27" />
  <path
     style="fill:#ffffff;fill-opacity:0;stroke:#000000;stroke-width:2;stroke-linecap:round;stroke-linejoin:round"
     d="m 89.958851,140.6823 c 0.154408,-0.15441 0.286626,-0.33479 0.463227,-0.46323 0.746048,-0.54258 1.810136,-0.41895 2.640399,-0.46323 0.462571,-0.0247 0.926528,-0.008 1.389684,0 1.120521,0.02 1.46531,-0.021 2.547752,0.46323 0.409038,0.18299 1.057982,1.12374 1.297038,1.48233 0.998379,1.49757 1.785189,2.92751 1.621298,4.77125 -0.110202,1.23975 -0.05464,1.15292 -0.463227,2.0382 -0.10196,0.22091 -0.590616,1.18055 -0.694844,1.29704 -0.154614,0.1728 -1.216448,1.11898 -1.667618,1.38968 -0.402696,0.24162 -0.841886,0.41744 -1.250717,0.64852 -0.284057,0.16055 -0.779032,0.48969 -1.065425,0.6022 -0.463917,0.18225 -0.966268,0.25022 -1.436004,0.4169 -0.357418,0.12683 -1.247516,0.52663 -1.574975,0.6022 -1.078378,0.24885 -2.206363,0.009 -3.288919,-0.0463 -0.850815,-0.0436 -1.698765,0.0463 -2.547752,0.0463"
     id="path28" />
  <path
     style="fill:#ffffff;fill-opacity:0;stroke:#000000;stroke-width:2;stroke-linecap:round;stroke-linejoin:round"
     d="m 100.28883,144.11019 c 0.62376,-0.61331 0.99028,-1.42299 1.48233,-2.13085 0.66287,-0.9536 1.3431,-1.89532 2.0382,-2.82569 0.30888,-0.41342 0.67144,-0.78546 0.97278,-1.20439 0.43997,-0.61167 1.54965,-2.44553 1.89923,-3.05731 0.0226,-0.0395 1.97213,-3.51108 2.36247,-4.30802 0.27379,-0.55899 0.47698,-1.15034 0.74116,-1.71394 0.19051,-0.40642 0.38589,-0.8111 0.6022,-1.20439 0.17531,-0.31874 0.34813,-0.58118 0.46322,-0.92646 0.005,-0.0147 0,0.0309 0,0.0463 0,0.15441 0,0.30882 0,0.46323 0,0.23162 0.0521,0.46916 0,0.69484 -0.18124,0.7854 -0.4479,1.54886 -0.69484,2.31614 -0.18551,0.57644 -0.41737,1.13729 -0.60219,1.71395 -0.79972,2.49513 -0.36201,1.41833 -1.11175,4.12272 -0.22837,0.82378 -0.49697,1.63588 -0.74116,2.45511 -0.77835,2.61123 -1.47063,5.2436 -2.17717,7.87488 -0.35698,1.32944 -0.83317,2.81919 -0.97278,4.21537 -0.0491,0.4914 -0.11628,1.90047 0.32426,2.40878 1.24581,1.43748 6.08102,-1.3772 6.53151,-1.57497"
     id="path29" />
  <path
     style="fill:#ffffff;fill-opacity:0;stroke:#000000;stroke-width:2;stroke-linecap:round;stroke-linejoin:round"
     d="m 91.209565,126.18327 c -0.760817,0.50011 -1.397328,1.16571 -2.038202,1.80659"
     id="path30" />
</svg>
