<?xml version="1.0" encoding="UTF-8" standalone="no"?>
<!-- Created with Inkscape (http://www.inkscape.org/) -->

<svg
   width="210mm"
   height="297mm"
   viewBox="0 0 210 297"
   version="1.1"
   id="svg1"
   inkscape:version="1.4 (86a8ad7, 2024-10-11)"
   sodipodi:docname="yuZ.svg"
   xmlns:inkscape="http://www.inkscape.org/namespaces/inkscape"
   xmlns:sodipodi="http://sodipodi.sourceforge.net/DTD/sodipodi-0.dtd"
   xmlns="http://www.w3.org/2000/svg"
   xmlns:svg="http://www.w3.org/2000/svg">
  <sodipodi:namedview
     id="namedview1"
     pagecolor="#ffffff"
     bordercolor="#999999"
     borderopacity="1"
     inkscape:showpageshadow="2"
     inkscape:pageopacity="0"
     inkscape:pagecheckerboard="0"
     inkscape:deskcolor="#d1d1d1"
     inkscape:document-units="mm"
     showgrid="true"
     showguides="true"
     inkscape:zoom="5.7117319"
     inkscape:cx="350.15649"
     inkscape:cy="508.68984"
     inkscape:window-width="2560"
     inkscape:window-height="1351"
     inkscape:window-x="-9"
     inkscape:window-y="-9"
     inkscape:window-maximized="1"
     inkscape:current-layer="svg1">
    <inkscape:grid
       id="grid1"
       units="mm"
       originx="0"
       originy="0"
       spacingx="0.99999998"
       spacingy="1"
       empcolor="#0099e5"
       empopacity="0.30196078"
       color="#0099e5"
       opacity="0.14901961"
       empspacing="5"
       enabled="true"
       visible="true" />
    <sodipodi:guide
       position="95.02427,142.20874"
       orientation="0,-1"
       id="guide1"
       inkscape:locked="false" />
    <sodipodi:guide
       position="94.893202,156.88835"
       orientation="0,-1"
       id="guide2"
       inkscape:locked="false" />
    <sodipodi:guide
       position="87.906074,157.65706"
       orientation="1,0"
       id="guide3"
       inkscape:locked="false" />
    <sodipodi:guide
       position="110.22815,157.01942"
       orientation="1,0"
       id="guide4"
       inkscape:locked="false" />
    <sodipodi:guide
       position="90.52779,147.73898"
       orientation="0,-1"
       id="guide5"
       inkscape:locked="false" />
  </sodipodi:namedview>
  <defs
     id="defs1" />
  <path
     style="fill:#ffffff;fill-opacity:0;stroke:#000000;stroke-width:2;stroke-linecap:round;stroke-linejoin:round"
     d="m 89.310331,127.29501 c 0.541504,0.15603 1.149339,0.20171 1.713941,0.13897 0.06328,-0.007 0.140274,-0.0913 0.185293,-0.0463 0.148111,0.14811 0.0077,1.50623 0,1.71394 -0.02854,0.77052 -0.04632,1.54479 -0.04632,2.31614 0,0.58676 0.04873,1.17554 0,1.76027 -0.02151,0.25824 -0.231323,1.4728 -0.277937,1.76026 -0.04754,0.29319 -0.07279,0.59059 -0.13897,0.88014 -0.05767,0.25233 -0.159445,0.49259 -0.231613,0.74116 -0.173024,0.59598 -0.210336,0.78209 -0.32426,1.38969 -0.141396,0.75411 -0.194136,1.51509 -0.324258,2.26981 -0.19169,1.1118 -0.08156,0.21142 -0.231613,1.11175 -0.100013,0.60006 -0.185412,1.20516 -0.277937,1.80659 -0.05912,0.38427 -0.07235,0.77502 -0.13897,1.15806 -0.09963,0.57291 -0.268102,1.14007 -0.370583,1.71395 -0.137171,0.76816 -0.145839,1.54557 -0.277934,2.31614 -0.03227,0.18825 -0.09664,0.36963 -0.13897,0.55587 -0.140624,0.61875 -0.255262,1.26432 -0.277937,1.89924 -0.01939,0.54298 0.0082,1.0418 0.04632,1.57497 0.02204,0.30842 0.008,0.61964 0.04632,0.92646 0.01341,0.10724 0.243814,0.94258 0.277937,1.06542 0.03853,0.13871 0.138967,0.35159 0.138967,0.50955"
     id="path1" />
  <path
     style="fill:#ffffff;fill-opacity:0;stroke:#000000;stroke-width:2;stroke-linecap:round;stroke-linejoin:round"
     d="m 90.005171,142.34992 c 0.487532,-0.48753 0.07406,-0.10295 0.787488,-0.64852 0.0958,-0.0733 0.17295,-0.17227 0.277937,-0.23161 1.876673,-1.06073 4.177268,-1.20555 6.207254,-0.50955 0.764694,0.26218 1.503482,0.52829 1.852912,1.29703 0.189579,0.41708 0.09004,0.33416 0.138967,1.0191 0.01214,0.17012 0.03759,0.33923 0.04632,0.50955 0.02048,0.39938 0.117147,1.72684 0.04632,2.26982 -0.07858,0.60241 -0.374126,1.12025 -0.602197,1.66762 -0.08829,0.21189 -0.146362,0.43539 -0.231613,0.64852 -0.177168,0.44292 -0.458002,0.95327 -0.694844,1.34336 -0.109601,0.33069 -0.425386,0.50832 -0.602194,0.78749 -1.732293,2.7352 0.08864,0.14406 -0.926457,1.43601 -0.252974,0.32196 -0.09958,0.24511 -0.416904,0.50955 -0.64752,0.5396 -1.437312,0.85612 -2.177172,1.25071 -0.939125,0.50087 -1.900309,1.06066 -2.964659,1.25072 -0.562988,0.10053 -1.231992,0.0926 -1.806588,0.0926"
     id="path2" />
  <path
     style="fill:#ffffff;fill-opacity:0;stroke:#000000;stroke-width:2;stroke-linecap:round;stroke-linejoin:round"
     d="m 108.67325,126.69282 c 0.0299,0.26946 0.0833,0.60937 0.0463,0.88013 -0.0258,0.18924 -0.0942,0.37021 -0.13897,0.55587 -0.23382,0.96866 -0.53446,1.89035 -0.88013,2.82569 -0.1372,0.37125 -0.28936,0.73708 -0.41691,1.11175 -0.31171,0.91564 -0.54336,1.85676 -0.83381,2.77937 -0.56943,1.80879 -1.19233,3.59228 -1.52865,5.46609 -0.31375,1.74805 -0.2526,3.52558 -0.46323,5.2808 -0.15018,1.25145 -0.044,-0.20887 -0.18529,1.25071 -0.12393,1.2806 -0.23161,2.5573 -0.23161,3.84479 0,0.30882 -0.0228,0.61848 0,0.92646 0.0435,0.58709 0.13451,1.12804 0.37058,1.66762 0.0998,0.2281 0.25341,0.42883 0.37058,0.64852 0.0923,0.17297 0.45569,0.89229 0.69484,0.92645 0.15073,0.0215 0.33821,-0.14917 0.41691,-0.23161 0.25676,-0.269 0.49836,-0.55216 0.74116,-0.83381 0.24406,-0.28311 0.43819,-0.60839 0.69484,-0.88014 0.15761,-0.16688 0.36089,-0.28832 0.50956,-0.46322 0.46805,-0.55066 0.64331,-1.53858 0.74116,-2.2235"
     id="path3" />
  <path
     style="fill:#ffffff;fill-opacity:0;stroke:#000000;stroke-width:2;stroke-linecap:round;stroke-linejoin:round"
     d="m 97.787401,148.27923 c 0.0772,-0.0155 0.161192,-0.0111 0.231613,-0.0463 0.421624,-0.21081 0.799214,-0.50025 1.204391,-0.74116 1.078125,-0.64105 2.040125,-1.15288 3.242595,-1.52865 0.52511,-0.0577 1.00195,-0.27796 1.52865,-0.27796"
     id="path4" />
</svg>
