<?xml version="1.0" encoding="UTF-8" standalone="no"?>
<!-- Created with Inkscape (http://www.inkscape.org/) -->

<svg
   width="210mm"
   height="297mm"
   viewBox="0 0 210 297"
   version="1.1"
   id="svg1"
   inkscape:version="1.4 (86a8ad7, 2024-10-11)"
   sodipodi:docname="pZ.svg"
   xmlns:inkscape="http://www.inkscape.org/namespaces/inkscape"
   xmlns:sodipodi="http://sodipodi.sourceforge.net/DTD/sodipodi-0.dtd"
   xmlns="http://www.w3.org/2000/svg"
   xmlns:svg="http://www.w3.org/2000/svg">
  <sodipodi:namedview
     id="namedview1"
     pagecolor="#ffffff"
     bordercolor="#999999"
     borderopacity="1"
     inkscape:showpageshadow="2"
     inkscape:pageopacity="0"
     inkscape:pagecheckerboard="0"
     inkscape:deskcolor="#d1d1d1"
     inkscape:document-units="mm"
     showgrid="true"
     showguides="true"
     inkscape:zoom="5.7117319"
     inkscape:cx="350.15649"
     inkscape:cy="522.52103"
     inkscape:window-width="2560"
     inkscape:window-height="1351"
     inkscape:window-x="-9"
     inkscape:window-y="-9"
     inkscape:window-maximized="1"
     inkscape:current-layer="svg1">
    <inkscape:grid
       id="grid1"
       units="mm"
       originx="0"
       originy="0"
       spacingx="0.99999998"
       spacingy="1"
       empcolor="#0099e5"
       empopacity="0.30196078"
       color="#0099e5"
       opacity="0.14901961"
       empspacing="5"
       enabled="true"
       visible="true" />
    <sodipodi:guide
       position="95.02427,142.20874"
       orientation="0,-1"
       id="guide1"
       inkscape:locked="false" />
    <sodipodi:guide
       position="94.893202,156.88835"
       orientation="0,-1"
       id="guide2"
       inkscape:locked="false" />
    <sodipodi:guide
       position="87.906074,157.65706"
       orientation="1,0"
       id="guide3"
       inkscape:locked="false" />
    <sodipodi:guide
       position="110.22815,157.01942"
       orientation="1,0"
       id="guide4"
       inkscape:locked="false" />
    <sodipodi:guide
       position="90.52779,147.73898"
       orientation="0,-1"
       id="guide5"
       inkscape:locked="false" />
  </sodipodi:namedview>
  <defs
     id="defs1" />
  <path
     style="fill:#ffffff;fill-opacity:0;stroke:#000000;stroke-width:2;stroke-linecap:round;stroke-linejoin:round"
     d="m 88.708134,129.24057 c 0,-0.10931 -0.01212,-0.32195 0.04632,-0.4169 0.380317,-0.61802 1.194247,-0.8519 1.806588,-1.15807 0.329274,-0.16464 0.656577,-0.32628 1.019101,-0.41691 0.434335,-0.10858 0.903991,-0.10683 1.343361,-0.18529 0.280284,-0.05 0.551955,-0.14503 0.833811,-0.18529 0.259857,-0.0371 0.524991,0 0.787487,0 0.277937,0 0.559654,-0.0457 0.83381,0 0.546188,0.091 1.091589,0.4233 1.528652,0.74116 0.402923,0.29304 0.971587,0.57914 1.111747,1.11175 0.284665,1.08173 0.185044,2.41469 0.13897,3.52053 -0.01349,0.32398 0.01619,0.64893 0,0.97278 -0.03122,0.62428 -0.214347,1.20768 -0.370583,1.80659 -0.052,0.19934 -0.07899,0.40511 -0.13897,0.6022 -0.04842,0.15909 -0.12469,0.30836 -0.185291,0.46322 -0.227581,0.5816 -0.427389,1.17007 -0.741164,1.71395 -0.111283,0.19289 -0.261773,0.36157 -0.370583,0.55587 -0.108019,0.19289 -0.182549,0.40275 -0.277937,0.6022 -0.221202,0.46251 -0.299217,0.56062 -0.50955,1.06542 -0.152223,0.36534 -0.272682,0.74318 -0.416904,1.11175 -0.186494,0.47659 -0.386853,0.95309 -0.555874,1.436 -0.05325,0.15216 -0.08571,0.31107 -0.138967,0.46323 -0.268817,0.76805 -0.100507,0.16421 -0.416907,0.97278 -0.292832,0.74835 -0.528087,1.51869 -0.926454,2.2235 -0.09906,0.17526 -0.22184,0.33622 -0.32426,0.50955 -0.09843,0.16656 -0.174067,0.34632 -0.277937,0.50955 -0.112755,0.17718 -0.261384,0.33015 -0.370583,0.50955 -0.107712,0.17695 -0.181811,0.37236 -0.277937,0.55587 -0.07376,0.14082 -0.176655,0.26773 -0.231614,0.4169 -0.173895,0.47201 -0.194524,1.16716 -0.277937,1.66763 -0.02341,0.14042 -0.07774,0.27532 -0.09264,0.4169 -0.03071,0.29177 0,0.58676 0,0.88013 0,0.2625 -0.03469,0.5273 0,0.78749 0.09871,0.74032 0.603247,1.62618 1.250714,2.0382 0.77434,0.49276 2.7886,0.68558 3.705823,0.6022 0.21576,-0.0196 0.35791,-0.17223 0.555874,-0.23161 0.08996,-0.027 0.187322,-0.0216 0.277937,-0.0463 0.308893,-0.0842 0.69148,-0.2143 0.972777,-0.37058 0.593805,-0.32989 1.08023,-0.91018 1.482328,-1.43601 0.279683,-0.36573 0.101722,-0.1989 0.370584,-0.60219 0.05484,-0.0823 0.130444,-0.14935 0.185294,-0.23162 0.13811,-0.20716 0.23247,-0.44135 0.37058,-0.64852 0.0548,-0.0823 0.13183,-0.14844 0.18529,-0.23161 0.21934,-0.3412 0.39322,-0.71713 0.6022,-1.06542 0.2696,-0.44935 0.59757,-0.82458 0.83381,-1.29704 0.36615,-0.7323 0.12313,-0.29571 0.4169,-1.11175 0.23922,-0.66448 0.56136,-1.29586 0.83381,-1.94555 0.30417,-0.72534 0.45802,-1.49204 0.74117,-2.2235 0.32231,-0.83264 0.6899,-1.6528 0.97278,-2.50143 0.47168,-1.41505 0.7764,-2.88139 1.20439,-4.30802 0.30895,-1.02985 0.67935,-2.03804 1.0191,-3.0573 0.0664,-0.19924 0.11155,-0.40555 0.18529,-0.6022 0.0655,-0.17469 0.15441,-0.3397 0.23161,-0.50955 0.0772,-0.18529 0.16302,-0.36723 0.23162,-0.55587 0.0551,-0.15151 0.0857,-0.31107 0.13897,-0.46323 0.22649,-0.64713 0.54204,-1.27924 0.83381,-1.89923 0.0588,-0.12497 0.13399,-0.24236 0.18529,-0.37059 0.0116,-0.0289 0.1712,-0.69484 0.23161,-0.69484 0.0154,0 0.004,0.0315 0,0.0463 -0.0421,0.14031 -0.0969,0.2766 -0.13897,0.41691 -0.10117,0.33726 -0.16659,0.68506 -0.27793,1.0191 -0.16878,0.50634 -0.40458,0.98827 -0.6022,1.48233 -0.0544,0.13601 -0.0926,0.27794 -0.13897,0.4169 -0.0618,0.15441 -0.12075,0.30996 -0.18529,0.46323 -0.11803,0.28032 -0.23456,0.56177 -0.37058,0.83381 -0.0557,0.11135 -0.13421,0.21074 -0.18529,0.32426 -0.15062,0.3347 -0.27448,0.68084 -0.41691,1.0191 -0.12907,0.30655 -0.27921,0.60665 -0.37058,0.92646 -0.0474,0.16599 -0.0472,0.343 -0.0926,0.50955 -0.0476,0.17436 -0.13773,0.33519 -0.18529,0.50955 -0.11556,0.42374 -0.15983,0.87186 -0.27793,1.29704 -0.3759,1.35322 0.10776,-0.58552 -0.27794,0.88013 -0.0362,0.13767 -0.0618,0.27794 -0.0926,0.41691 -0.0463,0.18529 -0.0887,0.37161 -0.13896,0.55587 -0.20213,0.74112 -0.5475,1.43017 -0.74117,2.17717 -0.18732,0.72253 -0.35753,1.48359 -0.46323,2.22349 -0.0687,0.48086 -0.11586,0.99708 -0.13896,1.48233 -0.007,0.15424 0.0154,0.30959 0,0.46323 -0.0265,0.26523 -0.10591,0.523 -0.13897,0.78749 -0.0475,0.37989 -0.0587,0.7833 -0.13897,1.15807 -0.0205,0.0955 -0.0766,0.18161 -0.0927,0.27793 -0.0152,0.0914 0.0141,0.18637 0,0.27794 -0.0797,0.51801 -0.30303,1.06253 -0.4169,1.57498 -0.0771,0.34675 -0.0463,0.71225 -0.0463,1.06542 0,0.24568 -0.0627,0.75329 0,0.97278 0.0153,0.0535 0.0791,0.085 0.0926,0.13897 0.0187,0.0749 -0.01,0.155 0,0.23161 0.0582,0.46585 0.0238,-0.11268 0.0927,0.23161 0.009,0.0454 -0.0113,0.094 0,0.13897 0.0141,0.0566 0.10901,0.17171 0.13897,0.23162 0.0204,0.0408 0.0702,0.20914 0.0926,0.23161 0.0394,0.0394 0.0996,0.0533 0.13897,0.0926 0.10579,0.10579 0.17397,0.26662 0.27794,0.37058 0.0488,0.0488 0.13004,0.0512 0.18529,0.0926 0.0524,0.0393 0.0768,0.11825 0.13897,0.13896 0.16491,0.055 0.57578,0.1399 0.74116,0.0926 0.0535,-0.0153 0.0854,-0.0773 0.13897,-0.0926 0.0594,-0.017 0.125,0.0134 0.18529,0 0.20485,-0.0455 0.21496,-0.0919 0.37058,-0.18529 0.84105,-0.50463 1.26698,-1.07451 1.89924,-1.80659 0.16429,-0.19023 0.34718,-0.36399 0.50955,-0.55587 0.17758,-0.20987 0.29835,-0.47252 0.50955,-0.64852 0.67412,-0.56177 0.96006,-0.52638 1.76026,-0.69484"
     id="path43" />
</svg>
