<?xml version="1.0" encoding="UTF-8" standalone="no"?>
<!-- Created with Inkscape (http://www.inkscape.org/) -->

<svg
   width="210mm"
   height="297mm"
   viewBox="0 0 210 297"
   version="1.1"
   id="svg1"
   inkscape:version="1.4 (86a8ad7, 2024-10-11)"
   sodipodi:docname="ะบ.svg"
   xmlns:inkscape="http://www.inkscape.org/namespaces/inkscape"
   xmlns:sodipodi="http://sodipodi.sourceforge.net/DTD/sodipodi-0.dtd"
   xmlns="http://www.w3.org/2000/svg"
   xmlns:svg="http://www.w3.org/2000/svg">
  <sodipodi:namedview
     id="namedview1"
     pagecolor="#ffffff"
     bordercolor="#999999"
     borderopacity="1"
     inkscape:showpageshadow="2"
     inkscape:pageopacity="0"
     inkscape:pagecheckerboard="0"
     inkscape:deskcolor="#d1d1d1"
     inkscape:document-units="mm"
     showgrid="true"
     showguides="true"
     inkscape:zoom="4.5769094"
     inkscape:cx="385.63141"
     inkscape:cy="548.07727"
     inkscape:window-width="1398"
     inkscape:window-height="1341"
     inkscape:window-x="1272"
     inkscape:window-y="0"
     inkscape:window-maximized="0"
     inkscape:current-layer="svg1">
    <inkscape:grid
       id="grid1"
       units="mm"
       originx="0"
       originy="0"
       spacingx="0.99999998"
       spacingy="1"
       empcolor="#0099e5"
       empopacity="0.30196078"
       color="#0099e5"
       opacity="0.14901961"
       empspacing="5"
       enabled="true"
       visible="true" />
    <sodipodi:guide
       position="95.02427,142.20874"
       orientation="0,-1"
       id="guide1"
       inkscape:locked="false" />
    <sodipodi:guide
       position="94.893202,156.88835"
       orientation="0,-1"
       id="guide2"
       inkscape:locked="false" />
    <sodipodi:guide
       position="94.762134,159.37865"
       orientation="1,0"
       id="guide3"
       inkscape:locked="false" />
    <sodipodi:guide
       position="110.22815,157.01942"
       orientation="1,0"
       id="guide4"
       inkscape:locked="false" />
    <sodipodi:guide
       position="90.52779,147.73898"
       orientation="0,-1"
       id="guide5"
       inkscape:locked="false" />
  </sodipodi:namedview>
  <defs
     id="defs1" />
  <path
     style="fill:none;stroke:#000000;stroke-width:1.265;stroke-linecap:round;stroke-linejoin:round;stroke-dasharray:none;stroke-dashoffset:0;stroke-opacity:1;paint-order:normal"
     d="m 100.75986,140.24293 c 0.0771,0.0193 0.21196,0.13488 0.23123,0.0578 0.0193,-0.0771 -0.24429,-0.13617 -0.23123,-0.0578 0.0454,0.27214 0.27426,0.48533 0.34685,0.7515 0.0921,0.33774 -0.0188,1.3279 -0.11562,1.67644 -0.3397,1.22294 -0.005,-0.10006 -0.34685,0.92494 -0.11972,0.35915 -0.17612,0.737 -0.28904,1.09835 -0.17749,0.56798 -0.402621,1.13215 -0.635889,1.67644 -0.105725,0.2467 -0.169013,0.51145 -0.289044,0.75151 -0.490114,0.98023 -1.029025,1.93318 -1.560822,2.89042 -0.197554,0.35559 -0.341347,0.76692 -0.578083,1.09835 -0.115765,0.16208 -0.28431,0.30201 -0.404659,0.46247 -0.116985,0.15598 0.0011,0.0947 -0.115617,0.28904 -0.08017,0.13362 -0.20021,0.27142 -0.289042,0.40466 -0.05504,0.0826 -0.118382,0.033 -0.173423,0.11562 -0.02138,0.0321 0,0.0771 0,0.11561 -0.01926,0.0385 -0.03196,0.0812 -0.05781,0.11562 -0.290129,0.38684 -0.552585,0.82421 -0.751507,1.27178 -0.13117,0.29513 -0.162904,0.66216 -0.34685,0.92494 -0.165754,0.23679 -0.34685,0.46246 -0.520274,0.69369"
     id="path20" />
  <path
     style="fill:none;stroke:#000000;stroke-width:1.265;stroke-linecap:round;stroke-linejoin:round;stroke-dasharray:none;stroke-dashoffset:0;stroke-opacity:1;paint-order:normal"
     d="m 98.967802,148.56732 c 0.688882,-0.25432 1.466838,-0.27939 2.138908,-0.57808 0.91693,-0.40753 1.60482,-1.3014 2.25452,-2.02329 0.0911,-0.10128 0.2089,-0.17885 0.28904,-0.28905 0.076,-0.10454 0.10568,-0.23676 0.17343,-0.34684 0.0869,-0.14118 0.20552,-0.26148 0.28904,-0.40466 0.0523,-0.0896 0.0692,-0.19623 0.11562,-0.28904 0.13154,-0.26309 0.3392,-0.48445 0.46246,-0.75151 0.45176,-0.9788 -0.2491,0.17728 0.28905,-0.80932 0.15801,-0.28969 0.45919,-0.74824 0.69369,-0.98274 0.0491,-0.0491 0.1243,-0.0665 0.17343,-0.11562 0.0491,-0.0491 0.0665,-0.12429 0.11561,-0.17342 0.2229,-0.2229 0.69794,-0.21784 0.98275,-0.28904 0.37943,-0.0949 0.77151,-0.22116 1.15616,-0.28904 0.56781,-0.10021 1.16026,-0.11562 1.73425,-0.11562"
     id="path22" />
  <path
     style="fill:none;stroke:#000000;stroke-width:1.265;stroke-linecap:round;stroke-linejoin:round;stroke-dasharray:none;stroke-dashoffset:0;stroke-opacity:1;paint-order:normal"
     d="m 99.777117,148.79855 c 1.239493,-0.0623 1.097633,0.16213 1.849863,0.98275 0.1746,0.19047 0.547,0.48743 0.6937,0.7515 0.20666,0.37199 0.36928,0.79075 0.57809,1.15617 0.28454,0.49795 0.0772,-0.0319 0.28904,0.46247 0.16247,0.3791 0.27747,0.78617 0.46246,1.15616 0.11971,0.23941 0.30775,0.4771 0.46247,0.6937 0.1746,0.24443 0.6443,0.85477 0.92493,0.92493 0.0561,0.014 0.11859,-0.0183 0.17343,0 0.11761,0.0392 0.33453,0.12178 0.46246,0.0578 0.51562,-0.25781 0.7016,-0.5329 0.98275,-0.98274 0.14743,-0.23589 0.31503,-0.45781 0.46246,-0.6937 0.26091,-0.41746 0.38881,-0.90602 0.63589,-1.32959 0.17053,-0.29232 0.35549,-0.5705 0.52028,-0.86713 0.12064,-0.21715 0.24115,-0.50683 0.40466,-0.6937 0.0634,-0.0725 0.1631,-0.10529 0.23123,-0.17342 0.11721,-0.11721 0.20854,-0.25975 0.28904,-0.40466 0.28325,-0.50985 0.34562,-0.86712 1.04055,-0.86712"
     id="path23" />
</svg>
