<?xml version="1.0" encoding="UTF-8" standalone="no"?>
<!-- Created with Inkscape (http://www.inkscape.org/) -->

<svg
   width="210mm"
   height="297mm"
   viewBox="0 0 210 297"
   version="1.1"
   id="svg1"
   inkscape:version="1.4 (86a8ad7, 2024-10-11)"
   sodipodi:docname="sh.svg"
   xmlns:inkscape="http://www.inkscape.org/namespaces/inkscape"
   xmlns:sodipodi="http://sodipodi.sourceforge.net/DTD/sodipodi-0.dtd"
   xmlns="http://www.w3.org/2000/svg"
   xmlns:svg="http://www.w3.org/2000/svg">
  <sodipodi:namedview
     id="namedview1"
     pagecolor="#ffffff"
     bordercolor="#999999"
     borderopacity="1"
     inkscape:showpageshadow="2"
     inkscape:pageopacity="0"
     inkscape:pagecheckerboard="0"
     inkscape:deskcolor="#d1d1d1"
     inkscape:document-units="mm"
     showgrid="true"
     showguides="true"
     inkscape:zoom="5.709669"
     inkscape:cx="373.75197"
     inkscape:cy="525.16179"
     inkscape:window-width="2560"
     inkscape:window-height="1351"
     inkscape:window-x="-9"
     inkscape:window-y="-9"
     inkscape:window-maximized="1"
     inkscape:current-layer="svg1">
    <inkscape:grid
       id="grid1"
       units="mm"
       originx="0"
       originy="0"
       spacingx="0.99999998"
       spacingy="1"
       empcolor="#0099e5"
       empopacity="0.30196078"
       color="#0099e5"
       opacity="0.14901961"
       empspacing="5"
       enabled="true"
       visible="true" />
    <sodipodi:guide
       position="95.02427,142.20874"
       orientation="0,-1"
       id="guide1"
       inkscape:locked="false" />
    <sodipodi:guide
       position="94.893202,156.88835"
       orientation="0,-1"
       id="guide2"
       inkscape:locked="false" />
    <sodipodi:guide
       position="87.906074,157.65706"
       orientation="1,0"
       id="guide3"
       inkscape:locked="false" />
    <sodipodi:guide
       position="110.22815,157.01942"
       orientation="1,0"
       id="guide4"
       inkscape:locked="false" />
    <sodipodi:guide
       position="90.52779,147.73898"
       orientation="0,-1"
       id="guide5"
       inkscape:locked="false" />
  </sodipodi:namedview>
  <defs
     id="defs1" />
  <path
     style="fill:#ffffff;fill-opacity:0;stroke:#000000;stroke-width:2;stroke-linecap:round;stroke-linejoin:round"
     d="m 94.439945,126.22886 c -0.08663,0.3571 -0.188918,0.70933 -0.278037,1.06581 -0.17626,0.70504 -0.417568,1.39837 -0.463394,2.13161 -0.128783,2.06051 -0.03704,4.10468 -0.09268,6.16316 -0.02796,1.03464 -0.05575,2.07064 -0.09268,3.10475 -0.02432,0.6806 -0.113813,1.35837 -0.139018,2.03894 -0.028,0.75607 -0.07042,1.51385 -0.09268,2.27063 -0.02223,0.75571 0.03433,1.51545 0,2.27064 -0.007,0.15508 -0.03859,0.30835 -0.04634,0.4634 -0.0077,0.15427 0.02291,0.31063 0,0.46339 -0.02392,0.15948 -0.102372,0.30635 -0.139017,0.4634 -0.07159,0.3068 -0.113771,0.61998 -0.185359,0.92679 -0.174382,0.74735 -0.464743,1.46647 -0.741431,2.17795 -0.09921,0.25511 -0.127482,0.53468 -0.231699,0.78778 -0.06055,0.14705 -0.163084,0.27358 -0.231698,0.41705 -0.582271,1.21748 -1.241565,2.83882 -2.548673,3.42913 -0.637117,0.28773 -1.321123,0.16455 -1.992598,0.23169"
     id="path9" />
  <path
     style="fill:#ffffff;fill-opacity:0;stroke:#000000;stroke-width:2;stroke-linecap:round;stroke-linejoin:round"
     d="m 93.466816,141.2892 c 0.06971,-0.4996 -0.108757,-0.98352 -0.04634,-1.48286 0.04032,-0.32255 0.255902,-1.02061 0.370715,-1.29751 0.240901,-0.581 0.572828,-1.12347 0.787773,-1.71456 0.221623,-0.60947 0.04667,-0.37731 0.278035,-0.92679 0.06702,-0.15917 0.167561,-0.30305 0.231698,-0.4634 0.05989,-0.14973 0.08161,-0.31269 0.13902,-0.46339 0.132885,-0.34883 0.283504,-0.6924 0.463394,-1.01947 0.177567,-0.32285 0.408474,-0.61351 0.602414,-0.92679 0.316645,-0.5115 0.637027,-1.00774 1.06581,-1.43653 0.537504,-0.5375 0.483294,-0.41511 0.97313,-0.88045 2.017885,-1.91699 -0.599726,0.55339 0.83411,-0.88045 0.619683,-0.61968 1.678965,-1.25886 2.502335,-1.57554 1.1611,-0.44658 2.38307,-0.46869 3.61448,-0.50974 1.00103,-0.0334 1.60502,-0.0421 2.59502,0.4634 0.51222,0.26156 1.00058,1.38383 1.20483,1.7609"
     id="path10" />
  <path
     style="fill:#ffffff;fill-opacity:0;stroke:#000000;stroke-width:2;stroke-linecap:round;stroke-linejoin:round"
     d="m 93.837531,140.26973 c 0.393206,-0.27924 0.7106,-0.37071 1.204828,-0.37071 0.247626,0 0.500285,-0.01 0.741431,0.0463 1.073031,0.25037 1.821932,1.32684 2.455995,2.13161 0.614902,0.78045 1.098161,1.34997 1.204828,2.36332 0.03558,0.33796 0,0.67964 0,1.01947 0,0.52348 0.01868,1.05266 0,1.57554 -0.03468,0.97115 -0.18932,1.94713 -0.04634,2.91939 0.108971,0.741 0.369244,1.45733 0.556075,2.17796 0.04334,0.16717 0.04067,0.34505 0.09268,0.50974 0.11087,0.35109 0.52047,1.06839 0.78777,1.2975 0.38175,0.32722 0.90299,0.52121 1.39018,0.60242 1.45395,0.24232 2.76582,-0.568 3.89253,-1.39019 1.24207,-0.90638 1.29429,-1.00027 1.94625,-1.7609"
     id="path11" />
  <path
     style="fill:#ffffff;fill-opacity:0;stroke:#000000;stroke-width:2;stroke-linecap:round;stroke-linejoin:round"
     d="m 94.393606,125.90448 c -1.410814,0.21356 -1.973048,2.02421 -2.455995,3.15109"
     id="path12" />
</svg>
