<?xml version="1.0" encoding="UTF-8" standalone="no"?>
<!-- Created with Inkscape (http://www.inkscape.org/) -->

<svg
   width="210mm"
   height="297mm"
   viewBox="0 0 210 297"
   version="1.1"
   id="svg1"
   inkscape:version="1.4 (86a8ad7, 2024-10-11)"
   sodipodi:docname="m.svg"
   xmlns:inkscape="http://www.inkscape.org/namespaces/inkscape"
   xmlns:sodipodi="http://sodipodi.sourceforge.net/DTD/sodipodi-0.dtd"
   xmlns="http://www.w3.org/2000/svg"
   xmlns:svg="http://www.w3.org/2000/svg">
  <sodipodi:namedview
     id="namedview1"
     pagecolor="#ffffff"
     bordercolor="#999999"
     borderopacity="1"
     inkscape:showpageshadow="2"
     inkscape:pageopacity="0"
     inkscape:pagecheckerboard="0"
     inkscape:deskcolor="#d1d1d1"
     inkscape:document-units="mm"
     showgrid="true"
     showguides="true"
     inkscape:zoom="8.0746913"
     inkscape:cx="377.84726"
     inkscape:cy="557.7303"
     inkscape:window-width="2560"
     inkscape:window-height="1351"
     inkscape:window-x="-9"
     inkscape:window-y="-9"
     inkscape:window-maximized="1"
     inkscape:current-layer="svg1">
    <inkscape:grid
       id="grid1"
       units="mm"
       originx="0"
       originy="0"
       spacingx="0.99999998"
       spacingy="1"
       empcolor="#0099e5"
       empopacity="0.30196078"
       color="#0099e5"
       opacity="0.14901961"
       empspacing="5"
       enabled="true"
       visible="true" />
    <sodipodi:guide
       position="95.02427,142.20874"
       orientation="0,-1"
       id="guide1"
       inkscape:locked="false" />
    <sodipodi:guide
       position="94.893202,156.88835"
       orientation="0,-1"
       id="guide2"
       inkscape:locked="false" />
    <sodipodi:guide
       position="94.762134,159.37865"
       orientation="1,0"
       id="guide3"
       inkscape:locked="false" />
    <sodipodi:guide
       position="110.22815,157.01942"
       orientation="1,0"
       id="guide4"
       inkscape:locked="false" />
    <sodipodi:guide
       position="90.52779,147.73898"
       orientation="0,-1"
       id="guide5"
       inkscape:locked="false" />
  </sodipodi:namedview>
  <defs
     id="defs1" />
  <path
     style="fill:none;stroke:#000000;stroke-width:2;stroke-linecap:round;stroke-linejoin:round"
     d="m 94.565532,153.34951 c -0.04442,0.26152 0.06254,0.39972 0.163836,0.62258 0.228888,0.50355 0.444807,0.78878 0.983011,0.95024 0.06616,0.0198 0.128461,0.0542 0.196602,0.0655 0.06464,0.0108 0.131294,-0.005 0.196601,0 0.207203,0.0173 0.380172,0.0645 0.589806,0 0.237586,-0.0731 0.427149,-0.28384 0.622573,-0.42597 0.506741,-0.36854 0.885433,-0.87769 1.212379,-1.40898 0.226205,-0.36758 0.429575,-0.76085 0.622572,-1.14684 0.113594,-0.22719 0.273987,-0.43181 0.393203,-0.65534 0.06633,-0.12436 0.146209,-0.36553 0.196604,-0.49151 0.05442,-0.13606 0.143997,-0.25643 0.196601,-0.3932 0.03233,-0.0841 0.03705,-0.17669 0.06553,-0.26214 0.11248,-0.33742 0.2945,-0.65433 0.42597,-0.98301 0.1094,-0.27349 0.16024,-0.57534 0.26214,-0.85194 0.0372,-0.10094 0.0953,-0.19346 0.13107,-0.2949 0.10092,-0.28595 0.17359,-0.59378 0.26213,-0.88471 0.0437,-0.14199 0.0874,-0.28398 0.13107,-0.42597 0.0437,-0.10922 0.0957,-0.21549 0.13107,-0.32767 0.0303,-0.096 0.0337,-0.19937 0.0655,-0.2949 0.0946,-0.28385 0.15209,-0.28981 0.26213,-0.55704 0.20446,-0.61339 -0.019,0.0107 0.22937,-0.55704 0.1596,-0.3648 0.26625,-0.749 0.42597,-1.11408 0.14997,-0.34278 0.25091,-0.70297 0.3932,-1.04854 0.35631,-0.8017 -0.0794,0.2041 0.22937,-0.58981 0.039,-0.10026 0.097,-0.19285 0.13107,-0.2949 0.0318,-0.0955 0.0437,-0.1966 0.0655,-0.2949 0.0437,-0.10923 0.0893,-0.21768 0.13106,-0.32767 0.18209,-0.48005 0.38429,-0.95805 0.55704,-1.44175 0.0262,-0.0734 0.0422,-0.19661 0.0328,-0.19661 -0.009,0 0.0129,0.12588 0,0.22937 -0.0262,0.20931 -0.0408,0.0692 -0.13107,0.29491 -0.14425,0.36063 -0.21106,0.75558 -0.36044,1.11408 -0.0843,0.20241 -0.21056,0.38738 -0.2949,0.5898 -0.0266,0.0638 -0.0387,0.13294 -0.0655,0.1966 -0.0607,0.14413 -0.13853,0.28078 -0.1966,0.42597 -0.30335,0.75838 0.14972,-0.24793 -0.13107,0.42598 -0.0753,0.18065 -0.14866,0.37946 -0.22937,0.55703 -0.0263,0.058 -0.0698,0.10687 -0.0983,0.16384 -0.0799,0.15974 0.0184,0.0404 -0.0655,0.22937 -0.0259,0.0582 -0.0698,0.10687 -0.0983,0.16383 -0.0722,0.14447 0.009,0.0752 -0.0655,0.26214 -0.0237,0.0591 -0.0724,0.10563 -0.0983,0.16383 -0.0586,0.13181 -0.0853,0.28857 -0.13107,0.42597 -0.0952,0.28559 -0.19433,0.55812 -0.26214,0.85195 -0.0543,0.23537 -0.18516,0.45235 -0.22936,0.6881 -0.0202,0.10789 -0.0137,0.21958 -0.0328,0.32767 -0.0286,0.16196 -0.09,0.42572 -0.13107,0.58981 -0.0198,0.0791 -0.0879,0.23406 -0.0983,0.32767 -0.006,0.0543 0.006,0.10956 0,0.16383 -0.0277,0.24956 -0.12519,0.51561 -0.1966,0.75365 -0.0747,0.24899 -0.16592,0.49984 -0.22937,0.75363 -0.0161,0.0645 -0.0153,0.13251 -0.0328,0.19661 -0.19544,0.71661 0.0755,-0.46584 -0.13107,0.36044 -0.0322,0.1289 -0.0377,0.26327 -0.0655,0.3932 -0.0472,0.22038 -0.12953,0.43232 -0.16384,0.65534 -0.0579,0.37661 -0.0655,0.73418 -0.0655,1.11407 0,0.11693 -0.0145,0.24475 0,0.36044 0.0114,0.0911 0.12554,0.41161 0.13107,0.42597 0.0175,0.0456 0.0501,0.0847 0.0655,0.13107 0.007,0.0207 -0.01,0.046 0,0.0655 0.0244,0.0489 0.0739,0.0822 0.0983,0.13107 0.10359,0.20718 -0.0641,0.067 0.13107,0.26214 0.008,0.008 0.0251,-0.008 0.0328,0 0.008,0.008 -0.005,0.023 0,0.0328 0.0535,0.10694 0.12154,0.23385 0.1966,0.32768 0.0729,0.0912 0.18974,0.13284 0.26214,0.22937 0.0648,0.0864 0.23692,0.28229 0.32767,0.32766 0.0293,0.0147 0.0662,-0.006 0.0983,0 0.12435,0.0249 0.23853,0.13336 0.36043,0.16384 0.21194,0.053 0.4705,-0.0272 0.68811,0 0.0343,0.004 0.0642,0.0271 0.0983,0.0328 0.13584,0.0226 0.75623,0.0273 0.85194,0 0.0379,-0.0108 0.0606,-0.0542 0.0983,-0.0655 0.074,-0.0222 0.15364,-0.0176 0.22937,-0.0328 0.13791,-0.0276 0.211,-0.0909 0.32767,-0.16384 0.28038,-0.17523 -0.004,0.10214 0.42597,-0.2949 0.0514,-0.0474 0.0859,-0.11045 0.13107,-0.16384 0.075,-0.0886 0.15858,-0.1701 0.22937,-0.26213 0.25442,-0.33075 0.52589,-0.95413 0.68811,-1.34345 0.0266,-0.0638 0.0366,-0.13388 0.0655,-0.1966 0.25502,-0.55255 0.0188,0.0654 0.22937,-0.42597 0.0368,-0.0858 0.0655,-0.17476 0.0983,-0.26214 0.0655,-0.16383 0.12625,-0.32968 0.1966,-0.4915 0.18076,-0.41575 0.0892,-0.10367 0.22937,-0.52428 0.0976,-0.29289 0.03,-0.18567 0.16384,-0.4915 0.10571,-0.24163 0.21567,-0.46734 0.2949,-0.72087 0.0828,-0.26492 0.17422,-0.52267 0.26214,-0.78641 0.0612,-0.18361 0.0959,-0.37582 0.16383,-0.55704 0.0874,-0.23308 0.18869,-0.44941 0.26214,-0.68811 0.0499,-0.16206 0.0774,-0.33064 0.13106,-0.4915 0.0807,-0.2422 0.24257,-0.44981 0.32767,-0.68811 0.0303,-0.0848 0.0408,-0.17553 0.0655,-0.26213 0.10922,-0.38229 0.0273,0 0.16383,-0.49151 0.0827,-0.29786 0.14936,-0.5947 0.26214,-0.88471 0.039,-0.10026 0.0971,-0.19285 0.13107,-0.2949 0.0603,-0.18096 0.0742,-0.37497 0.13106,-0.55704 0.10217,-0.32692 0.26215,-0.63571 0.39321,-0.95024 0.14747,-0.35393 0.27206,-0.71788 0.3932,-1.08131 0.0909,-0.27271 0.10276,-0.22684 0.16384,-0.49151 0.0444,-0.19256 0.0681,-0.36805 0.13107,-0.55704 0.0266,-0.0797 0.0478,-0.1966 0.0328,-0.1966 -7.9e-4,0 0.002,0.16638 0,0.1966 -0.0224,0.29101 -0.0461,0.31112 -0.13106,0.62257 -0.14428,0.529 -0.29756,1.07405 -0.52428,1.57282 -0.0869,0.19126 -0.20544,0.36694 -0.2949,0.55704 -0.0799,0.16975 -0.0966,0.34944 -0.16384,0.52427 -0.0597,0.15528 -0.13688,0.30346 -0.1966,0.45874 -0.21596,0.5615 0.0977,-0.20302 -0.13106,0.42597 -0.10848,0.2983 -0.0331,-0.0644 -0.13107,0.32767 -0.0666,0.26655 0.009,0.15776 -0.0983,0.45874 -0.0246,0.069 -0.0768,0.12657 -0.0983,0.1966 -0.0646,0.20989 -0.0347,0.44338 -0.0983,0.65534 -0.0169,0.0563 -0.05,0.10709 -0.0655,0.16383 -0.0321,0.11782 -0.0334,0.24263 -0.0655,0.36044 -0.22086,0.80982 0.11703,-0.51027 -0.16384,0.42597 -0.0419,0.13958 -0.063,0.2846 -0.0983,0.42597 -0.1268,0.5072 0.006,-0.0507 -0.16384,0.45874 -0.057,0.17089 -0.0802,0.35146 -0.13106,0.52427 -0.17304,0.58834 -0.38618,1.17103 -0.52427,1.76942 -0.0997,0.43209 -0.18044,0.87494 -0.26214,1.31068 -0.0325,0.1731 -0.031,0.35157 -0.0655,0.52427 -0.1033,0.51648 -0.22937,1.00933 -0.22937,1.54005 0,0.0874 -0.024,0.17812 0,0.26214 0.0375,0.13107 0.25517,0.216 0.32767,0.26213 0.15534,0.0989 0.30528,0.0655 0.4915,0.0655 0.18191,0 0.41253,0.0394 0.58981,0 0.12831,-0.0285 0.24551,-0.13914 0.36043,-0.1966 0.0962,-0.0481 0.19869,-0.083 0.29491,-0.13107 0.26775,-0.13388 0.49652,-0.33198 0.72087,-0.52428 0.26458,-0.22678 0.55664,-0.42004 0.78641,-0.6881 0.13654,-0.1593 0.26137,-0.32829 0.3932,-0.49151 0.31818,-0.39393 0.53207,-0.61416 0.78641,-1.11407 0.18211,-0.35795 0.29933,-0.74546 0.45874,-1.11408 0.68329,-1.58011 0.43258,-0.83902 0.62257,-1.40898 0.39009,0.13666 0.7932,0.0679 1.17949,0.19663"
     id="path3" />
</svg>
