<?xml version="1.0" encoding="UTF-8" standalone="no"?>
<!-- Created with Inkscape (http://www.inkscape.org/) -->

<svg
   width="210mm"
   height="297mm"
   viewBox="0 0 210 297"
   version="1.1"
   id="svg1"
   inkscape:version="1.4 (86a8ad7, 2024-10-11)"
   sodipodi:docname="pZ.svg"
   xmlns:inkscape="http://www.inkscape.org/namespaces/inkscape"
   xmlns:sodipodi="http://sodipodi.sourceforge.net/DTD/sodipodi-0.dtd"
   xmlns="http://www.w3.org/2000/svg"
   xmlns:svg="http://www.w3.org/2000/svg">
  <sodipodi:namedview
     id="namedview1"
     pagecolor="#ffffff"
     bordercolor="#999999"
     borderopacity="1"
     inkscape:showpageshadow="2"
     inkscape:pageopacity="0"
     inkscape:pagecheckerboard="0"
     inkscape:deskcolor="#d1d1d1"
     inkscape:document-units="mm"
     showgrid="true"
     showguides="true"
     inkscape:zoom="5.7117319"
     inkscape:cx="350.15649"
     inkscape:cy="522.52103"
     inkscape:window-width="2560"
     inkscape:window-height="1351"
     inkscape:window-x="-9"
     inkscape:window-y="-9"
     inkscape:window-maximized="1"
     inkscape:current-layer="svg1">
    <inkscape:grid
       id="grid1"
       units="mm"
       originx="0"
       originy="0"
       spacingx="0.99999998"
       spacingy="1"
       empcolor="#0099e5"
       empopacity="0.30196078"
       color="#0099e5"
       opacity="0.14901961"
       empspacing="5"
       enabled="true"
       visible="true" />
    <sodipodi:guide
       position="95.02427,142.20874"
       orientation="0,-1"
       id="guide1"
       inkscape:locked="false" />
    <sodipodi:guide
       position="94.893202,156.88835"
       orientation="0,-1"
       id="guide2"
       inkscape:locked="false" />
    <sodipodi:guide
       position="87.906074,157.65706"
       orientation="1,0"
       id="guide3"
       inkscape:locked="false" />
    <sodipodi:guide
       position="110.22815,157.01942"
       orientation="1,0"
       id="guide4"
       inkscape:locked="false" />
    <sodipodi:guide
       position="90.52779,147.73898"
       orientation="0,-1"
       id="guide5"
       inkscape:locked="false" />
  </sodipodi:namedview>
  <defs
     id="defs1" />
  <path
     style="fill:#ffffff;fill-opacity:0;stroke:#000000;stroke-width:2;stroke-linecap:round;stroke-linejoin:round"
     d="m 87.920646,151.93874 c 0.117134,0.058 0.06468,0.5786 0.09265,0.64852 0.02066,0.0517 0.06775,0.0892 0.09265,0.13896 0.156909,0.31382 0.230651,0.3467 0.509551,0.55588 0.02334,0.10206 0.0953,0.0245 0.138967,0.0463 0.194961,0.0975 0.527595,0.21276 0.694841,0.32426 0.335698,0.2238 0.895157,0.672 1.29704,0.37058 0.05524,-0.0414 0.04951,-0.13137 0.09264,-0.18529 0.04093,-0.0512 0.102629,-0.0845 0.13897,-0.13897 0.02708,-0.0406 0.02209,-0.0966 0.04632,-0.13897 0.166129,-0.29072 0.39284,-0.55918 0.50955,-0.88013 0.07604,-0.2091 0.16668,-0.4784 0.231614,-0.69484 0.110141,-0.36714 -0.01429,-0.0961 0.09264,-0.41691 0.121724,-0.36517 0.167526,-0.74371 0.277937,-1.11174 0.02389,-0.0797 0.07461,-0.15044 0.09265,-0.23162 0.01339,-0.0603 -0.01498,-0.12537 0,-0.18529 0.01675,-0.067 0.0728,-0.11915 0.09265,-0.18529 0.02699,-0.09 0.02162,-0.18732 0.04632,-0.27794 0.02188,-0.0802 0.07777,-0.1498 0.09265,-0.23161 0.01656,-0.0911 -0.01524,-0.18655 0,-0.27794 0.01606,-0.0963 0.07003,-0.18293 0.09265,-0.27793 0.0055,-0.0232 0.184986,-0.95322 0.231614,-1.11175 0.03722,-0.12657 0.105394,-0.243 0.138967,-0.37058 0.08401,-0.31922 0.120557,-0.6491 0.185293,-0.97278 0.03088,-0.15441 0.06176,-0.30882 0.09264,-0.46323 0.04632,-0.16985 0.101571,-0.33751 0.13897,-0.50955 0.0399,-0.18356 0.05274,-0.37231 0.09264,-0.55587 0.106434,-0.48959 0.221965,-1.00345 0.370584,-1.48233 0.08684,-0.27981 0.19745,-0.55211 0.277937,-0.83381 0.16116,-0.56406 0.24104,-1.15118 0.416904,-1.71395 0.178027,-0.56968 0.403762,-1.13591 0.555873,-1.71394 0.04007,-0.15228 0.05257,-0.31094 0.09265,-0.46323 0.103148,-0.39196 0.252571,-0.77032 0.370583,-1.15806 0.106535,-0.35005 0.193231,-0.72475 0.324258,-1.06543 0.01998,-0.052 0.07072,-0.0878 0.09265,-0.13897 0.08747,-0.20409 0.121894,-0.43719 0.18529,-0.64852 0.04779,-0.15929 0.132702,-0.30546 0.185293,-0.46322 0.113536,-0.34061 0.217334,-0.67695 0.324258,-1.01911 0.193344,-0.61869 0.419005,-1.23006 0.602197,-1.85291 0.211891,-0.72043 0.375367,-1.61565 0.463227,-2.36246 0.03916,-0.33281 0.0635,-0.69207 0.13897,-1.0191 0.117059,-0.50726 0.09264,-0.0569 0.09264,-0.50955 0,-0.12881 0.0057,-0.29509 0.04632,-0.41691 0.01093,-0.0327 0.08085,-0.0926 0.04632,-0.0926 -0.03088,0 0.0075,0.0627 0,0.0926 -0.01185,0.0474 -0.02709,0.0941 -0.04632,0.13897 -0.04307,0.10051 -0.18547,0.47897 -0.231614,0.55588 -0.02246,0.0374 -0.07312,0.0536 -0.09265,0.0926 -0.08469,0.16937 -0.115393,0.42745 -0.185291,0.6022 -0.02564,0.0641 -0.06176,0.12352 -0.09265,0.18529 -0.03088,0.13897 -0.05078,0.28084 -0.09264,0.4169 -0.168539,0.54775 -0.03218,-0.16337 -0.13897,0.37059 -0.06772,0.33862 -0.107526,0.68212 -0.18529,1.0191 -0.01132,0.0491 -0.129765,0.49175 -0.138967,0.60219 -0.009,0.10772 0.009,0.21655 0,0.32426 -0.02904,0.34847 -0.09812,0.7182 -0.13897,1.06543 -0.02016,0.17145 -0.0794,0.33742 -0.09265,0.50955 -0.0095,0.12316 0.01879,0.24849 0,0.37058 -0.01265,0.0822 -0.07248,0.15094 -0.09264,0.23161 -0.07517,0.30067 -0.06718,0.62493 -0.13897,0.92646 -0.05207,0.21871 -0.130762,0.43041 -0.18529,0.64852 -0.09085,0.3634 -0.09948,0.74702 -0.185291,1.11175 -0.08815,0.37465 -0.1852,0.7408 -0.277936,1.11174 -0.09023,0.3609 -0.01625,0.21123 -0.04632,0.6022 -0.01442,0.18729 -0.07395,0.36896 -0.09265,0.55587 -0.0061,0.0615 0.01106,0.12453 0,0.18529 -0.05694,0.31319 -0.169185,0.61432 -0.231614,0.92646 -0.04282,0.21413 -0.04689,0.435 -0.09264,0.64852 -0.02355,0.10991 -0.07417,0.21337 -0.09265,0.32426 -0.0331,0.19858 -0.01572,0.40321 -0.04632,0.60219 -0.08728,0.5673 -0.171419,1.14208 -0.231614,1.71395 -0.0097,0.0921 0.0092,0.18575 0,0.27793 -0.05727,0.57268 -0.181726,1.14023 -0.231614,1.71395 -0.0094,0.10871 0.0083,0.57076 0,0.69484 -0.0218,0.32687 -0.121793,0.64643 -0.138969,0.97278 -0.02109,0.40055 -0.04516,0.89061 0,1.29703 0.0625,0.5625 0.226028,1.09638 0.416906,1.6213 0.0827,0.22743 0.09424,0.48878 0.231614,0.69484 0.02424,0.0363 0.07018,0.0552 0.09265,0.0926 0.08692,0.14486 0.117978,0.35249 0.185291,0.50955 0.07449,0.17381 0.183406,0.25936 0.277937,0.4169 0.273108,0.45519 0.418454,0.68682 0.83381,1.01911 0.06821,0.0546 0.11039,0.14035 0.18529,0.18529 0.02315,0.0139 0.29328,0.12864 0.324261,0.13896 0.04394,0.0147 0.09754,-0.0207 0.138967,0 0.179448,0.0897 0.341804,0.20486 0.555873,0.23162 0.07661,0.01 0.155006,-0.01 0.231614,0 0.397198,0.0496 -0.135866,0.0355 0.277937,0.13897 0.0749,0.0187 0.155006,-0.01 0.231613,0 0.04845,0.006 0.09109,0.0367 0.13897,0.0463 0.177057,0.0354 0.514496,0.0361 0.694841,0 0.06771,-0.0136 0.1183,-0.0759 0.18529,-0.0927 0.10219,-0.0255 0.220448,-0.0255 0.32426,-0.0463 0.159679,-0.0319 0.543362,-0.17102 0.694852,-0.23161 0.0772,-0.0309 0.16031,-0.0499 0.23161,-0.0926 0.0375,-0.0225 0.0552,-0.0702 0.0926,-0.0926 0.37666,-0.226 -0.0496,0.0948 0.23162,-0.0927 0.28035,-0.1869 0.57017,-0.48039 0.78748,-0.74116 0.20411,-0.24493 0.31141,-0.56053 0.46323,-0.83381 0.25371,-0.45667 0.59826,-0.87225 0.83381,-1.34336 0.0372,-0.0744 0.0523,-0.15893 0.0927,-0.23162 0.38792,-0.69826 -0.12808,0.39514 0.27794,-0.4169 0.13136,-0.26274 0.26541,-0.56037 0.37058,-0.83381 0.0403,-0.10492 0.0523,-0.21934 0.0926,-0.32426 0.13027,-0.33869 0.30961,-0.67039 0.41691,-1.0191 0.0276,-0.0898 0.0236,-0.18682 0.0463,-0.27794 0.31699,-1.26797 -0.0748,0.5214 0.37058,-1.11175 0.0328,-0.1201 0.0219,-0.24851 0.0463,-0.37058 0.13624,-0.68123 0.0365,0.0342 0.23161,-0.64852 0.06,-0.20996 0.0397,-0.43667 0.0927,-0.64852 0.15099,-0.60397 0.38716,-1.19465 0.50955,-1.80659 0.0973,-0.48645 -0.0111,-0.17595 0.0926,-0.69484 0.0834,-0.41714 0.10343,-0.21123 0.13897,-0.60219 0.007,-0.0769 -0.0127,-0.15546 0,-0.23162 0.0185,-0.11088 0.0768,-0.21297 0.0927,-0.32426 0.0153,-0.107 -0.0164,-0.21743 0,-0.32426 0.0148,-0.0965 0.0707,-0.18278 0.0926,-0.27793 0.0901,-0.39067 0.12429,-0.80789 0.18529,-1.2044 0.061,-0.39652 0.0952,-0.81378 0.18529,-1.20439 0.21708,-0.94065 -0.007,0.2919 0.13897,-0.50955 0.0336,-0.18482 0.0756,-0.3688 0.0926,-0.55587 0.007,-0.0769 -0.0127,-0.15546 0,-0.23162 0.0314,-0.18839 0.0841,-0.37293 0.13897,-0.55587 0.0239,-0.0796 0.0782,-0.14973 0.0926,-0.23161 0.0771,-0.43709 0.004,-0.47976 0.0926,-0.83381 0.0719,-0.28751 0.18958,-0.58593 0.23161,-0.88014 0.0153,-0.107 -0.0226,-0.21857 0,-0.32426 0.0246,-0.11498 0.10439,-0.21186 0.13897,-0.32425 0.0401,-0.13019 0.0701,-0.54334 0.0927,-0.64853 0.0204,-0.0955 0.069,-0.18319 0.0926,-0.27793 0.0942,-0.37692 0.13102,-0.77814 0.18529,-1.15807 0.0159,-0.11128 0.0742,-0.21338 0.0926,-0.32426 0.0127,-0.0762 -0.0127,-0.15546 0,-0.23161 0.0209,-0.12548 0.0717,-0.24511 0.0926,-0.37059 0.008,-0.0457 -0.0112,-0.094 0,-0.13896 0.0749,-0.29953 0.21873,-0.58993 0.32426,-0.88014 0.0387,-0.10641 0.26259,-0.86478 0.32426,-0.92645 0.0437,-0.0437 0.0102,0.12437 0,0.18529 -0.0109,0.065 -0.13339,0.35384 -0.13897,0.37058 -0.15849,0.47547 -0.36752,0.89259 -0.50955,1.38968 -0.23496,0.82236 -0.42488,1.70109 -0.50955,2.54776 0.003,0.1454 -0.0769,0.27541 -0.0926,0.4169 -0.0238,0.21441 -0.0225,0.43397 -0.0463,0.64852 -0.0174,0.15651 -0.077,0.30654 -0.0926,0.46323 -0.051,0.50948 0.0671,-0.0472 -0.0463,0.46323 -0.0276,0.12429 -0.0769,0.24423 -0.0926,0.37058 -0.006,0.0492 0.004,0.38408 0,0.4169 -0.0303,0.2427 -0.11162,0.49505 -0.13897,0.74117 -0.0374,0.33637 -0.0551,0.68098 -0.0926,1.0191 -0.0396,0.35614 -0.15774,0.70724 -0.1853,1.06542 -0.008,0.10777 0.007,0.21642 0,0.32426 -0.0313,0.46921 -0.18923,0.92349 -0.23161,1.38969 -0.008,0.0923 0.008,0.18567 0,0.27793 -0.0371,0.40836 -0.0566,0.0565 -0.13897,0.50955 -0.0138,0.076 0.0151,0.15591 0,0.23162 -0.0163,0.0815 -0.0725,0.15094 -0.0926,0.23161 -0.0493,0.19703 -0.0434,0.40517 -0.0926,0.6022 -0.0659,0.26372 -0.15159,0.52742 -0.23161,0.78749 -0.0562,0.18254 -0.0786,0.37468 -0.13897,0.55587 -0.0372,0.11156 -0.10439,0.21186 -0.13897,0.32426 -0.077,0.25036 -0.0754,0.53318 -0.13897,0.78748 -0.0237,0.0948 -0.0618,0.1853 -0.0926,0.27794 -0.0309,0.18529 -0.054,0.37206 -0.0926,0.55587 -0.0687,0.32626 -0.15661,0.64776 -0.23161,0.97279 -0.0738,0.31966 -0.0704,0.65254 -0.13897,0.97277 -0.12983,0.60589 -0.2679,1.23297 -0.32426,1.85291 -0.0222,0.24467 0.0271,0.49706 0,0.74117 -0.0758,0.68196 -0.15988,1.40319 -0.0463,2.08452 0.008,0.0457 -0.0172,0.096 0,0.13897 0.0162,0.0405 0.0754,0.0525 0.0926,0.0926 0.031,0.0724 0.0153,0.15924 0.0463,0.23161 0.0172,0.0401 0.0684,0.0563 0.0926,0.0926 0.02,0.03 0.0263,0.10898 0.0463,0.13897 0.0264,0.0396 0.1371,0.20751 0.1853,0.23161 0.0788,0.0394 0.11487,0.0451 0.18529,0.13897 0.0207,0.0276 0.0219,0.0682 0.0463,0.0926 0.0252,0.0252 0.19674,0.1041 0.23161,0.13897 0.0244,0.0244 0.0272,0.0639 0.0463,0.0927 0.0447,0.067 0.12873,0.0824 0.18529,0.13896 0.0309,0.0309 0.0684,0.0563 0.0926,0.0926 0.009,0.0129 -0.0129,0.0378 0,0.0463 0.0406,0.0271 0.0971,0.0212 0.13897,0.0463 0.0375,0.0225 0.0521,0.0764 0.0927,0.0926 0.043,0.0172 0.094,-0.0112 0.13896,0 0.0424,0.0106 0.0536,0.0731 0.0927,0.0926 0.13928,0.0696 1.11276,-0.0467 1.25072,-0.0926 0.21603,-0.072 0.51095,-0.41796 0.69484,-0.55587 0.17226,-0.1292 0.54483,-0.69484 0.78748,-0.69484"
     id="path43" />
</svg>
