<?xml version="1.0" encoding="UTF-8" standalone="no"?>
<!-- Created with Inkscape (http://www.inkscape.org/) -->

<svg
   width="210mm"
   height="297mm"
   viewBox="0 0 210 297"
   version="1.1"
   id="svg1"
   inkscape:version="1.4 (86a8ad7, 2024-10-11)"
   sodipodi:docname="pZ.svg"
   xmlns:inkscape="http://www.inkscape.org/namespaces/inkscape"
   xmlns:sodipodi="http://sodipodi.sourceforge.net/DTD/sodipodi-0.dtd"
   xmlns="http://www.w3.org/2000/svg"
   xmlns:svg="http://www.w3.org/2000/svg">
  <sodipodi:namedview
     id="namedview1"
     pagecolor="#ffffff"
     bordercolor="#999999"
     borderopacity="1"
     inkscape:showpageshadow="2"
     inkscape:pageopacity="0"
     inkscape:pagecheckerboard="0"
     inkscape:deskcolor="#d1d1d1"
     inkscape:document-units="mm"
     showgrid="true"
     showguides="true"
     inkscape:zoom="5.7117319"
     inkscape:cx="350.15649"
     inkscape:cy="508.51477"
     inkscape:window-width="2560"
     inkscape:window-height="1351"
     inkscape:window-x="-9"
     inkscape:window-y="-9"
     inkscape:window-maximized="1"
     inkscape:current-layer="svg1">
    <inkscape:grid
       id="grid1"
       units="mm"
       originx="0"
       originy="0"
       spacingx="0.99999998"
       spacingy="1"
       empcolor="#0099e5"
       empopacity="0.30196078"
       color="#0099e5"
       opacity="0.14901961"
       empspacing="5"
       enabled="true"
       visible="true" />
    <sodipodi:guide
       position="95.02427,142.20874"
       orientation="0,-1"
       id="guide1"
       inkscape:locked="false" />
    <sodipodi:guide
       position="94.893202,156.88835"
       orientation="0,-1"
       id="guide2"
       inkscape:locked="false" />
    <sodipodi:guide
       position="87.906074,157.65706"
       orientation="1,0"
       id="guide3"
       inkscape:locked="false" />
    <sodipodi:guide
       position="110.22815,157.01942"
       orientation="1,0"
       id="guide4"
       inkscape:locked="false" />
    <sodipodi:guide
       position="90.52779,147.73898"
       orientation="0,-1"
       id="guide5"
       inkscape:locked="false" />
  </sodipodi:namedview>
  <defs
     id="defs1" />
  <path
     style="fill:#ffffff;fill-opacity:0;stroke:#000000;stroke-width:2;stroke-linecap:round;stroke-linejoin:round"
     d="m 90.236785,125.11784 c 0.147548,-0.0369 0.264004,-0.0691 0.416907,-0.0926 0.154813,-0.0238 1.107982,-0.13521 1.111747,-0.13897 0.01093,-0.0109 -0.01286,-0.0378 0,-0.0463 0.100536,-0.067 0.222041,-0.0586 0.324257,-0.0927 0.06551,-0.0218 0.118301,-0.0759 0.185293,-0.0926 0.05992,-0.015 0.126696,0.0195 0.185291,0 0.02072,-0.007 0.03088,-0.0309 0.04632,-0.0463 0.04632,-0.0309 0.08496,-0.0791 0.138967,-0.0926 0.0749,-0.0187 0.155186,0.0109 0.231616,0 0.03418,-0.005 0.05812,-0.0463 0.09264,-0.0463 0.01545,0 0,0.0309 0,0.0463 0,0.0618 0.01953,0.12669 0,0.18529 -0.02847,0.0854 -0.0966,0.15217 -0.138967,0.23161 -0.08124,0.15233 -0.142795,0.3152 -0.231613,0.46323 -0.675132,1.12522 -0.01368,-0.15004 -0.555874,0.88013 -0.426929,0.81117 -0.745617,1.71893 -1.019101,2.59408 -0.07759,0.24827 -0.120465,0.53744 -0.185293,0.78749 -0.20012,0.77189 -0.489045,1.56054 -0.555874,2.36246 -0.01667,0.20004 0.008,0.40162 0,0.60219 -0.01918,0.4796 -0.06607,0.9576 -0.09264,1.43601 -0.02808,0.50549 0.05034,1.02523 0,1.52865 -0.03639,0.3639 -0.120136,0.49174 -0.185293,0.83381 -0.07886,0.41402 -0.102637,0.83745 -0.18529,1.25072 -0.102677,0.51339 -0.305223,1.00577 -0.370583,1.52865 -0.07096,0.56768 -0.05794,1.14678 -0.138967,1.71394 -0.08333,0.58331 -0.196856,1.16937 -0.231614,1.76027 -0.03255,0.55337 0.0039,1.11548 -0.04632,1.66762 -0.03944,0.43389 -0.145892,0.72946 -0.231614,1.15807 -0.113604,0.56802 -0.13054,1.13905 -0.18529,1.71394 -0.03808,0.39987 -0.120732,0.80318 -0.13897,1.20439 -0.01823,0.40105 0,0.80293 0,1.2044 0,0.29338 -0.01953,0.5874 0,0.88013 0.02588,0.38827 0.155371,0.7691 0.18529,1.15807 0.04673,0.60749 -0.08749,-0.10631 0.04632,0.74116 0.0222,0.14062 0.07848,0.27526 0.09265,0.41691 0.01691,0.16901 -0.01947,0.34082 0,0.50955 0.105852,0.91737 0.406059,1.84403 0.648518,2.73304"
     id="path46" />
  <path
     style="fill:#ffffff;fill-opacity:0;stroke:#000000;stroke-width:2;stroke-linecap:round;stroke-linejoin:round"
     d="m 90.422078,141.46979 c 0.264694,-0.32475 0.572979,-0.59661 0.880131,-0.88014 0.112321,-0.10368 0.202838,-0.2314 0.32426,-0.32426 0.143042,-0.10938 0.312047,-0.18011 0.463227,-0.27793 0.418021,-0.27049 0.833591,-0.54806 1.297041,-0.74117 0.243557,-0.10148 0.499652,-0.17167 0.741164,-0.27793 0.14551,-0.064 0.271632,-0.16705 0.416904,-0.23162 0.13386,-0.0595 0.279942,-0.087 0.416906,-0.13897 0.512064,-0.19423 1.006769,-0.43614 1.528652,-0.60219 0.499978,-0.15908 1.02113,-0.2437 1.528651,-0.37058 0.283377,-0.0709 0.589399,-0.19807 0.880134,-0.23162 0.551344,-0.0636 1.07514,-0.016 1.621302,-0.0463 0.57264,-0.0318 1.14164,-0.101 1.71394,0 0.60771,0.10724 1.21535,0.2943 1.80659,0.46323 0.12243,0.035 0.25304,0.0437 0.37058,0.0926 0.25497,0.10624 0.48785,0.26045 0.74116,0.37059 0.10309,0.0448 0.2222,0.0455 0.32426,0.0926 0.1011,0.0467 0.18246,0.12801 0.27794,0.18529 0.21227,0.12737 0.49613,0.25433 0.69484,0.41691 0.2593,0.21215 0.49389,0.46817 0.74116,0.69484 0.33438,0.30651 0.72539,0.58402 0.97279,0.97278 0.3019,0.47443 0.47231,1.00005 0.64851,1.52865 0.0417,0.12516 0.10697,0.24259 0.13897,0.37058 0.0954,0.38156 0.13864,0.90823 0.18529,1.29704 0.0429,0.3579 0.14943,0.70674 0.18529,1.06542 0.0353,0.35338 0,0.71029 0,1.06543 0,0.72572 0,1.45144 0,2.17717 0,0.49411 0,0.98822 0,1.48233 0,0.29378 0.0597,0.58665 0.0463,0.88013 -0.0101,0.22275 -0.14769,0.84961 -0.23162,1.06542 -0.18211,0.46829 -0.60255,0.88353 -0.97277,1.2044 -0.32462,0.28133 -0.82552,0.63613 -1.2044,0.83381 -0.20851,0.10879 -0.43816,0.17275 -0.64852,0.27793 -0.95785,0.47893 0.0848,0.17055 -1.436,0.64852 -0.21091,0.0663 -0.43404,0.0853 -0.64852,0.13897 -0.038,0.009 -1.58892,0.44075 -1.99188,0.50955 -1.76189,0.30081 -3.543157,0.41878 -5.327123,0.27794 -1.161008,-0.0917 -2.313348,-0.28767 -3.47421,-0.37058 -1.112038,-0.0794 -2.251786,0.0279 -3.335239,0.27793"
     id="path47" />
  <path
     style="fill:#ffffff;fill-opacity:0;stroke:#000000;stroke-width:2;stroke-linecap:round;stroke-linejoin:round"
     d="m 103.16084,138.45881 c 0.97459,0.47931 1.96973,0.92756 3.01098,1.25071 0.73212,0.22721 0.36516,-0.0136 0.78749,0.32426"
     id="path48" />
  <path
     style="fill:#ffffff;fill-opacity:0;stroke:#000000;stroke-width:2;stroke-linecap:round;stroke-linejoin:round"
     d="m 105.94021,139.061 c 0.44515,0.35612 0.0361,-0.0177 0.4169,0.50955 0.92637,1.13222 -0.0293,-0.10004 0.69485,1.0191 0.0655,0.10126 0.16687,0.1762 0.23161,0.27794 0.0848,0.13324 0.18005,0.35486 0.23162,0.50955"
     id="path49" />
  <path
     style="fill:#ffffff;fill-opacity:0;stroke:#000000;stroke-width:2;stroke-linecap:round;stroke-linejoin:round"
     d="m 107.7468,151.61448 c -0.5553,0.30653 -1.17809,0.45179 -1.66762,0.88013 -0.0732,0.064 -0.27794,0.2233 -0.27794,0.32426"
     id="path50" />
  <path
     style="fill:#ffffff;fill-opacity:0;stroke:#000000;stroke-width:2;stroke-linecap:round;stroke-linejoin:round"
     d="m 106.21815,152.54093 c -0.89206,0.57587 -1.85616,0.97959 -2.87202,1.29704 -1.76228,0.55071 0.24601,-0.22097 -1.25071,0.27794 -0.32161,0.1608 -0.17967,0.10621 -0.41691,0.18529"
     id="path51" />
  <path
     style="fill:#ffffff;fill-opacity:0;stroke:#000000;stroke-width:2;stroke-linecap:round;stroke-linejoin:round"
     d="m 88.939747,153.23577 c 0.509871,0.20764 1.1083,0.0902 1.574975,0.41691 0.205901,0.14413 0.342635,0.36739 0.555874,0.50955"
     id="path52" />
  <path
     style="fill:#ffffff;fill-opacity:0;stroke:#000000;stroke-width:2;stroke-linecap:round;stroke-linejoin:round"
     d="m 88.893427,142.25728 c 0.378166,0.003 0.732356,-0.0927 1.111744,-0.0927 l -0.185289,-1.38963"
     id="path53" />
  <path
     style="fill:#ffffff;fill-opacity:0;stroke:#000000;stroke-width:2;stroke-linecap:round;stroke-linejoin:round"
     d="m 90.005171,140.21907 h 0.370584"
     id="path54" />
</svg>
