<?xml version="1.0" encoding="UTF-8" standalone="no"?>
<!-- Created with Inkscape (http://www.inkscape.org/) -->

<svg
   width="210mm"
   height="297mm"
   viewBox="0 0 210 297"
   version="1.1"
   id="svg1"
   inkscape:version="1.4 (86a8ad7, 2024-10-11)"
   sodipodi:docname="eZ.svg"
   xmlns:inkscape="http://www.inkscape.org/namespaces/inkscape"
   xmlns:sodipodi="http://sodipodi.sourceforge.net/DTD/sodipodi-0.dtd"
   xmlns="http://www.w3.org/2000/svg"
   xmlns:svg="http://www.w3.org/2000/svg">
  <sodipodi:namedview
     id="namedview1"
     pagecolor="#ffffff"
     bordercolor="#999999"
     borderopacity="1"
     inkscape:showpageshadow="2"
     inkscape:pageopacity="0"
     inkscape:pagecheckerboard="0"
     inkscape:deskcolor="#d1d1d1"
     inkscape:document-units="mm"
     showgrid="true"
     showguides="true"
     inkscape:zoom="5.709669"
     inkscape:cx="373.75197"
     inkscape:cy="525.16179"
     inkscape:window-width="2560"
     inkscape:window-height="1351"
     inkscape:window-x="-9"
     inkscape:window-y="-9"
     inkscape:window-maximized="1"
     inkscape:current-layer="svg1">
    <inkscape:grid
       id="grid1"
       units="mm"
       originx="0"
       originy="0"
       spacingx="0.99999998"
       spacingy="1"
       empcolor="#0099e5"
       empopacity="0.30196078"
       color="#0099e5"
       opacity="0.14901961"
       empspacing="5"
       enabled="true"
       visible="true" />
    <sodipodi:guide
       position="95.02427,142.20874"
       orientation="0,-1"
       id="guide1"
       inkscape:locked="false" />
    <sodipodi:guide
       position="94.893202,156.88835"
       orientation="0,-1"
       id="guide2"
       inkscape:locked="false" />
    <sodipodi:guide
       position="87.906074,157.65706"
       orientation="1,0"
       id="guide3"
       inkscape:locked="false" />
    <sodipodi:guide
       position="110.22815,157.01942"
       orientation="1,0"
       id="guide4"
       inkscape:locked="false" />
    <sodipodi:guide
       position="90.52779,147.73898"
       orientation="0,-1"
       id="guide5"
       inkscape:locked="false" />
  </sodipodi:namedview>
  <defs
     id="defs1" />
  <path
     style="fill:#ffffff;fill-opacity:0;stroke:#000000;stroke-width:2;stroke-linecap:round;stroke-linejoin:round"
     d="m 87.952412,125.90448 c 1.273326,0.23607 2.560775,0.40027 3.846182,0.55608 0.388231,0.047 0.769173,0.14828 1.158486,0.18535 0.322916,0.0308 0.648753,0 0.97313,0 0.661318,0 1.331732,0.0275 1.9926,0 0.01177,-5.3e-4 0.79443,-0.0669 0.880452,-0.0927 0.02212,-0.007 0.187256,-0.13901 0.231698,-0.13901 0.01545,0 0.0034,0.0313 0,0.0463 -0.02763,0.12434 -0.04915,0.25101 -0.09268,0.37071 -0.01648,0.0453 -0.682207,1.71402 -0.78777,1.94626 -0.3257,0.71654 -0.701427,1.41072 -1.019472,2.13162 -0.333745,0.75649 -0.543737,1.53064 -0.78777,2.31698 -0.314508,1.01341 -0.170117,0.37821 -0.417057,1.43652 -0.354312,1.51849 -0.649224,3.04963 -1.112147,4.54127 -0.21141,0.68121 -0.496422,1.32439 -0.741434,1.9926 -0.151339,0.41275 -0.298522,0.82784 -0.417055,1.25117 -0.193363,0.69058 -0.06565,0.45899 -0.278037,1.06581 -0.311669,0.89048 -0.101981,0.0326 -0.463394,1.2975 -0.134329,0.47015 -0.118547,0.96129 -0.231699,1.43653 -0.03735,0.15688 -0.101666,0.30652 -0.13902,0.4634 -0.07297,0.30648 -0.113199,0.62011 -0.185356,0.92679 -0.02917,0.12399 -0.07688,0.24432 -0.09268,0.37071 -0.01532,0.12262 0,0.24715 0,0.37072 -0.01545,0.15446 -0.02331,0.30988 -0.04634,0.46339 -0.08963,0.59756 -0.121849,0.47727 -0.324377,1.15849 -0.244504,0.82243 -0.495485,1.80321 -0.556072,2.64136 -0.145592,2.01401 0.0013,2.23237 0.324377,4.12421"
     id="path12" />
  <path
     style="fill:#ffffff;fill-opacity:0;stroke:#000000;stroke-width:2;stroke-linecap:round;stroke-linejoin:round"
     d="m 92.401005,142.03063 c 0.703072,0.11749 1.41986,0.0927 2.131618,0.0927 0.216252,0 0.434676,0.0306 0.648753,0 0.480931,-0.0687 0.269918,-0.10596 0.741434,-0.23169 1.096129,-0.29231 -0.367233,0.17177 0.602414,-0.0927 0.08025,-0.0219 0.150998,-0.0725 0.231699,-0.0927 0.434628,-0.10866 0.903147,-0.10759 1.343845,-0.18536 0.140242,-0.0247 0.275622,-0.076 0.417055,-0.0927 0.368178,-0.0433 0.741433,0 1.112149,0 0.303673,0 0.624318,-0.0275 0.926788,0 0.38295,0.0348 0.76934,0.0763 1.15849,0.0463 0.61351,-0.0472 1.14494,-0.31986 1.71456,-0.50973 0.12084,-0.0403 0.24898,-0.0552 0.37072,-0.0927 0.34682,-0.10672 0.12484,-0.0564 0.41706,-0.2317 0.33058,-0.19835 0.75561,-0.27709 1.0658,-0.50974 0.0699,-0.0524 0.11639,-0.13171 0.18536,-0.18535 0.0711,-0.0553 0.1606,-0.0837 0.2317,-0.13902 0.40103,-0.31192 0.69538,-0.84522 0.97313,-1.25117 0.33059,-0.48317 0.69976,-0.94467 1.01947,-1.43653 0.18382,-0.2828 0.35411,-0.68583 0.50973,-0.97313 0.10221,-0.18868 0.2318,-0.36248 0.32438,-0.55607 0.25956,-0.54272 0.3869,-1.15421 0.60241,-1.71456 0.24788,-0.64447 0.56263,-1.27574 0.74144,-1.94626 0.11712,-0.43921 0.13157,-0.90045 0.23169,-1.34385 0.0528,-0.2339 0.12358,-0.46339 0.18536,-0.69509 0.0618,-0.27804 0.12609,-0.55553 0.18536,-0.83411 0.20069,-0.94323 0.29121,-1.48271 0.64875,-2.31698 0.006,-0.0142 0.002,0.031 0,0.0463 -0.0484,0.33871 -0.072,0.39929 -0.18535,0.78777 -0.19012,0.65184 -0.4635,1.26303 -0.6951,1.89992 -0.0761,0.20922 -0.44171,1.27404 -0.55607,1.57555 -0.47922,1.26338 -1.03958,2.49446 -1.5292,3.7535 -0.55555,1.42853 0.0814,-0.1516 -0.41706,1.34384 -0.22311,0.66934 -0.2642,0.50882 -0.55608,1.20483 -0.10769,0.2568 -0.17751,0.52809 -0.27803,0.78778 -0.0849,0.2194 -0.20134,0.42633 -0.27804,0.64875 -0.0782,0.22669 -0.11198,0.4668 -0.18536,0.69509 -0.21428,0.66664 -0.55731,1.28779 -0.78777,1.94626 -0.0582,0.16623 -0.0833,0.34266 -0.13902,0.50974 -0.39907,1.19721 0.13571,-0.62891 -0.27804,0.69509 -0.038,0.12158 -0.0524,0.24988 -0.0927,0.37071 -0.0372,0.1116 -0.10394,0.2121 -0.13902,0.32438 -0.0425,0.13593 -0.0525,0.28043 -0.0927,0.41706 -0.24053,0.81778 -0.0548,-0.0967 -0.2317,0.78777 -0.0309,0.16991 -0.0618,0.33982 -0.0927,0.50973 -0.0155,0.13902 -0.022,0.27931 -0.0463,0.41706 -0.0221,0.12544 -0.0677,0.24581 -0.0927,0.37072 -0.0698,0.34906 -0.0949,0.71285 -0.13902,1.0658 -0.0482,0.38553 -0.15314,0.77189 -0.18536,1.15849 -0.008,0.0924 0.008,0.18574 0,0.27804 -0.0143,0.15688 -0.0668,0.30801 -0.0927,0.46339 -0.0667,0.40033 -0.11277,0.80556 -0.18536,1.20483 -0.0591,0.32488 -0.15794,0.64406 -0.18536,0.97313 -0.0173,0.20768 0,0.43951 0,0.64875 0,0.17998 -0.0275,0.61543 0.0463,0.78778 0.0355,0.0828 0.0987,0.15114 0.13902,0.2317 0.1066,0.2132 0.14202,0.37371 0.32438,0.55607 0.33283,0.33283 1.1575,0.36519 1.5292,0.41706 0.97951,0.13667 1.67751,0.13901 2.64135,0.13901"
     id="path13" />
  <path
     style="fill:#ffffff;fill-opacity:0;stroke:#000000;stroke-width:2;stroke-linecap:round;stroke-linejoin:round"
     d="m 93.93021,138.50883 c -0.115928,1.71696 -0.160097,2.07905 1.019471,3.38279 0.01336,0.0148 0.357669,0.41705 0.463394,0.41705"
     id="path14" />
  <path
     style="fill:#ffffff;fill-opacity:0;stroke:#000000;stroke-width:2;stroke-linecap:round;stroke-linejoin:round"
     d="m 94.439945,142.40135 c 0,0.0618 -0.06179,0.18536 0,0.18536 0.06179,0 0.04691,-0.22557 0,-0.18536 -1.375587,1.17907 0.41578,-0.0101 -0.602414,0.64875 -0.404116,0.26149 -0.695007,0.419 -1.065808,0.74144 -0.214293,0.18634 -0.401611,0.4016 -0.602413,0.60241"
     id="path15" />
  <path
     style="fill:#ffffff;fill-opacity:0;stroke:#000000;stroke-width:2;stroke-linecap:round;stroke-linejoin:round"
     d="m 103.98589,140.59411 c 0.0618,-0.10813 0.11244,-0.22342 0.18536,-0.32438 0.12853,-0.17797 0.28533,-0.3341 0.41705,-0.50973 0.41399,-0.55199 0.45075,-0.74888 0.97313,-1.25117 0.17834,-0.17148 0.75419,-0.69509 1.11215,-0.69509"
     id="path16" />
  <path
     style="fill:#ffffff;fill-opacity:0;stroke:#000000;stroke-width:2;stroke-linecap:round;stroke-linejoin:round"
     d="m 89.388938,126.73859 c -0.07723,0.0463 -0.278037,0.0618 -0.231698,0.13902 0.04634,0.0772 0.191418,-0.21958 0.231698,-0.13902 0.0898,0.17961 -0.116715,0.43902 0,0.60242 0.190439,0.26661 1.31571,0.62392 1.668222,0.74143"
     id="path17" />
  <path
     style="fill:#ffffff;fill-opacity:0;stroke:#000000;stroke-width:2;stroke-linecap:round;stroke-linejoin:round"
     d="m 88.415809,127.34101 4.402254,0.0927"
     id="path18" />
  <path
     style="fill:#ffffff;fill-opacity:0;stroke:#000000;stroke-width:2;stroke-linecap:round;stroke-linejoin:round"
     d="m 90.362068,127.43368 c 0.200541,0.007 0.402201,-0.0154 0.602414,0 3.208816,0.24684 -2.356766,-0.0738 1.89992,0.13902 0.78055,0.039 1.600284,0.0124 2.316974,0.37072"
     id="path19" />
  <path
     style="fill:#ffffff;fill-opacity:0;stroke:#000000;stroke-width:2;stroke-linecap:round;stroke-linejoin:round"
     d="m 88.554826,126.08984 c -0.196728,0.30669 -0.546502,0.54081 -0.695092,0.88045 -0.164552,0.37611 -0.13902,0.85246 -0.13902,1.25117"
     id="path20" />
</svg>
