<?xml version="1.0" encoding="UTF-8" standalone="no"?>
<!-- Created with Inkscape (http://www.inkscape.org/) -->

<svg
   width="210mm"
   height="297mm"
   viewBox="0 0 210 297"
   version="1.1"
   id="svg1"
   inkscape:version="1.4 (86a8ad7, 2024-10-11)"
   sodipodi:docname="о.svg"
   xmlns:inkscape="http://www.inkscape.org/namespaces/inkscape"
   xmlns:sodipodi="http://sodipodi.sourceforge.net/DTD/sodipodi-0.dtd"
   xmlns="http://www.w3.org/2000/svg"
   xmlns:svg="http://www.w3.org/2000/svg">
  <sodipodi:namedview
     id="namedview1"
     pagecolor="#ffffff"
     bordercolor="#999999"
     borderopacity="1"
     inkscape:showpageshadow="2"
     inkscape:pageopacity="0"
     inkscape:pagecheckerboard="0"
     inkscape:deskcolor="#d1d1d1"
     inkscape:document-units="mm"
     showgrid="true"
     showguides="true"
     inkscape:zoom="4.5769094"
     inkscape:cx="385.63141"
     inkscape:cy="548.07727"
     inkscape:window-width="1398"
     inkscape:window-height="1341"
     inkscape:window-x="1272"
     inkscape:window-y="0"
     inkscape:window-maximized="0"
     inkscape:current-layer="svg1">
    <inkscape:grid
       id="grid1"
       units="mm"
       originx="0"
       originy="0"
       spacingx="0.99999998"
       spacingy="1"
       empcolor="#0099e5"
       empopacity="0.30196078"
       color="#0099e5"
       opacity="0.14901961"
       empspacing="5"
       enabled="true"
       visible="true" />
    <sodipodi:guide
       position="95.02427,142.20874"
       orientation="0,-1"
       id="guide1"
       inkscape:locked="false" />
    <sodipodi:guide
       position="94.893202,156.88835"
       orientation="0,-1"
       id="guide2"
       inkscape:locked="false" />
    <sodipodi:guide
       position="94.762134,159.37865"
       orientation="1,0"
       id="guide3"
       inkscape:locked="false" />
    <sodipodi:guide
       position="110.22815,157.01942"
       orientation="1,0"
       id="guide4"
       inkscape:locked="false" />
    <sodipodi:guide
       position="90.52779,147.73898"
       orientation="0,-1"
       id="guide5"
       inkscape:locked="false" />
  </sodipodi:namedview>
  <defs
     id="defs1" />
  <path
     style="fill:none;stroke:#000000;stroke-width:1.265;stroke-dasharray:none;stroke-dashoffset:0;stroke-opacity:1;paint-order:normal;stroke-linecap:round;stroke-linejoin:round"
     d="m 101.68479,154.86842 c 0.92817,-0.0216 2.23571,0.12234 3.06384,-0.40465 0.12697,-0.0808 0.22163,-0.20556 0.34685,-0.28904 0.10756,-0.0717 0.2393,-0.10173 0.34685,-0.17343 0.12523,-0.0835 0.22645,-0.19874 0.34685,-0.28904 0.11116,-0.0834 0.2401,-0.14228 0.34685,-0.23124 0.51329,-0.42774 0.18693,-0.24473 0.63589,-0.6937 0.0873,-0.0872 0.19733,-0.14869 0.28904,-0.23123 0.1927,-0.17342 0.39477,-0.33696 0.57809,-0.52027 0.17449,-0.1745 0.28797,-0.40359 0.46246,-0.57809 0.69052,-0.69051 1.51163,-1.33081 1.79206,-2.31233 0.0988,-0.34584 0.11562,-0.79594 0.11562,-1.15616 0,-0.14373 -0.0281,-0.32193 0,-0.46247 0.0888,-0.44405 0.20691,-1.16212 0.11561,-1.61863 -0.0477,-0.23855 -0.13753,-0.51727 -0.23123,-0.75151 -0.0972,-0.24296 -0.26353,-0.44373 -0.34685,-0.6937 -0.23744,-0.71231 -0.52768,-1.41654 -0.98274,-2.02329 -0.0674,-0.0899 -0.1317,-0.18472 -0.17343,-0.28904 -0.0143,-0.0358 0.0172,-0.0812 0,-0.11562 -0.10432,-0.20866 -0.61501,-0.7954 -0.80931,-0.92493 -0.016,-0.0107 -0.0442,0.0136 -0.0578,0 -0.0491,-0.0491 -0.056,-0.13768 -0.11562,-0.17343 -0.0496,-0.0297 -0.11784,0.0159 -0.17342,0 -0.23531,-0.0672 -0.44985,-0.23485 -0.6937,-0.28904 -0.31058,-0.069 -1.08634,0 -1.3874,0 -0.42595,0 -1.04167,-0.1036 -1.44521,0.0578 -0.34592,0.13837 -0.72366,0.26441 -1.04055,0.46247 -0.69517,0.43448 0.2876,-0.10197 -0.52027,0.34685 -0.17758,0.0986 -0.41925,0.16197 -0.57809,0.28904 -0.0638,0.0511 -0.10689,0.12591 -0.17342,0.17342 -0.25278,0.18056 -0.5159,0.3015 -0.75151,0.52028 -0.17972,0.16689 -0.34005,0.35392 -0.52027,0.52027 -0.0708,0.0653 -0.16779,0.10092 -0.231235,0.17343 -0.07399,0.0846 -0.100303,0.20373 -0.173424,0.28904 -0.04522,0.0528 -0.128211,0.0629 -0.173426,0.11562 -0.23535,0.27457 -0.316175,0.6609 -0.462465,0.98274 -0.161039,0.35428 -0.195612,0.31998 -0.289042,0.6937 -0.02843,0.11371 -0.02334,0.23482 -0.05781,0.34685 -0.04316,0.14026 -0.142676,0.26116 -0.173426,0.40465 -0.02826,0.1319 0.01783,0.27096 0,0.40466 -0.0591,0.44325 -0.233585,0.88595 -0.289041,1.32959 -0.01913,0.15297 0.01183,0.30877 0,0.46247 -0.01797,0.23373 -0.07905,0.46215 -0.115615,0.6937 -0.06375,0.40376 -0.100304,0.8118 -0.173427,1.21397 -0.230714,1.26894 -0.775861,2.30471 0,3.4685 0.522833,0.78425 1.984084,1.62333 2.890421,1.56082 0.28578,-0.0197 0.52312,-0.30148 0.80931,-0.28904 0.58441,0.38961 0.31185,0.34685 0.75151,0.34685"
     id="path18" />
</svg>
