<?xml version="1.0" encoding="UTF-8" standalone="no"?>
<!-- Created with Inkscape (http://www.inkscape.org/) -->

<svg
   width="210mm"
   height="297mm"
   viewBox="0 0 210 297"
   version="1.1"
   id="svg1"
   inkscape:version="1.4 (86a8ad7, 2024-10-11)"
   sodipodi:docname="pZ.svg"
   xmlns:inkscape="http://www.inkscape.org/namespaces/inkscape"
   xmlns:sodipodi="http://sodipodi.sourceforge.net/DTD/sodipodi-0.dtd"
   xmlns="http://www.w3.org/2000/svg"
   xmlns:svg="http://www.w3.org/2000/svg">
  <sodipodi:namedview
     id="namedview1"
     pagecolor="#ffffff"
     bordercolor="#999999"
     borderopacity="1"
     inkscape:showpageshadow="2"
     inkscape:pageopacity="0"
     inkscape:pagecheckerboard="0"
     inkscape:deskcolor="#d1d1d1"
     inkscape:document-units="mm"
     showgrid="true"
     showguides="true"
     inkscape:zoom="5.7117319"
     inkscape:cx="350.15649"
     inkscape:cy="522.52103"
     inkscape:window-width="2560"
     inkscape:window-height="1351"
     inkscape:window-x="-9"
     inkscape:window-y="-9"
     inkscape:window-maximized="1"
     inkscape:current-layer="svg1">
    <inkscape:grid
       id="grid1"
       units="mm"
       originx="0"
       originy="0"
       spacingx="0.99999998"
       spacingy="1"
       empcolor="#0099e5"
       empopacity="0.30196078"
       color="#0099e5"
       opacity="0.14901961"
       empspacing="5"
       enabled="true"
       visible="true" />
    <sodipodi:guide
       position="95.02427,142.20874"
       orientation="0,-1"
       id="guide1"
       inkscape:locked="false" />
    <sodipodi:guide
       position="94.893202,156.88835"
       orientation="0,-1"
       id="guide2"
       inkscape:locked="false" />
    <sodipodi:guide
       position="87.906074,157.65706"
       orientation="1,0"
       id="guide3"
       inkscape:locked="false" />
    <sodipodi:guide
       position="110.22815,157.01942"
       orientation="1,0"
       id="guide4"
       inkscape:locked="false" />
    <sodipodi:guide
       position="90.52779,147.73898"
       orientation="0,-1"
       id="guide5"
       inkscape:locked="false" />
  </sodipodi:namedview>
  <defs
     id="defs1" />
  <path
     style="fill:#ffffff;fill-opacity:0;stroke:#000000;stroke-width:2;stroke-linecap:round;stroke-linejoin:round"
     d="m 108.85855,127.94353 c -0.005,-1.51336 -1.58528,-1.8409 -2.73305,-2.22349 -0.20403,-0.068 -0.3954,-0.17253 -0.60219,-0.23161 -0.22712,-0.0649 -0.46662,-0.0781 -0.69485,-0.13897 -0.23589,-0.0629 -0.45844,-0.17061 -0.69484,-0.23162 -1.22306,-0.31563 -2.78328,-0.31708 -4.03008,-0.13896 -0.991876,0.14169 -2.062261,0.83564 -2.872013,1.38968 -0.644324,0.44085 -1.216366,0.71429 -1.760265,1.29704 -0.41098,0.44033 -0.82418,0.93517 -1.158071,1.436 -0.08818,0.13228 -0.141549,0.28591 -0.231613,0.41691 -0.08065,0.11731 -0.200602,0.20474 -0.277937,0.32426 -0.361527,0.55872 -0.561689,1.27829 -0.787488,1.89923 -0.06176,0.16985 -0.114098,0.34344 -0.18529,0.50955 -0.06801,0.15868 -0.172617,0.30099 -0.231613,0.46323 -0.167572,0.46082 -0.193496,0.96525 -0.324261,1.43601 -0.176948,0.637 -0.35162,1.24996 -0.50955,1.89923 -0.146071,0.60052 -0.277937,1.20439 -0.416907,1.80659 -0.09264,0.40146 -0.20734,0.79847 -0.277936,1.20439 -0.09815,0.56439 -0.119722,1.14569 -0.185291,1.71394 -0.06315,0.54734 -0.187251,1.12048 -0.231613,1.66763 -0.230847,2.8471 0.102158,0.10029 -0.13897,1.66762 -0.220197,1.43129 -0.277937,2.8628 -0.277937,4.30801 0,0.52647 -0.08048,1.55636 0.04632,2.03821 0.07589,0.28839 0.223959,0.55297 0.32426,0.83381 0.192231,0.53824 0.39392,1.03965 0.694841,1.52865 0.0874,0.14201 0.253212,0.47015 0.370583,0.60219 0.05129,0.0577 0.126672,0.0887 0.185291,0.13897 0.09948,0.0853 0.178459,0.19267 0.277937,0.27794 0.295299,0.25312 0.0748,0.0291 0.416906,0.27794 0.09753,0.0709 0.171755,0.17444 0.277937,0.23161 0.09898,0.0533 0.214837,0.0669 0.324258,0.0926 0.523099,0.12308 1.002347,0.0522 1.528654,0.0926 0.231653,0.0178 0.463457,0.0695 0.69484,0.0926 0.354875,0.0355 0.715066,-0.0171 1.065425,-0.0463 0.576918,-0.0481 1.181084,0 1.760265,0 0.226911,0 0.517061,0.0407 0.741166,0 0.09608,-0.0175 0.181854,-0.0752 0.277934,-0.0926 0.07596,-0.0138 0.156126,0.0162 0.231617,0 0.702131,-0.15046 1.453891,-0.79549 1.991881,-1.25072 0.34843,-0.29482 0.63956,-0.61703 0.97278,-0.92645 0.0884,-0.0821 0.19266,-0.14634 0.27793,-0.23162 0.0699,-0.0699 0.11538,-0.1617 0.1853,-0.23161 0.0546,-0.0546 0.1307,-0.0844 0.18529,-0.13897 0.21579,-0.21579 0.33323,-0.49873 0.50955,-0.74116 0.0709,-0.0975 0.16841,-0.17523 0.23161,-0.27794 0.0616,-0.10015 0.0832,-0.22072 0.13897,-0.32426 0.2072,-0.3848 0.18233,-0.19169 0.41691,-0.60219 0.20009,-0.35018 0.31165,-0.75993 0.50955,-1.11175 0.10499,-0.18666 0.31832,-0.40504 0.4169,-0.6022 0.0437,-0.0873 0.049,-0.19059 0.0926,-0.27793 0.0498,-0.0996 0.12918,-0.18176 0.18529,-0.27794 0.23424,-0.40156 0.0564,-0.17378 0.27793,-0.64852 0.15925,-0.34124 0.37467,-0.66503 0.50955,-1.0191 0.0869,-0.22815 0.14265,-0.46749 0.23162,-0.69484 0.0503,-0.12861 0.1368,-0.24127 0.18529,-0.37059 0.13272,-0.3539 0.16514,-0.75078 0.27794,-1.11174 0.20285,-0.64914 0.0819,-0.0961 0.23161,-0.69484 0.13441,-0.53764 0.23619,-1.08375 0.37058,-1.6213 0.12254,-0.49015 0.22822,-0.99827 0.37059,-1.48233 0.0372,-0.12657 0.10365,-0.24347 0.13897,-0.37058 0.11444,-0.41201 0.14852,-0.83526 0.23161,-1.25072 0.0412,-0.20594 0.14128,-0.39684 0.18529,-0.60219 0.075,-0.3502 0.10922,-0.70852 0.13897,-1.06543 0.0103,-0.1231 -0.0153,-0.24801 0,-0.37058 0.10844,-0.86753 0.0909,0.12354 0.13897,-0.74117 0.009,-0.15417 -0.009,-0.30905 0,-0.46322 0.0284,-0.51105 0.14886,-1.01863 0.18529,-1.52865 0.008,-0.10782 -0.008,-0.2165 0,-0.32426 0.0358,-0.46591 0.0661,-0.10226 0.13897,-0.64852 0.0442,-0.33141 0.024,-0.6848 0.0463,-1.01911 -0.008,-0.22121 0.0759,-0.43079 0.0926,-0.64851 0.0153,-0.19955 -0.0153,-0.40265 0,-0.6022 0.0168,-0.21772 0.0771,-0.4307 0.0927,-0.64852 0.0228,-0.31973 0,-0.65214 0,-0.97278 0,-0.43227 -0.0295,-1.74583 -0.37058,-2.0382 -0.0684,-0.0586 -0.15441,-0.0926 -0.23162,-0.13897"
     id="path35" />
  <path
     style="fill:#ffffff;fill-opacity:0;stroke:#000000;stroke-width:2;stroke-linecap:round;stroke-linejoin:round"
     d="m 105.43066,149.76157 c 0.15135,-0.28339 0.38435,-0.32234 0.64852,-0.46323 0.3938,-0.21003 0.7723,-0.46575 1.20439,-0.6022 0.15016,-0.0474 0.31005,-0.0562 0.46323,-0.0926 0.29434,-0.0701 0.66103,-0.23162 0.97278,-0.23162 0.15915,0.19298 0.55587,0.83994 0.55587,1.11171"
     id="path36" />
</svg>
