<?xml version="1.0" encoding="UTF-8" standalone="no"?>
<!-- Created with Inkscape (http://www.inkscape.org/) -->

<svg
   width="210mm"
   height="297mm"
   viewBox="0 0 210 297"
   version="1.1"
   id="svg1"
   inkscape:version="1.4 (86a8ad7, 2024-10-11)"
   sodipodi:docname="pZ.svg"
   xmlns:inkscape="http://www.inkscape.org/namespaces/inkscape"
   xmlns:sodipodi="http://sodipodi.sourceforge.net/DTD/sodipodi-0.dtd"
   xmlns="http://www.w3.org/2000/svg"
   xmlns:svg="http://www.w3.org/2000/svg">
  <sodipodi:namedview
     id="namedview1"
     pagecolor="#ffffff"
     bordercolor="#999999"
     borderopacity="1"
     inkscape:showpageshadow="2"
     inkscape:pageopacity="0"
     inkscape:pagecheckerboard="0"
     inkscape:deskcolor="#d1d1d1"
     inkscape:document-units="mm"
     showgrid="true"
     showguides="true"
     inkscape:zoom="5.7117319"
     inkscape:cx="350.15649"
     inkscape:cy="522.52103"
     inkscape:window-width="2560"
     inkscape:window-height="1351"
     inkscape:window-x="-9"
     inkscape:window-y="-9"
     inkscape:window-maximized="1"
     inkscape:current-layer="svg1">
    <inkscape:grid
       id="grid1"
       units="mm"
       originx="0"
       originy="0"
       spacingx="0.99999998"
       spacingy="1"
       empcolor="#0099e5"
       empopacity="0.30196078"
       color="#0099e5"
       opacity="0.14901961"
       empspacing="5"
       enabled="true"
       visible="true" />
    <sodipodi:guide
       position="95.02427,142.20874"
       orientation="0,-1"
       id="guide1"
       inkscape:locked="false" />
    <sodipodi:guide
       position="94.893202,156.88835"
       orientation="0,-1"
       id="guide2"
       inkscape:locked="false" />
    <sodipodi:guide
       position="87.906074,157.65706"
       orientation="1,0"
       id="guide3"
       inkscape:locked="false" />
    <sodipodi:guide
       position="110.22815,157.01942"
       orientation="1,0"
       id="guide4"
       inkscape:locked="false" />
    <sodipodi:guide
       position="90.52779,147.73898"
       orientation="0,-1"
       id="guide5"
       inkscape:locked="false" />
  </sodipodi:namedview>
  <defs
     id="defs1" />
  <path
     style="fill:#ffffff;fill-opacity:0;stroke:#000000;stroke-width:2;stroke-linecap:round;stroke-linejoin:round"
     d="m 107.51519,129.1016 c 0.20517,0.61372 0.04,1.29518 -0.13897,1.89924 -0.36465,1.23069 -0.97232,2.37077 -1.52866,3.52053 -0.0974,0.2014 -0.61211,1.32205 -0.69484,1.48233 -0.44385,0.85997 -0.32025,0.43364 -0.69484,1.34336 -0.2195,0.53308 -0.39408,1.08366 -0.60219,1.6213 -0.26523,0.68515 -0.34178,0.78903 -0.55588,1.52865 -0.38216,1.3202 -0.0834,0.50029 -0.4169,1.66762 -0.0845,0.29582 -0.19964,0.5826 -0.27794,0.88013 -0.074,0.2814 -0.25247,1.23995 -0.32426,1.57498 -0.10384,0.4846 -0.16408,0.63901 -0.23161,1.11174 -0.10936,0.76549 0.0151,0.16201 -0.0926,0.88014 -0.22539,1.50262 -0.54146,3.44053 0,4.91021 0.28728,0.77977 0.061,0.16841 0.37058,0.78749 0.25526,0.51051 0.42216,0.90779 0.97278,1.15807 0.0889,0.0404 0.18904,0.0522 0.27794,0.0926 0.082,0.0373 0.147,0.1082 0.23161,0.13897 0.31186,0.11341 0.69824,0.0748 1.0191,0.13897 0.29308,0.0586 1.05003,0.35995 1.34336,0.23162 0.1613,-0.0706 0.30033,-0.19234 0.41691,-0.32427 1.19944,-1.35726 1.06739,-1.19452 1.66762,-2.22349"
     id="path33" />
  <path
     style="fill:#ffffff;fill-opacity:0;stroke:#000000;stroke-width:2;stroke-linecap:round;stroke-linejoin:round"
     d="m 98.111661,128.31412 c 0.229642,0.4533 0.120965,0.95454 0.09264,1.436 -0.0072,0.12332 0,0.24706 0,0.37059 -0.03088,0.1544 -0.07425,0.30683 -0.09264,0.46322 -0.01262,0.10735 0.01643,0.21743 0,0.32426 -0.01484,0.0965 -0.07218,0.18245 -0.09265,0.27794 -0.05217,0.24345 -0.04676,0.49645 -0.09265,0.74116 -0.130175,0.69427 -0.278408,1.39204 -0.416904,2.08453 0.02823,0.26533 -0.180459,0.45612 -0.231614,0.69484 -0.04219,0.19686 -0.0041,0.40534 -0.04632,0.6022 -0.05336,0.249 -0.141036,0.49038 -0.18529,0.74116 -0.0486,0.27539 -0.03198,0.56082 -0.09265,0.83381 -0.03178,0.143 -0.111972,0.27293 -0.138967,0.41691 -0.01992,0.10623 0.01429,0.21712 0,0.32426 -0.01683,0.12621 -0.06918,0.24543 -0.09265,0.37058 -0.02294,0.12236 -0.02468,0.24798 -0.04632,0.37058 -0.04948,0.28038 -0.143055,0.55224 -0.18529,0.83381 -0.02529,0.16866 -0.01177,0.34254 -0.04632,0.50955 -0.05844,0.28248 -0.159221,0.55458 -0.231614,0.83381 -0.23464,0.90504 0.06435,-0.12565 -0.18529,0.97278 -0.128464,0.56523 -0.396013,1.09992 -0.509551,1.66762 -0.110612,0.55306 -0.199006,1.1165 -0.32426,1.66762 -0.08248,0.36289 -0.251317,0.7007 -0.32426,1.06543 -0.07909,0.39545 -0.150003,0.82058 -0.277937,1.20439 -0.03719,0.11156 -0.09942,0.21351 -0.138967,0.32426 -0.07562,0.21172 -0.109675,0.43679 -0.185293,0.64852 -0.116475,0.32612 -0.266909,0.64102 -0.370581,0.97277 -0.150497,0.48159 -0.314489,0.96786 -0.50955,1.43601 -0.03984,0.0956 -0.103571,0.18059 -0.13897,0.27794 -0.0269,0.074 -0.02143,0.15692 -0.04632,0.23161 -0.123598,0.37079 -0.667626,1.2235 -0.926455,1.48233 -0.139824,0.13982 -0.310186,0.24536 -0.463227,0.37058 -0.182067,0.14897 -0.297738,0.27431 -0.509553,0.37058 -0.931902,0.4236 -2.260034,-0.40783 -3.057303,-0.78748"
     id="path34" />
  <path
     style="fill:#ffffff;fill-opacity:0;stroke:#000000;stroke-width:2;stroke-linecap:round;stroke-linejoin:round"
     d="m 94.730095,133.82653 c -1.570998,-1.16243 -3.221254,-2.21105 -4.910214,-3.19627 -0.38041,-0.22191 -1.166519,-0.49703 -1.297038,-1.01911 -0.144468,-0.57787 -0.01471,-1.05421 0.370584,-1.48233 0.173876,-0.19319 0.803605,-0.92007 1.111744,-1.06542 1.734437,-0.81813 2.132598,-0.82377 4.030083,-1.0191 1.403131,-0.14444 2.810624,-0.24288 4.215374,-0.37058 5.353392,-0.48668 6.541362,-0.71191 11.904952,-0.83381 5.79361,-0.13168 7.35923,0.0491 13.29464,0.32426"
     id="path35" />
</svg>
