<?xml version="1.0" encoding="UTF-8" standalone="no"?>
<!-- Created with Inkscape (http://www.inkscape.org/) -->

<svg
   width="210mm"
   height="297mm"
   viewBox="0 0 210 297"
   version="1.1"
   id="svg1"
   inkscape:version="1.4 (86a8ad7, 2024-10-11)"
   sodipodi:docname="sh.svg"
   xmlns:inkscape="http://www.inkscape.org/namespaces/inkscape"
   xmlns:sodipodi="http://sodipodi.sourceforge.net/DTD/sodipodi-0.dtd"
   xmlns="http://www.w3.org/2000/svg"
   xmlns:svg="http://www.w3.org/2000/svg">
  <sodipodi:namedview
     id="namedview1"
     pagecolor="#ffffff"
     bordercolor="#999999"
     borderopacity="1"
     inkscape:showpageshadow="2"
     inkscape:pageopacity="0"
     inkscape:pagecheckerboard="0"
     inkscape:deskcolor="#d1d1d1"
     inkscape:document-units="mm"
     showgrid="true"
     showguides="true"
     inkscape:zoom="5.709669"
     inkscape:cx="373.75196"
     inkscape:cy="539.17311"
     inkscape:window-width="2560"
     inkscape:window-height="1351"
     inkscape:window-x="-9"
     inkscape:window-y="-9"
     inkscape:window-maximized="1"
     inkscape:current-layer="svg1">
    <inkscape:grid
       id="grid1"
       units="mm"
       originx="0"
       originy="0"
       spacingx="0.99999998"
       spacingy="1"
       empcolor="#0099e5"
       empopacity="0.30196078"
       color="#0099e5"
       opacity="0.14901961"
       empspacing="5"
       enabled="true"
       visible="true" />
    <sodipodi:guide
       position="95.02427,142.20874"
       orientation="0,-1"
       id="guide1"
       inkscape:locked="false" />
    <sodipodi:guide
       position="94.893202,156.88835"
       orientation="0,-1"
       id="guide2"
       inkscape:locked="false" />
    <sodipodi:guide
       position="87.906074,157.65706"
       orientation="1,0"
       id="guide3"
       inkscape:locked="false" />
    <sodipodi:guide
       position="110.22815,157.01942"
       orientation="1,0"
       id="guide4"
       inkscape:locked="false" />
    <sodipodi:guide
       position="90.52779,147.73898"
       orientation="0,-1"
       id="guide5"
       inkscape:locked="false" />
  </sodipodi:namedview>
  <defs
     id="defs1" />
  <path
     style="fill:#ffffff;fill-opacity:0;stroke:#000000;stroke-width:2;stroke-linecap:round;stroke-linejoin:round"
     d="m 98.610501,140.54777 c 0.0309,0.0927 0.07662,0.18167 0.09268,0.27804 0.01524,0.0914 0,0.18535 0,0.27803 0,1.02645 0.05283,0.19125 -0.13902,1.11215 -0.04144,0.1989 -0.05816,0.4022 -0.09268,0.60242 -0.228626,1.32602 -0.601535,2.62397 -0.880451,3.93885 -0.07167,0.33788 -0.113686,0.6816 -0.185356,1.01948 -0.05333,0.2514 -0.20573,0.72005 -0.278038,0.97312 -0.140964,0.49338 -0.269621,0.99142 -0.417057,1.48287 -0.294614,0.98204 -0.780389,2.05167 -0.648753,3.10475 0.0079,0.0632 0.03844,0.12216 0.04634,0.18535 0.0077,0.0613 -0.01696,0.12595 0,0.18536 0.02989,0.10461 0.121568,0.15515 0.185359,0.2317 0.01072,0.0129 0.17181,0.24809 0.231698,0.27804 0.0425,0.0213 0.394073,0.0885 0.417055,0.0927 0.546418,0.0994 1.043874,0.009 1.575544,-0.13902 0.520324,-0.14454 0.556675,-0.32478 0.973129,-0.60242 0.114956,-0.0766 0.257125,-0.10671 0.370718,-0.18535 0.296531,-0.20529 0.553421,-0.56629 0.787771,-0.83412 0.38699,-0.44227 0.78334,-0.86869 1.06581,-1.39018 0.10533,-0.19447 0.1736,-0.40747 0.27804,-0.60241 0.21266,-0.39697 0.44529,-0.78379 0.69509,-1.15849 0.2771,-0.41565 0.41035,-0.49466 0.60241,-0.92679 0.49548,-1.11482 0.56578,-2.33214 0.6951,-3.52181 0.1213,-1.116 0.25084,-2.22833 0.41705,-3.33644 0.0569,-0.37902 0.0456,-0.78465 0.13902,-1.15849 0.0432,-0.17277 0.13752,-0.27804 0.0927,-0.27804 -0.0155,0 0,0.0309 0,0.0463 0,0.29349 0.008,0.58707 0,0.88045 -0.039,1.48296 -0.22243,3.00282 -0.55607,4.4486 -0.20113,0.87153 -0.5234,1.69679 -0.78778,2.54867 -0.22321,0.71923 -0.39541,1.44352 -0.55607,2.17796 -0.1364,0.62353 -0.31017,1.21783 -0.37072,1.85358 -0.0444,0.46601 -0.14037,0.90663 0.18536,1.29751 0.042,0.0503 0.0791,0.1124 0.13902,0.13901 0.26187,0.11639 0.89714,0.10513 1.15849,0.0927 0.28483,-0.0136 0.62232,-0.0419 0.88045,-0.18535 0.72919,-0.40511 1.23559,-1.33658 1.62188,-2.03894 0.38895,-0.70718 0.72442,-1.44641 1.06581,-2.17796 0.20165,-0.43211 0.36413,-0.88447 0.60242,-1.29751 0.32401,-0.56162 0.82145,-1.0405 1.11214,-1.62188 0.0721,-0.14424 0.088,-0.3104 0.13902,-0.46339 0.79246,-2.37738 -0.32883,1.14244 0.41706,-1.34385 0.0725,-0.24156 0.32242,-0.907 0.37072,-1.20483 0.0647,-0.39906 0.0931,-0.80317 0.13901,-1.20483 0.0265,-0.23223 0.0694,-0.4625 0.0927,-0.69509 0.006,-0.0615 0,-0.12357 0,-0.18536 0,-0.0155 0.0155,-0.0463 0,-0.0463 -0.0155,0 0.003,0.0311 0,0.0463 -0.0282,0.15499 -0.0486,0.31217 -0.0927,0.4634 -0.0643,0.22044 -0.16363,0.42944 -0.2317,0.64875 -0.41557,1.33909 0.0931,0.0204 -0.50973,1.66822 -0.61858,1.69079 -1.35936,3.33106 -1.89992,5.05101 -0.19066,0.60665 0.006,0.15267 -0.18536,0.88045 -0.0336,0.12763 -0.10369,0.24356 -0.13902,0.37072 -0.17632,0.63478 -0.39661,1.62049 -0.32437,2.27063 0.0304,0.27339 0.29173,1.07538 0.60241,1.20483 0.11496,0.0479 0.24637,0.0394 0.37072,0.0463 0.51749,0.0288 0.74625,-0.0853 1.15848,-0.37071 0.36028,-0.24943 0.18297,-0.0903 0.41706,-0.32438"
     id="path1" />
</svg>
