<?xml version="1.0" encoding="UTF-8" standalone="no"?>
<!-- Created with Inkscape (http://www.inkscape.org/) -->

<svg
   width="210mm"
   height="297mm"
   viewBox="0 0 210 297"
   version="1.1"
   id="svg1"
   inkscape:version="1.4 (86a8ad7, 2024-10-11)"
   sodipodi:docname="ts.svg"
   xmlns:inkscape="http://www.inkscape.org/namespaces/inkscape"
   xmlns:sodipodi="http://sodipodi.sourceforge.net/DTD/sodipodi-0.dtd"
   xmlns="http://www.w3.org/2000/svg"
   xmlns:svg="http://www.w3.org/2000/svg">
  <sodipodi:namedview
     id="namedview1"
     pagecolor="#ffffff"
     bordercolor="#999999"
     borderopacity="1"
     inkscape:showpageshadow="2"
     inkscape:pageopacity="0"
     inkscape:pagecheckerboard="0"
     inkscape:deskcolor="#d1d1d1"
     inkscape:document-units="mm"
     showgrid="true"
     showguides="true"
     inkscape:zoom="8.0746913"
     inkscape:cx="377.22804"
     inkscape:cy="567.26627"
     inkscape:window-width="2560"
     inkscape:window-height="1351"
     inkscape:window-x="-9"
     inkscape:window-y="-9"
     inkscape:window-maximized="1"
     inkscape:current-layer="svg1">
    <inkscape:grid
       id="grid1"
       units="mm"
       originx="0"
       originy="0"
       spacingx="0.99999998"
       spacingy="1"
       empcolor="#0099e5"
       empopacity="0.30196078"
       color="#0099e5"
       opacity="0.14901961"
       empspacing="5"
       enabled="true"
       visible="true" />
    <sodipodi:guide
       position="95.02427,142.20874"
       orientation="0,-1"
       id="guide1"
       inkscape:locked="false" />
    <sodipodi:guide
       position="94.893202,156.88835"
       orientation="0,-1"
       id="guide2"
       inkscape:locked="false" />
    <sodipodi:guide
       position="94.762134,159.37865"
       orientation="1,0"
       id="guide3"
       inkscape:locked="false" />
    <sodipodi:guide
       position="110.22815,157.01942"
       orientation="1,0"
       id="guide4"
       inkscape:locked="false" />
    <sodipodi:guide
       position="90.52779,147.73898"
       orientation="0,-1"
       id="guide5"
       inkscape:locked="false" />
  </sodipodi:namedview>
  <defs
     id="defs1" />
  <path
     style="fill:none;stroke:#000000;stroke-width:2;stroke-linecap:round;stroke-linejoin:round"
     d="m 92.075242,142.89684 c 0.04369,-0.0983 0.06652,-0.20884 0.131067,-0.2949 0.141036,-0.18805 0.639823,-0.54152 0.819176,-0.72087 0.618615,-0.61862 0.106297,-0.17137 0.655339,-0.68811 0.197593,-0.18597 0.589772,-0.55294 0.884708,-0.58981 0.514996,-0.0644 1.375302,0.0652 1.86772,0.22937 0.139505,0.0465 0.206674,0.15491 0.327671,0.22937 0.527619,0.32469 0.04057,-0.0462 0.425969,0.26214 0.578429,0.46274 0.55704,1.25526 0.55704,1.93325 0,0.16384 0.02318,0.32932 0,0.4915 -0.0098,0.0684 -0.05318,0.12864 -0.06553,0.19661 -0.0098,0.0537 0,0.10922 0,0.16383 -0.02186,0.0765 -0.04887,0.15162 -0.06553,0.22937 -0.04612,0.21522 -0.05523,0.44 -0.0983,0.65534 -0.04201,0.21006 -0.107627,0.41648 -0.163835,0.62257 -0.0703,0.25775 -0.09902,0.52714 -0.163835,0.78641 -0.07267,0.2907 -0.249,0.55357 -0.294902,0.85194 -0.01,0.0648 0.01077,0.13196 0,0.19661 -0.0298,0.1788 -0.107572,0.35548 -0.163836,0.52427 -0.157157,0.47147 -0.156376,1.05343 -0.229367,1.54005 -0.02162,0.14411 -0.07769,0.28171 -0.0983,0.42597 -0.01082,0.0757 0.0059,0.15313 0,0.22937 -0.01939,0.25203 -0.08138,0.49978 -0.0983,0.75364 -0.01659,0.24883 0,0.5041 0,0.75364 0,0.37178 -0.01947,0.74841 0.03277,1.11408 0.02114,0.14802 -0.01233,0.31062 0,0.45873 0.04323,0.51876 0.198022,0.90287 0.524272,1.31068 0.01527,0.0191 0.01371,0.0503 0.03277,0.0655 0.12197,0.0976 0.531627,0.0983 0.688107,0.0983 0.309877,0 0.364196,0.092 0.655338,-0.0328 0.194728,-0.0834 0.392716,-0.15546 0.589807,-0.22937 0.144028,-0.054 0.108376,-0.0619 0.22937,-0.13107 0.115689,-0.0661 0.243271,-0.10525 0.360436,-0.16383 0.07045,-0.0352 0.126154,-0.0958 0.196602,-0.13107 0.03089,-0.0155 0.06868,-0.015 0.0983,-0.0328 0.02347,-0.0141 0.343591,-0.31082 0.360441,-0.32767 0.0989,-0.0989 0.19017,-0.20773 0.26213,-0.32767 0.0533,-0.0889 0.0562,-0.20021 0.0983,-0.2949 0.0616,-0.13852 0.1502,-0.23376 0.22937,-0.36043 0.10851,-0.17362 0.1583,-0.37904 0.26214,-0.55705 0.0275,-0.0472 0.0694,-0.0848 0.0983,-0.13106 0.0773,-0.12362 0.12588,-0.26944 0.1966,-0.39321 0.0594,-0.10389 0.11312,-0.12794 0.16384,-0.22936 0.0263,-0.0526 0.037,-0.11242 0.0655,-0.16384 0.0265,-0.0477 0.0718,-0.0833 0.0983,-0.13107 0.0908,-0.16339 0.11143,-0.34957 0.16384,-0.52427 0.067,-0.22325 0.1679,-0.42996 0.22937,-0.65534 0.069,-0.25303 0.17039,-0.49806 0.22936,-0.75364 0.0174,-0.0753 0.014,-0.15444 0.0328,-0.22937 0.0143,-0.0571 0.0498,-0.10716 0.0655,-0.16383 0.0603,-0.21696 0.11665,-0.43517 0.16383,-0.65535 0.0324,-0.15103 0.0281,-0.30888 0.0655,-0.45873 0.0787,-0.31463 0.14287,-0.40154 0.19661,-0.68811 0.0536,-0.28604 0.0884,-0.56904 0.16383,-0.85194 0.0484,-0.1816 0.0936,-0.30443 0.13107,-0.49151 0.0433,-0.21647 0.0363,-0.4365 0.0655,-0.65534 0.0219,-0.16383 0.0284,-0.33045 0.0655,-0.4915 0.0132,-0.0573 0.0566,-0.1057 0.0655,-0.16383 0.0133,-0.0864 -0.006,-0.17496 0,-0.26214 0.0168,-0.25121 0.0491,-0.54058 0.0983,-0.78641 0.0136,-0.0677 0.0542,-0.12846 0.0655,-0.1966 0.0108,-0.0646 0,-0.13107 0,-0.1966 0.0219,-0.0765 0.0489,-0.15162 0.0655,-0.22937 0.08,-0.37334 0.12609,-0.76936 0.16383,-1.14685 0.0135,-0.13527 0.0819,-0.26171 0.0983,-0.3932 0.007,-0.0542 -0.006,-0.10956 0,-0.16384 0.0123,-0.11126 0.0474,-0.21884 0.0655,-0.32767 0.003,-0.0167 -0.01,-0.36992 0.0655,-0.2949 0.0394,0.0394 -0.0219,0.10922 -0.0328,0.16384 -0.0107,0.0536 0.009,0.10996 0,0.16383 -0.0114,0.0681 -0.052,0.12887 -0.0655,0.1966 -0.0422,0.21099 -0.006,0.17962 -0.0655,0.32767 -0.0297,0.0741 -0.0791,0.15248 -0.0983,0.22937 -0.0179,0.0717 -0.0148,0.15768 -0.0328,0.22937 -0.0272,0.10898 -0.1091,0.21781 -0.13107,0.32767 -0.0172,0.0861 -0.0115,0.17719 -0.0328,0.26214 -0.01,0.0382 -0.056,0.0601 -0.0655,0.0983 -0.0182,0.0731 -0.0503,0.15314 -0.0655,0.22937 -0.0182,0.091 0.0273,0.0546 0,0.16383 -0.004,0.015 -0.0259,0.0189 -0.0328,0.0328 -0.02,0.0401 -0.0568,0.18559 -0.0655,0.22937 -0.0125,0.0624 0.0154,0.13491 0,0.1966 -0.0297,0.1189 -0.0511,0.23032 -0.0655,0.36044 -0.0165,0.14817 0.0292,0.31268 0,0.45873 -0.005,0.024 -0.0268,0.0419 -0.0328,0.0655 -0.0154,0.0617 0.0154,0.13492 0,0.1966 -0.006,0.0237 -0.0268,0.0418 -0.0328,0.0655 -0.023,0.0919 0.0103,0.24508 0,0.32766 -0.007,0.0584 -0.0572,0.10561 -0.0655,0.16384 -0.025,0.17493 -0.0361,0.34777 -0.0655,0.52427 -0.0354,0.21263 0.0305,0.44185 0,0.65534 -0.005,0.0342 -0.0285,0.064 -0.0328,0.0983 -0.0135,0.10838 0.009,0.21883 0,0.32767 -0.0148,0.17733 -0.0736,0.31876 -0.0983,0.49151 -0.0183,0.12806 0.0213,0.26564 0,0.3932 -0.0113,0.0681 -0.0558,0.12822 -0.0655,0.1966 -0.0324,0.22718 -0.0605,0.46146 -0.0983,0.68811 -0.01,0.058 -0.0559,0.10582 -0.0655,0.16383 -0.0219,0.13149 0.0113,0.22831 -0.0328,0.36044 -0.1041,0.31229 -0.18206,0.62993 -0.26214,0.95024 -0.0229,0.0917 -0.11773,0.28649 -0.13107,0.39321 -0.0227,0.18172 -0.02,0.34237 -0.0655,0.52427 -0.0535,0.21392 -0.0176,-0.1238 -0.0655,0.16383 -0.0166,0.0995 -0.007,0.27008 -0.0328,0.36044 -0.0108,0.0379 -0.0531,0.0609 -0.0655,0.0983 -0.0242,0.0725 0.0108,0.15368 0,0.22937 -0.005,0.0342 -0.0219,0.0655 -0.0328,0.0983 -0.0109,0.0437 -0.0272,0.0864 -0.0328,0.13107 -0.0225,0.17999 0,0.37547 0,0.55704 0,0.1917 -0.0237,0.40044 0,0.58981 0.003,0.0242 0.0268,0.0418 0.0328,0.0655 0.0257,0.10272 -0.0208,0.22377 0,0.32767 0.0132,0.0663 0.17977,0.60574 0.22937,0.65534 0.0244,0.0244 0.0739,0.008 0.0983,0.0328 0.0244,0.0244 0.008,0.0739 0.0328,0.0983 0.0346,0.0345 0.0904,0.0384 0.13107,0.0655 0.0257,0.0171 0.0369,0.0541 0.0655,0.0655 0.0304,0.0122 0.0662,-0.006 0.0983,0 0.0844,0.0169 0.15547,0.10643 0.22937,0.13106 0.0598,0.0199 0.41199,0.0655 0.4915,0.0655 0.0437,0 0.0896,-0.0138 0.13107,0 0.0147,0.005 0.0181,0.0279 0.0328,0.0328 0.1225,0.0408 0.42561,1.2e-4 0.52427,-0.0328 0.0374,-0.0125 0.0617,-0.0509 0.0983,-0.0655 0.31617,-0.12647 0.43688,-0.22935 0.65534,-0.4915 0.0655,-0.0786 0.17228,-0.14374 0.22937,-0.22937 0.0271,-0.0406 0.0371,-0.0913 0.0655,-0.13107 0.0585,-0.0819 0.1254,-0.15816 0.1966,-0.22937 0.0471,-0.0471 0.11767,-0.0734 0.16384,-0.13107 0.14034,-0.17542 0.25153,-0.34718 0.3932,-0.52427 0.0813,-0.10159 0.0638,-0.0294 0.13107,-0.16383 0.0155,-0.0309 0.015,-0.0687 0.0328,-0.0983 0.0613,-0.10216 0.16863,-0.18862 0.22937,-0.29491 0.0171,-0.03 0.0173,-0.0674 0.0328,-0.0983 0.19328,-0.38654 0.46016,-0.74935 0.68811,-1.11408 0.10849,-0.17358 0.033,-0.11197 0.13107,-0.32767 0.10583,-0.23283 0.25981,-0.45331 0.36044,-0.6881 0.009,-0.0213 0.13956,-0.42274 0.16383,-0.49151 0.0621,-0.176 0.14001,-0.34641 0.1966,-0.52427 0.12497,-0.2596 0.14681,-0.5479 0.22937,-0.81917 0.0503,-0.16522 0.0997,-0.33116 0.16384,-0.49151 0.0237,-0.0591 0.0719,-0.10586 0.0983,-0.16383 0.0529,-0.11639 0.0906,-0.23916 0.13107,-0.36044 0.076,-0.22801 0.0849,-0.46107 0.16383,-0.68811 0.14424,-0.4147 0.17953,-0.42321 0.26214,-0.75364 0.16085,-0.64341 0.006,0.0137 0.0655,-0.52427 0.0329,-0.29572 0.11487,-0.5909 0.16383,-0.88471 0.0702,-0.42123 0.0927,-0.86236 0.19661,-1.27791 0.0168,-0.067 0.0542,-0.12846 0.0655,-0.1966 0.0108,-0.0646 -0.0108,-0.13196 0,-0.19661 0.12489,-0.37467 0.0323,-0.0277 0.0655,-0.36043 0.0265,-0.26512 0.13905,-0.52741 0.19661,-0.78641 0.0215,-0.0968 0.0546,-0.19608 0.0655,-0.2949 0.0198,-0.17804 -0.0373,-0.11757 0.0328,-0.32767 0.003,-0.0104 0.0219,0 0.0328,0"
     id="path9" />
  <path
     style="fill:none;stroke:#000000;stroke-width:2;stroke-linecap:round;stroke-linejoin:round"
     d="m 105.28034,152.69418 c 0.30338,-0.15335 0.5522,-0.48788 0.81917,-0.68811 0.52879,-0.39659 -0.029,0.10726 0.39321,-0.26214 0.14454,-0.12647 0.29151,-0.32044 0.4915,-0.36043 0.19366,-0.0387 0.43528,0.006 0.62257,0.0328 0.0541,0.008 0.11203,-0.0173 0.16384,0 0.0164,0.005 0.12519,0.0597 0.13107,0.0655 0.0173,0.0173 0.0132,0.0509 0.0328,0.0655 0.0276,0.0207 0.0687,0.015 0.0983,0.0328 0.06,0.036 0.11438,0.0816 0.16383,0.13106 0.0173,0.0173 0.0192,0.0452 0.0328,0.0655 0.0525,0.0788 0.16384,0.16384 0.22937,0.22937 0.11769,0.11769 0.25646,0.23047 0.36043,0.36043 0.0735,0.0919 0.12308,0.203 0.19661,0.29491 0.0193,0.0241 0.0496,0.039 0.0655,0.0655 0.0355,0.0592 0.0346,0.13482 0.0655,0.1966 0.0529,0.10581 0.13989,0.20791 0.16384,0.32767 0.0161,0.053 -0.0107,0.11029 0,0.16384 0.022,0.10978 0.0799,0.21736 0.0983,0.32767 0.0207,0.12397 0,0.30941 0,0.42597 0,0.13767 0.0226,0.29061 0,0.42597 -0.0113,0.0681 -0.057,0.12806 -0.0655,0.1966 -0.023,0.18385 -0.0226,0.38037 -0.0983,0.55704 -0.0155,0.0362 -0.0479,0.0631 -0.0655,0.0983 -0.18227,0.36455 0.0427,-0.0178 -0.13107,0.2949 -0.22584,0.40652 -0.58259,0.7674 -0.95024,1.04855 -0.0938,0.0718 -0.20039,0.12571 -0.2949,0.1966 -0.16785,0.12589 -0.32366,0.26732 -0.49151,0.3932 -0.13816,0.10362 -0.28781,0.19129 -0.42597,0.29491 -0.16785,0.12588 -0.31159,0.28525 -0.4915,0.3932 -0.42313,0.25387 -0.87379,0.45874 -1.31068,0.68811"
     id="path10" />
</svg>
