<?xml version="1.0" encoding="UTF-8" standalone="no"?>
<!-- Created with Inkscape (http://www.inkscape.org/) -->

<svg
   width="210mm"
   height="297mm"
   viewBox="0 0 210 297"
   version="1.1"
   id="svg1"
   inkscape:version="1.4 (86a8ad7, 2024-10-11)"
   sodipodi:docname="eZ.svg"
   xmlns:inkscape="http://www.inkscape.org/namespaces/inkscape"
   xmlns:sodipodi="http://sodipodi.sourceforge.net/DTD/sodipodi-0.dtd"
   xmlns="http://www.w3.org/2000/svg"
   xmlns:svg="http://www.w3.org/2000/svg">
  <sodipodi:namedview
     id="namedview1"
     pagecolor="#ffffff"
     bordercolor="#999999"
     borderopacity="1"
     inkscape:showpageshadow="2"
     inkscape:pageopacity="0"
     inkscape:pagecheckerboard="0"
     inkscape:deskcolor="#d1d1d1"
     inkscape:document-units="mm"
     showgrid="true"
     showguides="true"
     inkscape:zoom="5.7117319"
     inkscape:cx="350.15649"
     inkscape:cy="522.52103"
     inkscape:window-width="2560"
     inkscape:window-height="1351"
     inkscape:window-x="-9"
     inkscape:window-y="-9"
     inkscape:window-maximized="1"
     inkscape:current-layer="svg1">
    <inkscape:grid
       id="grid1"
       units="mm"
       originx="0"
       originy="0"
       spacingx="0.99999998"
       spacingy="1"
       empcolor="#0099e5"
       empopacity="0.30196078"
       color="#0099e5"
       opacity="0.14901961"
       empspacing="5"
       enabled="true"
       visible="true" />
    <sodipodi:guide
       position="95.02427,142.20874"
       orientation="0,-1"
       id="guide1"
       inkscape:locked="false" />
    <sodipodi:guide
       position="94.893202,156.88835"
       orientation="0,-1"
       id="guide2"
       inkscape:locked="false" />
    <sodipodi:guide
       position="87.906074,157.65706"
       orientation="1,0"
       id="guide3"
       inkscape:locked="false" />
    <sodipodi:guide
       position="110.22815,157.01942"
       orientation="1,0"
       id="guide4"
       inkscape:locked="false" />
    <sodipodi:guide
       position="90.52779,147.73898"
       orientation="0,-1"
       id="guide5"
       inkscape:locked="false" />
  </sodipodi:namedview>
  <defs
     id="defs1" />
  <path
     style="fill:#ffffff;fill-opacity:0;stroke:#000000;stroke-width:2;stroke-linecap:round;stroke-linejoin:round"
     d="m 87.96697,131.69568 c 0.31883,-0.0616 0.611433,-0.25794 0.926457,-0.32426 0.772649,-0.16266 1.475472,0.0627 2.130848,0.46323 0.151585,0.0926 0.552625,0.35311 0.694841,0.50955 0.367665,0.40443 0.524634,1.00596 0.741164,1.48233 0.05151,0.11333 0.139057,0.20867 0.18529,0.32426 0.04729,0.11822 0.05238,0.24978 0.09265,0.37058 0.03719,0.11156 0.103894,0.21202 0.138969,0.32426 0.133559,0.42739 0.06653,0.39918 0.138967,0.83381 0.07072,0.42431 0.185291,0.86312 0.185291,1.29704 0,0.70944 -0.07836,0.85322 -0.185291,1.57497 -0.02048,0.13832 -0.01429,0.2808 -0.04632,0.41691 -0.03021,0.12842 -0.09539,0.24606 -0.138967,0.37058 -0.06176,0.18529 -0.123529,0.37058 -0.185293,0.55587 -0.04632,0.18529 -0.07857,0.37468 -0.138967,0.55587 -0.08977,0.26932 -0.23449,0.51818 -0.32426,0.78749 -0.358809,1.07644 -0.521417,2.21277 -0.880134,3.28892 -0.158205,0.47462 -0.239424,0.46377 -0.324257,0.97278 -0.207442,1.24465 -0.06014,0.84633 -0.231614,1.80659 -0.04395,0.41232 -0.202009,0.79943 -0.277937,1.20439 -0.111588,0.59513 -0.199504,1.24281 -0.231616,1.85291 -0.02257,0.42884 0,0.86764 0,1.29704 0,0.28746 -0.03056,0.59821 0.04632,0.88013 0.06827,0.25032 0.186058,0.36528 0.32426,0.6022 0.05086,0.0872 0.108101,0.24707 0.185291,0.32426 0.05459,0.0546 0.135048,0.0804 0.185293,0.13897 0.04494,0.0524 0.04381,0.13646 0.09264,0.18529 0.04867,0.0487 0.336809,0.19521 0.416906,0.23161 0.606039,0.27548 1.22164,0.24858 1.806588,-0.0926 0.737177,-0.43002 -0.141785,0.11371 0.741164,-0.50956 0.564775,-0.39866 0.189117,-0.0608 0.787488,-0.50955 0.227774,-0.17082 0.42464,-0.37996 0.64852,-0.55587 0.191974,-0.15084 0.414639,-0.26061 0.602194,-0.4169 0.100653,-0.0839 0.181928,-0.18879 0.277937,-0.27794 0.656082,-0.60922 1.329039,-1.21213 1.852912,-1.94556 0.59051,-0.82671 1.011851,-1.76771 1.436007,-2.68672 0.134345,-0.29108 0.356269,-0.74455 0.463229,-1.06542 0.55009,-1.65026 -0.230628,0.46612 0.41691,-1.43601 0.0455,-0.13365 0.63305,-1.7319 0.78748,-2.13085 0.0901,-0.23263 0.19905,-0.45818 0.27794,-0.69484 0.16717,-0.50153 0.44728,-1.89978 0.50955,-2.17717 0.0591,-0.26311 0.13241,-0.52306 0.18529,-0.78749 0.11701,-0.58504 0.19925,-1.17688 0.32426,-1.76026 0.0604,-0.28206 0.16365,-0.55347 0.23161,-0.83381 0.13582,-0.56023 0.16983,-0.95205 0.27794,-1.52865 0.18099,-0.96526 0.11034,-0.35056 0.27794,-1.38969 0.0906,-0.56182 0.13224,-1.08364 0.32426,-1.6213 0.028,-0.0783 0.0663,-0.15272 0.0926,-0.23161 0.005,-0.0147 0,-0.0618 0,-0.0463 0,0.98638 -0.41415,1.8684 -0.74116,2.77936 -0.32557,0.90694 -0.58821,1.84855 -0.97278,2.73305 -0.0826,0.18998 -0.19826,0.36465 -0.27794,0.55587 -0.0751,0.18029 -0.11671,0.373 -0.18529,0.55588 -0.32272,0.86059 -0.62028,1.72657 -0.92645,2.59407 -0.31451,0.8911 -0.68021,1.75926 -1.019106,2.6404 -0.327284,0.85094 -0.602464,1.72636 -0.880134,2.59408 -0.177485,0.55463 -0.342299,1.11012 -0.50955,1.66762 -0.09012,0.30041 -0.198408,0.51837 -0.231614,0.83381 -0.04556,0.43282 0,0.9079 0,1.34336 0,0.41354 -0.0494,0.89022 0.04632,1.29704 0.06574,0.27937 0.232079,0.5845 0.37058,0.83381 0.09246,0.0885 0.08638,0.21907 0.13897,0.32425 0.143941,0.28789 0.403768,0.49905 0.648518,0.69485 0.02323,0.0186 0.291166,0.2439 0.370583,0.27793 0.418113,0.17919 0.897243,0.23162 1.343363,0.23162 0.4204,0 0.81743,0.008 1.20439,-0.18529 0.89522,-0.44761 1.66364,-1.73521 2.13085,-2.50143 0.42877,-0.70319 0.84046,-1.41671 1.25072,-2.13085 0.35127,-0.61148 0.53972,-1.06555 0.88013,-1.71394 0.44136,-0.84069 0.96471,-1.60671 1.29704,-2.50144 0.32106,-0.86438 0.4861,-1.75927 0.74116,-2.64039 0.17244,-0.59569 0.4404,-1.16161 0.6022,-1.76027 0.13012,-0.48144 0.23232,-1.26117 0.32426,-1.76027 0.66519,-3.611 -0.23137,1.4346 0.32426,-1.71394 0.0869,-0.49249 0.14055,-0.99058 0.23161,-1.48233 0.0348,-0.1878 0.10757,-0.36748 0.13897,-0.55587 0.0104,-0.0627 0.089,-1.12177 0.0926,-1.15807 0.0222,-0.22162 0.0926,-0.42795 0.0926,-0.64852 0,-0.0155 0,0.0309 0,0.0463 0,0.10809 0.0212,0.21827 0,0.32426 -0.0412,0.20594 -0.12648,0.40058 -0.18529,0.6022 -0.20759,0.71175 -0.40157,1.43115 -0.64852,2.13085 -0.083,0.23523 -0.19684,0.45893 -0.27793,0.69484 -0.17417,0.50667 -0.2707,0.9706 -0.41691,1.48233 -0.3453,1.20855 -0.0235,0.0126 -0.37058,1.15807 -0.21384,0.70565 -0.38775,1.42622 -0.6022,2.13084 -0.22664,0.74469 -0.5386,1.47113 -0.74116,2.2235 -0.0575,0.21348 -0.0708,0.43822 -0.13897,0.64852 -0.11765,0.36276 -0.28998,0.7058 -0.41691,1.06542 -0.0586,0.16602 -0.0856,0.34179 -0.13897,0.50955 -0.16244,0.51053 -0.31205,1.01466 -0.46322,1.52865 -0.32214,1.09528 -0.55588,1.63746 -0.55588,2.77937 0,0.3264 -0.0359,0.79036 0.0927,1.11175 0.15448,0.3862 0.3068,0.66295 0.64852,0.83381 0.13718,0.0686 -0.0891,-0.26015 0.13897,0.13897 0.12628,0.22099 0.27929,0.45748 0.37058,0.69484 0.22966,0.59712 0.41008,1.85776 0.32426,2.50143 -0.0794,0.59529 -0.46521,1.20637 -0.88013,1.6213 -0.0546,0.0546 -0.1307,0.0844 -0.1853,0.13896 -0.0853,0.0853 -0.14633,0.19267 -0.23161,0.27794 -0.27121,0.27121 -0.5692,0.51661 -0.88013,0.74117 -0.0674,0.0487 -0.15862,0.0528 -0.23161,0.0926 -0.19551,0.10664 -0.3801,0.23386 -0.55588,0.37058 -0.32869,0.25566 -0.39596,0.36218 -0.83381,0.41691 -0.0613,0.008 -0.14162,0.0437 -0.18529,0 -0.0835,-0.0835 -0.1183,-0.31357 -0.13897,-0.41691 -0.0339,-0.16928 -0.10048,-0.33709 -0.0927,-0.50955 0.0354,-0.77896 0.85103,-1.43767 1.34337,-1.89923 0.45465,-0.42624 0.90973,-0.85318 1.38968,-1.25072 1.04929,-0.8691 2.06262,-1.79198 3.19627,-2.54775 0.41052,-0.27368 0.92646,-0.3397 1.38969,-0.50955"
     id="path22" />
</svg>
