<?xml version="1.0" encoding="UTF-8" standalone="no"?>
<!-- Created with Inkscape (http://www.inkscape.org/) -->

<svg
   width="210mm"
   height="297mm"
   viewBox="0 0 210 297"
   version="1.1"
   id="svg1"
   inkscape:version="1.4 (86a8ad7, 2024-10-11)"
   sodipodi:docname="eZ.svg"
   xmlns:inkscape="http://www.inkscape.org/namespaces/inkscape"
   xmlns:sodipodi="http://sodipodi.sourceforge.net/DTD/sodipodi-0.dtd"
   xmlns="http://www.w3.org/2000/svg"
   xmlns:svg="http://www.w3.org/2000/svg">
  <sodipodi:namedview
     id="namedview1"
     pagecolor="#ffffff"
     bordercolor="#999999"
     borderopacity="1"
     inkscape:showpageshadow="2"
     inkscape:pageopacity="0"
     inkscape:pagecheckerboard="0"
     inkscape:deskcolor="#d1d1d1"
     inkscape:document-units="mm"
     showgrid="true"
     showguides="true"
     inkscape:zoom="5.7117319"
     inkscape:cx="350.15649"
     inkscape:cy="522.52103"
     inkscape:window-width="2560"
     inkscape:window-height="1351"
     inkscape:window-x="-9"
     inkscape:window-y="-9"
     inkscape:window-maximized="1"
     inkscape:current-layer="svg1">
    <inkscape:grid
       id="grid1"
       units="mm"
       originx="0"
       originy="0"
       spacingx="0.99999998"
       spacingy="1"
       empcolor="#0099e5"
       empopacity="0.30196078"
       color="#0099e5"
       opacity="0.14901961"
       empspacing="5"
       enabled="true"
       visible="true" />
    <sodipodi:guide
       position="95.02427,142.20874"
       orientation="0,-1"
       id="guide1"
       inkscape:locked="false" />
    <sodipodi:guide
       position="94.893202,156.88835"
       orientation="0,-1"
       id="guide2"
       inkscape:locked="false" />
    <sodipodi:guide
       position="87.906074,157.65706"
       orientation="1,0"
       id="guide3"
       inkscape:locked="false" />
    <sodipodi:guide
       position="110.22815,157.01942"
       orientation="1,0"
       id="guide4"
       inkscape:locked="false" />
    <sodipodi:guide
       position="90.52779,147.73898"
       orientation="0,-1"
       id="guide5"
       inkscape:locked="false" />
  </sodipodi:namedview>
  <defs
     id="defs1" />
  <path
     style="fill:#ffffff;fill-opacity:0;stroke:#000000;stroke-width:2;stroke-linecap:round;stroke-linejoin:round"
     d="m 87.828002,132.94639 c 0.600128,-0.45294 1.410314,-0.46322 2.130849,-0.46322 0.123526,0 0.251121,-0.0314 0.37058,0 0.195234,0.0514 0.854351,0.41219 1.019101,0.50955 0.340691,0.20131 0.873424,0.49613 1.065425,0.88013 0.40963,0.81926 0.50955,1.78763 0.50955,2.68672 0,0.82208 -0.116165,1.65742 -0.324257,2.45511 -0.0986,0.37798 -0.255707,0.73839 -0.370584,1.11175 -0.06612,0.21488 -0.111749,0.43606 -0.18529,0.64851 -0.06566,0.1897 -0.165672,0.36629 -0.231614,0.55588 -0.121957,0.35062 -0.202305,0.7148 -0.32426,1.06542 -0.125285,0.3602 -0.314079,0.69819 -0.416906,1.06543 -0.05476,0.19557 -0.05122,0.40337 -0.09264,0.60219 -0.03591,0.17236 -0.09453,0.3392 -0.13897,0.50955 -0.294217,1.12783 -0.610158,2.24768 -0.880131,3.38157 -0.124206,0.52165 -0.07306,0.45794 -0.185293,1.0191 -0.25957,1.29785 -0.722961,2.54447 -0.416904,3.89111 0.02606,0.11467 0.09942,0.21352 0.138967,0.32426 0.243578,0.68202 0.185251,1.11174 1.019101,1.25072 0.257704,0.043 0.583403,-0.0129 0.83381,-0.0463 0.532324,-0.071 0.277247,-0.0219 0.972781,-0.32426 0.139462,-0.0606 0.292319,-0.0981 0.416904,-0.1853 0.69623,-0.48736 1.151368,-1.26202 1.621297,-1.94555 0.150501,-0.21891 0.315868,-0.42748 0.463228,-0.64852 0.296344,-0.44452 0.517136,-0.93009 0.787487,-1.38969 0.350967,-0.59664 0.733727,-1.18063 1.111747,-1.76026 0.406382,-0.62312 0.905336,-1.16087 1.343361,-1.76027 0.44957,-0.6152 0.885079,-1.25841 1.297038,-1.89923 0.702171,-1.09228 0.152114,-0.28307 0.741161,-1.34336 0.11446,-0.20604 0.25612,-0.39616 0.37058,-0.6022 0.63455,-1.14219 1.19352,-2.33103 1.6213,-3.56685 0.18694,-0.54006 0.35501,-1.08566 0.55587,-1.6213 0.17334,-0.46223 0.3941,-0.89745 0.6022,-1.34336 0.0158,-0.0339 0.30479,-0.78749 0.32426,-0.78749 0.0155,0 0.006,0.0321 0,0.0463 -0.0871,0.20321 -0.17567,0.40619 -0.27794,0.6022 -0.33339,0.639 -0.77922,1.21558 -1.11175,1.85291 -0.10226,0.19601 -0.17906,0.40446 -0.27793,0.6022 -0.26566,0.53131 -0.52495,1.06756 -0.83381,1.57497 -0.11579,0.19023 -0.2601,0.36253 -0.37058,0.55587 -0.0755,0.13204 -0.11729,0.28089 -0.18529,0.41691 -0.19812,0.39623 -0.44306,0.7677 -0.64852,1.15807 -0.451348,0.85756 -0.765755,1.74082 -1.111748,2.6404 -0.165825,0.43115 -0.373496,0.80854 -0.50955,1.25072 -0.31146,1.01224 -0.472091,2.149 -0.555874,3.19627 -0.03689,0.46113 -0.108003,0.97339 -0.04632,1.436 0.06574,0.49306 0.45371,1.10794 0.926457,1.29704 0.334007,0.1336 0.667946,0.0926 1.019101,0.0926 0.674164,0 1.435834,0.067 2.084524,-0.18529 0.14817,-0.0576 0.27794,-0.15441 0.41691,-0.23162 0.30236,-0.16797 0.61782,-0.32442 0.88013,-0.55587 0.52699,-0.46499 0.97077,-1.52574 1.38969,-2.13085 0.42197,-0.60951 0.91563,-1.17091 1.29703,-1.80659 0.28423,-0.4737 0.49817,-0.98621 0.74117,-1.48233 0.0993,-0.20269 0.9272,-1.87034 1.11175,-2.36246 0.33985,-0.90628 0.60721,-1.85145 0.88013,-2.77937 0.22552,-0.76677 0.46284,-1.52645 0.60219,-2.31614 0.0433,-0.24518 0.0481,-0.4962 0.0926,-0.74116 0.20377,-1.12075 0.53138,-2.21638 0.74116,-3.33524 0.0114,-0.0607 -0.0102,-0.12437 0,-0.18529 0.006,-0.0341 0.0379,-0.0591 0.0463,-0.0926 0.034,-0.13581 0.0308,-0.27699 0.0463,-0.4169 0.0307,-0.27595 0.13897,-0.50932 0.13897,-0.78749 0,-0.0155 0.003,0.0312 0,0.0463 -0.0276,0.1243 -0.0524,0.24979 -0.0926,0.37058 -0.068,0.20404 -0.15441,0.40147 -0.23161,0.6022 -0.0618,0.23162 -0.11641,0.46525 -0.18529,0.69484 -0.4223,1.40768 -0.97164,2.77595 -1.43601,4.16905 -0.5171,1.5513 -0.9804,3.12263 -1.48233,4.6786 -0.2783,0.86273 -0.59248,1.71927 -0.83381,2.59408 -0.18224,0.66063 -0.3434,1.32728 -0.50955,1.99188 -0.30612,1.22449 -0.70035,2.41592 -0.92645,3.6595 -0.057,0.31327 -0.12063,0.52203 -0.13897,0.83381 -0.008,0.13873 0.0145,0.2787 0,0.41691 -0.0318,0.30223 -0.2846,1.32552 0.0926,1.52865 0.48145,0.25924 1.68481,-0.6291 1.99188,-0.83381 1.17592,-0.78395 0.65236,-0.42669 1.57498,-1.06543"
     id="path22" />
</svg>
