<?xml version="1.0" encoding="UTF-8" standalone="no"?>
<!-- Created with Inkscape (http://www.inkscape.org/) -->

<svg
   width="210mm"
   height="297mm"
   viewBox="0 0 210 297"
   version="1.1"
   id="svg1"
   inkscape:version="1.4 (86a8ad7, 2024-10-11)"
   sodipodi:docname="sZ.svg"
   xmlns:inkscape="http://www.inkscape.org/namespaces/inkscape"
   xmlns:sodipodi="http://sodipodi.sourceforge.net/DTD/sodipodi-0.dtd"
   xmlns="http://www.w3.org/2000/svg"
   xmlns:svg="http://www.w3.org/2000/svg">
  <sodipodi:namedview
     id="namedview1"
     pagecolor="#ffffff"
     bordercolor="#999999"
     borderopacity="1"
     inkscape:showpageshadow="2"
     inkscape:pageopacity="0"
     inkscape:pagecheckerboard="0"
     inkscape:deskcolor="#d1d1d1"
     inkscape:document-units="mm"
     showgrid="true"
     showguides="true"
     inkscape:zoom="5.7117319"
     inkscape:cx="350.15649"
     inkscape:cy="522.6961"
     inkscape:window-width="2560"
     inkscape:window-height="1351"
     inkscape:window-x="-9"
     inkscape:window-y="-9"
     inkscape:window-maximized="1"
     inkscape:current-layer="svg1">
    <inkscape:grid
       id="grid1"
       units="mm"
       originx="0"
       originy="0"
       spacingx="0.99999998"
       spacingy="1"
       empcolor="#0099e5"
       empopacity="0.30196078"
       color="#0099e5"
       opacity="0.14901961"
       empspacing="5"
       enabled="true"
       visible="true" />
    <sodipodi:guide
       position="95.02427,142.20874"
       orientation="0,-1"
       id="guide1"
       inkscape:locked="false" />
    <sodipodi:guide
       position="94.893202,156.88835"
       orientation="0,-1"
       id="guide2"
       inkscape:locked="false" />
    <sodipodi:guide
       position="87.906074,157.65706"
       orientation="1,0"
       id="guide3"
       inkscape:locked="false" />
    <sodipodi:guide
       position="110.22815,157.01942"
       orientation="1,0"
       id="guide4"
       inkscape:locked="false" />
    <sodipodi:guide
       position="90.52779,147.73898"
       orientation="0,-1"
       id="guide5"
       inkscape:locked="false" />
  </sodipodi:namedview>
  <defs
     id="defs1" />
  <path
     style="fill:#ffffff;fill-opacity:0;stroke:#000000;stroke-width:2;stroke-linecap:round;stroke-linejoin:round"
     d="m 109.09016,131.51039 c 0.0463,-0.13897 0.11197,-0.27293 0.13897,-0.41691 0.0199,-0.10623 -0.007,-0.21638 0,-0.32426 0.0627,-1.00251 0.10572,-1.77212 -0.41691,-2.68672 -0.23643,-0.41375 -0.5652,-0.67926 -0.92645,-0.97278 -0.21779,-0.17695 -0.49232,-0.46 -0.74117,-0.60219 -0.0848,-0.0485 -0.18944,-0.0513 -0.27793,-0.0927 -0.94999,-0.44332 0.13303,-0.0506 -0.88014,-0.37058 -0.39452,-0.12459 -0.79816,-0.28934 -1.20439,-0.37058 -0.071,-0.0142 -0.83286,-0.0871 -0.88013,-0.0927 -0.18656,-0.022 -0.36896,-0.0739 -0.55588,-0.0926 -0.46424,-0.0464 -1.03093,-0.0152 -1.48233,0.0463 -0.4173,0.0569 -0.70902,0.25581 -1.11174,0.4169 -0.43587,0.17435 -0.895962,0.34697 -1.297038,0.6022 -0.166828,0.10616 -0.303311,0.25428 -0.46323,0.37058 -0.229389,0.16683 -0.502952,0.34267 -0.694841,0.55588 -0.07449,0.0828 -0.119801,0.18788 -0.18529,0.27793 -0.141865,0.19507 -0.322011,0.36035 -0.46323,0.55588 -0.203825,0.21527 -0.296156,0.50249 -0.463227,0.74116 -0.387594,0.55371 -0.636948,1.11978 -0.972778,1.71394 -0.05479,0.0969 -0.132503,0.1799 -0.18529,0.27794 -0.223481,0.41504 -0.370891,0.8654 -0.555874,1.29704 -0.146942,0.34286 -0.313703,0.67733 -0.46323,1.0191 -0.117427,0.26841 -0.158948,0.56609 -0.277937,0.83381 -0.05916,0.13311 -0.166468,0.24029 -0.231613,0.37058 -0.059,0.118 -0.08539,0.25003 -0.138968,0.37058 -0.294192,0.66194 -0.675515,1.28498 -0.972777,1.94556 -0.636879,1.41528 -0.991534,2.9076 -1.389684,4.40067 -0.426197,1.59823 0.173878,-0.88095 -0.231614,1.06542 -0.149146,0.7159 -0.373486,1.3927 -0.416907,2.13085 -0.02432,0.41352 0,0.83632 0,1.25071 0,1.29089 0.02103,2.34557 0.509551,3.56686 0.133318,0.33329 0.333721,0.61875 0.50955,0.92645 0.118505,0.20738 0.205759,0.48747 0.32426,0.69485 0.134745,0.2358 0.587277,0.74292 0.787488,0.92645 0.24724,0.22664 0.584433,0.37776 0.83381,0.6022 0.07349,0.0661 0.11538,0.1617 0.185291,0.23161 0.489394,0.4894 1.146251,0.69988 1.760267,0.97278 0.05087,0.0226 0.08684,0.0731 0.138967,0.0926 0.277207,0.10396 0.59096,0.1371 0.880134,0.1853 0.481142,0.0802 0.955794,0.19442 1.436005,0.27793 0.208341,0.0362 0.800648,0.0754 0.97278,0.0926 0.359095,0.0359 0.760305,0.0579 1.111745,0.13897 0.081,0.0187 0.14943,0.08 0.23162,0.0926 0.43714,0.0673 0.86729,-0.0568 1.29703,-0.0926 0.42365,-0.0353 0.13405,0.051 0.55588,-0.0463 0.21906,-0.0506 0.44187,-0.0967 0.64852,-0.1853 0.24127,-0.1034 0.45733,-0.25881 0.69484,-0.37058 0.82779,-0.38955 1.66202,-0.74176 2.4551,-1.20439 0.36439,-0.21256 0.67774,-0.53596 1.01911,-0.78749 0.37386,-0.27548 0.75345,-0.64212 1.15807,-0.88013 0.1488,-0.0875 0.31958,-0.13585 0.46322,-0.23161 0.0909,-0.0606 0.15756,-0.15139 0.23162,-0.23162 0.22266,-0.24122 0.46642,-0.46802 0.64852,-0.74116 0.23469,-0.35205 0.55783,-1.0713 0.69484,-1.48233"
     id="path43" />
  <path
     style="fill:#ffffff;fill-opacity:0;stroke:#000000;stroke-width:2;stroke-linecap:round;stroke-linejoin:round"
     d="m 110.43352,150.68802 c -0.0459,0.1376 -0.0752,0.30679 -0.18529,0.41691 -0.0939,0.0939 -0.23034,0.13769 -0.32426,0.23161 -0.0614,0.0614 -0.17945,0.24511 -0.27794,0.27794 -0.0293,0.01 -0.064,-0.0115 -0.0926,0 -0.11672,0.0467 -0.45052,0.24524 -0.55588,0.32426 -0.0524,0.0393 -0.0845,0.10263 -0.13896,0.13896 -0.0806,0.0538 -0.16819,0.0756 -0.23162,0.13897"
     id="path1" />
  <path
     style="fill:#ffffff;fill-opacity:0;stroke:#000000;stroke-width:2;stroke-linecap:round;stroke-linejoin:round"
     d="m 109.92397,151.29022 c -0.0772,0.0154 -0.15925,0.0153 -0.23161,0.0463 -0.0401,0.0172 -0.0577,0.0664 -0.0926,0.0926 -0.11661,0.0875 -0.31535,0.13006 -0.41691,0.23162 -0.0109,0.0109 0.0109,0.0354 0,0.0463 -0.0359,0.0359 -0.29816,0.10276 -0.37058,0.13897"
     id="path2" />
  <path
     style="fill:#ffffff;fill-opacity:0;stroke:#000000;stroke-width:2;stroke-linecap:round;stroke-linejoin:round"
     d="m 106.86666,152.77254 c -0.19313,0.26146 -0.54204,0.39225 -0.78748,0.55588 -0.15535,0.10356 -0.0307,0.0926 -0.13897,0.0926"
     id="path3" />
  <path
     style="fill:#ffffff;fill-opacity:0;stroke:#000000;stroke-width:2;stroke-linecap:round;stroke-linejoin:round"
     d="m 110.06294,151.19757 c 0.0772,-0.0772 0.15857,-0.15046 0.23161,-0.23161 0.60107,-0.66785 -0.32713,0.2808 0.46323,-0.50955 0.18529,-0.18529 0.3961,-0.34818 0.55587,-0.55588 0.20148,-0.26191 0.29379,-0.59772 0.46323,-0.88013"
     id="path4" />
</svg>
