<?xml version="1.0" encoding="UTF-8" standalone="no"?>
<!-- Created with Inkscape (http://www.inkscape.org/) -->

<svg
   width="210mm"
   height="297mm"
   viewBox="0 0 210 297"
   version="1.1"
   id="svg1"
   inkscape:version="1.4 (86a8ad7, 2024-10-11)"
   sodipodi:docname="m.svg"
   xmlns:inkscape="http://www.inkscape.org/namespaces/inkscape"
   xmlns:sodipodi="http://sodipodi.sourceforge.net/DTD/sodipodi-0.dtd"
   xmlns="http://www.w3.org/2000/svg"
   xmlns:svg="http://www.w3.org/2000/svg">
  <sodipodi:namedview
     id="namedview1"
     pagecolor="#ffffff"
     bordercolor="#999999"
     borderopacity="1"
     inkscape:showpageshadow="2"
     inkscape:pageopacity="0"
     inkscape:pagecheckerboard="0"
     inkscape:deskcolor="#d1d1d1"
     inkscape:document-units="mm"
     showgrid="true"
     showguides="true"
     inkscape:zoom="8.0746913"
     inkscape:cx="377.84726"
     inkscape:cy="557.7303"
     inkscape:window-width="2560"
     inkscape:window-height="1351"
     inkscape:window-x="-9"
     inkscape:window-y="-9"
     inkscape:window-maximized="1"
     inkscape:current-layer="svg1">
    <inkscape:grid
       id="grid1"
       units="mm"
       originx="0"
       originy="0"
       spacingx="0.99999998"
       spacingy="1"
       empcolor="#0099e5"
       empopacity="0.30196078"
       color="#0099e5"
       opacity="0.14901961"
       empspacing="5"
       enabled="true"
       visible="true" />
    <sodipodi:guide
       position="95.02427,142.20874"
       orientation="0,-1"
       id="guide1"
       inkscape:locked="false" />
    <sodipodi:guide
       position="94.893202,156.88835"
       orientation="0,-1"
       id="guide2"
       inkscape:locked="false" />
    <sodipodi:guide
       position="94.762134,159.37865"
       orientation="1,0"
       id="guide3"
       inkscape:locked="false" />
    <sodipodi:guide
       position="110.22815,157.01942"
       orientation="1,0"
       id="guide4"
       inkscape:locked="false" />
    <sodipodi:guide
       position="90.52779,147.73898"
       orientation="0,-1"
       id="guide5"
       inkscape:locked="false" />
  </sodipodi:namedview>
  <defs
     id="defs1" />
  <path
     style="fill:none;stroke:#000000;stroke-width:2;stroke-linecap:round;stroke-linejoin:round"
     d="m 98.0716,140.76699 c -0.07451,0.0902 -0.0067,0.19948 -0.03277,0.2949 -0.02188,0.0803 -0.08315,0.14758 -0.0983,0.22937 -0.03997,0.21587 -0.03449,0.43801 -0.06553,0.65534 -0.01273,0.0892 -0.05148,0.17317 -0.06553,0.26214 -0.01881,0.11916 -0.01945,0.24053 -0.03277,0.36043 -0.02326,0.20922 -0.08082,0.41279 -0.0983,0.62258 -0.01995,0.2393 -0.0313,0.48125 -0.06553,0.72087 -0.04206,0.29446 -0.171262,0.56141 -0.229367,0.85194 -0.186942,0.9347 0.227962,-0.89441 -0.0983,0.65534 -0.01423,0.0676 -0.04878,0.12959 -0.06553,0.1966 -0.109593,0.43838 -0.214106,0.87265 -0.32767,1.31068 -0.09011,0.34757 -0.04533,0.25818 -0.131067,0.62258 -0.10424,0.44302 -0.03859,0.002 -0.131069,0.55703 -0.01447,0.0869 -0.01431,0.17604 -0.03277,0.26214 -0.0467,0.21794 -0.132011,0.43258 -0.163836,0.65534 -0.0093,0.0649 0.01077,0.13196 0,0.1966 -0.01135,0.0681 -0.05318,0.12864 -0.06553,0.1966 -0.03434,0.18889 -0.0036,0.40035 -0.03277,0.58981 -0.01209,0.0786 -0.05503,0.15055 -0.06553,0.22937 -0.0052,0.039 0.0046,0.43689 0,0.4915 -0.01013,0.1217 -0.05338,0.23893 -0.06553,0.36044 -0.0149,0.14893 0.02927,0.31238 0,0.45874 -0.02442,0.12211 -0.07129,0.23887 -0.0983,0.36044 -0.146095,0.65743 0.06934,-0.15847 -0.06553,0.42597 -0.04588,0.19882 -0.106259,0.39405 -0.163835,0.5898 -0.07756,0.26371 -0.147098,0.58269 -0.294902,0.81918 -0.09068,0.14508 -0.39443,0.35383 -0.524272,0.42597 -0.102833,0.0571 -0.221459,0.0805 -0.32767,0.13107 -0.123561,0.0588 -0.24366,0.12523 -0.360437,0.1966 -0.17013,0.10397 -0.302088,0.26453 -0.491503,0.32767"
     id="path12" />
  <path
     style="fill:none;stroke:#000000;stroke-width:2;stroke-linecap:round;stroke-linejoin:round"
     d="m 98.563106,141.09466 c 0.05461,-0.0437 0.09992,-0.10266 0.163835,-0.13107 0.04951,-0.022 0.368702,-0.02 0.425971,-0.0328 0.145021,-0.0322 0.283128,-0.0902 0.425972,-0.13106 0.0866,-0.0247 0.17807,-0.0332 0.262136,-0.0655 0.37739,-0.14515 -0.06397,-0.0659 0.36044,-0.16383 0.12532,-0.0748 0.26393,-0.009 0.3932,-0.0328 0.36455,-0.0684 0.6925,-0.23866 1.04854,-0.32767 0.42501,-0.10625 0.96863,-0.0738 1.40898,-0.0983 0.18004,0.0204 0.34877,-0.0509 0.52427,-0.0655 0.50832,-0.0424 1.03381,0.001 1.54005,0.0328 0.20551,0.0128 0.4186,0.006 0.62258,0.0328 0.36532,0.0487 0.23099,0.0741 0.5898,0.16384 0.0749,0.0187 0.15528,0.011 0.22937,0.0328 0.2225,0.0654 0.56328,0.22446 0.75364,0.36044 0.37293,0.26638 0.52979,0.92334 0.58981,1.34345 0.075,0.52533 -0.006,0.97037 -0.0655,1.50728 -0.0721,0.64935 -0.22024,1.28868 -0.32767,1.93325 -0.10158,0.60951 -0.17467,1.22271 -0.26213,1.83495 -0.0827,0.57867 -0.0386,0.14502 -0.16384,0.72087 -0.29248,1.34542 0.17486,-0.56837 -0.16383,0.78641 -0.17009,0.68036 -0.33619,1.33124 -0.42597,2.03155 -0.0512,0.39934 -0.0328,0.73277 -0.0328,1.14685 0,0.0983 -0.0167,0.19803 0,0.2949 0.10953,0.6353 0.37542,1.51806 0.81918,1.99879 0.12941,0.1402 0.73959,0.10766 0.8847,0.0983 0.97253,-0.0627 2.0095,-0.31207 2.8835,-0.72087 0.27929,-0.13064 0.54126,-0.53944 0.72087,-0.78641"
     id="path13" />
  <path
     style="fill:none;stroke:#000000;stroke-width:2;stroke-linecap:round;stroke-linejoin:round"
     d="m 103.44539,140.86529 c -0.27158,0.40404 -0.3141,0.97889 -0.45874,1.44175 -0.11686,0.37396 -0.23295,0.57436 -0.26214,0.98301 -0.0295,0.41283 0.0318,0.8325 0,1.24514 -0.0193,0.25161 -0.0842,0.50038 -0.0983,0.75364 -0.0109,0.1963 0.0115,0.39355 0,0.58981 -0.058,0.9864 -0.007,-0.39305 -0.0655,0.4915 -0.006,0.0872 0.005,0.17493 0,0.26214 -0.006,0.0879 -0.0219,0.17476 -0.0328,0.26214 -0.0109,0.12014 -0.0267,0.23994 -0.0328,0.36043 -0.0147,0.29491 -0.0173,0.58986 -0.0328,0.88471 -0.0493,0.93609 -0.0129,-0.19905 -0.0655,0.58981 -0.0152,0.22749 0.0239,0.46145 0,0.6881 -0.0516,0.49023 -0.17164,0.95915 -0.26213,1.44175 -0.006,0.0322 0.009,0.0668 0,0.0983 -0.0134,0.047 -0.0501,0.0847 -0.0655,0.13107 -0.0966,0.28985 -0.16477,0.59263 -0.26213,0.88471 -0.0372,0.1116 -0.10012,0.21418 -0.13107,0.32767 -0.0203,0.0745 -0.0154,0.15411 -0.0328,0.22937 -0.0533,0.23085 -0.16716,0.45261 -0.1966,0.68811 -0.0246,0.19666 -0.003,0.43575 -0.0655,0.62257 -0.0125,0.0374 -0.0509,0.0617 -0.0655,0.0983 -0.0329,0.0823 -0.0582,0.2014 -0.13106,0.26214 -0.0751,0.0625 -0.17732,0.0826 -0.26214,0.13106 -0.22267,0.12724 -0.40722,0.26564 -0.65534,0.32767"
     id="path14" />
</svg>
