<?xml version="1.0" encoding="UTF-8" standalone="no"?>
<!-- Created with Inkscape (http://www.inkscape.org/) -->

<svg
   width="210mm"
   height="297mm"
   viewBox="0 0 210 297"
   version="1.1"
   id="svg1"
   inkscape:version="1.4 (86a8ad7, 2024-10-11)"
   sodipodi:docname="ykr.svg"
   xmlns:inkscape="http://www.inkscape.org/namespaces/inkscape"
   xmlns:sodipodi="http://sodipodi.sourceforge.net/DTD/sodipodi-0.dtd"
   xmlns="http://www.w3.org/2000/svg"
   xmlns:svg="http://www.w3.org/2000/svg">
  <sodipodi:namedview
     id="namedview1"
     pagecolor="#ffffff"
     bordercolor="#999999"
     borderopacity="1"
     inkscape:showpageshadow="2"
     inkscape:pageopacity="0"
     inkscape:pagecheckerboard="0"
     inkscape:deskcolor="#d1d1d1"
     inkscape:document-units="mm"
     showgrid="true"
     showguides="true"
     inkscape:zoom="8.0746913"
     inkscape:cx="377.84726"
     inkscape:cy="547.8228"
     inkscape:window-width="2560"
     inkscape:window-height="1351"
     inkscape:window-x="-9"
     inkscape:window-y="-9"
     inkscape:window-maximized="1"
     inkscape:current-layer="svg1">
    <inkscape:grid
       id="grid1"
       units="mm"
       originx="0"
       originy="0"
       spacingx="0.99999998"
       spacingy="1"
       empcolor="#0099e5"
       empopacity="0.30196078"
       color="#0099e5"
       opacity="0.14901961"
       empspacing="5"
       enabled="true"
       visible="true" />
    <sodipodi:guide
       position="95.02427,142.20874"
       orientation="0,-1"
       id="guide1"
       inkscape:locked="false" />
    <sodipodi:guide
       position="94.893202,156.88835"
       orientation="0,-1"
       id="guide2"
       inkscape:locked="false" />
    <sodipodi:guide
       position="94.762134,159.37865"
       orientation="1,0"
       id="guide3"
       inkscape:locked="false" />
    <sodipodi:guide
       position="110.22815,157.01942"
       orientation="1,0"
       id="guide4"
       inkscape:locked="false" />
    <sodipodi:guide
       position="90.52779,147.73898"
       orientation="0,-1"
       id="guide5"
       inkscape:locked="false" />
  </sodipodi:namedview>
  <defs
     id="defs1" />
  <path
     style="fill:none;stroke:#000000;stroke-width:2;stroke-linecap:round;stroke-linejoin:round"
     d="m 99.742716,140.34102 c 0,0.0765 0.01971,0.15549 0,0.22937 -0.02516,0.0944 -0.08738,0.17475 -0.131066,0.26213 -0.06553,0.13107 -0.132895,0.26124 -0.196602,0.39321 -0.08922,0.1848 -0.175037,0.37122 -0.262136,0.55704 -0.217511,0.46402 -0.384286,0.81742 -0.589806,1.31068 -0.103754,0.24901 -0.174263,0.51235 -0.294902,0.75364 -0.131524,0.26304 -0.305827,0.50242 -0.45874,0.75364 -0.163835,0.30582 -0.338701,0.60599 -0.491503,0.91747 -0.334941,0.68277 -0.410453,0.95176 -0.655341,1.67112 -0.07792,0.22888 -0.166717,0.45459 -0.229368,0.6881 -0.157765,0.58804 -0.241093,1.20547 -0.360439,1.80219 -0.162041,0.81021 -0.200628,0.65828 -0.262136,1.70388 -0.02228,0.37891 0.06748,0.74525 0.13107,1.11408 0.07711,0.44723 0.144467,1.02704 0.557037,1.31068 0.100629,0.0692 0.207598,0.1416 0.327671,0.16384 0.5114,0.0947 1.238446,-0.0889 1.736651,-0.19661 0.426664,-0.0922 0.770752,-0.14304 1.17961,-0.2949 0.201684,-0.0749 0.393424,-0.17428 0.589804,-0.26214 0.21867,-0.0978 0.44545,-0.17946 0.65534,-0.2949 0.67856,-0.3732 1.26043,-0.90388 1.86772,-1.37621 0.27072,-0.21056 0.5557,-0.40301 0.81918,-0.62257 0.441,-0.36751 0.74514,-0.73458 1.14684,-1.14685 1.01312,-1.03978 0.29885,-0.26238 1.24515,-1.27791 0.25294,-0.27146 0.49424,-0.55388 0.75364,-0.81918 0.87562,-0.89553 0.49942,-0.4049 1.34344,-1.31068 0.23746,-0.25483 0.45786,-0.52504 0.68811,-0.7864 0.37173,-0.42197 0.68124,-0.71281 0.95024,-1.21238 0.11155,-0.20716 0.17165,-0.43817 0.26214,-0.65534 0.0734,-0.17608 0.15134,-0.35021 0.22937,-0.52427 0.0207,-0.0462 0.48256,-0.95918 0.45874,-0.98301 -0.008,-0.008 -0.0254,-0.008 -0.0328,0 -0.10442,0.11486 -0.20654,0.2328 -0.2949,0.36043 -0.10876,0.15709 -0.19897,0.32628 -0.29491,0.49151 -0.10068,0.17339 -0.18478,0.35671 -0.2949,0.52427 -0.14156,0.21543 -0.3063,0.4147 -0.45874,0.62257 -0.20981,0.2861 -1.00183,1.36769 -1.21238,1.67112 -0.74268,1.07034 -0.30886,0.48067 -0.98301,1.54005 -0.40905,0.6428 -0.85963,1.23812 -1.17961,1.93325 -0.25478,0.5535 -0.60342,1.54174 -0.75364,2.16262 -0.12766,0.52769 -0.29884,1.36526 -0.1966,1.93325 0.12372,0.68733 0.40444,1.02409 1.08131,1.27792 0.41718,0.15644 0.86598,0.23468 1.31068,0.26213 1.39139,0.0859 2.45226,-0.38078 3.375,-1.40898 0.12402,-0.13819 0.17476,-0.32767 0.26214,-0.4915"
     id="path9" />
  <path
     style="fill:none;stroke:#000000;stroke-width:2;stroke-linecap:round;stroke-linejoin:round"
     d="m 107.27912,155.0534 c 0.0116,0.0579 0.0561,0.22486 0.0328,0.2949 -0.14177,0.42533 -0.56793,0.99391 -0.88471,1.31068 -0.10976,0.10977 -0.24075,0.19604 -0.36043,0.2949 -0.32601,0.26931 -0.43873,0.39958 -0.81918,0.58981 -0.1796,0.0898 -0.37491,0.1448 -0.55704,0.22937 -0.12413,0.0576 -0.23537,0.14102 -0.36043,0.1966 -1.08582,0.48258 -2.10025,0.67802 -3.24394,0.26214 -0.22405,-0.0815 -0.29977,-0.26836 -0.32767,-0.49151 -0.017,-0.13571 -0.009,-0.36553 0.0655,-0.49151 0.3526,-0.59941 1.13784,-1.08725 1.76942,-1.27791 0.81431,-0.24583 1.64957,-0.4277 2.49029,-0.55704 0.86692,-0.13337 1.74929,-0.13532 2.62136,-0.22936 1.35637,-0.14628 2.71613,-0.27516 4.0631,-0.49151 1.45428,-0.23359 2.39255,-0.56522 3.73544,-0.98301"
     id="path10" />
</svg>
