<?xml version="1.0" encoding="UTF-8" standalone="no"?>
<!-- Created with Inkscape (http://www.inkscape.org/) -->

<svg
   width="210mm"
   height="297mm"
   viewBox="0 0 210 297"
   version="1.1"
   id="svg1"
   inkscape:version="1.4 (86a8ad7, 2024-10-11)"
   sodipodi:docname="sh.svg"
   xmlns:inkscape="http://www.inkscape.org/namespaces/inkscape"
   xmlns:sodipodi="http://sodipodi.sourceforge.net/DTD/sodipodi-0.dtd"
   xmlns="http://www.w3.org/2000/svg"
   xmlns:svg="http://www.w3.org/2000/svg">
  <sodipodi:namedview
     id="namedview1"
     pagecolor="#ffffff"
     bordercolor="#999999"
     borderopacity="1"
     inkscape:showpageshadow="2"
     inkscape:pageopacity="0"
     inkscape:pagecheckerboard="0"
     inkscape:deskcolor="#d1d1d1"
     inkscape:document-units="mm"
     showgrid="true"
     showguides="true"
     inkscape:zoom="5.709669"
     inkscape:cx="373.75197"
     inkscape:cy="525.16179"
     inkscape:window-width="2560"
     inkscape:window-height="1351"
     inkscape:window-x="-9"
     inkscape:window-y="-9"
     inkscape:window-maximized="1"
     inkscape:current-layer="svg1">
    <inkscape:grid
       id="grid1"
       units="mm"
       originx="0"
       originy="0"
       spacingx="0.99999998"
       spacingy="1"
       empcolor="#0099e5"
       empopacity="0.30196078"
       color="#0099e5"
       opacity="0.14901961"
       empspacing="5"
       enabled="true"
       visible="true" />
    <sodipodi:guide
       position="95.02427,142.20874"
       orientation="0,-1"
       id="guide1"
       inkscape:locked="false" />
    <sodipodi:guide
       position="94.893202,156.88835"
       orientation="0,-1"
       id="guide2"
       inkscape:locked="false" />
    <sodipodi:guide
       position="87.906074,157.65706"
       orientation="1,0"
       id="guide3"
       inkscape:locked="false" />
    <sodipodi:guide
       position="110.22815,157.01942"
       orientation="1,0"
       id="guide4"
       inkscape:locked="false" />
    <sodipodi:guide
       position="90.52779,147.73898"
       orientation="0,-1"
       id="guide5"
       inkscape:locked="false" />
  </sodipodi:namedview>
  <defs
     id="defs1" />
  <path
     style="fill:#ffffff;fill-opacity:0;stroke:#000000;stroke-width:2;stroke-linecap:round;stroke-linejoin:round"
     d="m 87.859734,126.59957 c 0.760174,-0.53799 1.813301,-0.38794 2.595012,0.0463 0.10546,0.0586 0.183176,0.15717 0.278037,0.2317 0.12146,0.0954 0.261493,0.16881 0.370716,0.27804 0.139875,0.13987 0.244081,0.31143 0.370716,0.46339 0.475961,0.57116 0.985369,1.15003 1.343848,1.80724 0.05385,0.0987 0.05841,0.21728 0.09268,0.32438 0.194236,0.60699 0.292375,0.74912 0.370715,1.29751 0.169445,1.18611 0.206614,2.41819 0.09268,3.61448 -0.03747,0.39338 -0.13327,0.76783 -0.185359,1.15849 -0.05402,0.40513 -0.121698,0.80165 -0.185359,1.20483 -0.0218,0.13816 -0.01601,0.28051 -0.04634,0.41705 -0.152032,0.4561 -0.138345,0.36736 -0.231696,0.83411 -0.09908,0.49539 -0.110805,0.98585 -0.185359,1.48287 -0.057,0.37997 -0.193712,0.74112 -0.278037,1.11215 -0.222142,0.97742 -0.321855,1.97494 -0.463394,2.96573 -0.106667,0.74665 0.02955,-0.24042 -0.13902,0.60241 -0.07544,0.37718 -0.122079,0.77882 -0.185359,1.15849 -0.262784,1.57671 -0.284874,3.22703 -0.185357,4.81931 0.02035,0.3254 0.01029,0.64883 0.04634,0.97313 0.014,0.126 0.08263,0.39696 0.139018,0.50973 0.01955,0.0391 0.07314,0.0536 0.09268,0.0927 0.02848,0.057 0.02619,0.12494 0.04634,0.18536 0.08347,0.2504 0.159996,0.50535 0.278037,0.74143 0.123603,0.24721 0.69714,0.88148 0.97313,1.01947 0.464791,0.2324 0.961678,10e-4 1.436526,-0.0463 0.153696,-0.0154 0.309562,0.014 0.463394,0 0.640066,-0.0582 -0.05707,-0.0131 0.509735,-0.13902 0.06032,-0.0134 0.124193,0.009 0.185357,0 0.09671,-0.0138 0.181099,-0.0806 0.278037,-0.0927 0.478002,-0.0597 -0.01984,0.14696 0.695095,-0.13901 0.167251,-0.0669 0.305927,-0.19056 0.463394,-0.27804 0.120772,-0.0671 0.260191,-0.10247 0.370716,-0.18536 0.0699,-0.0524 0.119599,-0.12782 0.185359,-0.18536 0.695526,-0.60858 -0.520126,0.53085 0.463394,-0.37071 0.82292,-0.75434 -0.228883,0.18254 0.509735,-0.55608 0.245592,-0.24559 0.542179,-0.4495 0.787773,-0.69509 0.316995,-0.317 0.579705,-0.73023 0.926792,-1.01947 0.10207,-0.0851 0.22642,-0.14191 0.32437,-0.2317 0.17787,-0.16304 0.29974,-0.37878 0.4634,-0.55607 0.81142,-0.87904 -0.16352,0.27981 0.60241,-0.74143 0.36081,-0.48108 0.79542,-0.9116 1.15849,-1.39019 0.47148,-0.62149 0.85088,-1.26719 1.29751,-1.89992 0.24231,-0.34328 0.50835,-0.66985 0.74143,-1.01947 0.33662,-0.50493 0.55516,-1.08722 0.83411,-1.62188 0.2549,-0.48856 0.58773,-0.94377 0.83411,-1.43653 0.46413,-0.92826 0.77253,-1.92986 1.20483,-2.87305 0.30408,-0.66344 0.51497,-1.13307 0.69509,-1.85358 0.2393,-0.95718 0.0534,-0.40625 0.27804,-1.5292 0.2092,-1.04602 0.14897,-0.44402 0.41705,-1.48287 0.0568,-0.21992 0.2355,-1.23092 0.27804,-1.43652 0.12196,-0.58946 0.25166,-1.18202 0.41706,-1.7609 0.198,-0.69301 0.35575,-1.40697 0.60241,-2.08528 0.10195,-0.28036 0.21963,-0.55479 0.32438,-0.83412 0.22128,-0.59007 0.0637,-0.0522 0.27803,-0.69509 0.0201,-0.0604 0.0262,-0.12494 0.0464,-0.18536 0.0155,-0.0463 0.0463,-0.18786 0.0463,-0.13901 0,0.59065 0.0336,0.14563 -0.32438,1.11214 -0.32834,0.88651 0.0601,-0.0877 -0.27804,0.92679 -0.0526,0.15783 -0.13275,0.30557 -0.18536,0.4634 -0.14811,0.44435 -0.26204,0.90093 -0.41705,1.34384 -0.14127,0.40362 -0.34819,0.76616 -0.50974,1.15849 -0.17486,0.42467 -0.29012,0.87219 -0.46339,1.29751 -0.11729,0.28788 -0.2895,0.55064 -0.41706,0.83411 -0.19003,0.42229 -0.32442,0.85743 -0.46339,1.29751 -0.14273,0.45196 -0.32027,0.89401 -0.4634,1.34385 -0.21931,0.68926 -0.0735,0.41591 -0.2317,1.11214 -0.0357,0.15726 -0.098,0.30744 -0.13902,0.4634 -0.10872,0.41316 -0.18197,0.83488 -0.27803,1.25117 -0.1412,0.61186 -0.34183,1.21805 -0.55608,1.80724 -0.15535,0.42721 -0.3776,0.83474 -0.55607,1.25116 -0.0912,0.2128 -0.15353,0.5127 -0.2317,0.6951 -0.10344,0.24135 -0.26546,0.45451 -0.37071,0.69509 -0.33371,0.76275 0.0618,-0.0374 -0.27804,0.78777 -0.24442,0.5936 -0.13681,0.14121 -0.32438,0.74143 -0.038,0.12158 -0.0503,0.25061 -0.0927,0.37072 -0.0506,0.14346 -0.13194,0.27461 -0.18535,0.41706 -0.12368,0.3298 -0.18536,0.67964 -0.27804,1.01946 -0.0716,0.26271 -0.19033,0.63221 -0.2317,0.88046 -0.0152,0.0914 0.004,0.18545 0,0.27803 -0.0166,0.36625 -0.14588,1.37647 0.0463,1.7609 0.0293,0.0586 0.1065,0.0821 0.13902,0.13902 0.0316,0.0553 0.0179,0.1284 0.0463,0.18536 0.11138,0.22277 0.23256,0.44152 0.37071,0.64876 0.20448,0.3067 0.14676,0.15576 0.37072,0.41705 0.15285,0.17833 0.22211,0.39788 0.32438,0.60241 0.0979,0.19573 0.26064,0.37262 0.37071,0.55608 0.0491,0.0818 0.21589,0.74714 0.2317,0.83411 0.0304,0.16717 -0.0188,0.34086 0,0.50973 0.0824,0.74173 0.27464,1.47827 0.32438,2.2243 0.008,0.1233 -0.008,0.24742 0,0.37072 0.0186,0.27941 0.0746,0.55105 0.0463,0.83411 -0.0233,0.23259 -0.0715,0.4623 -0.0927,0.69509 -0.01,0.10768 0.0212,0.21835 0,0.32438 -0.0968,0.48412 -0.42207,0.91882 -0.64876,1.34385 -0.44142,0.82766 -1.05944,1.58637 -1.89992,2.03893 -0.92745,0.4994 -2.25696,0.4634 -3.2901,0.4634 -0.606006,0 -1.200144,-0.007 -1.807244,-0.0463 -0.01513,-10e-4 -0.701585,-0.064 -0.78777,-0.0927 -0.08545,-0.0285 -0.148072,-0.10557 -0.231699,-0.13902 -0.651163,-0.26046 0.198292,0.19183 -0.463393,-0.13902 -0.631489,-0.31574 -1.166263,-0.90376 -1.390187,-1.57554 -0.08962,-0.26886 -0.248256,-1.13089 -0.09268,-1.39019 0.336632,-0.56105 1.622097,-1.15541 2.131619,-1.43652 0.327115,-0.18048 0.654341,-0.36126 0.973129,-0.55607 0.6369,-0.38922 1.194761,-0.92277 1.899925,-1.20483 0.1115,-0.0446 0.97087,-0.25327 1.0658,-0.27804 0.60636,-0.15818 1.22743,-0.26993 1.85358,-0.32438 0.0911,-0.008 1.48991,-0.0256 1.94627,-0.18536 0.163,-0.057 0.30893,-0.15446 0.46339,-0.23169 1.12346,-0.56173 2.00672,-1.49977 3.05841,-2.17796 1.19999,-0.77383 -0.91492,0.29687 0.37071,-0.32438 1.58082,-0.76388 -0.99078,-0.026 0.83412,-0.41705"
     id="path2"
     sodipodi:nodetypes="csssssssssscsssssssssscssccscsssssssssssssssssssccsssscsssssssssssscssssscscscscsscssssscccccssssscssssssssccsssc" />
</svg>
