<?xml version="1.0" encoding="UTF-8" standalone="no"?>
<!-- Created with Inkscape (http://www.inkscape.org/) -->

<svg
   width="210mm"
   height="297mm"
   viewBox="0 0 210 297"
   version="1.1"
   id="svg1"
   inkscape:version="1.4 (86a8ad7, 2024-10-11)"
   sodipodi:docname="ts.svg"
   xmlns:inkscape="http://www.inkscape.org/namespaces/inkscape"
   xmlns:sodipodi="http://sodipodi.sourceforge.net/DTD/sodipodi-0.dtd"
   xmlns="http://www.w3.org/2000/svg"
   xmlns:svg="http://www.w3.org/2000/svg">
  <sodipodi:namedview
     id="namedview1"
     pagecolor="#ffffff"
     bordercolor="#999999"
     borderopacity="1"
     inkscape:showpageshadow="2"
     inkscape:pageopacity="0"
     inkscape:pagecheckerboard="0"
     inkscape:deskcolor="#d1d1d1"
     inkscape:document-units="mm"
     showgrid="true"
     showguides="true"
     inkscape:zoom="5.709669"
     inkscape:cx="355.01182"
     inkscape:cy="573.67599"
     inkscape:window-width="2560"
     inkscape:window-height="1351"
     inkscape:window-x="-9"
     inkscape:window-y="-9"
     inkscape:window-maximized="1"
     inkscape:current-layer="svg1">
    <inkscape:grid
       id="grid1"
       units="mm"
       originx="0"
       originy="0"
       spacingx="0.99999998"
       spacingy="1"
       empcolor="#0099e5"
       empopacity="0.30196078"
       color="#0099e5"
       opacity="0.14901961"
       empspacing="5"
       enabled="true"
       visible="true" />
    <sodipodi:guide
       position="95.02427,142.20874"
       orientation="0,-1"
       id="guide1"
       inkscape:locked="false" />
    <sodipodi:guide
       position="94.893202,156.88835"
       orientation="0,-1"
       id="guide2"
       inkscape:locked="false" />
    <sodipodi:guide
       position="94.762134,159.37865"
       orientation="1,0"
       id="guide3"
       inkscape:locked="false" />
    <sodipodi:guide
       position="110.22815,157.01942"
       orientation="1,0"
       id="guide4"
       inkscape:locked="false" />
    <sodipodi:guide
       position="90.52779,147.73898"
       orientation="0,-1"
       id="guide5"
       inkscape:locked="false" />
  </sodipodi:namedview>
  <defs
     id="defs1" />
  <path
     style="fill:none;stroke:#000000;stroke-width:2;stroke-linecap:round;stroke-linejoin:round"
     d="m 92.261988,142.12331 c 0.818404,0.10766 1.627473,0.25759 2.455995,0.2317 0.278331,-0.009 0.561054,0.008 0.834112,-0.0463 0.122116,-0.0244 0.214492,-0.12675 0.324376,-0.18536 0.121904,-0.065 0.257122,-0.10671 0.370716,-0.18535 0.0898,-0.0622 0.144936,-0.16535 0.231698,-0.2317 0.176961,-0.13533 0.370716,-0.24715 0.556075,-0.37072 0.04634,-0.0309 0.103362,-0.0499 0.139017,-0.0927 0.04422,-0.0531 0.05253,-0.12914 0.09268,-0.18536 0.136051,-0.19046 0.326826,-0.28416 0.417057,-0.50973 0.02365,-0.0591 0.01786,-0.12839 0.04634,-0.18536 0.0131,-0.0262 0.136983,-0.0514 0.139017,-0.0463 0.04564,0.11409 0.16704,0.56686 0.18536,0.69509 0.02114,0.14807 -0.04181,0.28484 0.04634,0.41706 0.285054,0.42758 0.586065,0.47839 1.019468,0.69509 0.709351,0.35468 1.514251,0.54367 2.316971,0.4634 0.42875,-0.0429 0.48413,-0.22048 0.78777,-0.4634 0.12826,-0.1026 0.2622,-0.23506 0.37072,-0.37071 0.0348,-0.0435 0.0533,-0.0996 0.0927,-0.13902 0.13952,-0.13952 0.26921,-0.25244 0.41706,-0.37072 0.13745,-0.10996 0.24635,-0.30734 0.32437,-0.46339 0.0195,-0.0391 0.0789,-0.13413 0.0927,-0.0927 0.0931,0.27929 -0.25276,0.89029 -0.37072,1.20483 -0.0858,0.22868 -0.12841,0.47377 -0.23169,0.69509 -0.0616,0.13205 -0.1594,0.24419 -0.2317,0.37071 -0.21378,0.37412 -0.0826,0.20899 -0.27804,0.64876 -0.17746,0.3993 -0.40898,0.79297 -0.55607,1.20482 -0.13445,0.37647 -0.0537,0.28951 -0.13902,0.60242 -0.14337,0.52569 -0.34524,1.04384 -0.4634,1.57554 -0.0611,0.27516 -0.058,0.56413 -0.13901,0.83411 -0.066,0.21995 -0.16862,0.42797 -0.2317,0.64876 -0.03,0.10502 -0.0235,0.21757 -0.0463,0.32437 -0.0597,0.27845 -0.12349,0.55569 -0.18536,0.83412 -0.14741,0.66334 -0.36208,1.29962 -0.55607,1.94626 -0.123315,0.41105 -0.341763,0.79128 -0.463395,1.20482 -0.02365,0.0804 -0.05778,0.41667 -0.09268,0.50974 -0.01955,0.0521 -0.07074,0.0878 -0.09268,0.13902 -0.0708,0.16519 -0.102785,0.34459 -0.185357,0.50973 -0.03089,0.0618 -0.06179,0.12357 -0.09268,0.18536 -0.01545,0.0155 -0.03657,0.0268 -0.04634,0.0463 -0.02252,0.045 -0.02381,0.14032 -0.04634,0.18536 -0.106039,0.21208 0.01921,-0.19664 -0.09268,0.13902 -0.0286,0.0858 0.0086,0.37071 -0.09268,0.37071"
     id="path11" />
  <path
     style="fill:none;stroke:#000000;stroke-width:2;stroke-linecap:round;stroke-linejoin:round"
     d="m 101.48355,147.7304 c 0.2941,-0.2593 0.53645,-0.57898 0.83412,-0.83412 0.0423,-0.0362 0.0996,-0.0533 0.13901,-0.0927 0.0853,-0.0853 0.13519,-0.20566 0.2317,-0.27804 0.0941,-0.0706 0.21916,-0.0864 0.32438,-0.13902 0.2022,-0.1011 0.38856,-0.24418 0.60241,-0.32438 0.46808,-0.17553 0.99552,-0.13902 1.48287,-0.13902 0.4365,0 0.8666,0.003 1.2975,0.0463 0.26758,0.0268 1.01502,0.33057 1.25117,0.4634 0.22096,0.12429 0.95314,0.52489 1.06581,0.78777 0.031,0.0724 0.0237,0.15626 0.0463,0.2317 0.0239,0.0797 0.0844,0.14893 0.0927,0.2317 0.0486,0.48632 -0.0222,0.99351 0,1.48286 0.0369,0.81283 0.16069,1.63977 0.0927,2.45599 -0.0732,0.87793 -0.42173,1.38933 -0.83412,2.13162 -0.13662,0.24593 -0.27394,0.53094 -0.46339,0.74144 -0.0662,0.0735 -0.15818,0.11919 -0.2317,0.18535 -0.31966,0.2877 -0.73726,0.8931 -1.15849,1.01947 -0.27818,0.0835 -0.59526,0.0463 -0.88045,0.0463 -0.41705,0 -0.83492,0.026 -1.25117,0 -0.4513,-0.0282 -0.8934,-0.14561 -1.34384,-0.18536 -0.27739,-0.0245 -0.55608,-0.0309 -0.83411,-0.0463 -0.37072,-0.0618 -0.73922,-0.13875 -1.11215,-0.18536 -3.213502,-0.40169 0.2926,0.12343 -1.714564,-0.18536"
     id="path12" />
</svg>
