<?xml version="1.0" encoding="UTF-8" standalone="no"?>
<!-- Created with Inkscape (http://www.inkscape.org/) -->

<svg
   width="210mm"
   height="297mm"
   viewBox="0 0 210 297"
   version="1.1"
   id="svg1"
   inkscape:version="1.4 (86a8ad7, 2024-10-11)"
   sodipodi:docname="tvzZ.svg"
   xmlns:inkscape="http://www.inkscape.org/namespaces/inkscape"
   xmlns:sodipodi="http://sodipodi.sourceforge.net/DTD/sodipodi-0.dtd"
   xmlns="http://www.w3.org/2000/svg"
   xmlns:svg="http://www.w3.org/2000/svg">
  <sodipodi:namedview
     id="namedview1"
     pagecolor="#ffffff"
     bordercolor="#999999"
     borderopacity="1"
     inkscape:showpageshadow="2"
     inkscape:pageopacity="0"
     inkscape:pagecheckerboard="0"
     inkscape:deskcolor="#d1d1d1"
     inkscape:document-units="mm"
     showgrid="true"
     showguides="true"
     inkscape:zoom="5.7117319"
     inkscape:cx="350.15649"
     inkscape:cy="522.52103"
     inkscape:window-width="2560"
     inkscape:window-height="1351"
     inkscape:window-x="-9"
     inkscape:window-y="-9"
     inkscape:window-maximized="1"
     inkscape:current-layer="svg1">
    <inkscape:grid
       id="grid1"
       units="mm"
       originx="0"
       originy="0"
       spacingx="0.99999998"
       spacingy="1"
       empcolor="#0099e5"
       empopacity="0.30196078"
       color="#0099e5"
       opacity="0.14901961"
       empspacing="5"
       enabled="true"
       visible="true" />
    <sodipodi:guide
       position="95.02427,142.20874"
       orientation="0,-1"
       id="guide1"
       inkscape:locked="false" />
    <sodipodi:guide
       position="94.893202,156.88835"
       orientation="0,-1"
       id="guide2"
       inkscape:locked="false" />
    <sodipodi:guide
       position="87.906074,157.65706"
       orientation="1,0"
       id="guide3"
       inkscape:locked="false" />
    <sodipodi:guide
       position="110.22815,157.01942"
       orientation="1,0"
       id="guide4"
       inkscape:locked="false" />
    <sodipodi:guide
       position="90.52779,147.73898"
       orientation="0,-1"
       id="guide5"
       inkscape:locked="false" />
  </sodipodi:namedview>
  <defs
     id="defs1" />
  <path
     style="fill:#ffffff;fill-opacity:0;stroke:#000000;stroke-width:2;stroke-linecap:round;stroke-linejoin:round"
     d="m 86.808899,128.31412 c 1.057987,-0.4693 1.90001,-1.20149 2.779368,-1.94556 0.51784,-0.43817 1.037434,-0.87554 1.528652,-1.34336 0.482356,-0.45939 0.918673,-0.965 1.389684,-1.43601 0.270327,-0.27032 0.568441,-0.51229 0.833811,-0.78749 0.152331,-0.15797 0.287125,-0.33257 0.416904,-0.50955 0.04084,-0.0557 0.067,-0.12117 0.09265,-0.18529 0.0057,-0.0143 0,-0.0618 0,-0.0463 0,0.12353 0.02146,0.24894 0,0.37058 -0.02545,0.14426 -0.09976,0.27577 -0.13897,0.41691 -0.111278,0.4006 -0.208507,0.83479 -0.231613,1.25071 -0.02223,0.4 0.02665,0.80469 0,1.2044 -0.02606,0.39089 -0.136996,0.77171 -0.185291,1.15806 -0.02688,0.21505 -0.02402,0.43295 -0.04632,0.64852 -0.02405,0.23243 -0.07657,0.46174 -0.09265,0.69484 -0.141121,2.04629 0.184356,-0.94765 -0.04632,1.43601 -0.04207,0.43471 -0.105767,0.86761 -0.185293,1.29704 -0.03751,0.20256 -0.109834,0.39826 -0.138967,0.6022 -0.03283,0.22979 -0.02244,0.46394 -0.04632,0.69484 -0.01577,0.15257 -0.145717,1.01971 -0.185291,1.20439 -0.189481,0.88425 -0.530936,1.72821 -0.787487,2.59408 -0.176887,0.59699 -0.325459,1.20039 -0.46323,1.80659 -0.186378,0.82006 -0.449151,1.62866 -0.602194,2.4551 -0.04255,0.22976 -0.05423,0.46436 -0.09265,0.69484 -0.149286,0.89572 -0.374623,1.72482 -0.463227,2.6404 -0.0642,0.6634 -0.04632,1.32671 -0.04632,1.99188 0,0.68721 -0.04328,1.40491 0.09265,2.08453 0.20165,1.00825 0.796161,2.57057 1.389682,3.42789 0.199186,0.2877 0.474218,0.60793 0.741167,0.8338 0.101399,0.0858 0.222218,0.14659 0.324257,0.23162 0.08388,0.0699 0.147738,0.16172 0.231616,0.23161 0.425882,0.3549 0.928958,0.6583 1.436005,0.88013 0.241734,0.10576 0.498645,0.174 0.741164,0.27794 0.482838,0.20693 0.971246,0.42138 1.482331,0.55587 0.796401,0.20958 1.593083,0.24773 2.408785,0.27794 0.07844,0.003 1.148548,0.0834 1.250718,0.0927 0.31228,0.0284 0.44099,0.0694 0.74116,0.0463 0.41692,-0.0321 0.83119,-0.109 1.25071,-0.13897 0.94963,-0.0678 2.01381,0.0482 2.91834,-0.32426 0.35145,-0.14471 0.76079,-0.56302 1.06542,-0.78749 0.50649,-0.37319 1.06143,-0.739 1.38969,-1.29703 0.15421,-0.26216 0.22827,-0.56501 0.37058,-0.83381 0.21497,-0.40605 0.48821,-0.79476 0.6022,-1.25072 0.0715,-0.28619 0.0348,-0.59086 0.0926,-0.88013 0.16455,-0.82276 0.44607,-1.59897 0.64852,-2.40878 0.0382,-0.15277 0.0406,-0.31461 0.0926,-0.46323 0.057,-0.16295 0.17015,-0.30191 0.23161,-0.46323 0.0627,-0.16452 0.0926,-0.3397 0.13897,-0.50955 0.0926,-0.16985 0.20172,-0.33172 0.27794,-0.50955 0.33459,-0.78072 0.43269,-1.95958 0.50955,-2.77937 0.0449,-0.47884 5.3e-4,-0.98744 -0.27794,-1.38968 -0.52472,-0.75794 -1.35714,-1.04269 -2.17717,-1.34336 -0.21552,-0.079 -0.42672,-0.17247 -0.64852,-0.23162 -0.24287,-0.0648 -0.49561,-0.0853 -0.74117,-0.13897 -0.82297,-0.18002 -1.62005,-0.38247 -2.4551,-0.50955 -0.76589,-0.11655 -2.04115,-0.3099 -2.77937,-0.37058 -1.643024,-0.13504 -2.290946,-0.0713 -3.983759,-0.13897 -2.131872,-0.0853 -2.708936,-0.26423 -4.724923,0.13897"
     id="path22" />
</svg>
