<?xml version="1.0" encoding="UTF-8" standalone="no"?>
<!-- Created with Inkscape (http://www.inkscape.org/) -->

<svg
   width="210mm"
   height="297mm"
   viewBox="0 0 210 297"
   version="1.1"
   id="svg1"
   inkscape:version="1.4 (86a8ad7, 2024-10-11)"
   sodipodi:docname="pZ.svg"
   xmlns:inkscape="http://www.inkscape.org/namespaces/inkscape"
   xmlns:sodipodi="http://sodipodi.sourceforge.net/DTD/sodipodi-0.dtd"
   xmlns="http://www.w3.org/2000/svg"
   xmlns:svg="http://www.w3.org/2000/svg">
  <sodipodi:namedview
     id="namedview1"
     pagecolor="#ffffff"
     bordercolor="#999999"
     borderopacity="1"
     inkscape:showpageshadow="2"
     inkscape:pageopacity="0"
     inkscape:pagecheckerboard="0"
     inkscape:deskcolor="#d1d1d1"
     inkscape:document-units="mm"
     showgrid="true"
     showguides="true"
     inkscape:zoom="5.7117319"
     inkscape:cx="350.15649"
     inkscape:cy="494.50851"
     inkscape:window-width="2560"
     inkscape:window-height="1351"
     inkscape:window-x="-9"
     inkscape:window-y="-9"
     inkscape:window-maximized="1"
     inkscape:current-layer="svg1">
    <inkscape:grid
       id="grid1"
       units="mm"
       originx="0"
       originy="0"
       spacingx="0.99999998"
       spacingy="1"
       empcolor="#0099e5"
       empopacity="0.30196078"
       color="#0099e5"
       opacity="0.14901961"
       empspacing="5"
       enabled="true"
       visible="true" />
    <sodipodi:guide
       position="95.02427,142.20874"
       orientation="0,-1"
       id="guide1"
       inkscape:locked="false" />
    <sodipodi:guide
       position="94.893202,156.88835"
       orientation="0,-1"
       id="guide2"
       inkscape:locked="false" />
    <sodipodi:guide
       position="87.906074,157.65706"
       orientation="1,0"
       id="guide3"
       inkscape:locked="false" />
    <sodipodi:guide
       position="110.22815,157.01942"
       orientation="1,0"
       id="guide4"
       inkscape:locked="false" />
    <sodipodi:guide
       position="90.52779,147.73898"
       orientation="0,-1"
       id="guide5"
       inkscape:locked="false" />
  </sodipodi:namedview>
  <defs
     id="defs1" />
  <path
     style="fill:#ffffff;fill-opacity:0;stroke:#000000;stroke-width:2;stroke-linecap:round;stroke-linejoin:round"
     d="m 109.83132,131.18613 c -0.0242,0.12113 0.0242,0.24945 0,0.37058 -0.037,0.18501 -0.16595,0.43441 -0.23161,0.6022 -0.14422,0.36857 -0.26621,0.74577 -0.4169,1.11175 -0.19345,0.4698 -0.40904,0.93342 -0.50955,1.436 -0.0244,0.12207 -0.0219,0.24851 -0.0463,0.37058 -0.0782,0.39092 -0.22775,0.77204 -0.32426,1.15807 -0.17129,0.68517 -0.26349,1.39416 -0.4169,2.08453 -0.30775,1.38487 -0.671,2.76016 -1.06543,4.12273 -0.14303,0.49411 -0.41849,0.94537 -0.55587,1.436 -0.0548,0.19557 -0.0495,0.40374 -0.0927,0.6022 -0.0815,0.37479 -0.20655,0.60495 -0.32426,0.97278 -0.0685,0.21412 -0.11676,0.43439 -0.18529,0.64852 -0.23561,0.73629 -0.16861,0.31655 -0.37058,1.15807 -0.0403,0.16786 -0.0544,0.3412 -0.0926,0.50955 -0.32708,1.43912 0.0378,-0.2565 -0.27794,0.88013 -0.0554,0.19927 -0.1,0.52027 -0.13897,0.74116 -0.0772,0.43751 -0.16893,0.85828 -0.23161,1.29704 -0.051,0.35685 -0.14756,0.70693 -0.18529,1.06543 -0.0129,0.12285 0.008,0.24732 0,0.37058 -0.0638,0.95688 -0.0463,-0.36231 -0.0463,0.69484 0,0.21617 -0.0329,0.43486 0,0.64852 0.0474,0.3078 0.2291,0.54831 0.32426,0.83381 0.01,0.0293 -0.0193,0.0685 0,0.0926 0.12271,0.15337 0.204,0.13985 0.37059,0.18529 0.10845,0.0296 0.21337,0.0742 0.32425,0.0926 0.48357,0.0806 1.12981,-0.11777 1.52866,-0.4169 0.23049,-0.17287 0.50222,-0.45102 0.64852,-0.69485 0.10658,-0.17764 0.16814,-0.3802 0.27793,-0.55587 0.0999,-0.15983 0.21971,-0.3064 0.32426,-0.46323 0.21154,-0.31731 0.38685,-0.65803 0.6022,-0.97278 0.17107,-0.25002 0.41291,-0.45126 0.50955,-0.74116"
     id="path43" />
  <path
     style="fill:#ffffff;fill-opacity:0;stroke:#000000;stroke-width:2;stroke-linecap:round;stroke-linejoin:round"
     d="m 102.60497,130.90819 c -0.16268,0.37902 -0.28679,0.76774 -0.41691,1.15807 -0.0263,0.0789 -0.0763,0.15008 -0.0926,0.23161 -0.009,0.0454 0.0147,0.095 0,0.13897 -0.0503,0.15082 -0.16583,0.27218 -0.23162,0.41691 -0.17014,0.37432 -0.25605,0.78275 -0.4169,1.15807 -0.0219,0.0512 -0.0707,0.0878 -0.0927,0.13897 -0.0251,0.0585 -0.0212,0.12677 -0.0463,0.18529 -0.0219,0.0512 -0.0678,0.0892 -0.0926,0.13897 -0.0782,0.15635 -0.12007,0.34648 -0.18529,0.50955 -0.18652,0.4663 0.0362,-0.0984 -0.0463,0.23161 0.0485,0.16039 -0.10272,0.24373 -0.13897,0.37058 -0.0439,0.15376 -0.0529,0.36612 -0.13896,0.50955 -0.0225,0.0375 -0.0755,0.0525 -0.0927,0.0926 -0.0439,0.10234 -0.0393,0.31024 -0.0926,0.4169 -0.0652,0.1303 -0.16256,0.24233 -0.23162,0.37059 -0.10281,0.19092 -0.14565,0.40878 -0.23161,0.60219 -0.158265,0.35609 -0.371535,0.69737 -0.509554,1.06543 -0.02236,0.0596 -0.02048,0.12711 -0.04632,0.18529 -0.232095,0.52222 -0.05903,-0.0545 -0.231613,0.46323 -0.07249,0.21747 -0.127868,0.44103 -0.231614,0.64851 -0.04026,0.0805 -0.101711,0.14966 -0.138967,0.23162 -0.08082,0.17781 -0.118544,0.37232 -0.185293,0.55587 -0.218644,0.60128 -0.42985,1.20526 -0.648518,1.80659 -0.209976,0.57743 -0.514344,1.12733 -0.694843,1.71394 -0.14863,0.48306 -0.271698,0.98792 -0.370581,1.48233 -0.03246,0.16233 -0.106502,0.3009 -0.138969,0.46323 -0.01212,0.0606 0.01339,0.125 0,0.18529 -0.03921,0.17643 -0.133358,0.33644 -0.185291,0.50955 -0.05934,0.1978 -0.08224,0.40364 -0.138967,0.6022 -0.03231,0.11307 -0.113459,0.20947 -0.13897,0.32426 -0.01675,0.0754 0.01093,0.15518 0,0.23161 -0.0049,0.0342 -0.03088,0.0618 -0.04632,0.0926 -0.01545,0.0618 -0.03843,0.12212 -0.04632,0.18529 -0.0077,0.0613 0.0087,0.12415 0,0.18529 -0.03991,0.27937 -0.19165,0.55407 -0.231616,0.83381 -0.0087,0.0611 0.0087,0.12415 0,0.18529 -0.05087,0.35612 -0.03412,-0.089 -0.138967,0.27794 -0.01696,0.0594 0.0087,0.12415 0,0.18529 -0.01381,0.0967 -0.07659,0.18161 -0.09265,0.27794 -0.01524,0.0914 0.01524,0.18655 0,0.27793 -0.03132,0.1879 -0.107657,0.36801 -0.138967,0.55588 -0.03082,0.18489 0.01402,0.37486 -0.04632,0.55587 -0.0069,0.0207 -0.03942,0.0256 -0.04632,0.0463 -0.05537,0.16613 0.0425,0.38587 0,0.55588 -0.02749,0.10996 -0.06516,0.2143 -0.09264,0.32426 -0.03627,0.14506 0.02934,0.31654 0,0.46322 0.01609,0.0943 -0.07634,0.15008 -0.09265,0.23162 -0.0186,0.0929 -0.02601,0.44862 -0.04632,0.50955 -0.08588,0.25764 -0.09265,0.51193 -0.09265,0.78749"
     id="path44" />
  <path
     style="fill:#ffffff;fill-opacity:0;stroke:#000000;stroke-width:2;stroke-linecap:round;stroke-linejoin:round"
     d="m 95.610229,130.21335 c -0.04453,0.34589 -0.18837,0.67315 -0.231614,1.0191 -0.02252,0.18003 0.03554,0.3782 0,0.55587 -0.07934,0.39672 -0.0016,0.80192 -0.04632,1.2044 -0.01905,0.17158 -0.05879,0.34027 -0.09264,0.50955 -0.0892,0.44599 -0.273952,0.86817 -0.416906,1.29704 -0.02968,0.0891 -0.04803,0.23503 -0.09265,0.32426 -0.0249,0.0498 -0.07735,0.0854 -0.09264,0.13896 -0.01696,0.0594 0.0087,0.12415 0,0.18529 -0.03774,0.26417 -0.154736,0.57755 -0.231613,0.83381 -0.154668,0.51556 -0.367668,1.02678 -0.555874,1.52866 -0.119176,0.31779 -0.201811,0.65441 -0.32426,0.97278 -0.208841,0.54298 -0.439632,1.07819 -0.648518,1.62129 -0.04221,0.10976 -0.106664,0.21119 -0.138969,0.32426 -0.03,0.10499 -0.01421,0.21991 -0.04632,0.32426 -0.03046,0.099 -0.101785,0.18126 -0.138967,0.27794 -0.109923,0.2858 -0.158181,0.5864 -0.231613,0.88013 -0.09957,0.39829 -0.279683,0.77385 -0.416907,1.15807 -0.194969,0.54592 -0.346017,1.11161 -0.50955,1.66762 0.01071,0.18315 -0.137504,0.30394 -0.185291,0.46323 -0.0513,0.17099 -0.04135,0.33856 -0.09265,0.50955 -0.04895,0.12237 -0.102659,0.2435 -0.138967,0.37058 -0.03498,0.12243 -0.04913,0.25092 -0.09265,0.37059 -0.04019,0.11051 -0.108027,0.2108 -0.138967,0.32425 -0.01624,0.0596 0,0.12353 0,0.1853 -0.01545,0.0618 -0.02883,0.12407 -0.04632,0.18529 -0.05962,0.20867 -0.15471,0.43445 -0.185293,0.64852 -0.0087,0.0611 0.01016,0.12436 0,0.18529 -0.0057,0.0341 -0.03088,0.0618 -0.04632,0.0926 -0.01545,0.0463 -0.03942,0.0906 -0.04632,0.13897 -0.0087,0.0611 0.0087,0.12415 0,0.18529 -0.01381,0.0967 -0.07349,0.18218 -0.09265,0.27794 -0.02376,0.11885 0.02376,0.0664 0,0.18529 -0.03467,0.17334 -0.114043,0.33509 -0.138967,0.50955 -0.0087,0.0611 0.01106,0.12452 0,0.18529 -0.05094,0.28015 -0.129405,0.55438 -0.185293,0.83381 -0.179734,0.89867 0.04029,-0.13705 -0.04632,0.55588 -0.01212,0.0969 -0.07659,0.1816 -0.09265,0.27793 -0.01524,0.0914 0.01524,0.18655 0,0.27794 -0.02595,0.15568 -0.113022,0.30754 -0.138969,0.46323 -0.0076,0.0457 0.0091,0.0935 0,0.13896 -0.08945,0.44724 -0.0053,-0.37981 -0.09264,0.23162 -0.01529,0.107 0.02119,0.21827 0,0.32426 -0.02434,0.12168 -0.114631,0.24889 -0.13897,0.37058 -0.0091,0.0454 0.0091,0.0935 0,0.13897 -0.01355,0.0677 -0.0759,0.1183 -0.09264,0.18529 -0.01347,0.0539 0.01789,0.13161 0,0.18529 -0.03188,0.0956 -0.09994,0.10723 -0.13897,0.18529 -0.01381,0.0276 0.02183,0.0708 0,0.0927 -0.0213,0.0213 -0.148862,0.0744 -0.18529,0.0926 -0.0181,0.009 -0.714494,0.0133 -0.741164,0 -0.222017,-0.11101 -0.37946,-0.35186 -0.602197,-0.46323 -0.100105,-0.05 -0.23391,-0.12505 -0.32426,-0.18529 -0.07665,-0.0511 -0.188825,-0.20191 -0.277937,-0.23161 -0.0293,-0.01 -0.06335,0.01 -0.09264,0 -0.04183,-0.0139 -0.237998,-0.27101 -0.277937,-0.32426 -0.05069,-0.0676 -0.231613,-0.16164 -0.231613,-0.23161"
     id="path45" />
  <path
     style="fill:#ffffff;fill-opacity:0;stroke:#000000;stroke-width:2;stroke-linecap:round;stroke-linejoin:round"
     d="m 91.672792,136.28163 c -0.154408,0.0309 -0.309676,0.12755 -0.463227,0.0926 -0.209179,-0.0475 -0.375777,-0.20773 -0.555873,-0.32426 -0.345186,-0.22336 -0.6803,-0.46191 -1.019101,-0.69484 -0.972505,-0.6686 -2.503567,-1.70214 -3.242596,-2.45511 -0.227391,-0.23168 -0.304157,-0.57571 -0.416904,-0.88013 -0.04324,-0.11674 -0.128299,-0.2769 -0.04632,-0.37058 0.276598,-0.31611 0.624091,-0.59834 1.019101,-0.74117 2.356183,-0.85195 4.760843,-1.57161 7.180032,-2.22349 2.741215,-0.73865 5.516634,-1.34686 8.291776,-1.94556 21.6329,-4.667 -3.480177,1.40801 25.52385,-5.92931"
     id="path46" />
</svg>
