<?xml version="1.0" encoding="UTF-8" standalone="no"?>
<!-- Created with Inkscape (http://www.inkscape.org/) -->

<svg
   width="210mm"
   height="297mm"
   viewBox="0 0 210 297"
   version="1.1"
   id="svg1"
   inkscape:version="1.4 (86a8ad7, 2024-10-11)"
   sodipodi:docname="ts.svg"
   xmlns:inkscape="http://www.inkscape.org/namespaces/inkscape"
   xmlns:sodipodi="http://sodipodi.sourceforge.net/DTD/sodipodi-0.dtd"
   xmlns="http://www.w3.org/2000/svg"
   xmlns:svg="http://www.w3.org/2000/svg">
  <sodipodi:namedview
     id="namedview1"
     pagecolor="#ffffff"
     bordercolor="#999999"
     borderopacity="1"
     inkscape:showpageshadow="2"
     inkscape:pageopacity="0"
     inkscape:pagecheckerboard="0"
     inkscape:deskcolor="#d1d1d1"
     inkscape:document-units="mm"
     showgrid="true"
     showguides="true"
     inkscape:zoom="8.0746913"
     inkscape:cx="377.22804"
     inkscape:cy="567.26627"
     inkscape:window-width="2560"
     inkscape:window-height="1351"
     inkscape:window-x="-9"
     inkscape:window-y="-9"
     inkscape:window-maximized="1"
     inkscape:current-layer="svg1">
    <inkscape:grid
       id="grid1"
       units="mm"
       originx="0"
       originy="0"
       spacingx="0.99999998"
       spacingy="1"
       empcolor="#0099e5"
       empopacity="0.30196078"
       color="#0099e5"
       opacity="0.14901961"
       empspacing="5"
       enabled="true"
       visible="true" />
    <sodipodi:guide
       position="95.02427,142.20874"
       orientation="0,-1"
       id="guide1"
       inkscape:locked="false" />
    <sodipodi:guide
       position="94.893202,156.88835"
       orientation="0,-1"
       id="guide2"
       inkscape:locked="false" />
    <sodipodi:guide
       position="94.762134,159.37865"
       orientation="1,0"
       id="guide3"
       inkscape:locked="false" />
    <sodipodi:guide
       position="110.22815,157.01942"
       orientation="1,0"
       id="guide4"
       inkscape:locked="false" />
    <sodipodi:guide
       position="90.52779,147.73898"
       orientation="0,-1"
       id="guide5"
       inkscape:locked="false" />
  </sodipodi:namedview>
  <defs
     id="defs1" />
  <path
     style="fill:none;stroke:#000000;stroke-width:2;stroke-linecap:round;stroke-linejoin:round"
     d="m 99.349514,140.63592 c 0,0.0437 -0.04369,0.13107 0,0.13107 0.04369,0 0.01061,-0.17345 0,-0.13107 -0.100415,0.11174 -0.0091,0.24214 -0.03277,0.36044 -0.02143,0.10712 -0.105289,0.34233 -0.163836,0.42597 -0.04429,0.0633 -0.116419,0.10287 -0.163835,0.16384 -0.02999,0.0385 -0.04369,0.0874 -0.06553,0.13106 -0.05461,0.0655 -0.107659,0.1324 -0.163836,0.1966 -0.04605,0.0526 -0.120144,0.0765 -0.163835,0.13107 -0.02812,0.0351 -0.148654,0.30165 -0.163833,0.32767 -0.01408,0.16903 -0.184549,0.21129 -0.262136,0.32767 -0.01916,0.0287 -0.01564,0.0683 -0.03277,0.0983 -0.06531,0.1143 -0.163441,0.2123 -0.229368,0.32767 -0.08748,0.15309 -0.174656,0.30565 -0.262135,0.45874 -0.0824,0.1442 -0.187794,0.27729 -0.262136,0.42597 -0.05851,0.11702 -0.09313,0.2473 -0.163836,0.36044 -0.08008,0.12812 -0.116393,0.11981 -0.163835,0.26213 -0.01762,0.0528 -0.0132,0.11169 -0.03277,0.16384 -0.01384,0.0369 -0.05002,0.0621 -0.06553,0.0983 -0.03132,0.0731 -0.03495,0.15597 -0.06553,0.22937 -0.135784,0.32588 -0.24225,0.65208 -0.360437,0.98301 -0.03957,0.11078 -0.09598,0.21539 -0.131069,0.32767 -0.01982,0.0634 -0.01529,0.1325 -0.03277,0.1966 -0.03095,0.11349 -0.09727,0.215 -0.131067,0.32767 -0.09093,0.30312 -0.185317,0.6102 -0.262136,0.91748 -0.05339,0.21354 -0.147103,0.40807 -0.196604,0.62257 -0.04819,0.20883 -0.115829,0.41455 -0.163835,0.62257 -0.01736,0.0753 -0.0154,0.15412 -0.03277,0.22937 -0.01347,0.13032 -0.100063,0.23641 -0.131067,0.36044 -0.01873,0.0749 -0.0154,0.15411 -0.03277,0.22937 -0.19643,0.85119 0.07517,-0.53648 -0.131067,0.42597 -0.01619,0.0755 -0.01659,0.15385 -0.03277,0.22937 -0.01667,0.0777 -0.05429,0.15065 -0.06553,0.22936 -0.01082,0.0757 0.0059,0.15314 0,0.22937 -0.01019,0.13249 -0.0545,0.26079 -0.06553,0.39321 -0.01606,0.19288 0,0.39618 0,0.5898 0,0.25787 0.0034,0.92084 0.196601,1.11408 0.01728,0.0173 0.04599,0.0181 0.06553,0.0328 0.225509,0.16913 0.4133,0.28192 0.688107,0.36043 0.04899,0.014 0.176993,0.0394 0.229367,0.0655 0.0975,0.0488 0.114477,0.10235 0.22937,0.13107 0.04238,0.0106 0.08906,-0.012 0.131067,0 0.03787,0.0108 0.06211,0.05 0.0983,0.0655 0.104812,0.0449 0.215477,0.0779 0.327668,0.0983 0.222311,0.0404 0.667192,0 0.917477,0 0.355629,0 0.455591,-0.008 0.786408,-0.0983 0.04345,-0.0118 0.09079,-0.0126 0.131067,-0.0328 0.02763,-0.0138 0.0379,-0.0517 0.06553,-0.0655 0.04028,-0.0201 0.08738,-0.0219 0.131067,-0.0328 0.04369,-0.0219 0.08866,-0.0413 0.131069,-0.0655 0.293338,-0.16762 0.585068,-0.34168 0.884711,-0.49151 0.0992,-0.0496 0.17141,-0.14216 0.26214,-0.1966 0.0296,-0.0178 0.0687,-0.015 0.0983,-0.0328 0.10771,-0.0646 0.21996,-0.16475 0.32767,-0.22937 0.2296,-0.13776 0.43487,-0.31176 0.65534,-0.45874 0.0605,-0.0403 0.13611,-0.058 0.1966,-0.0983 0.10549,-0.0703 0.12679,-0.10522 0.22937,-0.16384 0.0636,-0.0363 0.14479,-0.0465 0.1966,-0.0983 0.1437,-0.1437 -0.0241,-0.0624 0.16384,-0.1966 0.0397,-0.0284 0.0948,-0.0329 0.13106,-0.0655 0.20679,-0.18611 0.14994,-0.19476 0.29491,-0.36044 0.24393,-0.27878 0.50743,-0.54219 0.75364,-0.81918 0.12785,-0.14383 0.30069,-0.25226 0.42597,-0.3932 0.0423,-0.0476 0.0585,-0.1141 0.0983,-0.16383 0.0482,-0.0603 0.11217,-0.10643 0.16384,-0.16384 0.31997,-0.35553 0.61161,-0.75672 0.8847,-1.14684 0.20125,-0.2875 0.0775,-0.0537 0.36044,-0.39321 0.0408,-0.0489 0.0601,-0.11288 0.0983,-0.16383 0.10498,-0.13998 0.2441,-0.26233 0.36044,-0.39321 0.15277,-0.17187 0.25609,-0.37422 0.3932,-0.55703 0.15289,-0.20386 0.33012,-0.39256 0.49151,-0.58981 0.19192,-0.23457 0.36367,-0.48884 0.55704,-0.72087 0.3156,-0.37873 0.0229,0.0463 0.2949,-0.32768 0.13167,-0.18104 0.23689,-0.37171 0.36043,-0.55703 0.11923,-0.17884 0.14798,-0.16442 0.29491,-0.32767 0.14482,-0.16092 0.23775,-0.34902 0.36044,-0.52428 0.0401,-0.0573 0.0935,-0.10483 0.13106,-0.16383 0.0393,-0.0618 0.0655,-0.13107 0.0983,-0.1966 0.0546,-0.0874 0.10668,-0.1764 0.16384,-0.26214 0.0824,-0.12361 0.16933,-0.24443 0.26213,-0.36043 0.0579,-0.0724 0.13728,-0.12541 0.19661,-0.19661 0.0504,-0.0605 0.10004,-0.1242 0.13107,-0.1966 0.0177,-0.0414 0.0104,-0.092 0.0328,-0.13107 0.10915,-0.19101 0.087,-0.005 0.16384,-0.1966 0.008,-0.0203 -0.009,-0.0455 0,-0.0655 0.12611,-0.29426 0.0583,-0.0511 0.16383,-0.26214 0.0263,-0.0526 0.0274,-0.11612 0.0655,-0.16383 0.15409,-0.19262 0.0573,-0.0162 0.13106,-0.16384 0.0351,-0.0702 0.0981,-0.13073 0.13107,-0.1966 0.0199,-0.0398 0.0415,-0.22937 0.0983,-0.22937"
     id="path1" />
  <path
     style="fill:none;stroke:#000000;stroke-width:2;stroke-linecap:round;stroke-linejoin:round"
     d="m 106.00121,148.33616 c -0.13713,0.22066 -0.18051,0.49209 -0.2949,0.72088 -0.0352,0.0704 -0.094,0.1271 -0.13107,0.1966 -0.11272,0.21136 -0.18777,0.44108 -0.2949,0.65534 -0.20286,0.40573 -0.4092,0.8123 -0.62257,1.21238 -0.11588,0.21727 -0.19271,0.44771 -0.32767,0.65534 -0.13704,0.21083 -0.29848,0.40584 -0.42597,0.62257 -0.10653,0.18109 -0.18681,0.37688 -0.29491,0.55704 -0.13424,0.22374 -0.29662,0.42538 -0.42597,0.65534 -0.10336,0.18376 -0.19496,0.39115 -0.32767,0.55704 -0.0483,0.0603 -0.11559,0.10353 -0.16383,0.16383 -0.0948,0.11849 -0.143,0.26845 -0.22937,0.39321 -0.18539,0.26777 -0.40259,0.51895 -0.58981,0.78641 -0.11788,0.1684 -0.0889,0.18872 -0.22937,0.36043 -0.19038,0.2327 -0.42586,0.42837 -0.62257,0.65534 -0.17806,0.20546 -0.34425,0.42005 -0.52427,0.62257 -0.0874,0.0983 -0.2083,0.16316 -0.2949,0.26214 -0.0419,0.0479 -0.0585,0.1141 -0.0983,0.16383 -0.0517,0.0646 -0.296827,0.32959 -0.360441,0.39321 -0.03862,0.0386 -0.09511,0.0572 -0.131069,0.0983 -0.04194,0.0479 -0.05685,0.11548 -0.0983,0.16384 -0.02564,0.0299 -0.07045,0.0377 -0.0983,0.0655 -0.216955,0.21696 0.01741,0.051 -0.196601,0.22937 -0.03025,0.0252 -0.06553,0.0437 -0.0983,0.0655 -0.04369,0.0328 -0.0896,0.0628 -0.131067,0.0983 -0.375761,0.32208 0.139534,-0.10676 -0.163835,0.1966 -0.159666,0.15967 -0.357989,0.30632 -0.524272,0.45874 -0.07971,0.0731 -0.147272,0.15901 -0.22937,0.22937 -0.443807,0.38041 -0.899999,0.72606 -1.343446,1.11408 -0.342063,0.2993 -0.650478,0.6435 -1.015775,0.91747 -0.03908,0.0293 -0.09132,0.0371 -0.131069,0.0655 -0.03771,0.0269 -0.0627,0.0686 -0.0983,0.0983 -0.109402,0.0912 -0.245266,0.14561 -0.360436,0.22937 -0.03748,0.0273 -0.06059,0.0714 -0.0983,0.0983 -0.08385,0.0599 -0.174757,0.10922 -0.262136,0.16384 -0.243501,0.15218 -0.510474,0.27399 -0.753642,0.42597 -0.224721,0.14045 -0.450085,0.30696 -0.688107,0.42597 -0.09268,0.0463 -0.204935,0.0469 -0.294902,0.0983 -0.04024,0.023 -0.05807,0.0753 -0.0983,0.0983 -0.0782,0.0447 -0.177803,0.0339 -0.262136,0.0655 -0.544227,0.20409 0.214273,-0.0591 -0.22937,0.13107 -0.170704,0.0732 -0.0887,0.004 -0.262136,0.0328 -0.106172,0.0177 -0.215482,0.0843 -0.327671,0.0983 -0.211561,0.0265 -0.441856,0 -0.655338,0 -0.250772,0 -0.613151,0.0398 -0.851943,0 -0.0941,-0.0157 -0.178675,-0.0953 -0.262136,-0.13107 -0.147402,-0.0632 -0.312279,-0.0906 -0.458737,-0.16383 -0.108595,-0.0543 -0.256704,-0.15569 -0.32767,-0.26214 -0.01916,-0.0287 -0.01204,-0.0707 -0.03277,-0.0983 -0.01466,-0.0195 -0.04827,-0.0155 -0.06553,-0.0328 -0.09707,-0.0971 -0.257403,-0.43203 -0.294902,-0.55704 -0.0191,-0.0636 -0.02088,-0.13123 -0.03277,-0.1966 -0.07165,-0.39411 -0.120044,-0.57909 0.06553,-0.95024 0.0263,-0.0526 0.03135,-0.11597 0.06554,-0.16384 0.02289,-0.032 0.07267,-0.0356 0.0983,-0.0655 0.04145,-0.0483 0.06128,-0.11201 0.0983,-0.16383 0.09021,-0.1263 0.215493,-0.25846 0.327671,-0.36044 0.181583,-0.16508 0.403164,-0.31627 0.622572,-0.42597 0.05261,-0.0263 0.112419,-0.037 0.163835,-0.0655 0.04774,-0.0265 0.08222,-0.0739 0.131067,-0.0983 0.09268,-0.0463 0.201007,-0.0545 0.294905,-0.0983 0.110656,-0.0516 0.215426,-0.11573 0.327668,-0.16383 0.04139,-0.0177 0.08992,-0.0145 0.131069,-0.0328 0.0582,-0.0259 0.10687,-0.0698 0.163835,-0.0983 0.483367,-0.24169 -0.29164,0.20745 0.458737,-0.1966 0.04808,-0.0259 0.08365,-0.0712 0.131067,-0.0983 0.103235,-0.059 0.227184,-0.0943 0.327671,-0.16383 0.102391,-0.0709 0.190148,-0.16203 0.294904,-0.22937 0.04948,-0.0318 0.11421,-0.0339 0.163833,-0.0655 0.07197,-0.0458 0.125624,-0.11652 0.196604,-0.16384 0.06096,-0.0406 0.134786,-0.059 0.196601,-0.0983 0.118007,-0.0751 0.21577,-0.17821 0.327671,-0.26213 0.150331,-0.11275 0.310975,-0.21158 0.458737,-0.32767 0.07918,-0.0622 0.148164,-0.13706 0.22937,-0.19661 0.340868,-0.24997 0.719148,-0.4423 1.081309,-0.65534 0.101831,-0.0599 0.191932,-0.13868 0.294902,-0.1966 0.07239,-0.0407 0.527056,-0.21437 0.557041,-0.22937 0.09216,-0.0461 0.172061,-0.11379 0.262136,-0.16383 0.07372,-0.041 0.491503,-0.24248 0.589804,-0.29491 0.168584,-0.0899 0.31691,-0.2173 0.491506,-0.2949 0.104203,-0.0463 0.221792,-0.0559 0.32767,-0.0983 0.466125,-0.18645 0.894207,-0.47073 1.343446,-0.68811 0.115078,-0.0557 0.24149,-0.0842 0.360436,-0.13106 0.45932,-0.18095 0.91252,-0.38621 1.37622,-0.55704 0.50437,-0.18582 1.04051,-0.29724 1.54005,-0.49151 0.37727,-0.14672 0.15202,-0.12713 0.55704,-0.26213 0.16085,-0.0536 0.32929,-0.0817 0.4915,-0.13107 0.31745,-0.0966 0.62842,-0.20908 0.95024,-0.2949 0.25761,-0.0687 0.53321,-0.11604 0.78641,-0.19661 0.14497,-0.0461 0.28165,-0.11572 0.42597,-0.16383 0.29111,-0.097 0.19947,-0.0394 0.45874,-0.0983 0.28331,-0.0644 0.5741,-0.14388 0.85194,-0.22937 0.49745,-0.15306 0.0354,-0.0498 0.49151,-0.16384 0.51094,-0.12773 1.03285,-0.25429 1.50728,-0.4915 0.057,-0.0285 0.10586,-0.0719 0.16383,-0.0983 0.18755,-0.0853 0.39989,-0.11664 0.58981,-0.1966 0.14413,-0.0607 0.27837,-0.14494 0.42597,-0.1966 0.16782,-0.0587 0.35247,-0.0525 0.52427,-0.0983 0.15119,-0.0403 0.26518,-0.0983 0.42597,-0.0983"
     id="path2" />
</svg>
