<?xml version="1.0" encoding="UTF-8" standalone="no"?>
<!-- Created with Inkscape (http://www.inkscape.org/) -->

<svg
   width="210mm"
   height="297mm"
   viewBox="0 0 210 297"
   version="1.1"
   id="svg1"
   inkscape:version="1.4 (86a8ad7, 2024-10-11)"
   sodipodi:docname="ts.svg"
   xmlns:inkscape="http://www.inkscape.org/namespaces/inkscape"
   xmlns:sodipodi="http://sodipodi.sourceforge.net/DTD/sodipodi-0.dtd"
   xmlns="http://www.w3.org/2000/svg"
   xmlns:svg="http://www.w3.org/2000/svg">
  <sodipodi:namedview
     id="namedview1"
     pagecolor="#ffffff"
     bordercolor="#999999"
     borderopacity="1"
     inkscape:showpageshadow="2"
     inkscape:pageopacity="0"
     inkscape:pagecheckerboard="0"
     inkscape:deskcolor="#d1d1d1"
     inkscape:document-units="mm"
     showgrid="true"
     showguides="true"
     inkscape:zoom="5.709669"
     inkscape:cx="375.67852"
     inkscape:cy="574.72684"
     inkscape:window-width="2560"
     inkscape:window-height="1351"
     inkscape:window-x="-9"
     inkscape:window-y="-9"
     inkscape:window-maximized="1"
     inkscape:current-layer="svg1">
    <inkscape:grid
       id="grid1"
       units="mm"
       originx="0"
       originy="0"
       spacingx="0.99999998"
       spacingy="1"
       empcolor="#0099e5"
       empopacity="0.30196078"
       color="#0099e5"
       opacity="0.14901961"
       empspacing="5"
       enabled="true"
       visible="true" />
    <sodipodi:guide
       position="95.02427,142.20874"
       orientation="0,-1"
       id="guide1"
       inkscape:locked="false" />
    <sodipodi:guide
       position="94.893202,156.88835"
       orientation="0,-1"
       id="guide2"
       inkscape:locked="false" />
    <sodipodi:guide
       position="94.762134,159.37865"
       orientation="1,0"
       id="guide3"
       inkscape:locked="false" />
    <sodipodi:guide
       position="110.22815,157.01942"
       orientation="1,0"
       id="guide4"
       inkscape:locked="false" />
    <sodipodi:guide
       position="90.52779,147.73898"
       orientation="0,-1"
       id="guide5"
       inkscape:locked="false" />
  </sodipodi:namedview>
  <defs
     id="defs1" />
  <path
     style="fill:none;stroke:#000000;stroke-width:2;stroke-linecap:round;stroke-linejoin:round"
     d="m 98.981219,140.08437 c 0,0.90837 0.04694,0.95026 -0.278037,2.03894 -0.51384,1.72136 -1.182077,2.80409 -1.89992,4.54128 -0.829162,2.00657 -1.631119,4.45 -2.270639,6.48753 -0.826129,2.63209 -0.663757,1.99322 -1.019468,3.9852"
     id="path8" />
  <path
     style="fill:none;stroke:#000000;stroke-width:2;stroke-linecap:round;stroke-linejoin:round"
     d="m 97.266656,147.267 c 0.430638,-0.18456 0.391747,-0.19254 0.973129,-0.27804 0.992452,-0.14594 1.289815,-0.16472 1.899925,0.64876"
     id="path9" />
  <path
     style="fill:none;stroke:#000000;stroke-width:2;stroke-linecap:round;stroke-linejoin:round"
     d="m 93.976551,155.93249 c 0.587516,0.0264 1.139074,0.005 1.714561,-0.13902 0.821455,-0.20536 1.531459,-0.53448 2.224297,-1.01947 0.116668,-0.0817 0.2115,-0.19121 0.324376,-0.27803 0.334481,-0.2573 0.752861,-0.35988 1.065811,-0.64876 0.279852,-0.25833 1.036614,-1.16325 1.204824,-1.48286 0.28437,-0.54029 0.36447,-1.25758 0.41706,-1.85358 0.0868,-0.98391 0.22927,-1.96219 -0.50974,-2.78037 -0.213,-0.23583 -0.652256,-0.30655 -0.973127,-0.37072"
     id="path10" />
  <path
     style="fill:none;stroke:#000000;stroke-width:2;stroke-linecap:round;stroke-linejoin:round"
     d="m 101.39087,150.74247 c 1.42249,-0.46592 3.06297,-1.31923 3.79984,-2.6877 0.26546,-0.49299 0.43736,-1.03213 0.6951,-1.5292 0.19451,-0.37514 0.43159,-0.72171 0.60241,-1.11215 0.15487,-0.354 0.29292,-0.69424 0.50974,-1.01947 0.11653,-0.17481 0.25658,-0.33335 0.37071,-0.50974 0.47498,-0.73406 -0.24923,0.22614 0.32438,-0.60241 0.20832,-0.3009 0.42642,-0.5536 0.60241,-0.88045 0.22656,-0.42075 0.36543,-0.86173 0.55608,-1.29751 0.11632,-0.26588 0.26881,-0.51603 0.37071,-0.78777 0.0447,-0.11926 0.0498,-0.25076 0.0927,-0.37071 0.0711,-0.19914 0.18536,-0.30203 0.18536,-0.50974 0,-0.0154 0,0.0309 0,0.0463 0,0.10813 0.0351,0.22212 0,0.32438 -0.13715,0.39897 -0.34115,0.77174 -0.50974,1.15849 -0.094,0.21567 -0.17622,0.43664 -0.27803,0.64875 -0.19451,0.40521 -0.45169,0.77777 -0.60242,1.20483 -0.0424,0.12011 -0.0547,0.24914 -0.0927,0.37071 -0.15505,0.49616 -0.40145,0.95923 -0.60242,1.43653 -0.18645,0.44283 -0.29499,0.92634 -0.41705,1.39018 -0.0363,0.13772 -0.0453,0.28277 -0.0927,0.41706 -0.046,0.13028 -0.13529,0.24195 -0.18536,0.37072 -0.13496,0.34703 -0.13202,0.49521 -0.2317,0.83411 -0.17618,0.599 -0.27877,1.19877 -0.41705,1.80724 -0.11254,0.49516 -0.26835,0.98564 -0.37072,1.48286 -0.13596,0.66036 -0.22438,1.32191 -0.27804,1.9926 -0.0359,0.44887 -0.13025,0.99505 0.0463,1.43653 0.0512,0.12803 0.13581,0.24684 0.18536,0.37071 0.0392,0.0981 0.0338,0.22134 0.0927,0.32438 0.10273,0.17977 0.26799,0.32996 0.37072,0.50973 0.0242,0.0424 0.0309,0.0927 0.0463,0.13902 0.0927,0.0927 0.19757,0.17458 0.27804,0.27804 0.0225,0.0289 0.0256,0.16298 0.0927,0.18536 0.10489,0.035 0.62234,0.16284 0.74143,0.13902 0.19691,-0.0394 0.37258,-0.15015 0.55608,-0.2317 0.37265,-0.16562 0.75672,-0.30981 1.11215,-0.50974 1.2079,-0.67944 2.76178,-1.87662 3.2901,-3.19742"
     id="path11" />
</svg>
