<?xml version="1.0" encoding="UTF-8" standalone="no"?>
<!-- Created with Inkscape (http://www.inkscape.org/) -->

<svg
   width="210mm"
   height="297mm"
   viewBox="0 0 210 297"
   version="1.1"
   id="svg1"
   inkscape:version="1.4 (86a8ad7, 2024-10-11)"
   sodipodi:docname="ts.svg"
   xmlns:inkscape="http://www.inkscape.org/namespaces/inkscape"
   xmlns:sodipodi="http://sodipodi.sourceforge.net/DTD/sodipodi-0.dtd"
   xmlns="http://www.w3.org/2000/svg"
   xmlns:svg="http://www.w3.org/2000/svg">
  <sodipodi:namedview
     id="namedview1"
     pagecolor="#ffffff"
     bordercolor="#999999"
     borderopacity="1"
     inkscape:showpageshadow="2"
     inkscape:pageopacity="0"
     inkscape:pagecheckerboard="0"
     inkscape:deskcolor="#d1d1d1"
     inkscape:document-units="mm"
     showgrid="true"
     showguides="true"
     inkscape:zoom="8.0746913"
     inkscape:cx="377.84726"
     inkscape:cy="557.7303"
     inkscape:window-width="2560"
     inkscape:window-height="1351"
     inkscape:window-x="-9"
     inkscape:window-y="-9"
     inkscape:window-maximized="1"
     inkscape:current-layer="svg1">
    <inkscape:grid
       id="grid1"
       units="mm"
       originx="0"
       originy="0"
       spacingx="0.99999998"
       spacingy="1"
       empcolor="#0099e5"
       empopacity="0.30196078"
       color="#0099e5"
       opacity="0.14901961"
       empspacing="5"
       enabled="true"
       visible="true" />
    <sodipodi:guide
       position="95.02427,142.20874"
       orientation="0,-1"
       id="guide1"
       inkscape:locked="false" />
    <sodipodi:guide
       position="94.893202,156.88835"
       orientation="0,-1"
       id="guide2"
       inkscape:locked="false" />
    <sodipodi:guide
       position="94.762134,159.37865"
       orientation="1,0"
       id="guide3"
       inkscape:locked="false" />
    <sodipodi:guide
       position="110.22815,157.01942"
       orientation="1,0"
       id="guide4"
       inkscape:locked="false" />
    <sodipodi:guide
       position="90.52779,147.73898"
       orientation="0,-1"
       id="guide5"
       inkscape:locked="false" />
  </sodipodi:namedview>
  <defs
     id="defs1" />
  <path
     style="fill:none;stroke:#000000;stroke-width:2;stroke-linecap:round;stroke-linejoin:round"
     d="m 109.90049,140.20995 c -0.0328,0.0437 -0.142,0.0983 -0.0983,0.13107 0.0437,0.0328 0.11154,-0.18405 0.0983,-0.13107 -0.053,0.21182 -0.24413,0.4398 -0.36044,0.62257 -0.15823,0.24865 -0.24016,0.52179 -0.36044,0.78641 -0.0757,0.16652 -0.17446,0.31305 -0.22937,0.49151 -0.14915,0.48475 -0.23291,0.99363 -0.3932,1.47451 -0.20738,0.62214 -0.4968,1.21875 -0.72088,1.83495 -0.0308,0.0846 -0.0401,0.17573 -0.0655,0.26214 -0.1713,0.58241 -0.32166,1.16961 -0.42597,1.76942 -0.0925,0.53183 -0.1371,1.07002 -0.1966,1.60558 -0.0305,0.27484 -0.10711,0.54368 -0.13107,0.81917 -0.0114,0.13058 0.005,0.26225 0,0.39321 -0.0243,0.58392 -0.16383,1.15257 -0.16383,1.73665 0,0.0874 -0.0152,0.17608 0,0.26213 0.018,0.10205 0.0746,0.19404 0.0983,0.29491 0.071,0.3018 0.0648,0.59467 0.1966,0.8847 0.0527,0.11596 0.10653,0.23761 0.1966,0.32767 0.0345,0.0345 0.094,0.0338 0.13107,0.0655 0.0415,0.0355 0.0655,0.0874 0.0983,0.13107 0.0655,0.0655 0.12423,0.1387 0.1966,0.1966 0.37689,0.30151 1.3228,0.3831 1.70388,0.0655 0.42609,-0.35507 0.48832,-0.82805 0.55704,-1.34344"
     id="path1" />
  <path
     style="fill:none;stroke:#000000;stroke-width:2;stroke-linecap:round;stroke-linejoin:round"
     d="m 109.44175,139.84951 c -0.34396,-0.58801 -0.95203,-0.97002 -1.63835,-1.01577 -0.19617,-0.0131 -0.39345,0.01 -0.58981,0 -0.8727,-0.0436 0.21629,-0.0328 -0.65534,-0.0328 -0.74756,0 -1.26391,-0.0849 -1.86772,0.42597 -0.78175,0.66149 -1.20706,1.96709 -1.34344,2.94903 -0.0109,0.0786 -0.13536,0.82192 -0.0983,1.08131 0.0511,0.35802 0.22961,0.72652 0.36043,1.04855 0.0534,0.13154 0.09,0.27191 0.16384,0.3932 0.27943,0.45907 0.74368,0.81877 1.17961,1.11408 0.21655,0.14669 1.15317,0.80719 1.47451,0.75364 0.01,-0.002 0.38229,-0.18569 0.39321,-0.19661 0.008,-0.008 -0.008,-0.025 0,-0.0328 0.0244,-0.0244 0.0499,0.0683 0.0328,0.0983 -0.0307,0.0536 -0.0897,0.0851 -0.13107,0.13107 -0.2764,0.30711 -0.55352,0.50662 -0.85194,0.78641 -0.0874,0.0874 -0.17476,0.17475 -0.26214,0.26213 -0.0874,0.0655 -0.18162,0.1228 -0.26214,0.1966 -0.0516,0.0473 -0.0843,0.11185 -0.13107,0.16384 -0.17542,0.19491 -0.38161,0.36212 -0.55703,0.55704 -0.0365,0.0406 -0.0597,0.0925 -0.0983,0.13107 -0.0603,0.0603 -0.13896,0.10094 -0.19661,0.16383 -0.0607,0.0662 -0.23655,0.34169 -0.2949,0.42597 -0.2637,0.38091 -0.54782,0.7492 -0.78641,1.14684 -0.28579,0.47632 -0.60378,0.91774 -0.91747,1.37622 -0.036,0.0526 -0.056,0.11623 -0.0983,0.16383 -0.0465,0.0523 -0.11185,0.0843 -0.16384,0.13107 -0.3271,0.29439 -0.6232,0.62314 -0.95024,0.91748 -0.16365,0.14727 -0.35552,0.25513 -0.52427,0.3932 -0.0598,0.0489 -0.10138,0.11841 -0.16384,0.16383 -0.0592,0.0431 -0.13478,0.059 -0.1966,0.0983 -0.11248,0.0716 -0.21918,0.15187 -0.32767,0.22937 -0.191174,0.13655 0.12713,-0.004 -0.22937,0.16383 -0.291245,0.13706 -0.522795,0.18131 -0.819173,0.26214 -0.306817,0.0837 -0.629643,0.1973 -0.950244,0.22937 -0.192357,0.0192 -0.39643,0 -0.589806,0 -0.21563,0 -0.476237,0.0424 -0.688107,0 -0.06774,-0.0136 -0.128543,-0.0537 -0.196602,-0.0655 -0.184194,-0.032 -0.373202,-0.0315 -0.557037,-0.0655 -0.203722,-0.0377 -0.824447,-0.28116 -0.917477,-0.32767 -0.500703,-0.25035 -1.127948,-1.09897 -1.474515,-1.54005"
     id="path2" />
</svg>
