<?xml version="1.0" encoding="UTF-8" standalone="no"?>
<!-- Created with Inkscape (http://www.inkscape.org/) -->

<svg
   width="210mm"
   height="297mm"
   viewBox="0 0 210 297"
   version="1.1"
   id="svg1"
   inkscape:version="1.4 (86a8ad7, 2024-10-11)"
   sodipodi:docname="kZ.svg"
   xmlns:inkscape="http://www.inkscape.org/namespaces/inkscape"
   xmlns:sodipodi="http://sodipodi.sourceforge.net/DTD/sodipodi-0.dtd"
   xmlns="http://www.w3.org/2000/svg"
   xmlns:svg="http://www.w3.org/2000/svg">
  <sodipodi:namedview
     id="namedview1"
     pagecolor="#ffffff"
     bordercolor="#999999"
     borderopacity="1"
     inkscape:showpageshadow="2"
     inkscape:pageopacity="0"
     inkscape:pagecheckerboard="0"
     inkscape:deskcolor="#d1d1d1"
     inkscape:document-units="mm"
     showgrid="true"
     showguides="true"
     inkscape:zoom="5.709669"
     inkscape:cx="373.75196"
     inkscape:cy="525.16179"
     inkscape:window-width="2560"
     inkscape:window-height="1351"
     inkscape:window-x="-9"
     inkscape:window-y="-9"
     inkscape:window-maximized="1"
     inkscape:current-layer="svg1">
    <inkscape:grid
       id="grid1"
       units="mm"
       originx="0"
       originy="0"
       spacingx="0.99999998"
       spacingy="1"
       empcolor="#0099e5"
       empopacity="0.30196078"
       color="#0099e5"
       opacity="0.14901961"
       empspacing="5"
       enabled="true"
       visible="true" />
    <sodipodi:guide
       position="95.02427,142.20874"
       orientation="0,-1"
       id="guide1"
       inkscape:locked="false" />
    <sodipodi:guide
       position="94.893202,156.88835"
       orientation="0,-1"
       id="guide2"
       inkscape:locked="false" />
    <sodipodi:guide
       position="87.906074,157.65706"
       orientation="1,0"
       id="guide3"
       inkscape:locked="false" />
    <sodipodi:guide
       position="110.22815,157.01942"
       orientation="1,0"
       id="guide4"
       inkscape:locked="false" />
    <sodipodi:guide
       position="90.52779,147.73898"
       orientation="0,-1"
       id="guide5"
       inkscape:locked="false" />
  </sodipodi:namedview>
  <defs
     id="defs1" />
  <path
     style="fill:#ffffff;fill-opacity:0;stroke:#000000;stroke-width:2;stroke-linecap:round;stroke-linejoin:round"
     d="m 109.03689,130.16772 c -0.21875,-0.0547 -0.20709,-0.0327 -0.41705,-0.18536 -0.26734,-0.19443 -0.51442,-0.41653 -0.78777,-0.60242 -0.11425,-0.0777 -0.24391,-0.13052 -0.37072,-0.18535 -0.44496,-0.19242 -0.88912,-0.38803 -1.34384,-0.55608 -0.7696,-0.28441 -0.91489,-0.24056 -1.76091,-0.37071 -0.9753,-0.15005 -1.9335,-0.26804 -2.91939,-0.32438 -2.022715,-0.11559 -0.0667,0.002 -1.899919,-0.0463 -0.445219,-0.0117 -1.023506,-0.0999 -1.482862,0 -1.381051,0.30023 -2.336398,2.16354 -2.641354,3.33644 -0.191551,0.73673 0.281964,2.35029 0.556075,3.05841 0.601456,1.55377 1.695367,2.89069 3.012069,3.89252 0.354576,0.26979 0.741431,0.49429 1.112151,0.74144 0.27803,0.18535 0.56538,0.35745 0.83411,0.55607 0.0878,0.0649 0.15446,0.15446 0.2317,0.2317 0.0154,0.0154 0.0463,0.0245 0.0463,0.0463 0,0.0445 -0.16383,-0.0955 -0.37072,-0.13902 -0.68756,-0.14475 -1.388205,-0.0927 -2.085279,-0.0927 -0.565761,0 -1.199317,-0.066 -1.760903,0.0463 -1.105487,0.2211 -2.711304,1.33346 -3.429124,2.17796 -0.952945,1.12111 -1.154922,1.9617 -1.482865,3.38278 -0.187333,0.81178 -0.471445,1.70925 -0.370716,2.54867 0.17635,1.4696 1.225595,2.57555 2.177957,3.61449 0.628976,0.68615 -0.1065,-0.11203 0.370716,0.55607 0.172463,0.24145 0.373205,0.46143 0.556075,0.69509 0.279921,0.35768 0.550328,0.7507 0.880451,1.06582 0.887725,0.84737 1.355537,1.00131 2.548673,1.0658 0.150257,0.008 1.403435,0.10009 1.760905,0 0.74052,-0.20734 1.29985,-0.87668 1.7609,-1.43652 0.2377,-0.28864 0.42737,-0.61942 0.69509,-0.88045 0.35409,-0.34523 0.72797,-0.68346 1.15849,-0.92679 1.06046,-0.59939 3.2211,-1.31482 4.35592,-1.62189 0.53219,-0.144 1.08125,-0.21625 1.62188,-0.32437"
     id="path1" />
  <path
     style="fill:#ffffff;fill-opacity:0;stroke:#000000;stroke-width:2;stroke-linecap:round;stroke-linejoin:round"
     d="m 96.664242,123.17045 c 0.143084,-0.34714 0.54475,-0.39631 0.880451,-0.32438 0.165227,0.0354 0.456171,0.23276 0.324376,0.4634 -0.03832,0.067 -0.12251,0.0941 -0.185359,0.13902 -0.331067,0.23647 -0.830095,0.17172 -1.019468,-0.27804 -0.06621,-0.15724 0.0357,-0.33946 0.04634,-0.50974 0.01558,-0.24927 -0.07224,-0.25606 0.185359,-0.41705 0.303652,-0.18979 1.008301,0.0492 1.204828,0.32437 0.02693,0.0377 0,0.0927 0,0.13902 0,0.75962 -0.416357,0.77221 -1.065811,0.88045 -0.113731,0.019 -0.227832,0.0965 -0.324376,0 -0.01093,-0.0109 0.0016,-0.031 0,-0.0463 -0.01376,-0.12377 -0.03089,-0.24714 -0.04634,-0.37071 z"
     id="path2" />
  <path
     style="fill:#ffffff;fill-opacity:0;stroke:#000000;stroke-width:2;stroke-linecap:round;stroke-linejoin:round"
     d="m 104.3566,123.21679 c 0.2684,0.0259 0.81229,0.003 0.97313,0.32437 0.0484,0.0967 0,0.21626 0,0.32438 0,0.0618 0.0418,0.13981 0,0.18536 -0.20249,0.2209 -0.52085,0.42859 -0.83411,0.46339 -0.21587,0.024 -0.33839,-0.55928 -0.27803,-0.69509 0.0402,-0.0904 0.16311,-0.13532 0.18535,-0.2317 0.028,-0.12134 -0.14006,-0.2887 -0.0463,-0.37071 0.10527,-0.0921 0.27719,0.0463 0.41706,0.0463 0.0708,0 0.14583,-0.0979 0.2317,-0.0463 0.20625,0.12375 0.11464,0.10745 0.13902,0.27803 0.0252,0.17613 0.10862,0.38228 0,0.55608 -0.25221,0.40352 -0.81292,0.23279 -1.01948,-0.13902 -0.0542,-0.0976 -0.17385,-0.39376 -0.0927,-0.50973 0.0714,-0.10203 0.24465,-0.0897 0.32437,-0.18536 0.0845,-0.10139 0.0566,-0.26766 0.13902,-0.37072 0.002,-0.002 0.30064,-0.15274 0.37072,-0.0927 0.0846,0.0725 0.12357,0.18536 0.18535,0.27804"
     id="path3" />
</svg>
