<?xml version="1.0" encoding="UTF-8" standalone="no"?>
<!-- Created with Inkscape (http://www.inkscape.org/) -->

<svg
   width="210mm"
   height="297mm"
   viewBox="0 0 210 297"
   version="1.1"
   id="svg1"
   inkscape:version="1.4 (86a8ad7, 2024-10-11)"
   sodipodi:docname="uy.svg"
   xmlns:inkscape="http://www.inkscape.org/namespaces/inkscape"
   xmlns:sodipodi="http://sodipodi.sourceforge.net/DTD/sodipodi-0.dtd"
   xmlns="http://www.w3.org/2000/svg"
   xmlns:svg="http://www.w3.org/2000/svg">
  <sodipodi:namedview
     id="namedview1"
     pagecolor="#ffffff"
     bordercolor="#999999"
     borderopacity="1"
     inkscape:showpageshadow="2"
     inkscape:pageopacity="0"
     inkscape:pagecheckerboard="0"
     inkscape:deskcolor="#d1d1d1"
     inkscape:document-units="mm"
     showgrid="true"
     showguides="true"
     inkscape:zoom="8.0746913"
     inkscape:cx="377.84726"
     inkscape:cy="537.9153"
     inkscape:window-width="2560"
     inkscape:window-height="1351"
     inkscape:window-x="-9"
     inkscape:window-y="-9"
     inkscape:window-maximized="1"
     inkscape:current-layer="svg1">
    <inkscape:grid
       id="grid1"
       units="mm"
       originx="0"
       originy="0"
       spacingx="0.99999998"
       spacingy="1"
       empcolor="#0099e5"
       empopacity="0.30196078"
       color="#0099e5"
       opacity="0.14901961"
       empspacing="5"
       enabled="true"
       visible="true" />
    <sodipodi:guide
       position="95.02427,142.20874"
       orientation="0,-1"
       id="guide1"
       inkscape:locked="false" />
    <sodipodi:guide
       position="94.893202,156.88835"
       orientation="0,-1"
       id="guide2"
       inkscape:locked="false" />
    <sodipodi:guide
       position="94.762134,159.37865"
       orientation="1,0"
       id="guide3"
       inkscape:locked="false" />
    <sodipodi:guide
       position="110.22815,157.01942"
       orientation="1,0"
       id="guide4"
       inkscape:locked="false" />
    <sodipodi:guide
       position="90.52779,147.73898"
       orientation="0,-1"
       id="guide5"
       inkscape:locked="false" />
  </sodipodi:namedview>
  <defs
     id="defs1" />
  <path
     style="fill:none;stroke:#000000;stroke-width:2;stroke-linecap:round;stroke-linejoin:round"
     d="m 98.694175,140.20995 c 0.0034,0.46279 -0.117419,0.92842 -0.22937,1.37622 -0.103748,0.41499 -0.213862,0.83259 -0.32767,1.24514 -0.027,0.0979 -0.288798,0.99303 -0.327668,1.17961 -0.02019,0.0968 -0.01773,0.19715 -0.03277,0.29491 -0.02867,0.18635 -0.07417,0.37004 -0.0983,0.55703 -0.06722,0.52098 -0.05179,1.04959 -0.0983,1.57282 -0.03247,0.36525 -0.155035,0.72451 -0.22937,1.08131 -0.09038,0.43384 -0.08856,0.87412 -0.163835,1.31068 -0.09841,0.57077 -0.300665,1.08509 -0.458738,1.63835 -0.30663,1.0732 -0.348702,2.04476 -0.950243,3.04733"
     id="path15" />
  <path
     style="fill:none;stroke:#000000;stroke-width:2;stroke-linecap:round;stroke-linejoin:round"
     d="m 98.333736,147.38592 c 2.266644,-0.80044 4.644804,-1.14053 6.979374,-1.67111"
     id="path16" />
  <path
     style="fill:none;stroke:#000000;stroke-width:2;stroke-linecap:round;stroke-linejoin:round"
     d="m 106.75485,141.02912 c -0.0765,0 -0.15519,-0.0185 -0.22937,0 -0.0618,0.0155 -0.10959,0.0649 -0.16383,0.0983 -0.0804,0.0495 -0.59325,0.37086 -0.62257,0.3932 -0.11689,0.089 -0.21709,0.19814 -0.32767,0.2949 -0.63866,0.55883 -0.63462,0.4756 -1.27791,1.37622 -0.13631,0.19083 -0.21795,0.41531 -0.32768,0.62257 -0.27096,0.51182 -0.57073,1.00087 -0.7864,1.54005 -0.18693,0.46732 -0.57142,1.4209 -0.72088,1.99879 -0.10085,0.38996 -0.17216,0.78699 -0.26213,1.17961 -0.0447,0.19498 -0.17596,0.66615 -0.1966,0.85194 -0.0157,0.14112 0,0.28398 0,0.42597 0,0.15291 -0.0147,0.30654 0,0.45874 0.0617,0.63807 0.33317,1.64569 0.72087,2.16262 0.241,0.32134 0.43436,0.40024 0.78641,0.5898 0.80546,0.43371 1.53937,0.46821 2.42475,0.49151 0.15286,0.004 0.30684,0.0175 0.45874,0 0.49506,-0.0571 1.07493,-0.32801 1.47452,-0.58981 0.10336,-0.0677 0.17715,-0.17243 0.26213,-0.26213 0.49778,-0.52543 0.85167,-1.0725 1.14685,-1.73665 0.32227,-0.72512 0.44697,-1.47668 0.55704,-2.26092 0.17995,-1.28215 0.15216,-2.60141 -0.13107,-3.86651 -0.13636,-0.60909 -0.43358,-1.59482 -0.68811,-2.16262 -0.19399,-0.43276 -0.62847,-1.22876 -1.11408,-1.44175 -0.37492,-0.16444 -0.80825,-0.13107 -1.21238,-0.1966"
     id="path17" />
</svg>
