<?xml version="1.0" encoding="UTF-8" standalone="no"?>
<!-- Created with Inkscape (http://www.inkscape.org/) -->

<svg
   width="210mm"
   height="297mm"
   viewBox="0 0 210 297"
   version="1.1"
   id="svg1"
   inkscape:version="1.4 (86a8ad7, 2024-10-11)"
   sodipodi:docname="sh.svg"
   xmlns:inkscape="http://www.inkscape.org/namespaces/inkscape"
   xmlns:sodipodi="http://sodipodi.sourceforge.net/DTD/sodipodi-0.dtd"
   xmlns="http://www.w3.org/2000/svg"
   xmlns:svg="http://www.w3.org/2000/svg">
  <sodipodi:namedview
     id="namedview1"
     pagecolor="#ffffff"
     bordercolor="#999999"
     borderopacity="1"
     inkscape:showpageshadow="2"
     inkscape:pageopacity="0"
     inkscape:pagecheckerboard="0"
     inkscape:deskcolor="#d1d1d1"
     inkscape:document-units="mm"
     showgrid="true"
     showguides="true"
     inkscape:zoom="5.709669"
     inkscape:cx="373.75197"
     inkscape:cy="525.16179"
     inkscape:window-width="2560"
     inkscape:window-height="1351"
     inkscape:window-x="-9"
     inkscape:window-y="-9"
     inkscape:window-maximized="1"
     inkscape:current-layer="svg1">
    <inkscape:grid
       id="grid1"
       units="mm"
       originx="0"
       originy="0"
       spacingx="0.99999998"
       spacingy="1"
       empcolor="#0099e5"
       empopacity="0.30196078"
       color="#0099e5"
       opacity="0.14901961"
       empspacing="5"
       enabled="true"
       visible="true" />
    <sodipodi:guide
       position="95.02427,142.20874"
       orientation="0,-1"
       id="guide1"
       inkscape:locked="false" />
    <sodipodi:guide
       position="94.893202,156.88835"
       orientation="0,-1"
       id="guide2"
       inkscape:locked="false" />
    <sodipodi:guide
       position="87.906074,157.65706"
       orientation="1,0"
       id="guide3"
       inkscape:locked="false" />
    <sodipodi:guide
       position="110.22815,157.01942"
       orientation="1,0"
       id="guide4"
       inkscape:locked="false" />
    <sodipodi:guide
       position="90.52779,147.73898"
       orientation="0,-1"
       id="guide5"
       inkscape:locked="false" />
  </sodipodi:namedview>
  <defs
     id="defs1" />
  <path
     style="fill:#ffffff;fill-opacity:0;stroke:#000000;stroke-width:2;stroke-linecap:round;stroke-linejoin:round"
     d="m 110.01003,130.81647 c -0.15447,0.0618 -0.31637,0.10752 -0.4634,0.18536 -0.11743,0.0622 -0.21709,0.1533 -0.32438,0.23169 -0.68155,0.49806 -1.50011,1.04456 -1.9926,1.76091 -0.0783,0.11384 -0.11826,0.24994 -0.18535,0.37071 -0.0875,0.15747 -0.19748,0.30228 -0.27804,0.4634 -0.2543,0.50859 -0.43088,1.03642 -0.60242,1.57554 -0.21638,0.68007 -0.4346,1.38075 -0.55607,2.08528 -0.43592,2.52833 0.15545,-0.5702 -0.13902,1.34385 -0.0363,0.23621 -0.25824,1.11948 -0.27804,1.34384 -0.0258,0.29235 0,0.58697 0,0.88045 0,0.86714 0.0606,1.72946 0.0927,2.59502 0.0496,1.33962 0,2.69116 0,4.03154 0,0.86351 0.0354,1.1604 -0.0927,1.9926 -0.2007,1.30456 -0.84206,3.23012 -1.80724,4.17055 -0.74408,0.725 -1.25226,0.81135 -2.17795,1.15849"
     id="path5" />
  <path
     style="fill:#ffffff;fill-opacity:0;stroke:#000000;stroke-width:2;stroke-linecap:round;stroke-linejoin:round"
     d="m 91.335197,131.18719 c 0.272474,-0.26171 0.623766,-0.2317 0.97313,-0.2317 0.16093,0 0.892228,-0.0168 1.06581,0.0463 0.189273,0.0688 0.347774,0.20466 0.509733,0.32438 0.731687,0.54081 0.969092,1.01459 1.390187,1.80724 0.371748,0.69976 0.503833,1.00007 0.648753,1.7609 0.02948,0.15474 0.077,0.30665 0.09268,0.46339 0.07863,0.78631 -0.242208,1.86101 -0.602414,2.54868 -0.08358,0.15957 -0.191778,0.30525 -0.278038,0.46339 -0.274571,0.50338 -0.524787,1.01967 -0.78777,1.52921 -0.263387,0.51031 -0.549632,1.0321 -0.741434,1.57554 -0.174498,0.49442 -0.461436,1.34646 -0.509733,1.85358 -0.04336,0.4553 0.04558,1.06907 0.139017,1.48286 0.150379,0.66596 0.609865,1.36077 1.11215,1.80725 0.147846,0.13141 0.310697,0.24496 0.463394,0.37071 0.109932,0.0905 0.205885,0.19905 0.324376,0.27804 1.165405,0.77694 2.705976,0.74544 4.031539,0.55607 1.474803,-0.21068 2.953513,-0.44078 4.448593,-0.41705 1.34825,0.0214 1.05881,-0.0487 1.7609,0.18536"
     id="path6" />
  <path
     style="fill:#ffffff;fill-opacity:0;stroke:#000000;stroke-width:2;stroke-linecap:round;stroke-linejoin:round"
     d="m 101.34453,154.68132 c -0.6167,0.14602 -1.26759,0.13902 -1.899917,0.13902 -0.326165,0 -0.85838,0.024 -1.158486,-0.0927 -1.266256,-0.49243 -0.670243,-0.52284 -1.760903,-0.92679 -0.235799,-0.0873 -0.494866,-0.0897 -0.741434,-0.13902"
     id="path7" />
  <path
     style="fill:#ffffff;fill-opacity:0;stroke:#000000;stroke-width:2;stroke-linecap:round;stroke-linejoin:round"
     d="m 105.79313,142.12331 c -0.0389,0.55594 0.20972,1.07535 0.27804,1.62189 0.0481,0.3844 0.0733,0.77157 0.0927,1.15849 0.0116,0.2314 -0.0178,0.46407 0,0.69509 0.0287,0.37273 0.11244,0.73997 0.13902,1.11215 0.0721,1.00917 -0.0541,-0.16219 0,0.64875 0.0335,0.50241 0.0744,0.32967 0.0463,0.83411 -0.0306,0.55117 -0.048,0.28807 -0.13902,0.83411 -0.0801,0.4804 -0.15064,0.9969 -0.18535,1.48287 -0.0298,0.41782 -0.058,0.83492 -0.0927,1.25116 -0.0365,0.43781 -0.0574,0.0201 -0.13902,0.50974 -0.0152,0.0914 0.009,0.18582 0,0.27803 -0.0217,0.21707 -0.11885,0.40288 -0.18536,0.60242 -0.18583,0.5575 -0.1644,1.18387 -0.60241,1.62188 -0.0858,0.0858 -0.14932,0.18536 -0.27804,0.18536"
     id="path8" />
  <path
     style="fill:#ffffff;fill-opacity:0;stroke:#000000;stroke-width:2;stroke-linecap:round;stroke-linejoin:round"
     d="m 105.05169,142.58671 c 0.14453,0.24087 0.3795,0.62435 0.4634,0.83411 0.22227,0.55567 0.19133,1.22186 0.2317,1.80724 0.0527,0.76445 0.0867,1.55013 0.0463,2.31698 -0.0147,0.27936 -0.0772,0.55479 -0.0927,0.83411 -0.008,0.1388 0.0153,0.27889 0,0.41705 -0.0157,0.14154 -0.0693,0.27659 -0.0927,0.41706 -0.087,0.52196 -0.0904,1.05343 -0.18536,1.57554 -0.11432,0.62876 -0.42546,1.53234 -0.74143,2.08528 -0.14879,0.26038 -0.35157,0.48836 -0.50973,0.74144 -0.12667,0.20266 -0.21218,0.41744 -0.37072,0.60241 -0.24714,0.28833 -0.51419,0.28249 -0.74143,0.50973 -0.0244,0.0244 -0.0272,0.0639 -0.0463,0.0927 -0.11562,0.17342 -0.33112,0.28141 -0.50974,0.37072"
     id="path9" />
</svg>
