<?xml version="1.0" encoding="UTF-8" standalone="no"?>
<!-- Created with Inkscape (http://www.inkscape.org/) -->

<svg
   width="210mm"
   height="297mm"
   viewBox="0 0 210 297"
   version="1.1"
   id="svg1"
   inkscape:version="1.4 (86a8ad7, 2024-10-11)"
   sodipodi:docname="v.svg"
   xmlns:inkscape="http://www.inkscape.org/namespaces/inkscape"
   xmlns:sodipodi="http://sodipodi.sourceforge.net/DTD/sodipodi-0.dtd"
   xmlns="http://www.w3.org/2000/svg"
   xmlns:svg="http://www.w3.org/2000/svg">
  <sodipodi:namedview
     id="namedview1"
     pagecolor="#ffffff"
     bordercolor="#999999"
     borderopacity="1"
     inkscape:showpageshadow="2"
     inkscape:pageopacity="0"
     inkscape:pagecheckerboard="0"
     inkscape:deskcolor="#d1d1d1"
     inkscape:document-units="mm"
     showgrid="true"
     showguides="true"
     inkscape:zoom="5.709669"
     inkscape:cx="375.76609"
     inkscape:cy="532.86802"
     inkscape:window-width="2560"
     inkscape:window-height="1351"
     inkscape:window-x="-9"
     inkscape:window-y="-9"
     inkscape:window-maximized="1"
     inkscape:current-layer="svg1">
    <inkscape:grid
       id="grid1"
       units="mm"
       originx="0"
       originy="0"
       spacingx="0.99999998"
       spacingy="1"
       empcolor="#0099e5"
       empopacity="0.30196078"
       color="#0099e5"
       opacity="0.14901961"
       empspacing="5"
       enabled="true"
       visible="true" />
    <sodipodi:guide
       position="95.02427,142.20874"
       orientation="0,-1"
       id="guide1"
       inkscape:locked="false" />
    <sodipodi:guide
       position="94.893202,156.88835"
       orientation="0,-1"
       id="guide2"
       inkscape:locked="false" />
    <sodipodi:guide
       position="94.762134,159.37865"
       orientation="1,0"
       id="guide3"
       inkscape:locked="false" />
    <sodipodi:guide
       position="110.22815,157.01942"
       orientation="1,0"
       id="guide4"
       inkscape:locked="false" />
    <sodipodi:guide
       position="90.52779,147.73898"
       orientation="0,-1"
       id="guide5"
       inkscape:locked="false" />
  </sodipodi:namedview>
  <defs
     id="defs1" />
  <path
     style="fill:#ffffff;fill-opacity:0;stroke:#000000;stroke-width:2;stroke-linecap:round;stroke-linejoin:round"
     d="m 94.764322,148.93522 c 0.789895,-0.35963 1.430496,-0.93039 2.085279,-1.48286 0.656926,-0.55428 1.200065,-1.01392 1.7609,-1.66823 0.665903,-0.77688 0.08818,-0.14286 0.695095,-0.92679 0.480155,-0.6202 1.029464,-1.22148 1.436524,-1.89992 0.0888,-0.14808 0.15447,-0.30893 0.2317,-0.46339 0.16991,-0.27804 0.34063,-0.55559 0.50973,-0.83411 0.38177,-0.6288 0.75734,-1.25684 1.11215,-1.89992 0.3924,-0.71123 0.84108,-1.40412 1.20483,-2.13162 0.18345,-0.36691 0.13998,-0.40386 0.32437,-0.83411 0.16094,-0.37553 0.32531,-0.60427 0.50974,-0.97313 0.64149,-1.28298 -0.15657,0.25526 0.41705,-1.01947 0.0653,-0.14503 0.16271,-0.27377 0.2317,-0.41706 0.95939,-1.99258 -0.0272,-0.001 0.55608,-1.2975 0.0709,-0.15749 0.16367,-0.30466 0.2317,-0.4634 0.46447,-1.08379 -0.0863,0.0425 0.37071,-0.97313 0.0709,-0.15749 0.17268,-0.30109 0.2317,-0.46339 0.0653,-0.17956 0.0875,-0.37209 0.13902,-0.55608 0.0226,-0.0806 0.28635,-0.92003 0.32437,-1.06581 0.17727,-0.67953 0.27804,-1.33802 0.27804,-2.03894 0,-0.30623 0.0621,-0.72116 -0.0463,-1.01947 -0.0858,-0.23603 -0.30042,-0.50883 -0.46339,-0.69509 -0.15831,-0.18092 -0.2773,-0.37623 -0.50974,-0.46339 -0.39149,-0.14681 -0.79669,-0.0712 -1.20483,-0.0927 -0.10907,-0.006 -0.21569,-0.0355 -0.32437,-0.0463 -0.0461,-0.005 -0.0951,0.0147 -0.13902,0 -0.036,-0.012 0.002,-0.13119 -0.13902,-0.0463 -0.0562,0.0337 -0.0944,0.091 -0.13902,0.13902 -0.85283,0.91843 -0.93405,1.34405 -1.25117,2.64135 -0.0633,0.25902 -0.0854,0.52656 -0.13901,0.78777 -0.21932,1.06915 -0.48604,2.13655 -0.74144,3.19743 -0.28437,1.18125 -0.63838,2.34194 -0.92679,3.5218 -0.27929,1.14258 -0.53809,2.29061 -0.83411,3.42913 -0.13295,0.51135 -0.28891,1.01662 -0.41705,1.5292 -0.16429,0.65714 -0.243231,1.32965 -0.370721,1.9926 -0.03608,0.18763 -0.09966,0.36911 -0.139017,0.55607 -0.187857,0.89232 -0.323821,1.79531 -0.509736,2.6877 -0.191973,0.92147 -0.503523,1.81449 -0.695092,2.73403 -0.03833,0.18396 -0.05103,0.37283 -0.09268,0.55607 -0.03574,0.15726 -0.09991,0.30695 -0.13902,0.4634 -0.303578,1.21431 -0.689488,2.41956 -0.880451,3.66082 -0.02625,0.17069 -0.07361,0.33809 -0.09268,0.50973 -0.01863,0.16765 -0.04326,1.18214 0,1.29751 0.268415,0.71577 1.865612,0.74143 2.455995,0.74143 0.324382,0 0.652722,0.0506 0.973132,0 0.14475,-0.0229 0.27804,-0.0927 0.41706,-0.13901 0.48291,-0.16098 0.95858,-0.33905 1.43652,-0.50974 0.11138,-0.0398 0.41983,-0.18867 0.55608,-0.2317 0.21446,-0.0677 0.43633,-0.11147 0.64875,-0.18535 0.28737,-0.1 0.55277,-0.25487 0.83411,-0.37072 0.12204,-0.0503 0.25427,-0.0769 0.37072,-0.13902 0.11724,-0.0625 0.20713,-0.16917 0.32437,-0.2317 0.11645,-0.0621 0.25113,-0.0832 0.37072,-0.13902 0.2257,-0.10532 0.44152,-0.23255 0.64875,-0.37071 0.29248,-0.19499 0.47728,-0.36934 0.74144,-0.60242 0.24624,-0.21727 0.51797,-0.4081 0.74143,-0.64875 0.1051,-0.11319 0.17984,-0.25148 0.27804,-0.37072 0.44722,-0.54305 0.79975,-0.99409 1.15848,-1.62188 0.0926,-0.16205 0.15952,-0.33762 0.2317,-0.50973 0.48347,-1.1529 0.55607,-1.56654 0.55607,-2.78038 0,-0.44494 0.0751,-0.99945 -0.0463,-1.43652 -0.15093,-0.54331 -0.54773,-1.07672 -0.9268,-1.48286 -1.09361,-1.17173 -2.11524,-1.61619 -3.70716,-1.76091 -0.17762,-0.0161 -0.74544,-0.0917 -0.92679,-0.0463 -0.16754,0.0419 -0.31271,0.14732 -0.46339,0.2317 -0.53552,0.29989 -1.11696,0.65043 -1.52921,1.11215 -0.0429,0.048 -1.32908,1.7022 -1.80724,2.31698"
     id="path3" />
</svg>
