<?xml version="1.0" encoding="UTF-8" standalone="no"?>
<!-- Created with Inkscape (http://www.inkscape.org/) -->

<svg
   width="210mm"
   height="297mm"
   viewBox="0 0 210 297"
   version="1.1"
   id="svg1"
   inkscape:version="1.4 (86a8ad7, 2024-10-11)"
   sodipodi:docname="tvzZ.svg"
   xmlns:inkscape="http://www.inkscape.org/namespaces/inkscape"
   xmlns:sodipodi="http://sodipodi.sourceforge.net/DTD/sodipodi-0.dtd"
   xmlns="http://www.w3.org/2000/svg"
   xmlns:svg="http://www.w3.org/2000/svg">
  <sodipodi:namedview
     id="namedview1"
     pagecolor="#ffffff"
     bordercolor="#999999"
     borderopacity="1"
     inkscape:showpageshadow="2"
     inkscape:pageopacity="0"
     inkscape:pagecheckerboard="0"
     inkscape:deskcolor="#d1d1d1"
     inkscape:document-units="mm"
     showgrid="true"
     showguides="true"
     inkscape:zoom="5.7117319"
     inkscape:cx="350.15649"
     inkscape:cy="522.52103"
     inkscape:window-width="2560"
     inkscape:window-height="1351"
     inkscape:window-x="-9"
     inkscape:window-y="-9"
     inkscape:window-maximized="1"
     inkscape:current-layer="svg1">
    <inkscape:grid
       id="grid1"
       units="mm"
       originx="0"
       originy="0"
       spacingx="0.99999998"
       spacingy="1"
       empcolor="#0099e5"
       empopacity="0.30196078"
       color="#0099e5"
       opacity="0.14901961"
       empspacing="5"
       enabled="true"
       visible="true" />
    <sodipodi:guide
       position="95.02427,142.20874"
       orientation="0,-1"
       id="guide1"
       inkscape:locked="false" />
    <sodipodi:guide
       position="94.893202,156.88835"
       orientation="0,-1"
       id="guide2"
       inkscape:locked="false" />
    <sodipodi:guide
       position="87.906074,157.65706"
       orientation="1,0"
       id="guide3"
       inkscape:locked="false" />
    <sodipodi:guide
       position="110.22815,157.01942"
       orientation="1,0"
       id="guide4"
       inkscape:locked="false" />
    <sodipodi:guide
       position="90.52779,147.73898"
       orientation="0,-1"
       id="guide5"
       inkscape:locked="false" />
  </sodipodi:namedview>
  <defs
     id="defs1" />
  <path
     style="fill:#ffffff;fill-opacity:0;stroke:#000000;stroke-width:2;stroke-linecap:round;stroke-linejoin:round"
     d="m 94.591128,125.11784 c -0.03088,0.0618 -0.154408,0.15441 -0.09265,0.1853 0.06176,0.0309 0.102412,-0.25366 0.09265,-0.1853 -0.0249,0.17429 -0.108373,0.33618 -0.138967,0.50956 -0.01611,0.0912 0.0077,0.18561 0,0.27793 -0.01812,0.21761 -0.06281,0.4322 -0.09265,0.64852 -0.115448,0.837 -0.282072,1.66058 -0.370583,2.50143 -0.136488,1.29665 -0.05327,2.59182 -0.09264,3.89111 -0.03555,1.17303 -0.200385,2.35611 -0.32426,3.52054 -0.08894,0.83604 -0.298786,1.6329 -0.463227,2.4551 -0.09859,0.49296 -0.174948,0.99028 -0.277937,1.48233 -0.03607,0.17232 -0.110789,0.33577 -0.13897,0.50955 -0.06469,0.39892 -0.08485,0.80391 -0.138967,1.2044 -0.118393,0.8761 -0.305308,1.73626 -0.50955,2.59407 -0.211966,0.89026 0.03382,0.0137 -0.185293,1.06543 -0.104974,0.50388 -0.303975,0.94055 -0.463227,1.436 -0.03896,0.12122 -0.06177,0.24706 -0.09265,0.37058 -0.04632,0.15441 -0.08799,0.3103 -0.138967,0.46323 -0.184446,0.55334 -0.359966,1.11908 -0.555874,1.66762 -0.03955,0.11075 -0.101782,0.2127 -0.138967,0.32426 -0.04027,0.1208 -0.04982,0.25067 -0.09265,0.37059 -0.319236,0.89385 0.03056,-0.38098 -0.231614,0.60219 -0.08983,0.33686 -0.158549,0.69078 -0.277937,1.0191 -0.0236,0.0649 -0.07416,0.11876 -0.09265,0.18529 -0.05917,0.21302 -0.0798,0.43551 -0.138967,0.64852 -0.08941,0.32189 -0.502007,1.01533 -0.787488,1.15807 -0.14419,0.0721 -0.309504,0.0904 -0.463227,0.13897 -0.139687,0.0441 -0.27265,0.11351 -0.416906,0.13897 -0.243295,0.0429 -0.49411,0 -0.741164,0"
     id="path30" />
  <path
     style="fill:#ffffff;fill-opacity:0;stroke:#000000;stroke-width:2;stroke-linecap:round;stroke-linejoin:round"
     d="m 88.939747,126.92443 c 0.169852,-0.0772 0.347128,-0.13981 0.509551,-0.23161 0.193868,-0.10958 0.364294,-0.25705 0.555873,-0.37058 0.737603,-0.4371 1.519045,-0.76065 2.316142,-1.06543 0.585033,-0.22369 1.190413,-0.50181 1.806588,-0.64852 1.616009,-0.38476 -0.566941,0.23281 1.158068,-0.23161 0.405598,-0.1092 0.797798,-0.26517 1.204394,-0.37058 0.214005,-0.0555 0.434596,-0.0832 0.648517,-0.13897 0.141743,-0.037 0.273265,-0.11024 0.416907,-0.13897 0.244142,-0.0488 0.496348,-0.0473 0.741164,-0.0927 0.173112,-0.032 0.336606,-0.10602 0.50955,-0.13896 0.444117,-0.0846 0.894959,-0.11406 1.343359,-0.13897 1.00233,-0.0557 2.00961,-0.1399 2.96466,0.27793 0.11405,0.0499 0.21291,0.12962 0.32426,0.18529 0.0744,0.0372 0.1611,0.0486 0.23162,0.0926 0.0555,0.0347 0.0886,0.097 0.13896,0.13897 0.0428,0.0356 0.11135,0.0443 0.13897,0.0926 0.0391,0.0684 0.0247,0.15592 0.0463,0.23162 0.093,0.32564 0.16338,0.38806 0.1853,0.69484 0.037,0.51855 0,1.05488 0,1.57498 0,0.82431 -0.0464,1.60605 -0.23162,2.40878 -0.0651,0.28211 -0.0138,0.28465 -0.13897,0.55587 -0.0522,0.11304 -0.13264,0.21146 -0.18529,0.32426 -0.0558,0.11955 -0.08,0.25259 -0.13897,0.37059 -0.18242,0.36484 -0.48572,0.67057 -0.69484,1.0191 -0.20455,0.34092 -0.43194,0.75232 -0.6022,1.11174 -0.35941,0.75876 -0.084,0.35624 -0.50955,1.06543 -0.29712,0.4952 -0.63918,0.99763 -1.0191,1.436 -0.0858,0.099 -0.19531,0.17625 -0.27793,0.27794 -0.11886,0.14628 -0.19509,0.32598 -0.32426,0.46323 -0.120665,0.1282 -0.284415,0.20833 -0.416908,0.32426 -0.115038,0.10066 -0.204899,0.22877 -0.32426,0.32426 -0.227497,0.182 -0.49257,0.31131 -0.741164,0.46322 -0.277937,0.16986 -0.545568,0.35785 -0.833811,0.50956 -0.165102,0.0869 -0.348086,0.13813 -0.50955,0.23161 -0.393018,0.22754 -0.729245,0.54269 -1.111748,0.78749 -0.133897,0.0857 -0.283178,0.14564 -0.416903,0.23161 -0.01426,0.009 -0.416209,0.32426 -0.463228,0.32426 -0.01545,0 -0.01302,-0.038 0,-0.0463 0.163227,-0.10387 0.335129,-0.19422 0.509551,-0.27794 0.705728,-0.33875 0.719322,-0.2861 1.528651,-0.55587 0.310396,-0.10347 0.617638,-0.21617 0.926455,-0.32426 0.339701,-0.0927 0.682738,-0.17382 1.0191,-0.27794 0.312558,-0.0967 0.613331,-0.22937 0.926455,-0.32426 0.19716,-0.0597 0.40443,-0.0813 0.6022,-0.13897 0.4443,-0.12958 0.8758,-0.32136 1.34336,-0.37058 0.32284,-0.034 0.64927,-0.0194 0.97278,-0.0463 0.604,-0.0503 1.20107,-0.0463 1.80659,-0.0463 0.3634,0 0.50554,-0.024 0.83381,0.0463 0.49751,0.10661 0.92324,0.3693 1.38968,0.55587 0.35092,0.14037 0.70128,0.25135 1.0191,0.46323 0.3899,0.25993 0.58899,0.76237 0.88013,1.11175 0.15532,0.18638 0.39785,0.42511 0.50956,0.64852 0.0285,0.0569 0.0309,0.12352 0.0463,0.18529 0.0463,0.0618 0.10066,0.11826 0.13897,0.18529 0.0789,0.13802 0.0777,0.32023 0.13896,0.46323 0.073,0.17039 0.11601,0.0942 0.13897,0.27793 0.01,0.0766 -0.007,0.15473 0,0.23162 0.0255,0.27983 0.11353,0.55397 0.13897,0.83381 0.0644,0.7082 0.0971,1.41942 0.13897,2.13085 0,0.94595 -0.0197,-0.0505 0.0463,0.74116 0.0264,0.31656 -0.0325,0.56478 0.0463,0.88013 0.026,0.10399 0,0.2642 0,0.37059 0,0.0982 0.0431,0.56236 0,0.64852 -0.0385,0.077 -0.0621,0.13999 -0.0926,0.23161 -0.0175,0.0525 0.0245,0.1362 0,0.18529 -0.0913,0.18265 -0.18546,0.3945 -0.23161,0.6022 -0.0101,0.0452 0.0147,0.095 0,0.13896 -0.0146,0.0437 -0.12805,0.16606 -0.13897,0.23162 0,0.45215 0.0343,-0.0565 -0.0927,0.32426 -0.0345,0.10358 -0.0149,0.21968 -0.0463,0.32426 -0.0478,0.15929 -0.1396,0.30332 -0.18529,0.46322 -0.0127,0.0445 0.0147,0.095 0,0.13897 -0.0176,0.0528 -0.0677,0.0892 -0.0926,0.13897 -0.16782,0.33565 0.0243,-0.0157 -0.0463,0.23161 -0.0666,0.23304 -0.18522,0.41682 -0.32426,0.6022 -0.0499,0.0665 -0.0385,0.16848 -0.0926,0.23162 -0.0643,0.0751 -0.1572,0.12018 -0.23161,0.18529 -0.18826,0.16472 -0.36387,0.34955 -0.55587,0.50955 -0.16502,0.13751 -0.35725,0.2646 -0.50955,0.4169 -0.50579,0.50579 -0.9656,1.05515 -1.57498,1.43601 -0.0764,0.0477 -0.15441,0.0926 -0.23161,0.13897 -0.0926,0.0309 -0.19315,0.0442 -0.27794,0.0926 -0.03,0.0171 -0.0165,0.0752 -0.0463,0.0926 -0.32286,0.18833 -0.60538,0.22464 -0.92646,0.37058 -0.7643,0.38215 0.19653,-0.0819 -0.55587,0.23161 -0.23386,0.0974 -0.35218,0.20502 -0.6022,0.27794 -0.3811,0.11116 -0.78337,0.14679 -1.15807,0.27794 -0.18946,0.0663 -0.36658,0.1648 -0.55587,0.23161 -0.47615,0.16805 -1.03295,0.19967 -1.52865,0.27794 -0.485326,0.0766 -0.941415,0.20913 -1.436009,0.23161 -0.476173,0.0216 -0.959188,0 -1.436007,0 -0.507048,0 -1.02221,0.022 -1.528651,0 -0.340778,-0.0148 -0.678352,-0.0772 -1.019101,-0.0926 -0.169675,-0.008 -0.340466,0.0161 -0.509551,0 -0.156757,-0.0149 -0.306541,-0.077 -0.463227,-0.0926 -0.847905,-0.0848 -1.709087,0.0578 -2.547755,0.13897 -0.462095,0.0447 -0.926793,0.057 -1.389681,0.0926"
     id="path31" />
</svg>
