<?xml version="1.0" encoding="UTF-8" standalone="no"?>
<!-- Created with Inkscape (http://www.inkscape.org/) -->

<svg
   width="210mm"
   height="297mm"
   viewBox="0 0 210 297"
   version="1.1"
   id="svg1"
   inkscape:version="1.4 (86a8ad7, 2024-10-11)"
   sodipodi:docname="ykr.svg"
   xmlns:inkscape="http://www.inkscape.org/namespaces/inkscape"
   xmlns:sodipodi="http://sodipodi.sourceforge.net/DTD/sodipodi-0.dtd"
   xmlns="http://www.w3.org/2000/svg"
   xmlns:svg="http://www.w3.org/2000/svg">
  <sodipodi:namedview
     id="namedview1"
     pagecolor="#ffffff"
     bordercolor="#999999"
     borderopacity="1"
     inkscape:showpageshadow="2"
     inkscape:pageopacity="0"
     inkscape:pagecheckerboard="0"
     inkscape:deskcolor="#d1d1d1"
     inkscape:document-units="mm"
     showgrid="true"
     showguides="true"
     inkscape:zoom="8.0746913"
     inkscape:cx="377.84726"
     inkscape:cy="547.8228"
     inkscape:window-width="2560"
     inkscape:window-height="1351"
     inkscape:window-x="-9"
     inkscape:window-y="-9"
     inkscape:window-maximized="1"
     inkscape:current-layer="svg1">
    <inkscape:grid
       id="grid1"
       units="mm"
       originx="0"
       originy="0"
       spacingx="0.99999998"
       spacingy="1"
       empcolor="#0099e5"
       empopacity="0.30196078"
       color="#0099e5"
       opacity="0.14901961"
       empspacing="5"
       enabled="true"
       visible="true" />
    <sodipodi:guide
       position="95.02427,142.20874"
       orientation="0,-1"
       id="guide1"
       inkscape:locked="false" />
    <sodipodi:guide
       position="94.893202,156.88835"
       orientation="0,-1"
       id="guide2"
       inkscape:locked="false" />
    <sodipodi:guide
       position="94.762134,159.37865"
       orientation="1,0"
       id="guide3"
       inkscape:locked="false" />
    <sodipodi:guide
       position="110.22815,157.01942"
       orientation="1,0"
       id="guide4"
       inkscape:locked="false" />
    <sodipodi:guide
       position="90.52779,147.73898"
       orientation="0,-1"
       id="guide5"
       inkscape:locked="false" />
  </sodipodi:namedview>
  <defs
     id="defs1" />
  <path
     style="fill:none;stroke:#000000;stroke-width:2;stroke-linecap:round;stroke-linejoin:round"
     d="m 100.00485,140.53762 c -0.132334,0.0378 -0.246703,0.0553 -0.360434,0.13107 -0.129617,0.0864 -0.379384,0.35924 -0.458738,0.4915 -0.0626,0.10434 -0.09936,0.22451 -0.163835,0.32767 -0.149542,0.23927 -0.30017,0.46927 -0.425971,0.72088 -0.03556,0.0711 -0.02997,0.15824 -0.06553,0.22936 -0.01381,0.0276 -0.05172,0.0379 -0.06553,0.0655 -0.02013,0.0403 -0.01503,0.0897 -0.03277,0.13107 -0.04436,0.10351 -0.123069,0.18619 -0.163833,0.2949 -0.02582,0.10329 -0.03028,0.13535 -0.06553,0.22937 -0.01958,0.10891 -0.09245,0.1945 -0.131069,0.2949 -0.09518,0.24748 -0.16941,0.50637 -0.262136,0.75364 -0.01714,0.0457 -0.05009,0.0847 -0.06553,0.13107 -0.01762,0.0528 -0.01516,0.111 -0.03277,0.16384 -0.01545,0.0463 -0.04369,0.0874 -0.06553,0.13106 -0.04369,0.0983 -0.09898,0.19223 -0.131067,0.29491 -0.02304,0.0737 -0.01243,0.15485 -0.03277,0.22936 -0.03473,0.12733 -0.118734,0.23641 -0.163835,0.36044 -0.05845,0.16074 -0.0962,0.33369 -0.163835,0.49151 -0.115949,0.27054 -0.215747,0.54735 -0.327671,0.81917 -0.117303,0.28488 -0.262678,0.55867 -0.360437,0.85194 -0.01762,0.0528 -0.01516,0.111 -0.03277,0.16384 -0.07948,0.23845 -0.200808,0.47555 -0.262135,0.72087 -0.05894,0.23576 -0.08761,0.48187 -0.13107,0.72088 -0.0254,0.13973 -0.08268,0.28542 -0.0983,0.42597 -0.05917,0.53248 -0.0983,1.06489 -0.0983,1.60558 0,0.26214 0,0.52427 0,0.78641 0,0.10058 -0.01667,0.22769 0,0.32767 0.02968,0.17809 0.129053,0.35036 0.163835,0.52427 0.0064,0.0321 -0.01037,0.0672 0,0.0983 0.04933,0.148 0.254826,0.41866 0.360437,0.52427 0.06032,0.0603 0.149283,0.0929 0.196601,0.16384 0.01355,0.0203 0.01551,0.0483 0.03277,0.0655 0.0077,0.008 0.02402,-0.007 0.03277,0 0.344971,0.25873 -0.205034,-0.0697 0.262136,0.16384 0.352822,0.17641 0.698849,0.2075 1.081309,0.26213 0.369483,0.0528 0.774359,0.0532 1.146845,0 0.174104,-0.0249 0.352102,-0.0928 0.524272,-0.13107 0.06486,-0.0144 0.133575,-0.0117 0.196604,-0.0328 0.100629,-0.0335 0.259827,-0.1463 0.360437,-0.1966 0.32429,-0.16215 0.77071,-0.3189 1.04854,-0.55705 0.31063,-0.26625 0.60723,-0.55324 0.91747,-0.81917 0.0415,-0.0355 0.0925,-0.0597 0.13107,-0.0983 0.21669,-0.21669 0.17567,-0.22896 0.36044,-0.3932 0.21775,-0.19357 0.42024,-0.37303 0.62257,-0.58981 0.15718,-0.1684 0.29572,-0.36125 0.45874,-0.52427 0.0494,-0.0494 0.11438,-0.0816 0.16384,-0.13107 0.0603,-0.0603 0.10645,-0.13348 0.16383,-0.1966 0.10391,-0.1143 0.22434,-0.21286 0.32767,-0.32767 0.15684,-0.17426 0.11866,-0.16316 0.26214,-0.36044 0.11916,-0.16385 0.27042,-0.30087 0.3932,-0.45874 0.0391,-0.0503 0.0618,-0.11165 0.0983,-0.16383 0.18258,-0.26082 0.40711,-0.49264 0.58981,-0.75364 0.073,-0.10435 0.12355,-0.22332 0.1966,-0.32767 0.18213,-0.26019 0.43336,-0.4686 0.62257,-0.72088 0.0854,-0.11392 0.14561,-0.24526 0.22937,-0.36043 0.17856,-0.24552 0.0934,-0.0917 0.2949,-0.36044 0.25814,-0.34418 0.0155,-0.0456 0.22937,-0.3932 0.12589,-0.20456 0.30321,-0.3852 0.42597,-0.58981 0.0303,-0.0504 0.034,-0.11421 0.0655,-0.16383 0.12473,-0.196 0.30275,-0.35682 0.42597,-0.55704 0.14093,-0.22901 0.27566,-0.46265 0.42597,-0.68811 0.1252,-0.1878 0.28021,-0.35422 0.42597,-0.52427 0.14817,-0.17287 0.0566,-0.0949 0.1966,-0.29491 0.19567,-0.27952 0.41408,-0.53741 0.55704,-0.85194 0.0286,-0.0629 0.0369,-0.13371 0.0655,-0.1966 0.0373,-0.0821 0.29491,-0.42097 0.29491,-0.45874"
     id="path5" />
  <path
     style="fill:none;stroke:#000000;stroke-width:2;stroke-linecap:round;stroke-linejoin:round"
     d="m 106.65655,148.2051 c -0.19426,0.24498 -0.25684,0.54644 -0.3932,0.81917 -0.0788,0.15752 -0.1983,0.2946 -0.26214,0.45874 -0.14627,0.37614 -0.15111,0.75253 -0.16383,1.14684 -0.0374,1.15815 -0.0328,0.22626 -0.0328,0.88471 0,0.186 -0.0328,0.37104 -0.0328,0.55704 0,0.0557 0.0231,0.10899 0.0328,0.16384 0.0445,0.2524 0.0774,0.59121 0.22937,0.81917 0.0388,0.0582 0.0923,0.10564 0.13107,0.16383 0.0847,0.12707 0.1108,0.2865 0.22937,0.39321 0.27829,0.25046 0.56938,0.33895 0.91747,0.42597 0.067,0.0168 0.12822,0.0558 0.1966,0.0655 0.35798,0.0511 0.99127,-0.004 1.27792,-0.22936 0.15275,-0.12003 0.25671,-0.33592 0.36043,-0.49151 0.14339,-0.21508 0.2535,-0.3518 0.42598,-0.52427"
     id="path6" />
  <path
     style="fill:none;stroke:#000000;stroke-width:2;stroke-linecap:round;stroke-linejoin:round"
     d="m 103.87136,136.21238 c 0.34779,1.027 1.61889,1.25651 2.55582,1.34344 2.03858,0.18915 3.78665,-0.21367 5.70146,-0.85194"
     id="path7" />
</svg>
