<?xml version="1.0" encoding="UTF-8" standalone="no"?>
<!-- Created with Inkscape (http://www.inkscape.org/) -->

<svg
   width="210mm"
   height="297mm"
   viewBox="0 0 210 297"
   version="1.1"
   id="svg1"
   inkscape:version="1.4 (86a8ad7, 2024-10-11)"
   sodipodi:docname="sh.svg"
   xmlns:inkscape="http://www.inkscape.org/namespaces/inkscape"
   xmlns:sodipodi="http://sodipodi.sourceforge.net/DTD/sodipodi-0.dtd"
   xmlns="http://www.w3.org/2000/svg"
   xmlns:svg="http://www.w3.org/2000/svg">
  <sodipodi:namedview
     id="namedview1"
     pagecolor="#ffffff"
     bordercolor="#999999"
     borderopacity="1"
     inkscape:showpageshadow="2"
     inkscape:pageopacity="0"
     inkscape:pagecheckerboard="0"
     inkscape:deskcolor="#d1d1d1"
     inkscape:document-units="mm"
     showgrid="true"
     showguides="true"
     inkscape:zoom="5.709669"
     inkscape:cx="373.75197"
     inkscape:cy="525.16179"
     inkscape:window-width="2560"
     inkscape:window-height="1351"
     inkscape:window-x="-9"
     inkscape:window-y="-9"
     inkscape:window-maximized="1"
     inkscape:current-layer="svg1">
    <inkscape:grid
       id="grid1"
       units="mm"
       originx="0"
       originy="0"
       spacingx="0.99999998"
       spacingy="1"
       empcolor="#0099e5"
       empopacity="0.30196078"
       color="#0099e5"
       opacity="0.14901961"
       empspacing="5"
       enabled="true"
       visible="true" />
    <sodipodi:guide
       position="95.02427,142.20874"
       orientation="0,-1"
       id="guide1"
       inkscape:locked="false" />
    <sodipodi:guide
       position="94.893202,156.88835"
       orientation="0,-1"
       id="guide2"
       inkscape:locked="false" />
    <sodipodi:guide
       position="87.906074,157.65706"
       orientation="1,0"
       id="guide3"
       inkscape:locked="false" />
    <sodipodi:guide
       position="110.22815,157.01942"
       orientation="1,0"
       id="guide4"
       inkscape:locked="false" />
    <sodipodi:guide
       position="90.52779,147.73898"
       orientation="0,-1"
       id="guide5"
       inkscape:locked="false" />
  </sodipodi:namedview>
  <defs
     id="defs1" />
  <path
     style="fill:#ffffff;fill-opacity:0;stroke:#000000;stroke-width:2;stroke-linecap:round;stroke-linejoin:round"
     d="m 87.813395,127.98976 c 0.154464,0.0463 0.303453,0.11838 0.463394,0.13902 0.838433,0.10818 1.704988,0.0623 2.548673,0.13902 0.124023,0.0113 0.25509,8e-5 0.370718,0.0463 0.754494,0.30179 1.355619,1.99048 1.621883,2.64135 0.799965,1.95547 1.032219,4.06321 0.834112,6.16315 -0.04247,0.4502 -0.132525,0.89476 -0.185359,1.34385 -0.01844,0.15676 -0.128882,1.5531 -0.18536,1.80724 -0.07619,0.34287 -0.399245,1.19989 -0.509733,1.57555 -0.360169,1.22457 -0.569772,2.49708 -0.973129,3.70716 -0.198234,0.5947 -0.473649,1.10831 -0.741434,1.66822 -0.692028,1.44697 -1.582224,3.51943 -0.97313,5.14369 0.05525,0.14733 0.365917,0.87725 0.509736,0.97313 0.600168,0.40011 0.07108,0.0498 0.556072,0.2317 0.05215,0.0196 0.08668,0.0736 0.13902,0.0927 0.396076,0.14403 0.886672,0.1675 1.297506,0.18536 0.444781,0.0193 0.947174,0.0422 1.390187,0 0.171919,-0.0164 0.338773,-0.0682 0.509733,-0.0927 0.32593,-0.0466 0.720461,-0.0573 1.019472,-0.23169 0.287271,-0.16758 0.509936,-0.50994 0.741431,-0.74144 0.600387,-0.60038 1.128482,-1.2555 1.621882,-1.94626 0.329028,-0.46064 0.72553,-0.90728 1.019472,-1.39018 0.974235,-1.60053 -0.474141,0.55133 0.602411,-1.15849 0.253537,-0.40267 0.581918,-0.75497 0.834108,-1.15849 0.12088,-0.1934 0.20704,-0.40685 0.32438,-0.60241 0.11462,-0.19103 0.26019,-0.36266 0.37072,-0.55608 0.13709,-0.2399 0.23723,-0.49949 0.37071,-0.74143 0.23419,-0.42446 0.48314,-0.84093 0.74144,-1.25116 0.13013,-0.20668 0.28825,-0.39491 0.41705,-0.60242 0.42231,-0.68038 0.3967,-0.70159 0.6951,-1.39019 0.33541,-0.77403 0.68744,-1.54225 1.01946,-2.31697 0.50313,-1.17396 0.81447,-2.43765 1.15849,-3.66082 0.27805,-0.98863 0.55537,-1.97747 0.83411,-2.96573 0.25756,-0.91316 0.48074,-1.85059 0.83411,-2.73404 0.0898,-0.22448 0.22257,-0.42945 0.32438,-0.64875 0.68165,-1.46817 -0.15154,0.129 0.64875,-1.20483 0.0889,-0.14808 0.10959,-0.34127 0.2317,-0.46339 0.0109,-0.0109 0,0.0309 0,0.0463 0,0.0927 0.0173,0.18699 0,0.27804 -0.0449,0.23555 -0.10953,0.4676 -0.18536,0.69509 -0.33323,0.9997 -0.488,1.22316 -1.01947,2.22429 -0.44393,0.83626 -0.90704,1.66234 -1.34384,2.50234 -0.0603,0.11606 -0.8001,1.68814 -0.88045,1.85358 -0.31686,0.65235 -0.63028,1.3103 -0.88045,1.9926 -0.17828,0.48621 -0.31321,0.98726 -0.4634,1.48287 -0.39914,1.31717 -0.0846,0.25511 -0.41705,1.66822 -0.10985,0.46684 -0.27401,0.92045 -0.37072,1.39018 -0.0599,0.29102 -0.0924,0.58701 -0.13902,0.88045 -0.10788,0.67969 -0.23902,1.35606 -0.32438,2.03894 -0.0959,0.76698 -0.0541,1.545 -0.0927,2.31698 -0.008,0.15504 -0.0413,0.30824 -0.0463,0.46339 -0.0286,0.88635 0.0548,1.72437 0.18536,2.59502 0.11971,0.79807 -0.006,0.0491 0.0463,0.78777 0.0365,0.51139 0.27872,1.23967 0.4634,1.71456 0.0655,0.16851 0.12455,0.33947 0.18536,0.50974 0.0164,0.046 0.0118,0.10447 0.0463,0.13902 0.23848,0.23848 0.62949,0.18535 0.92679,0.18535 0.96407,0 2.41115,-0.52062 3.24376,-0.97313 1.01869,-0.55363 1.78527,-1.32187 2.59502,-2.13162"
     id="path1" />
  <path
     style="fill:#ffffff;fill-opacity:0;stroke:#000000;stroke-width:2;stroke-linecap:round;stroke-linejoin:round"
     d="m 95.505756,123.8192 c -0.01974,-0.47887 0.1925,-1.10457 0.556072,-1.43652 0.193921,-0.17706 0.453257,-0.2684 0.695095,-0.37072 0.162197,-0.0686 0.333835,-0.13022 0.509733,-0.13902 0.83277,-0.0416 0.925197,1.0826 1.204827,1.62188 0.124381,0.23988 0.249341,0.48325 0.417058,0.6951 0.28071,0.35458 0.733679,0.61649 1.158489,0.74143 0.58872,0.17315 1.36435,0.20367 1.94626,0 0.2952,-0.10332 0.53847,-0.32087 0.78777,-0.50973 0.89315,-0.67663 1.51318,-1.57468 2.13162,-2.50234"
     id="path2" />
</svg>
