<?xml version="1.0" encoding="UTF-8" standalone="no"?>
<!-- Created with Inkscape (http://www.inkscape.org/) -->

<svg
   width="210mm"
   height="297mm"
   viewBox="0 0 210 297"
   version="1.1"
   id="svg1"
   inkscape:version="1.4 (86a8ad7, 2024-10-11)"
   sodipodi:docname="pZ.svg"
   xmlns:inkscape="http://www.inkscape.org/namespaces/inkscape"
   xmlns:sodipodi="http://sodipodi.sourceforge.net/DTD/sodipodi-0.dtd"
   xmlns="http://www.w3.org/2000/svg"
   xmlns:svg="http://www.w3.org/2000/svg">
  <sodipodi:namedview
     id="namedview1"
     pagecolor="#ffffff"
     bordercolor="#999999"
     borderopacity="1"
     inkscape:showpageshadow="2"
     inkscape:pageopacity="0"
     inkscape:pagecheckerboard="0"
     inkscape:deskcolor="#d1d1d1"
     inkscape:document-units="mm"
     showgrid="true"
     showguides="true"
     inkscape:zoom="5.7117319"
     inkscape:cx="350.15649"
     inkscape:cy="522.52103"
     inkscape:window-width="2560"
     inkscape:window-height="1351"
     inkscape:window-x="-9"
     inkscape:window-y="-9"
     inkscape:window-maximized="1"
     inkscape:current-layer="svg1">
    <inkscape:grid
       id="grid1"
       units="mm"
       originx="0"
       originy="0"
       spacingx="0.99999998"
       spacingy="1"
       empcolor="#0099e5"
       empopacity="0.30196078"
       color="#0099e5"
       opacity="0.14901961"
       empspacing="5"
       enabled="true"
       visible="true" />
    <sodipodi:guide
       position="95.02427,142.20874"
       orientation="0,-1"
       id="guide1"
       inkscape:locked="false" />
    <sodipodi:guide
       position="94.893202,156.88835"
       orientation="0,-1"
       id="guide2"
       inkscape:locked="false" />
    <sodipodi:guide
       position="87.906074,157.65706"
       orientation="1,0"
       id="guide3"
       inkscape:locked="false" />
    <sodipodi:guide
       position="110.22815,157.01942"
       orientation="1,0"
       id="guide4"
       inkscape:locked="false" />
    <sodipodi:guide
       position="90.52779,147.73898"
       orientation="0,-1"
       id="guide5"
       inkscape:locked="false" />
  </sodipodi:namedview>
  <defs
     id="defs1" />
  <path
     style="fill:#ffffff;fill-opacity:0;stroke:#000000;stroke-width:2;stroke-linecap:round;stroke-linejoin:round"
     d="m 87.781679,150.87331 c 0,0.0772 -0.02711,0.15933 0,0.23162 0.345808,0.92215 1.210024,1.48197 1.991879,1.99188 0.448421,0.29244 0.798764,0.561 1.297038,0.78748 0.99932,0.45424 2.237544,0.69367 3.335242,0.6022 0.399386,-0.0333 0.898162,-0.24063 1.250714,-0.4169 0.522058,-0.26103 0.909138,-0.73934 1.389685,-1.06543 0.223504,-0.15166 0.47676,-0.25754 0.69484,-0.4169 0.484937,-0.35438 0.898806,-0.85196 1.297038,-1.29704 0.245047,-0.27388 0.534826,-0.57063 0.741164,-0.88013 0.338291,-0.50744 0.305061,-0.54289 0.555871,-1.06543 0.57587,-1.19971 1.09297,-2.42567 1.29704,-3.75214 0.19472,-1.26564 -0.008,-0.55334 0.18529,-1.71395 0.0493,-0.29573 0.12956,-0.58555 0.18529,-0.88013 0.10476,-0.55372 0.17585,-1.1134 0.27794,-1.66762 0.25934,-1.40786 0.53679,-2.81515 0.83381,-4.21537 0.14505,-0.68381 0.39733,-1.32606 0.6022,-1.99188 0.0423,-0.13756 0.17354,-0.48468 0.18529,-0.6022 0.0123,-0.12292 -0.0112,-0.24756 0,-0.37058 0.0143,-0.15682 0.0784,-0.30641 0.0926,-0.46323 0.0238,-0.26169 0.0201,-0.52514 0.0463,-0.78749 0.0373,-0.37279 0.12848,-0.74249 0.18529,-1.11175 0.068,-0.44174 -0.1135,0.1228 0.0463,-0.46322 0.0219,-0.0802 0.0688,-0.15197 0.0927,-0.23162 0.0556,-0.18524 0.052,-0.36644 0.0926,-0.55587 0.0759,-0.35421 0.15572,-0.71125 0.23162,-1.06542 0.15941,-0.74395 0.32194,-1.46381 0.4169,-2.2235 0.0705,-0.56432 0.0869,-1.09435 -0.13897,-1.62129 -0.0385,-0.0898 -0.034,-0.19982 -0.0926,-0.27794 -0.0207,-0.0276 -0.0639,-0.0272 -0.0927,-0.0463 -0.0714,-0.0476 -0.11652,-0.13372 -0.18529,-0.1853 -0.32128,-0.24096 -0.68741,-0.34982 -1.06542,-0.46322 -0.2207,-0.0662 -0.41676,-0.19851 -0.64852,-0.23162 -0.35455,-0.0507 -0.71034,-0.0923 -1.06543,-0.13897 -1.17429,-0.15451 -2.338913,-0.13897 -3.520529,-0.13897 -0.355142,0 -0.710726,-0.0177 -1.065424,0 -1.035979,0.0518 -2.032892,0.35267 -2.964659,0.78749 -0.106561,0.0497 -0.223422,0.0785 -0.32426,0.13897 -0.326303,0.19578 -0.487606,0.40862 -0.787487,0.64852 -0.503415,0.40273 -1.308452,0.8374 -1.667619,1.43601 -0.191148,0.31857 -0.180644,1.2863 -0.09265,1.66762 0.103788,0.44974 0.3024,0.88312 0.370583,1.34336 0.01466,0.099 0.08837,1.43533 0.09264,1.48233 0.06757,0.74323 0.206113,1.4813 0.277937,2.22349 0.02532,0.26173 0.0057,0.52769 0.04632,0.78749 0.0158,0.10113 0.288594,1.10495 0.370583,1.25071 0.509463,0.90572 1.187889,1.60342 2.084525,2.13085 0.344213,0.20248 1.696487,0.40348 1.806589,0.41691 0.601024,0.0733 1.344046,-0.0312 1.899234,-0.27794 0.101182,-0.045 0.720651,-0.46631 0.787488,-0.50955 0.410948,-0.26591 0.833985,-0.50971 1.204389,-0.83381 0.37966,-0.3322 0.66215,-0.75479 1.0191,-1.11175 0.45394,-0.45393 0.9956,-0.83566 1.43601,-1.29704 0.11533,-0.12081 0.18362,-0.27906 0.27794,-0.4169 0.10643,-0.15555 0.22154,-0.3052 0.32426,-0.46323 0.33931,-0.52202 0.69399,-1.04014 0.92645,-1.6213 0.21903,-0.54757 0.37255,-1.12482 0.6022,-1.66762 0.0807,-0.19079 0.19162,-0.36755 0.27794,-0.55587 0.28834,-0.62912 0.51112,-1.29378 0.74116,-1.94556 0.35408,-1.00324 0.55043,-1.47953 0.4169,-2.54775 -0.0148,-0.11809 10e-4,-0.36958 -0.0926,-0.46323 -0.088,-0.088 -0.13993,0.20833 -0.18529,0.32426 -0.0961,0.24571 -0.18322,0.4949 -0.27794,0.74117 -0.18511,0.48129 -0.4427,0.91925 -0.64852,1.38968 -0.22014,0.50319 -0.0718,0.22967 -0.23161,0.74116 -0.37268,1.19259 0.10514,-0.51499 -0.27794,0.78749 -0.14779,0.50251 -0.2303,1.02364 -0.37058,1.52865 -0.2166,0.77975 -0.36461,1.56529 -0.50955,2.36246 -0.0618,0.33971 -0.14915,0.67573 -0.18529,1.01911 -0.0129,0.12284 0.007,0.24726 0,0.37058 -0.0347,0.58929 -0.0926,1.16868 -0.0926,1.76026 0,0.86037 0.0153,-0.214 -0.0463,0.64852 -0.0143,0.20023 0.0167,0.40216 0,0.6022 -0.0388,0.4654 -0.10456,0.93221 -0.18529,1.38968 -0.0918,0.52024 -0.0935,1.05474 -0.18529,1.57498 -0.11335,0.64233 -0.24161,1.29162 -0.27794,1.94556 -0.009,0.15417 0.007,0.30899 0,0.46322 -0.0229,0.48058 -0.11494,0.95548 -0.13897,1.43601 -0.067,1.34033 0.0463,2.69023 0.0463,4.03008 0,1.18878 -0.27114,2.55346 0,3.70582 0.0708,0.30093 0.11464,0.76756 0.32426,1.01911 0.0713,0.0855 0.1924,0.11401 0.27794,0.18529 0.0503,0.0419 0.0834,0.10425 0.13897,0.13896 0.19661,0.12289 0.55526,0.14812 0.74117,0.1853 0.17007,0.034 0.34287,0.0913 0.50955,0.13896 0.53063,0.15161 -0.5271,-0.12937 0.4169,0.18529 0.0891,0.0297 0.18732,0.0216 0.27794,0.0463 0.0802,0.0219 0.15197,0.0687 0.23161,0.0926 0.15853,0.0476 0.66198,0.0954 0.83381,0.0463 0.67071,-0.19163 1.28198,-0.8274 1.89924,-1.15807 0.8494,-0.45504 1.77292,-0.85347 2.68672,-1.15807"
     id="path40" />
  <path
     style="fill:#ffffff;fill-opacity:0;stroke:#000000;stroke-width:2;stroke-linecap:round;stroke-linejoin:round"
     d="m 107.09828,124.88623 c 0,-0.16985 -0.0304,-0.34244 0,-0.50955 0.18433,-1.01381 1.05507,-1.34742 1.89923,-1.66762 0.66908,-0.25379 0.38448,-0.23162 0.78749,-0.23162"
     id="path41" />
</svg>
