<?xml version="1.0" encoding="UTF-8" standalone="no"?>
<!-- Created with Inkscape (http://www.inkscape.org/) -->

<svg
   width="210mm"
   height="297mm"
   viewBox="0 0 210 297"
   version="1.1"
   id="svg1"
   inkscape:version="1.4 (86a8ad7, 2024-10-11)"
   sodipodi:docname="pZ.svg"
   xmlns:inkscape="http://www.inkscape.org/namespaces/inkscape"
   xmlns:sodipodi="http://sodipodi.sourceforge.net/DTD/sodipodi-0.dtd"
   xmlns="http://www.w3.org/2000/svg"
   xmlns:svg="http://www.w3.org/2000/svg">
  <sodipodi:namedview
     id="namedview1"
     pagecolor="#ffffff"
     bordercolor="#999999"
     borderopacity="1"
     inkscape:showpageshadow="2"
     inkscape:pageopacity="0"
     inkscape:pagecheckerboard="0"
     inkscape:deskcolor="#d1d1d1"
     inkscape:document-units="mm"
     showgrid="true"
     showguides="true"
     inkscape:zoom="5.7117319"
     inkscape:cx="350.15649"
     inkscape:cy="508.51477"
     inkscape:window-width="2560"
     inkscape:window-height="1351"
     inkscape:window-x="-9"
     inkscape:window-y="-9"
     inkscape:window-maximized="1"
     inkscape:current-layer="svg1">
    <inkscape:grid
       id="grid1"
       units="mm"
       originx="0"
       originy="0"
       spacingx="0.99999998"
       spacingy="1"
       empcolor="#0099e5"
       empopacity="0.30196078"
       color="#0099e5"
       opacity="0.14901961"
       empspacing="5"
       enabled="true"
       visible="true" />
    <sodipodi:guide
       position="95.02427,142.20874"
       orientation="0,-1"
       id="guide1"
       inkscape:locked="false" />
    <sodipodi:guide
       position="94.893202,156.88835"
       orientation="0,-1"
       id="guide2"
       inkscape:locked="false" />
    <sodipodi:guide
       position="87.906074,157.65706"
       orientation="1,0"
       id="guide3"
       inkscape:locked="false" />
    <sodipodi:guide
       position="110.22815,157.01942"
       orientation="1,0"
       id="guide4"
       inkscape:locked="false" />
    <sodipodi:guide
       position="90.52779,147.73898"
       orientation="0,-1"
       id="guide5"
       inkscape:locked="false" />
  </sodipodi:namedview>
  <defs
     id="defs1" />
  <path
     style="fill:#ffffff;fill-opacity:0;stroke:#000000;stroke-width:2;stroke-linecap:round;stroke-linejoin:round"
     d="m 88.522843,131.51039 c 0.301522,-0.18751 0.582293,-0.40948 0.880134,-0.6022 0.133469,-0.0864 0.284631,-0.14343 0.416904,-0.23161 0.146487,-0.0977 0.271608,-0.22485 0.416904,-0.32426 0.148614,-0.10169 0.318262,-0.17112 0.46323,-0.27794 0.124931,-0.0921 0.682429,-0.60984 0.787487,-0.74116 0.269592,-0.33699 0.367639,-0.7816 0.555874,-1.15807 0.04979,-0.0996 0.129185,-0.18176 0.18529,-0.27794 0.05219,-0.0895 0.07957,-0.19308 0.138967,-0.27794 0.05009,-0.0716 0.133917,-0.11465 0.185293,-0.18529 0.0935,-0.12857 0.119203,-0.30449 0.231614,-0.4169 0.01093,-0.0109 0,0.0309 0,0.0463 0,0.10809 0.0067,0.21638 0,0.32426 -0.04002,0.64038 -0.03841,0.19694 -0.13897,0.83381 -0.02421,0.15328 -0.01468,0.31131 -0.04632,0.46323 -0.04586,0.22009 -0.130765,0.43041 -0.185293,0.64852 -0.08883,0.35534 -0.0045,0.22017 -0.09264,0.60219 -0.06465,0.28016 -0.15838,0.55552 -0.231617,0.83381 -0.303059,1.15164 0.0029,0.08 -0.231613,1.11175 -0.07803,0.34335 -0.206121,0.67439 -0.277937,1.0191 -0.105638,0.50707 -0.104942,1.01979 -0.18529,1.52865 -0.0222,0.14062 -0.07044,0.27629 -0.09265,0.41691 -0.07716,0.48867 -0.08439,0.99116 -0.138967,1.48233 -0.08041,0.72371 -0.174183,1.4643 -0.32426,2.17717 -0.178435,0.84756 -0.339786,1.69894 -0.509551,2.54775 -0.04117,0.20588 -0.208451,0.77205 -0.231613,0.92646 -0.01834,0.12216 0.01445,0.2479 0,0.37058 -0.01664,0.14138 -0.06176,0.27794 -0.09265,0.41691 0,0.16985 0.0097,0.33997 0,0.50955 -0.04948,0.86585 -0.183557,1.72909 -0.231613,2.59407 -0.0077,0.13876 0.0077,0.27815 0,0.41691 -0.02294,0.41299 -0.05807,0.89253 -0.138967,1.29703 -0.09225,0.46123 -0.181383,0.42805 -0.231614,0.88014 -0.01535,0.13812 0.01722,0.27901 0,0.4169 -0.143777,1.15022 -0.05995,-0.56941 -0.13897,0.69484 -0.0077,0.12329 0.0082,0.24733 0,0.37059 -0.01453,0.21788 -0.07812,0.43063 -0.09264,0.64852 -0.03563,0.53444 0,1.08544 0,1.62129 0,0.38766 -0.03252,0.81419 0,1.20439 0.05394,0.64726 0.04632,0.0244 0.04632,0.41691"
     id="path62" />
  <path
     style="fill:#ffffff;fill-opacity:0;stroke:#000000;stroke-width:2;stroke-linecap:round;stroke-linejoin:round"
     d="m 108.62693,127.89721 c -0.4478,-0.24658 -0.94432,-0.18529 -1.43601,-0.18529 -0.23402,0 -0.51524,-0.0102 -0.74116,0.0463 -0.0807,0.0202 -0.15139,0.0708 -0.23161,0.0927 -0.39893,0.1088 -0.25323,-0.0424 -0.74117,0.18529 -0.0896,0.0418 -0.1482,0.13221 -0.23161,0.18529 -0.0874,0.0556 -0.19175,0.0815 -0.27794,0.13897 -0.48429,0.32286 -0.84518,0.79885 -1.25071,1.20439 -0.20584,0.20583 -0.24474,0.14544 -0.41691,0.37058 -1.02035,1.33431 -0.0352,0.10692 -0.6022,0.88014 -0.10411,0.14197 -0.22861,0.26909 -0.32425,0.4169 -0.075,0.11595 -0.11027,0.25463 -0.1853,0.37058 -0.41205,0.63682 -0.2323,0.1808 -0.55587,0.78749 -0.0553,0.10376 -0.0836,0.2205 -0.13897,0.32426 -0.0685,0.12853 -0.16019,0.24362 -0.23161,0.37058 -0.24378,0.43338 -0.44922,0.88782 -0.64852,1.34336 -0.0724,0.16558 -0.12353,0.3397 -0.18529,0.50955 -0.15441,0.38603 -0.29437,0.77815 -0.463228,1.15807 -0.07858,0.1768 -0.194757,0.33487 -0.277937,0.50955 -0.197786,0.41536 -0.219106,0.611 -0.370583,1.06543 -0.365197,1.09559 -0.07905,0.21898 -0.463227,1.15807 -0.04168,0.10188 -0.406541,1.13112 -0.416907,1.15807 -0.230373,0.59897 -0.486733,1.18256 -0.648517,1.80659 -0.198919,0.76726 -0.310306,1.53441 -0.416907,2.31614 -0.02334,0.17105 -0.07123,0.33825 -0.09264,0.50955 -0.07498,0.59982 -0.101391,1.20533 -0.13897,1.80659 -0.0263,0.42075 0.02514,0.41376 0.04632,0.88013 0.08031,1.76689 -0.09028,-0.66642 0.04632,0.97278 0.04937,0.59249 0.07203,1.17507 0.18529,1.76026 0.150728,0.77876 0.328076,1.54487 0.509551,2.31614 0.0623,0.26479 0.08312,0.57838 0.185293,0.83381 0.07256,0.1814 0.02771,0.011 0.18529,0.23161 0.119409,0.16718 0.173106,0.3584 0.32426,0.50956 0.384508,0.38451 0.873157,0.57564 1.389692,0.69484 0.79656,0.18382 1.25503,0.0313 1.99187,-0.37058 0.26907,-0.14677 0.45697,-0.40893 0.69484,-0.6022 0.67411,-0.54771 -0.0461,0.17738 0.92646,-0.74117 0.29221,-0.27597 0.50162,-0.65338 0.74117,-0.97277 0.49195,-0.65594 1.01907,-1.2831 1.436,-1.99188 0.32611,-0.55438 0.12623,-0.35932 0.46323,-0.88014 0.30454,-0.47065 0.27376,-0.26351 0.50955,-0.78748 0.24302,-0.54005 0.14011,-0.46666 0.32426,-1.0191 0.0526,-0.15777 0.1327,-0.30546 0.18529,-0.46323 0.15762,-0.47286 0.25929,-0.96315 0.41691,-1.43601 0.17106,-0.51321 0.38242,-0.99895 0.50955,-1.52865 0.0819,-0.34123 0.22299,-1.06005 0.27793,-1.38968 0.0359,-0.2154 0.0397,-0.43668 0.0926,-0.64852 0.16358,-0.65433 0.38969,-1.29189 0.55587,-1.94556 0.12839,-0.50497 0.15621,-1.0159 0.23162,-1.52865 0.075,-0.50988 0.14689,-1.0203 0.23161,-1.52866 0.0234,-0.14041 0.0725,-0.27597 0.0926,-0.4169 0.11241,-0.78691 0.0623,-1.57296 0.0926,-2.36246 0.0404,-1.04915 0.043,-0.0544 0.13897,-1.15807 0.0134,-0.15383 -0.007,-0.30898 0,-0.46323 0.0327,-0.72034 0.0752,-0.39006 0.0463,-1.11175 -0.0161,-0.40232 -0.0759,-0.80209 -0.0926,-1.20439 -0.007,-0.1697 0.0161,-0.34046 0,-0.50955 -0.0149,-0.15676 -0.0681,-0.30769 -0.0927,-0.46323 -0.0218,-0.13811 -0.016,-0.28041 -0.0463,-0.4169 -0.14088,-0.63396 -0.53259,-1.24192 -1.0191,-1.66762 -0.20355,-0.17811 -0.72316,-0.45373 -1.0191,-0.32426 -0.27391,0.11983 -0.71937,0.55478 -0.92646,0.74116"
     id="path63" />
  <path
     style="fill:#ffffff;fill-opacity:0;stroke:#000000;stroke-width:2;stroke-linecap:round;stroke-linejoin:round"
     d="m 90.375755,140.58965 c 0.577448,-0.14378 1.138108,-0.36297 1.713941,-0.50955 0.598927,-0.15245 1.198343,-0.30742 1.806591,-0.4169 0.167164,-0.0301 0.339699,0 0.509551,0 0.03088,0 0.08516,-0.03 0.09264,0 0.03335,0.1334 -0.04488,0.9621 -0.04632,0.97278 -0.214913,1.59035 -0.187941,0.59961 -0.231616,2.08452 -0.0059,0.20065 -0.04597,0.4068 0,0.6022 0.04013,0.17057 0.321392,0.27039 0.46323,0.18529 0.320516,-0.19231 0.581104,-0.47057 0.880131,-0.69484 0.565806,-0.42436 1.166214,-0.80328 1.713944,-1.25072 1.136052,-0.92804 1.674545,-1.5399 2.640399,-2.54775"
     id="path64" />
</svg>
