<?xml version="1.0" encoding="UTF-8" standalone="no"?>
<!-- Created with Inkscape (http://www.inkscape.org/) -->

<svg
   width="210mm"
   height="297mm"
   viewBox="0 0 210 297"
   version="1.1"
   id="svg1"
   inkscape:version="1.4 (86a8ad7, 2024-10-11)"
   sodipodi:docname="ts.svg"
   xmlns:inkscape="http://www.inkscape.org/namespaces/inkscape"
   xmlns:sodipodi="http://sodipodi.sourceforge.net/DTD/sodipodi-0.dtd"
   xmlns="http://www.w3.org/2000/svg"
   xmlns:svg="http://www.w3.org/2000/svg">
  <sodipodi:namedview
     id="namedview1"
     pagecolor="#ffffff"
     bordercolor="#999999"
     borderopacity="1"
     inkscape:showpageshadow="2"
     inkscape:pageopacity="0"
     inkscape:pagecheckerboard="0"
     inkscape:deskcolor="#d1d1d1"
     inkscape:document-units="mm"
     showgrid="true"
     showguides="true"
     inkscape:zoom="5.709669"
     inkscape:cx="355.01182"
     inkscape:cy="573.67599"
     inkscape:window-width="2560"
     inkscape:window-height="1351"
     inkscape:window-x="-9"
     inkscape:window-y="-9"
     inkscape:window-maximized="1"
     inkscape:current-layer="svg1">
    <inkscape:grid
       id="grid1"
       units="mm"
       originx="0"
       originy="0"
       spacingx="0.99999998"
       spacingy="1"
       empcolor="#0099e5"
       empopacity="0.30196078"
       color="#0099e5"
       opacity="0.14901961"
       empspacing="5"
       enabled="true"
       visible="true" />
    <sodipodi:guide
       position="95.02427,142.20874"
       orientation="0,-1"
       id="guide1"
       inkscape:locked="false" />
    <sodipodi:guide
       position="94.893202,156.88835"
       orientation="0,-1"
       id="guide2"
       inkscape:locked="false" />
    <sodipodi:guide
       position="94.762134,159.37865"
       orientation="1,0"
       id="guide3"
       inkscape:locked="false" />
    <sodipodi:guide
       position="110.22815,157.01942"
       orientation="1,0"
       id="guide4"
       inkscape:locked="false" />
    <sodipodi:guide
       position="90.52779,147.73898"
       orientation="0,-1"
       id="guide5"
       inkscape:locked="false" />
  </sodipodi:namedview>
  <defs
     id="defs1" />
  <path
     style="fill:none;stroke:#000000;stroke-width:2;stroke-linecap:round;stroke-linejoin:round"
     d="m 95.598434,142.72573 c 0.123571,-0.13902 0.219361,-0.30895 0.370716,-0.41706 0.179966,-0.12854 0.403248,-0.18189 0.602413,-0.27804 0.248836,-0.12012 0.487458,-0.26187 0.741432,-0.37071 0.362011,-0.15515 1.501251,-0.5397 1.853581,-0.64876 0.958734,-0.29675 2.638554,-0.82509 3.660824,-0.55607 0.39254,0.1033 0.84384,0.50158 1.11215,0.78777 0.25632,0.27342 0.5603,0.64357 0.64875,1.01947 0.0265,0.11262 0.0759,0.65464 0.0463,0.78777 -0.14345,0.64554 -0.89786,1.50946 -1.39018,1.89992 -0.24506,0.19436 -0.5232,0.34294 -0.78778,0.50974 -0.44599,0.28117 -0.8986,0.55176 -1.34384,0.83411 -0.51928,0.3293 -0.98194,0.71516 -1.482868,1.06581 -0.147574,0.1033 -0.317362,0.17257 -0.463396,0.27804 -0.46151,0.33331 -0.82231,0.80293 -1.158486,1.25116 -0.113131,0.15084 -0.198655,0.32288 -0.324377,0.4634 -0.138568,0.15487 -0.305615,0.28181 -0.463397,0.41705 -0.100885,0.0865 -0.230417,0.13775 -0.324376,0.2317 -0.02442,0.0244 -0.02191,0.0683 -0.04634,0.0927 -0.08473,0.0847 -0.09237,-0.12814 -0.04634,-0.2317 0.305649,-0.68771 1.605981,-0.9575 2.224296,-1.20482 0.160346,-0.0641 0.305909,-0.16083 0.463394,-0.2317 0.89854,-0.40435 1.65339,-0.46952 2.64136,-0.37072 0.39968,0.04 0.89455,0.30786 1.20482,0.55608 0.0853,0.0682 0.14779,0.16177 0.2317,0.23169 0.53878,0.44898 1.08391,0.8381 1.48286,1.43653 0.45297,0.67945 0.37072,1.59276 0.37072,2.36332 0,0.74499 -0.11373,1.74507 -0.32437,2.45599 -0.0611,0.20628 -0.16613,0.3975 -0.2317,0.60241 -0.0582,0.18198 -0.0759,0.37574 -0.13902,0.55608 -0.10728,0.30651 -0.29872,0.57803 -0.41706,0.88045 -0.0712,0.18195 -0.10667,0.37724 -0.18536,0.55607 -0.14893,0.3385 -0.57327,1.03426 -0.78777,1.29751 -0.48059,0.58982 -1.12133,1.02147 -1.71456,1.48286 -0.87342,0.67933 -1.710824,1.43683 -2.641353,2.03894 -0.828995,0.53641 -1.69673,1.02979 -2.548673,1.52921 -1.574265,0.92284 0.539089,-0.33885 -1.158489,0.74143 -0.567293,0.361 -1.169146,0.65661 -1.760902,0.97313 -0.420696,0.22502 -0.822553,0.48555 -1.251167,0.69509 -0.346075,0.16919 -1.136997,0.42956 -1.529205,0.55608 -0.417798,0.13477 -1.15957,0.36633 -1.575543,0.46339 -0.774951,0.18082 -1.575877,0.26573 -2.363316,0.37072 -1.336768,0.17823 -2.680925,0.37071 -4.031539,0.37071 -0.06821,0 -0.734819,0.0778 -0.834109,-0.0463 -0.546367,-0.68295 0.122343,-1.60026 0.648753,-2.03894 0.587216,-0.48934 1.287266,-0.82826 1.946259,-1.20482 0.372631,-0.21293 0.745543,-0.4256 1.112149,-0.64876 0.267166,-0.16262 0.515171,-0.35639 0.787771,-0.50973 0.150519,-0.0847 0.314716,-0.14384 0.463396,-0.2317 0.191792,-0.11333 0.365049,-0.2561 0.556073,-0.37071 0.745778,-0.44747 -0.01709,0.11789 0.787773,-0.4634 0.495014,-0.35751 0.960842,-0.74456 1.482865,-1.06581 1.344996,-0.82769 -0.02676,0.0622 1.251167,-0.69509 0.601001,-0.35615 1.178293,-0.80436 1.807241,-1.11215 0.972527,-0.47592 2.008143,-0.88518 3.012067,-1.29751 0.602319,-0.24738 1.222571,-0.45482 1.807242,-0.74143 0.208047,-0.10198 0.355939,-0.30031 0.556075,-0.41705 0.17345,-0.10118 0.377917,-0.13906 0.556075,-0.2317 0.3502,-0.1821 0.688075,-0.38798 1.019468,-0.60242 0.129686,-0.0839 0.24343,-0.19052 0.370722,-0.27803 0.45224,-0.31092 0.26477,-0.14811 0.69509,-0.41706 0.14168,-0.0885 0.2692,-0.20022 0.41706,-0.27804 0.45585,-0.23992 0.97342,-0.37086 1.43652,-0.60241 0.46091,-0.23045 0.90247,-0.51897 1.39019,-0.69509 1.26956,-0.45846 0.82393,-0.20163 1.71456,-0.60242 0.33171,-0.14927 0.63291,-0.38215 0.97313,-0.50973 0.55665,-0.20874 1.15121,-0.32195 1.71456,-0.50973 0.56304,-0.18768 1.01799,-0.43727 1.62189,-0.50974 0.49821,-0.0598 2.13711,-0.0463 2.68769,-0.0463"
     id="path10" />
</svg>
