<?xml version="1.0" encoding="UTF-8" standalone="no"?>
<!-- Created with Inkscape (http://www.inkscape.org/) -->

<svg
   width="210mm"
   height="297mm"
   viewBox="0 0 210 297"
   version="1.1"
   id="svg1"
   inkscape:version="1.4 (86a8ad7, 2024-10-11)"
   sodipodi:docname="zh.svg"
   xmlns:inkscape="http://www.inkscape.org/namespaces/inkscape"
   xmlns:sodipodi="http://sodipodi.sourceforge.net/DTD/sodipodi-0.dtd"
   xmlns="http://www.w3.org/2000/svg"
   xmlns:svg="http://www.w3.org/2000/svg">
  <sodipodi:namedview
     id="namedview1"
     pagecolor="#ffffff"
     bordercolor="#999999"
     borderopacity="1"
     inkscape:showpageshadow="2"
     inkscape:pageopacity="0"
     inkscape:pagecheckerboard="0"
     inkscape:deskcolor="#d1d1d1"
     inkscape:document-units="mm"
     showgrid="true"
     showguides="true"
     inkscape:zoom="5.709669"
     inkscape:cx="375.67852"
     inkscape:cy="574.72684"
     inkscape:window-width="2560"
     inkscape:window-height="1351"
     inkscape:window-x="-9"
     inkscape:window-y="-9"
     inkscape:window-maximized="1"
     inkscape:current-layer="svg1">
    <inkscape:grid
       id="grid1"
       units="mm"
       originx="0"
       originy="0"
       spacingx="0.99999998"
       spacingy="1"
       empcolor="#0099e5"
       empopacity="0.30196078"
       color="#0099e5"
       opacity="0.14901961"
       empspacing="5"
       enabled="true"
       visible="true" />
    <sodipodi:guide
       position="95.02427,142.20874"
       orientation="0,-1"
       id="guide1"
       inkscape:locked="false" />
    <sodipodi:guide
       position="94.893202,156.88835"
       orientation="0,-1"
       id="guide2"
       inkscape:locked="false" />
    <sodipodi:guide
       position="94.762134,159.37865"
       orientation="1,0"
       id="guide3"
       inkscape:locked="false" />
    <sodipodi:guide
       position="110.22815,157.01942"
       orientation="1,0"
       id="guide4"
       inkscape:locked="false" />
    <sodipodi:guide
       position="90.52779,147.73898"
       orientation="0,-1"
       id="guide5"
       inkscape:locked="false" />
  </sodipodi:namedview>
  <defs
     id="defs1" />
  <path
     style="fill:none;stroke:#000000;stroke-width:2;stroke-linecap:round;stroke-linejoin:round"
     d="m 93.281456,139.85268 c 0.580078,-0.0523 1.119762,0.13649 1.668225,0.27803 0.286607,0.074 0.872035,0.13798 1.158489,0.37072 0.104888,0.0852 0.471045,0.51087 0.556072,0.69509 0.04712,0.1021 0.05486,0.21848 0.09268,0.32438 0.03956,0.11078 0.09268,0.21625 0.139017,0.32438 0.06179,0.15446 0.130704,0.30626 0.185359,0.46339 0.155662,0.44754 0.308398,0.89608 0.463394,1.34385 0.484627,1.40003 0.714616,2.87621 0.556075,4.35591 -0.05937,0.55412 -0.27037,1.06081 -0.463397,1.57555 -0.358317,0.95551 0.150291,-0.38418 -0.139017,0.55607 -0.164447,0.53445 -0.649441,1.35408 -0.97313,1.80724 -0.07012,0.0982 -0.164777,0.17766 -0.231698,0.27804 -0.05748,0.0862 -0.0796,0.19315 -0.139017,0.27804 -0.05011,0.0716 -0.131715,0.11638 -0.185359,0.18535 -0.317987,0.40884 0.07522,0.0638 -0.370716,0.50974 -0.224671,0.22467 -0.277114,0.18474 -0.556075,0.37072 -0.35306,0.23537 -0.127563,0.17219 -0.556075,0.41705 -0.102137,0.0584 -0.2208,0.0832 -0.324376,0.13902 -0.09807,0.0528 -0.179964,0.13255 -0.278038,0.18536 -0.428297,0.23062 -0.936521,0.33961 -1.390184,0.50973"
     id="path26" />
  <path
     style="fill:none;stroke:#000000;stroke-width:2;stroke-linecap:round;stroke-linejoin:round"
     d="m 110.93682,139.48196 c -0.0618,0 -0.18536,-0.0618 -0.18536,0 0,0.0618 0.24714,0 0.18536,0 -0.0876,0 -0.56103,-0.0401 -0.74144,0 -0.43442,0.0965 -0.81559,0.27033 -1.15849,0.55608 -0.62759,0.52299 -1.16156,1.5145 -1.43652,2.27063 -0.0653,0.17956 -0.0681,0.37868 -0.13902,0.55608 -0.0287,0.0717 -0.10706,0.11504 -0.13902,0.18535 -0.0869,0.19127 -0.11469,0.40456 -0.18536,0.60242 -0.0724,0.20261 -0.18332,0.39278 -0.23169,0.60241 -0.028,0.12135 -0.0219,0.2486 -0.0463,0.37072 -0.0857,0.42827 -0.27542,0.90325 -0.32438,1.34384 -0.017,0.15292 0.0142,0.35399 0,0.50974 -0.0241,0.26555 -0.10957,0.52275 -0.13902,0.78777 -0.0119,0.10747 0.006,0.21644 0,0.32438 -0.0173,0.29459 -0.0763,0.5858 -0.0927,0.88045 -0.008,0.1388 0.008,0.27825 0,0.41705 -0.0467,0.84113 -0.0409,0.0109 -0.0927,0.78778 -0.0459,0.68856 0.0309,1.78668 0.37072,2.40965 0.25937,0.47552 0.62548,0.84665 1.01947,1.20483 0.38784,0.35258 0.70465,0.70449 1.20483,0.92679 0.60597,0.26932 1.80771,0.21948 2.45599,0.18536 0.19974,-0.0105 0.33139,-0.0927 0.50974,-0.0927"
     id="path27" />
  <path
     style="fill:none;stroke:#000000;stroke-width:2;stroke-linecap:round;stroke-linejoin:round"
     d="m 98.332466,147.08164 c 0.716886,-0.50049 1.460754,-1.00109 2.038934,-1.66822 0.21985,-0.25367 0.38649,-0.575 0.60242,-0.83411 0.20081,-0.24097 0.37432,-0.4017 0.50973,-0.6951 0.13632,-0.29534 0.26093,-0.59421 0.41706,-0.88045 0.0431,-0.0791 0.10354,-0.14891 0.13902,-0.23169 0.15369,-0.35862 0.26114,-0.7396 0.37071,-1.11215 0.12453,-0.4234 0.29873,-0.82519 0.41706,-1.25117 0.0309,-0.12357 0.0618,-0.24714 0.0927,-0.37071 0.0155,-0.10813 0.0198,-0.21842 0.0463,-0.32438 0.0675,-0.27015 0.20774,-0.51833 0.27804,-0.78777 0.0436,-0.16711 0.0588,-0.3404 0.0927,-0.50974 0.17544,-0.87715 1.2e-4,0.0767 0.2317,-0.92679 0.007,-0.0301 -0.0138,-0.0651 0,-0.0927 0.042,-0.084 0.0463,0.18408 0.0463,0.27804 0,0.55241 -0.0656,0.76079 -0.2317,1.2975 -0.32009,1.03414 -0.62603,2.06575 -0.92679,3.10475 -0.23996,0.82896 -0.54814,1.64209 -0.83411,2.456 -0.10368,0.29508 -0.24478,0.57798 -0.32438,0.88045 -0.0756,0.28734 -0.0927,0.58697 -0.13901,0.88045 -0.0463,0.29348 -0.0982,0.58616 -0.13902,0.88045 -0.0364,0.26189 -0.0362,0.52948 -0.0927,0.78777 -0.0522,0.23859 -0.16744,0.45947 -0.2317,0.6951 -0.0749,0.27478 -0.12131,0.55658 -0.18536,0.83411 -0.25995,1.12647 -0.514741,2.24934 -0.741431,3.38278 -0.06118,0.3059 -0.08591,0.62846 -0.185356,0.92679 -0.01987,0.15684 -0.13725,0.27273 -0.185359,0.41706 -0.06052,0.18156 -0.06216,0.37296 -0.09268,0.55607 -0.02824,0.16947 -0.114755,0.33989 -0.13902,0.50974 -0.01966,0.13762 0.01534,0.27889 0,0.41705 -0.007,0.0633 -0.03089,0.12358 -0.04634,0.18536 0,0.0772 0.0077,0.15485 0,0.2317 -0.0096,0.0954 -0.08256,0.74143 -0.04634,0.74143 0.06369,0 -0.03733,-0.12231 -0.04634,-0.18536 -0.02833,-0.19828 -0.02214,-0.44952 0,-0.64875 0.01408,-0.1266 0.07861,-0.24412 0.09268,-0.37071 0.01024,-0.0921 -0.01659,-0.18686 0,-0.27804 0.05024,-0.27632 0.270227,-0.68208 0.417058,-0.92679 0.212267,-0.35379 0.544628,-0.63882 0.787768,-0.97313 0.68275,-1.02412 -0.24556,0.32896 0.37072,-0.4634 0.0553,-0.0711 0.0874,-0.15791 0.13902,-0.2317 0.22269,-0.31812 0.48215,-0.6387 0.74143,-0.92679 0.0731,-0.0812 0.16253,-0.14716 0.2317,-0.2317 0.36762,-0.4493 0.67937,-0.95222 1.06581,-1.39018 0.52381,-0.59366 1.12634,-1.15431 1.7609,-1.62188 0.12435,-0.0916 0.24219,-0.19236 0.37072,-0.27804 0.10361,-0.0691 0.22475,-0.11064 0.32437,-0.18536 0.0874,-0.0655 0.14282,-0.16821 0.2317,-0.2317 0.0251,-0.018 0.0618,0 0.0927,0"
     id="path28" />
</svg>
