<?xml version="1.0" encoding="UTF-8" standalone="no"?>
<!-- Created with Inkscape (http://www.inkscape.org/) -->

<svg
   width="210mm"
   height="297mm"
   viewBox="0 0 210 297"
   version="1.1"
   id="svg1"
   inkscape:version="1.4 (86a8ad7, 2024-10-11)"
   sodipodi:docname="pZ.svg"
   xmlns:inkscape="http://www.inkscape.org/namespaces/inkscape"
   xmlns:sodipodi="http://sodipodi.sourceforge.net/DTD/sodipodi-0.dtd"
   xmlns="http://www.w3.org/2000/svg"
   xmlns:svg="http://www.w3.org/2000/svg">
  <sodipodi:namedview
     id="namedview1"
     pagecolor="#ffffff"
     bordercolor="#999999"
     borderopacity="1"
     inkscape:showpageshadow="2"
     inkscape:pageopacity="0"
     inkscape:pagecheckerboard="0"
     inkscape:deskcolor="#d1d1d1"
     inkscape:document-units="mm"
     showgrid="true"
     showguides="true"
     inkscape:zoom="5.7117319"
     inkscape:cx="350.15649"
     inkscape:cy="522.52103"
     inkscape:window-width="2560"
     inkscape:window-height="1351"
     inkscape:window-x="-9"
     inkscape:window-y="-9"
     inkscape:window-maximized="1"
     inkscape:current-layer="svg1">
    <inkscape:grid
       id="grid1"
       units="mm"
       originx="0"
       originy="0"
       spacingx="0.99999998"
       spacingy="1"
       empcolor="#0099e5"
       empopacity="0.30196078"
       color="#0099e5"
       opacity="0.14901961"
       empspacing="5"
       enabled="true"
       visible="true" />
    <sodipodi:guide
       position="95.02427,142.20874"
       orientation="0,-1"
       id="guide1"
       inkscape:locked="false" />
    <sodipodi:guide
       position="94.893202,156.88835"
       orientation="0,-1"
       id="guide2"
       inkscape:locked="false" />
    <sodipodi:guide
       position="87.906074,157.65706"
       orientation="1,0"
       id="guide3"
       inkscape:locked="false" />
    <sodipodi:guide
       position="110.22815,157.01942"
       orientation="1,0"
       id="guide4"
       inkscape:locked="false" />
    <sodipodi:guide
       position="90.52779,147.73898"
       orientation="0,-1"
       id="guide5"
       inkscape:locked="false" />
  </sodipodi:namedview>
  <defs
     id="defs1" />
  <path
     style="fill:#ffffff;fill-opacity:0;stroke:#000000;stroke-width:2;stroke-linecap:round;stroke-linejoin:round"
     d="m 89.356654,128.59205 c 0.112382,0.17146 0.160427,0.38801 0.277937,0.55588 0.06916,0.0988 0.166399,0.17649 0.231613,0.27793 0.273011,0.42469 0.488538,0.98982 0.602197,1.48233 0.0491,0.21278 0.0524,0.43389 0.09264,0.64852 0.07321,0.39042 0.204875,0.7684 0.277937,1.15807 0.133273,0.71079 -0.05944,0.014 0.09265,0.92646 0.0314,0.18839 0.09602,0.36977 0.138968,0.55587 0.178633,0.77408 0.377078,1.56594 0.416906,2.36246 0.02156,0.43126 -0.01961,0.86568 0,1.29704 0.04681,1.02977 0.08456,2.07112 0.04632,3.10363 -0.07289,1.96799 -0.01833,-0.60675 -0.09265,1.25071 -0.0074,0.18514 0.01421,0.37113 0,0.55588 -0.06262,0.81407 -0.08753,0.42741 -0.18529,1.11174 -0.0707,0.4949 -0.07195,0.98548 -0.09265,1.48233 -0.09332,2.23964 0.01402,-1.22743 -0.138967,1.29704 -0.0026,0.042 0.0024,1.55164 0,1.6213 -0.01333,0.38702 -0.02336,0.77706 -0.09265,1.15807 -0.02619,0.14412 -0.10719,0.2739 -0.138969,0.4169 -0.05734,0.25801 -0.07381,0.52386 -0.09264,0.78749 -0.0066,0.0924 0.01445,0.18642 0,0.27794 -0.03213,0.20348 -0.08383,0.4037 -0.13897,0.60219 -0.126426,0.45513 -0.0613,-0.001 -0.231614,0.50955 -0.0297,0.0891 -0.01386,0.18981 -0.04632,0.27794 -0.181208,0.49185 -0.452876,0.84336 -0.694841,1.29704 -0.0855,0.16031 -0.102187,0.28748 -0.231613,0.4169"
     id="path36" />
  <path
     style="fill:#ffffff;fill-opacity:0;stroke:#000000;stroke-width:2;stroke-linecap:round;stroke-linejoin:round"
     d="m 110.10926,128.59205 c -0.24717,0.63224 -0.55212,1.25654 -0.88013,1.85291 -0.18379,0.33416 -0.43165,0.63168 -0.6022,0.97278 -0.0655,0.13102 -0.0795,0.28305 -0.13897,0.41691 -0.0646,0.14527 -0.16392,0.27306 -0.23161,0.4169 -0.0562,0.11937 -0.0861,0.24972 -0.13897,0.37058 -0.28258,0.6459 -0.097,0.091 -0.37058,0.78749 -0.39491,1.00522 -0.7242,2.03363 -1.06543,3.05731 -0.28124,0.84373 -0.57148,1.68375 -0.78748,2.54775 -0.21029,0.84115 0.0274,0.0796 -0.18529,0.97278 -0.0373,0.15682 -0.10135,0.30647 -0.13897,0.46322 -0.16471,0.68628 -0.27056,1.39459 -0.41691,2.08453 -0.1169,0.55112 -0.25698,1.10694 -0.32426,1.66762 -0.0258,0.21518 -0.0107,0.43475 -0.0463,0.64852 -0.0265,0.15902 -0.1088,0.30487 -0.13897,0.46323 -0.0808,0.42426 -0.0998,0.91294 -0.13896,1.34336 -0.10309,1.13391 -0.14694,2.28782 -0.0927,3.42789 0.0205,0.42977 0.10166,0.83257 0.18529,1.25071 0.2743,1.37152 -0.0638,-0.219 0.13897,1.06542 0.0984,0.62298 0.3269,1.29041 0.50955,1.89924 0.063,0.20988 0.26248,0.33256 0.4169,0.46323 0.59184,0.50078 1.16496,0.91935 1.99188,0.83381 0.20891,-0.0216 0.42477,-0.0729 0.6022,-0.18529 1.04154,-0.65964 0.90418,-0.99108 1.38968,-2.2235"
     id="path37" />
  <path
     style="fill:#ffffff;fill-opacity:0;stroke:#000000;stroke-width:2;stroke-linecap:round;stroke-linejoin:round"
     d="m 91.765439,138.50513 c 0.51907,-0.30314 0.860287,-0.81149 1.250714,-1.25072 0.464469,-0.52252 0.971537,-1.00612 1.436008,-1.52865 0.636355,-0.7159 0.298267,-0.48356 1.158068,-1.34336 0.349409,-0.34941 0.705617,-0.49981 1.111747,-0.78749 0.315005,-0.22312 0.617638,-0.46322 0.926455,-0.69484 0.158194,-0.11864 0.295098,-0.2665 0.46323,-0.37058 0.158636,-0.0982 0.339942,-0.15388 0.50955,-0.23162 0.200975,-0.0921 0.394184,-0.20305 0.602194,-0.27793 0.179705,-0.0647 0.374682,-0.0786 0.555874,-0.13897 0.400481,-0.13349 1.050141,-0.38443 1.389681,-0.64852 0.0439,-0.0342 0.0492,-0.10419 0.0927,-0.13897 0.0381,-0.0305 0.0983,-0.0192 0.13897,-0.0463 0.0129,-0.009 0.0155,-0.0463 0,-0.0463 -0.0358,0 -0.36996,0.53938 -0.46323,0.69484 -0.22077,0.36794 -0.42783,0.74393 -0.64852,1.11175 -0.075,0.12491 -0.17323,0.23712 -0.23161,0.37058 -0.508565,1.16243 0.2822,-0.30572 -0.231618,0.64852 -0.05902,0.10961 -0.133122,0.21123 -0.18529,0.32426 -0.142356,0.30844 -0.181205,0.66466 -0.32426,0.97278 -0.275577,0.59355 -0.480544,0.83251 -0.694841,1.38968 -0.202988,0.52777 -0.244665,0.82675 -0.463227,1.34336 -0.08072,0.19079 -0.212429,0.35934 -0.277937,0.55587 -0.0594,0.17821 -0.04962,0.37302 -0.09265,0.55588 -0.185291,0.78748 -0.254776,0.88013 -0.416907,1.52865 -0.249947,0.99979 -0.434576,2.0133 -0.694841,3.01098 -0.128378,0.49212 -0.241355,0.99126 -0.370581,1.48233 -0.171243,0.65072 -0.406333,1.28757 -0.555873,1.94556 -0.03826,0.16834 -0.05266,0.34161 -0.09265,0.50955 -0.03734,0.15682 -0.101629,0.3064 -0.138967,0.46322 -0.155903,0.65479 -0.268256,1.36615 -0.32426,2.03821 -0.0266,0.31916 0,0.65227 0,0.97278 0,0.0155 -0.0042,-0.0315 0,-0.0463 0.02683,-0.0939 0.04634,-0.19195 0.09264,-0.27793 0.03339,-0.062 0.48668,-0.66893 0.50955,-0.69485 0.569955,-0.64594 1.211885,-1.22988 1.806591,-1.85291 0.31501,-0.3045 0.579395,-0.65533 0.880131,-0.97278 0.154411,-0.15441 0.308819,-0.30881 0.46323,-0.46322 0.108085,-0.13897 0.203375,-0.28892 0.324258,-0.41691 0.288382,-0.30535 0.558331,-0.48372 0.880132,-0.74116 0.19799,-0.15839 0.78579,-0.6625 1.0191,-0.78749 0.86254,-0.46207 2.18401,-0.81615 3.14995,-1.06542 0.77828,-0.20085 0.44561,-0.004 0.78749,-0.23162"
     id="path38" />
</svg>
