<?xml version="1.0" encoding="UTF-8" standalone="no"?>
<!-- Created with Inkscape (http://www.inkscape.org/) -->

<svg
   width="210mm"
   height="297mm"
   viewBox="0 0 210 297"
   version="1.1"
   id="svg1"
   inkscape:version="1.4 (86a8ad7, 2024-10-11)"
   sodipodi:docname="eZ.svg"
   xmlns:inkscape="http://www.inkscape.org/namespaces/inkscape"
   xmlns:sodipodi="http://sodipodi.sourceforge.net/DTD/sodipodi-0.dtd"
   xmlns="http://www.w3.org/2000/svg"
   xmlns:svg="http://www.w3.org/2000/svg">
  <sodipodi:namedview
     id="namedview1"
     pagecolor="#ffffff"
     bordercolor="#999999"
     borderopacity="1"
     inkscape:showpageshadow="2"
     inkscape:pageopacity="0"
     inkscape:pagecheckerboard="0"
     inkscape:deskcolor="#d1d1d1"
     inkscape:document-units="mm"
     showgrid="true"
     showguides="true"
     inkscape:zoom="5.7117319"
     inkscape:cx="350.15649"
     inkscape:cy="522.52103"
     inkscape:window-width="2560"
     inkscape:window-height="1351"
     inkscape:window-x="-9"
     inkscape:window-y="-9"
     inkscape:window-maximized="1"
     inkscape:current-layer="svg1">
    <inkscape:grid
       id="grid1"
       units="mm"
       originx="0"
       originy="0"
       spacingx="0.99999998"
       spacingy="1"
       empcolor="#0099e5"
       empopacity="0.30196078"
       color="#0099e5"
       opacity="0.14901961"
       empspacing="5"
       enabled="true"
       visible="true" />
    <sodipodi:guide
       position="95.02427,142.20874"
       orientation="0,-1"
       id="guide1"
       inkscape:locked="false" />
    <sodipodi:guide
       position="94.893202,156.88835"
       orientation="0,-1"
       id="guide2"
       inkscape:locked="false" />
    <sodipodi:guide
       position="87.906074,157.65706"
       orientation="1,0"
       id="guide3"
       inkscape:locked="false" />
    <sodipodi:guide
       position="110.22815,157.01942"
       orientation="1,0"
       id="guide4"
       inkscape:locked="false" />
    <sodipodi:guide
       position="90.52779,147.73898"
       orientation="0,-1"
       id="guide5"
       inkscape:locked="false" />
  </sodipodi:namedview>
  <defs
     id="defs1" />
  <path
     style="fill:#ffffff;fill-opacity:0;stroke:#000000;stroke-width:2;stroke-linecap:round;stroke-linejoin:round"
     d="m 95.934489,128.31412 c 0.09265,-0.0926 0.165137,-0.21129 0.277937,-0.27794 0.232161,-0.13719 0.493652,-0.21723 0.741164,-0.32426 0.323805,-0.14002 0.648102,-0.27892 0.972778,-0.41691 1.349483,-0.57353 2.562852,-1.08743 4.030082,-1.29703 1.49213,-0.21317 1.13561,-0.18529 2.2235,-0.18529 0.24705,0 0.49795,-0.0434 0.74116,0 0.56383,0.10068 1.38253,0.70118 1.76026,1.06542 0.55065,0.53098 0.86199,0.99969 0.83382,1.76027 -0.0326,0.88118 -0.31691,1.03134 -1.06543,1.80658 -1.19108,1.23362 -1.73916,1.5242 -2.96466,2.59408 -0.53519,0.46723 -1.03673,0.97229 -1.57497,1.43601 -0.74905,0.64533 -1.513,1.27629 -2.316141,1.85291 -0.299199,0.21481 -0.622475,0.39421 -0.926455,0.60219 -0.01275,0.009 0.03606,0.0115 0.04632,0 0.116964,-0.13158 0.190312,-0.30265 0.32426,-0.4169 0.938633,-0.8006 1.323136,-0.98537 2.362466,-1.52865 1.09626,-0.57305 3.05698,-1.46366 3.84479,-1.80659 0.55603,-0.24204 2.12684,-0.71735 2.77937,-0.6022 1.31048,0.23126 1.15313,1.84239 1.29703,2.82569 0.17829,1.21829 0.12756,-0.14835 0.23162,1.20439 0.0427,0.55529 -0.02,1.11465 -0.0463,1.66763 -0.007,0.15423 0.018,0.30987 0,0.46322 -0.0131,0.11164 -0.076,0.21309 -0.0926,0.32426 -0.0892,0.59465 -0.10573,1.20831 -0.13897,1.80659 -0.0297,0.53393 -0.21633,1.0411 -0.27794,1.57498 -0.0142,0.12271 0.007,0.24724 0,0.37058 -0.0208,0.37447 -0.0896,0.74122 -0.13896,1.11174 -0.0568,0.42607 -0.0701,0.86816 -0.0926,1.29704 -0.006,0.12336 0.0136,0.24781 0,0.37059 -0.0482,0.43351 -0.0969,0.41171 -0.18529,0.78748 -0.15789,0.67104 -0.29117,1.33674 -0.50955,1.99188 -0.0356,0.10665 -0.0484,0.22094 -0.0927,0.32426 -0.28482,0.6646 -0.35771,0.69535 -0.78749,1.29704 -0.68661,0.96126 -1.47629,1.87011 -2.4551,2.54775 -0.42766,0.29608 -0.32808,0.18248 -0.78749,0.46323 -0.48816,0.29832 -0.93236,0.64417 -1.48233,0.83381 -1.16521,0.4018 -2.40566,0.36494 -3.613176,0.46323 -2.302743,0.18743 -1.939602,0.16914 -3.98376,0.55587"
     id="path22" />
</svg>
